<?xml version="1.0" encoding="utf-8"?>
<!-- Generator: Adobe Illustrator 24.0.0, SVG Export Plug-In . SVG Version: 6.00 Build 0)  -->
<svg version="1.1" id="Livello_1" xmlns="http://www.w3.org/2000/svg" xmlns:xlink="http://www.w3.org/1999/xlink" x="0px" y="0px"
	 viewBox="0 0 16 16" style="enable-background:new 0 0 16 16;" xml:space="preserve">
<style type="text/css">
	.st0{fill:#FFFFFF;}
</style>
<path class="st0" d="M12.1,0.1c0.2-0.2,0.5-0.2,0.7,0c0,0,0,0,0,0l3,3c0.2,0.2,0.2,0.5,0,0.7c0,0,0,0,0,0l-10,10
	c0,0-0.1,0.1-0.2,0.1l-5,2c-0.3,0.1-0.5,0-0.6-0.3c0-0.1,0-0.3,0-0.4l2-5c0-0.1,0.1-0.1,0.1-0.2C2.1,10.1,12.1,0.1,12.1,0.1z
	 M11.2,2.5l2.3,2.3l1.3-1.3l-2.3-2.3L11.2,2.5z M12.8,5.5l-2.3-2.3L4,9.7V10h0.5C4.8,10,5,10.2,5,10.5V11h0.5C5.8,11,6,11.2,6,11.5
	V12h0.3C6.3,12,12.8,5.5,12.8,5.5z M3,10.7l-0.1,0.1l-1.5,3.8l3.8-1.5L5.3,13C5.1,12.9,5,12.7,5,12.5V12H4.5C4.2,12,4,11.8,4,11.5
	V11H3.5C3.3,11,3.1,10.9,3,10.7z"/>
</svg>
