<svg xmlns="http://www.w3.org/2000/svg" xmlns:xlink="http://www.w3.org/1999/xlink" viewBox="0 0 230.13 206.27"><defs><style>.a,.ai,.av,.aw,.b,.ba,.bb,.bc,.bf,.bl,.c{fill:none;}.a{stroke:#ffb06d;}.a,.av,.aw,.b,.c{stroke-miterlimit:10;}.b{stroke:#b5e9fe;}.ai,.aw,.ba,.c{stroke:#ff5a72;}.d{fill:#ff5a72;}.e{fill:#ffb06d;}.f{fill:#b5e9fe;}.g{fill:#fff;}.h{fill:#1a1885;}.i{fill:url(#a);}.j{fill:#a4d4ed;}.k{fill:url(#b);}.l{fill:url(#c);}.m{fill:url(#d);}.n{fill:url(#e);}.o{fill:url(#f);}.p{fill:url(#g);}.q{fill:url(#h);}.r,.x{opacity:0.72;}.r{fill:url(#j);}.s{fill:url(#k);}.t{fill:url(#l);}.u{fill:url(#m);}.v{fill:url(#n);}.w{fill:#ffd0a8;}.x{fill:url(#o);}.aa,.ab,.y,.z{opacity:0.4;}.y{fill:url(#p);}.z{fill:url(#q);}.aa{fill:url(#r);}.ab{fill:url(#s);}.ac{fill:url(#t);}.ad{fill:url(#u);}.ae{fill:url(#v);}.af{fill:url(#w);}.ag{fill:url(#x);}.ah{fill:url(#y);}.ai,.ba,.bb,.bc,.bf,.bl{stroke-linecap:round;stroke-linejoin:round;}.ai{stroke-width:2px;}.aj{fill:url(#z);}.ak{fill:url(#aa);}.al{fill:url(#ab);}.am{fill:url(#ac);}.an{fill:url(#ad);}.ao{fill:url(#ae);}.ap{fill:url(#af);}.aq{fill:url(#ag);}.ar{fill:url(#ah);}.as{fill:url(#ai);}.at{fill:#cf2d52;}.au{fill:url(#aj);}.av{stroke:#1a1885;}.av,.aw{stroke-width:0.68px;}.ax{fill:url(#ak);}.ay{fill:url(#al);}.az{fill:url(#am);}.ba{stroke-width:0.34px;}.bb{stroke:#fab08b;}.bb,.bc{stroke-width:2.98px;}.bc{stroke:#fff;}.bd{fill:#fab08b;}.be{fill:#070d30;}.bf,.bl{stroke:#d6e9f4;}.bf{stroke-width:2.09px;}.bg{fill:#111057;}.bh{fill:url(#an);}.bi{fill:url(#ao);}.bj{fill:#56a6c7;}.bk{fill:#82d7fa;}.bl{stroke-width:2.13px;}.bm{fill:#98e1ed;}.bn{fill:url(#ap);}.bo{fill:url(#aq);}.bp{fill:url(#ar);}.bq{fill:url(#as);}.br{fill:url(#at);}.bs{fill:url(#au);}.bt{fill:url(#av);}.bu{fill:url(#aw);}.bv{fill:url(#ax);}</style><linearGradient id="a" x1="92.96" y1="232.39" x2="166.35" y2="232.39" gradientUnits="userSpaceOnUse"><stop offset="0" stop-color="#66d2fe"/><stop offset="0.34" stop-color="#52a7de"/><stop offset="0.78" stop-color="#3974b7"/><stop offset="1" stop-color="#3060a8"/></linearGradient><linearGradient id="b" x1="92.96" y1="223.13" x2="166.35" y2="223.13" xlink:href="#a"/><linearGradient id="c" x1="92.96" y1="213.88" x2="166.35" y2="213.88" xlink:href="#a"/><linearGradient id="d" x1="92.96" y1="204.62" x2="166.35" y2="204.62" xlink:href="#a"/><linearGradient id="e" x1="169.43" y1="279.67" x2="242.82" y2="279.67" xlink:href="#a"/><linearGradient id="f" x1="245.01" y1="231.68" x2="318.4" y2="231.68" xlink:href="#a"/><linearGradient id="g" x1="245.01" y1="222.43" x2="318.4" y2="222.43" xlink:href="#a"/><linearGradient id="h" x1="245.01" y1="213.17" x2="318.4" y2="213.17" xlink:href="#a"/><linearGradient id="j" x1="274.42" y1="200.83" x2="289" y2="200.83" gradientUnits="userSpaceOnUse"><stop offset="0" stop-color="#ff5a72"/><stop offset="0.15" stop-color="#ff6971"/><stop offset="0.72" stop-color="#ff9c6e"/><stop offset="1" stop-color="#ffb06d"/></linearGradient><linearGradient id="k" x1="169.43" y1="187.34" x2="242.82" y2="187.34" xlink:href="#a"/><linearGradient id="l" x1="169.43" y1="178.09" x2="242.82" y2="178.09" xlink:href="#a"/><linearGradient id="m" x1="176.14" y1="193.3" x2="221.69" y2="231.11" gradientUnits="userSpaceOnUse"><stop offset="0" stop-color="#ffe62a"/><stop offset="1" stop-color="#f4617e"/></linearGradient><linearGradient id="n" x1="174.82" y1="194.89" x2="220.37" y2="232.7" xlink:href="#m"/><linearGradient id="o" x1="194.37" y1="188.84" x2="217.88" y2="188.84" xlink:href="#j"/><linearGradient id="p" x1="194.5" y1="162.36" x2="217.88" y2="162.36" xlink:href="#j"/><linearGradient id="q" x1="194.5" y1="157.17" x2="217.88" y2="157.17" xlink:href="#j"/><linearGradient id="r" x1="194.5" y1="95.59" x2="217.88" y2="95.59" xlink:href="#j"/><linearGradient id="s" x1="200.72" y1="108.23" x2="211.66" y2="108.23" xlink:href="#j"/><linearGradient id="t" x1="82.43" y1="38.46" x2="135.43" y2="70.55" gradientUnits="userSpaceOnUse"><stop offset="0" stop-color="#ffe62a"/><stop offset="1" stop-color="#f42c53"/></linearGradient><linearGradient id="u" x1="83.89" y1="36.04" x2="136.89" y2="68.13" xlink:href="#m"/><linearGradient id="v" x1="80.86" y1="41.05" x2="133.86" y2="73.13" gradientUnits="userSpaceOnUse"><stop offset="0" stop-color="#ffb82a"/><stop offset="1" stop-color="#f4617e"/></linearGradient><linearGradient id="w" x1="129.63" y1="6.75" x2="210.34" y2="55.61" gradientUnits="userSpaceOnUse"><stop offset="0" stop-color="#ffbc2a"/><stop offset="1" stop-color="#f4617e"/></linearGradient><linearGradient id="x" x1="140.06" y1="6.36" x2="193.06" y2="38.44" xlink:href="#m"/><linearGradient id="y" x1="132.65" y1="12.11" x2="203.71" y2="55.13" gradientUnits="userSpaceOnUse"><stop offset="0" stop-color="#ffd12a"/><stop offset="1" stop-color="#f4617e"/></linearGradient><linearGradient id="z" x1="101.05" y1="15.19" x2="154.04" y2="47.28" xlink:href="#t"/><linearGradient id="aa" x1="102.51" y1="12.77" x2="155.51" y2="44.85" xlink:href="#m"/><linearGradient id="ab" x1="99.48" y1="17.77" x2="152.48" y2="49.86" xlink:href="#v"/><linearGradient id="ac" x1="101.32" y1="36.65" x2="154.32" y2="68.73" xlink:href="#w"/><linearGradient id="ad" x1="102.78" y1="34.22" x2="155.78" y2="66.31" xlink:href="#m"/><linearGradient id="ae" x1="99.75" y1="39.23" x2="152.75" y2="71.32" xlink:href="#y"/><linearGradient id="af" x1="93.85" y1="18.8" x2="146.85" y2="50.88" gradientUnits="userSpaceOnUse"><stop offset="0" stop-color="#ffad2a"/><stop offset="1" stop-color="#f4617e"/></linearGradient><linearGradient id="ag" x1="95.31" y1="16.37" x2="148.31" y2="48.46" xlink:href="#m"/><linearGradient id="ah" x1="92.28" y1="21.38" x2="145.28" y2="53.46" gradientUnits="userSpaceOnUse"><stop offset="0" stop-color="#ffcd2a"/><stop offset="1" stop-color="#f4617e"/></linearGradient><linearGradient id="ai" x1="237.34" y1="154.28" x2="314.81" y2="187.68" gradientUnits="userSpaceOnUse"><stop offset="0" stop-color="#fff"/><stop offset="0.23" stop-color="#cad6e9"/><stop offset="0.6" stop-color="#7897c6"/><stop offset="0.87" stop-color="#446fb0"/><stop offset="1" stop-color="#3060a8"/></linearGradient><linearGradient id="aj" x1="151.24" y1="71.04" x2="186.45" y2="71.04" xlink:href="#t"/><linearGradient id="ak" x1="122.85" y1="138.95" x2="206.5" y2="192.81" xlink:href="#ai"/><linearGradient id="al" x1="134.29" y1="160.55" x2="168.73" y2="160.55" gradientUnits="userSpaceOnUse"><stop offset="0" stop-color="#ff5a72"/><stop offset="0.23" stop-color="#ca5c80"/><stop offset="0.6" stop-color="#785e95"/><stop offset="0.87" stop-color="#445fa3"/><stop offset="1" stop-color="#3060a8"/></linearGradient><linearGradient id="am" x1="719.22" y1="-2675.22" x2="758.98" y2="-2675.22" gradientTransform="matrix(0.87, 0.5, 0, 1.15, -488.55, 2882.53)" gradientUnits="userSpaceOnUse"><stop offset="0" stop-color="#02007d"/><stop offset="0.23" stop-color="#0e1988"/><stop offset="0.75" stop-color="#264c9f"/><stop offset="1" stop-color="#3060a8"/></linearGradient><linearGradient id="an" x1="250.97" y1="199.77" x2="277.42" y2="199.77" gradientUnits="userSpaceOnUse"><stop offset="0" stop-color="#66d2fe"/><stop offset="0.43" stop-color="#4792c3"/><stop offset="0.81" stop-color="#2f5e94"/><stop offset="1" stop-color="#254a82"/></linearGradient><linearGradient id="ao" x1="256.23" y1="191.22" x2="290.6" y2="212.99" xlink:href="#ai"/><linearGradient id="ap" x1="120.41" y1="167.19" x2="173.41" y2="199.28" xlink:href="#w"/><linearGradient id="aq" x1="121.88" y1="164.77" x2="174.88" y2="196.86" xlink:href="#m"/><linearGradient id="ar" x1="118.85" y1="169.78" x2="171.85" y2="201.86" xlink:href="#y"/><linearGradient id="as" x1="82.87" y1="166.82" x2="135.87" y2="198.91" xlink:href="#t"/><linearGradient id="at" x1="84.33" y1="164.4" x2="137.33" y2="196.48" xlink:href="#m"/><linearGradient id="au" x1="81.3" y1="169.4" x2="134.3" y2="201.49" xlink:href="#v"/><linearGradient id="av" x1="94.29" y1="147.15" x2="147.28" y2="179.24" xlink:href="#af"/><linearGradient id="aw" x1="95.75" y1="144.73" x2="148.75" y2="176.81" xlink:href="#m"/><linearGradient id="ax" x1="92.72" y1="149.73" x2="145.72" y2="181.82" xlink:href="#v"/></defs><title>2584950</title><path class="a" d="M180.51,257.19" transform="translate(-90.62 -88.81)"/><path class="a" d="M195.48,227.79l43.59-25.4a1.14,1.14,0,0,0,0-2L211,183.85" transform="translate(-90.62 -88.81)"/><line class="b" x1="130.17" y1="166.52" x2="170.08" y2="143.33"/><line class="b" x1="59.65" y1="122.53" x2="99.56" y2="99.34"/><line class="c" x1="126.94" y1="164.53" x2="166.85" y2="141.34"/><path class="d" d="M228.75,246.84a.66.66,0,0,1,0,1.25,2.37,2.37,0,0,1-2.17,0,.66.66,0,0,1,0-1.25A2.37,2.37,0,0,1,228.75,246.84Z" transform="translate(-90.62 -88.81)"/><path class="d" d="M232,244.93c.61.35.61.91,0,1.26a2.44,2.44,0,0,1-2.17,0,.67.67,0,0,1,0-1.26A2.35,2.35,0,0,1,232,244.93Z" transform="translate(-90.62 -88.81)"/><path class="d" d="M235.32,243a.67.67,0,0,1,0,1.26,2.37,2.37,0,0,1-2.17,0c-.61-.35-.61-.91,0-1.26A2.44,2.44,0,0,1,235.32,243Z" transform="translate(-90.62 -88.81)"/><path class="c" d="M196.94,223.22l35.46-20.67a1.14,1.14,0,0,0,0-2L204.32,184" transform="translate(-90.62 -88.81)"/><path class="d" d="M224.43,207a.67.67,0,0,1,0,1.26,2.37,2.37,0,0,1-2.17,0c-.61-.35-.61-.91,0-1.26A2.44,2.44,0,0,1,224.43,207Z" transform="translate(-90.62 -88.81)"/><path class="d" d="M227.71,205.05a.66.66,0,0,1,0,1.25,2.37,2.37,0,0,1-2.17,0,.66.66,0,0,1,0-1.25A2.37,2.37,0,0,1,227.71,205.05Z" transform="translate(-90.62 -88.81)"/><path class="d" d="M231,203.14a.67.67,0,0,1,0,1.26,2.44,2.44,0,0,1-2.17,0,.67.67,0,0,1,0-1.26A2.37,2.37,0,0,1,231,203.14Z" transform="translate(-90.62 -88.81)"/><path class="d" d="M227.6,196.34c.61.35.61.91,0,1.26a2.37,2.37,0,0,1-2.17,0,.67.67,0,0,1,0-1.26A2.37,2.37,0,0,1,227.6,196.34Z" transform="translate(-90.62 -88.81)"/><path class="d" d="M224.32,194.43c.6.35.61.91,0,1.26a2.37,2.37,0,0,1-2.17,0c-.6-.35-.61-.91,0-1.26A2.37,2.37,0,0,1,224.32,194.43Z" transform="translate(-90.62 -88.81)"/><path class="c" d="M218.12,215.5l-53.91,31.42a4,4,0,0,1-4,0l-19.26-11.27" transform="translate(-90.62 -88.81)"/><path class="d" d="M157.14,244a.66.66,0,0,1,0,1.25,2.37,2.37,0,0,1-2.17,0,.66.66,0,0,1,0-1.25A2.37,2.37,0,0,1,157.14,244Z" transform="translate(-90.62 -88.81)"/><path class="d" d="M153.86,242.07a.66.66,0,0,1,0,1.25,2.37,2.37,0,0,1-2.17,0,.66.66,0,0,1,0-1.25A2.37,2.37,0,0,1,153.86,242.07Z" transform="translate(-90.62 -88.81)"/><line class="a" x1="133.4" y1="168.5" x2="173.31" y2="145.31"/><path class="e" d="M252,241a.67.67,0,0,1,0,1.26,2.44,2.44,0,0,1-2.17,0c-.6-.35-.61-.91,0-1.26A2.37,2.37,0,0,1,252,241Z" transform="translate(-90.62 -88.81)"/><path class="e" d="M255.32,239.13c.6.35.61.91,0,1.26a2.37,2.37,0,0,1-2.17,0,.67.67,0,0,1,0-1.26A2.37,2.37,0,0,1,255.32,239.13Z" transform="translate(-90.62 -88.81)"/><path class="e" d="M258.61,237.22a.67.67,0,0,1,0,1.26,2.37,2.37,0,0,1-2.17,0,.67.67,0,0,1,0-1.26A2.44,2.44,0,0,1,258.61,237.22Z" transform="translate(-90.62 -88.81)"/><path class="a" d="M215.85,213.09l-51.64,30.1a4,4,0,0,1-4,0l-19.26-11.27" transform="translate(-90.62 -88.81)"/><ellipse class="e" cx="177.66" cy="235.31" rx="0.89" ry="1.53" transform="translate(-148.78 323.49) rotate(-89.84)"/><path class="e" d="M182,232.78c.6.35.61.91,0,1.25a2.37,2.37,0,0,1-2.17,0,.66.66,0,0,1,0-1.25A2.37,2.37,0,0,1,182,232.78Z" transform="translate(-90.62 -88.81)"/><path class="e" d="M185.31,230.87a.67.67,0,0,1,0,1.26,2.44,2.44,0,0,1-2.17,0,.67.67,0,0,1,0-1.26A2.37,2.37,0,0,1,185.31,230.87Z" transform="translate(-90.62 -88.81)"/><line class="a" x1="62.88" y1="124.52" x2="102.8" y2="101.33"/><path class="e" d="M182.14,196.74a.67.67,0,0,1,0,1.26,2.37,2.37,0,0,1-2.17,0c-.6-.35-.61-.91,0-1.26A2.44,2.44,0,0,1,182.14,196.74Z" transform="translate(-90.62 -88.81)"/><path class="e" d="M185.42,194.84a.66.66,0,0,1,0,1.25,2.37,2.37,0,0,1-2.17,0,.66.66,0,0,1,0-1.25A2.37,2.37,0,0,1,185.42,194.84Z" transform="translate(-90.62 -88.81)"/><path class="e" d="M188.71,192.93a.67.67,0,0,1,0,1.26,2.41,2.41,0,0,1-2.16,0c-.61-.35-.61-.91,0-1.26A2.37,2.37,0,0,1,188.71,192.93Z" transform="translate(-90.62 -88.81)"/><path class="a" d="M208.69,230.39l51.65-30.1a4,4,0,0,1,4,0l19.25,11.27" transform="translate(-90.62 -88.81)"/><path class="e" d="M236.52,214.17c.61.35.61.91,0,1.25a2.37,2.37,0,0,1-2.17,0,.66.66,0,0,1,0-1.25A2.37,2.37,0,0,1,236.52,214.17Z" transform="translate(-90.62 -88.81)"/><ellipse class="e" cx="238.73" cy="212.89" rx="0.89" ry="1.53" transform="translate(-65.46 362.19) rotate(-89.84)"/><path class="e" d="M243.09,210.35c.6.35.61.91,0,1.26a2.37,2.37,0,0,1-2.17,0c-.6-.35-.61-.91,0-1.26A2.44,2.44,0,0,1,243.09,210.35Z" transform="translate(-90.62 -88.81)"/><path class="b" d="M206.43,228l53.91-31.42a4,4,0,0,1,4,0l19.25,11.27" transform="translate(-90.62 -88.81)"/><path class="f" d="M226.89,216.08a.66.66,0,0,1,0,1.25,2.37,2.37,0,0,1-2.17,0,.66.66,0,0,1,0-1.25A2.37,2.37,0,0,1,226.89,216.08Z" transform="translate(-90.62 -88.81)"/><path class="f" d="M230.17,214.17c.6.35.61.91,0,1.25a2.37,2.37,0,0,1-2.17,0,.66.66,0,0,1,0-1.25A2.37,2.37,0,0,1,230.17,214.17Z" transform="translate(-90.62 -88.81)"/><ellipse class="f" cx="232.37" cy="212.89" rx="0.89" ry="1.53" transform="translate(-71.8 355.84) rotate(-89.84)"/><path class="c" d="M218.12,224.35,182.65,245a1.14,1.14,0,0,0,0,2l28.09,16.56" transform="translate(-90.62 -88.81)"/><path class="d" d="M190.75,250.52c.6.35.61.91,0,1.26a2.37,2.37,0,0,1-2.17,0,.67.67,0,0,1,0-1.26A2.44,2.44,0,0,1,190.75,250.52Z" transform="translate(-90.62 -88.81)"/><ellipse class="d" cx="186.39" cy="249.24" rx="0.89" ry="1.53" transform="translate(-154.01 346.11) rotate(-89.84)"/><path class="d" d="M192.53,239.35a.66.66,0,0,1,0,1.25,2.37,2.37,0,0,1-2.17,0,.66.66,0,0,1,0-1.25A2.37,2.37,0,0,1,192.53,239.35Z" transform="translate(-90.62 -88.81)"/><path class="d" d="M195.81,237.44a.66.66,0,0,1,0,1.25,2.37,2.37,0,0,1-2.17,0,.66.66,0,0,1,0-1.25A2.37,2.37,0,0,1,195.81,237.44Z" transform="translate(-90.62 -88.81)"/><path class="d" d="M199.1,235.53a.67.67,0,0,1,0,1.26,2.44,2.44,0,0,1-2.17,0,.67.67,0,0,1,0-1.26A2.37,2.37,0,0,1,199.1,235.53Z" transform="translate(-90.62 -88.81)"/><path class="b" d="M219.57,219.78,176,245.18a1.14,1.14,0,0,0,0,2l28.09,16.56" transform="translate(-90.62 -88.81)"/><path class="f" d="M181,242.14a.67.67,0,0,1,0,1.26,2.37,2.37,0,0,1-2.17,0c-.6-.35-.61-.91,0-1.26A2.37,2.37,0,0,1,181,242.14Z" transform="translate(-90.62 -88.81)"/><ellipse class="f" cx="183.21" cy="240.86" rx="0.89" ry="1.53" transform="translate(-148.79 334.57) rotate(-89.84)"/><path class="f" d="M187.58,238.33a.66.66,0,0,1,0,1.25,2.37,2.37,0,0,1-2.17,0,.66.66,0,0,1,0-1.25A2.37,2.37,0,0,1,187.58,238.33Z" transform="translate(-90.62 -88.81)"/><line class="c" x1="56.42" y1="120.54" x2="96.33" y2="97.35"/><path class="d" d="M171.6,195.09a.66.66,0,0,1,0,1.25,2.37,2.37,0,0,1-2.17,0,.66.66,0,0,1,0-1.25A2.37,2.37,0,0,1,171.6,195.09Z" transform="translate(-90.62 -88.81)"/><path class="d" d="M174.88,193.18a.66.66,0,0,1,0,1.25,2.37,2.37,0,0,1-2.17,0,.66.66,0,0,1,0-1.25A2.37,2.37,0,0,1,174.88,193.18Z" transform="translate(-90.62 -88.81)"/><path class="d" d="M178.16,191.27c.6.35.61.91,0,1.26a2.44,2.44,0,0,1-2.17,0,.67.67,0,0,1,0-1.26A2.37,2.37,0,0,1,178.16,191.27Z" transform="translate(-90.62 -88.81)"/><path class="g" d="M155.12,135a1,1,0,0,1,.46-.79c.25-.15.45,0,.45.26a1,1,0,0,1-.45.79C155.32,135.43,155.12,135.31,155.12,135Z" transform="translate(-90.62 -88.81)"/><path class="g" d="M155.12,129.18a1,1,0,0,1,.46-.79c.25-.14.45,0,.45.27a1,1,0,0,1-.45.79C155.32,129.59,155.12,129.47,155.12,129.18Z" transform="translate(-90.62 -88.81)"/><path class="g" d="M155.12,123.35a1,1,0,0,1,.46-.79c.25-.15.45,0,.45.26a1,1,0,0,1-.45.79C155.32,123.76,155.12,123.64,155.12,123.35Z" transform="translate(-90.62 -88.81)"/><path class="g" d="M155.12,117.51a1,1,0,0,1,.46-.79c.25-.15.45,0,.45.26a1,1,0,0,1-.45.8C155.32,117.92,155.12,117.8,155.12,117.51Z" transform="translate(-90.62 -88.81)"/><path class="g" d="M155.12,111.68a1,1,0,0,1,.46-.79c.25-.15.45,0,.45.26a1,1,0,0,1-.45.79C155.32,112.09,155.12,112,155.12,111.68Z" transform="translate(-90.62 -88.81)"/><path class="g" d="M155.12,105.84a1,1,0,0,1,.46-.79c.25-.15.45,0,.45.26a1,1,0,0,1-.45.8C155.32,106.25,155.12,106.13,155.12,105.84Z" transform="translate(-90.62 -88.81)"/><path class="g" d="M155.12,100a1,1,0,0,1,.46-.8c.25-.14.45,0,.45.27a1,1,0,0,1-.45.79C155.32,100.42,155.12,100.3,155.12,100Z" transform="translate(-90.62 -88.81)"/><path class="g" d="M180.05,149a1,1,0,0,1,.46-.79c.25-.15.46,0,.46.26a1,1,0,0,1-.46.79C180.26,149.39,180.05,149.27,180.05,149Z" transform="translate(-90.62 -88.81)"/><path class="g" d="M180.05,143.14a1,1,0,0,1,.46-.79c.25-.15.46,0,.46.26a1,1,0,0,1-.46.8A.28.28,0,0,1,180.05,143.14Z" transform="translate(-90.62 -88.81)"/><path class="g" d="M180.05,137.31a1,1,0,0,1,.46-.8.28.28,0,0,1,.46.27,1,1,0,0,1-.46.79C180.26,137.72,180.05,137.6,180.05,137.31Z" transform="translate(-90.62 -88.81)"/><path class="g" d="M180.05,131.47a1,1,0,0,1,.46-.79c.25-.15.46,0,.46.26a1,1,0,0,1-.46.8A.28.28,0,0,1,180.05,131.47Z" transform="translate(-90.62 -88.81)"/><path class="g" d="M180.05,125.64a1,1,0,0,1,.46-.8.28.28,0,0,1,.46.27,1,1,0,0,1-.46.79C180.26,126.05,180.05,125.93,180.05,125.64Z" transform="translate(-90.62 -88.81)"/><path class="g" d="M180.05,119.8a1,1,0,0,1,.46-.79c.25-.15.46,0,.46.26a1,1,0,0,1-.46.8A.28.28,0,0,1,180.05,119.8Z" transform="translate(-90.62 -88.81)"/><path class="g" d="M180.05,114a1,1,0,0,1,.46-.8.28.28,0,0,1,.46.27,1,1,0,0,1-.46.79C180.26,114.38,180.05,114.26,180.05,114Z" transform="translate(-90.62 -88.81)"/><path class="g" d="M265.58,135.75a1,1,0,0,1,.46-.8c.25-.14.45,0,.45.27a1,1,0,0,1-.45.79C265.78,136.16,265.58,136,265.58,135.75Z" transform="translate(-90.62 -88.81)"/><path class="g" d="M265.58,129.91a1,1,0,0,1,.46-.79c.25-.15.45,0,.45.26a1,1,0,0,1-.45.8C265.78,130.32,265.58,130.2,265.58,129.91Z" transform="translate(-90.62 -88.81)"/><path class="g" d="M265.58,124.08a1,1,0,0,1,.46-.8c.25-.14.45,0,.45.27a1,1,0,0,1-.45.79C265.78,124.49,265.58,124.37,265.58,124.08Z" transform="translate(-90.62 -88.81)"/><path class="g" d="M265.58,118.24a1,1,0,0,1,.46-.79c.25-.15.45,0,.45.26a1,1,0,0,1-.45.79C265.78,118.65,265.58,118.53,265.58,118.24Z" transform="translate(-90.62 -88.81)"/><path class="g" d="M265.58,112.41a1,1,0,0,1,.46-.8c.25-.14.45,0,.45.27a1,1,0,0,1-.45.79C265.78,112.82,265.58,112.7,265.58,112.41Z" transform="translate(-90.62 -88.81)"/><path class="g" d="M265.58,106.57a1,1,0,0,1,.46-.79c.25-.15.45,0,.45.26a1,1,0,0,1-.45.79C265.78,107,265.58,106.86,265.58,106.57Z" transform="translate(-90.62 -88.81)"/><path class="g" d="M265.58,100.74a1,1,0,0,1,.46-.8c.25-.14.45,0,.45.27a1,1,0,0,1-.45.79C265.78,101.14,265.58,101,265.58,100.74Z" transform="translate(-90.62 -88.81)"/><path class="g" d="M259,125.89a1,1,0,0,1,.45-.79c.26-.14.46,0,.46.27a1,1,0,0,1-.46.79C259.21,126.3,259,126.19,259,125.89Z" transform="translate(-90.62 -88.81)"/><path class="g" d="M259,120.06a1,1,0,0,1,.45-.79c.26-.15.46,0,.46.26a1,1,0,0,1-.46.79C259.21,120.47,259,120.35,259,120.06Z" transform="translate(-90.62 -88.81)"/><path class="g" d="M259,114.22a1,1,0,0,1,.45-.79c.26-.14.46,0,.46.27a1,1,0,0,1-.46.79C259.21,114.63,259,114.52,259,114.22Z" transform="translate(-90.62 -88.81)"/><path class="g" d="M259,108.39a1,1,0,0,1,.45-.79c.26-.15.46,0,.46.26a1,1,0,0,1-.46.79C259.21,108.8,259,108.68,259,108.39Z" transform="translate(-90.62 -88.81)"/><path class="g" d="M259,102.55a1,1,0,0,1,.45-.79c.26-.14.46,0,.46.27a1,1,0,0,1-.46.79C259.21,103,259,102.85,259,102.55Z" transform="translate(-90.62 -88.81)"/><path class="g" d="M259,96.72a1,1,0,0,1,.45-.79c.26-.15.46,0,.46.26a1,1,0,0,1-.46.79C259.21,97.13,259,97,259,96.72Z" transform="translate(-90.62 -88.81)"/><path class="g" d="M259,90.88a1,1,0,0,1,.45-.79c.26-.14.46,0,.46.27a1,1,0,0,1-.46.79C259.21,91.29,259,91.17,259,90.88Z" transform="translate(-90.62 -88.81)"/><path class="g" d="M185.93,133a1,1,0,0,1,.46-.79c.25-.14.46,0,.46.27a1,1,0,0,1-.46.79C186.14,133.37,185.93,133.26,185.93,133Z" transform="translate(-90.62 -88.81)"/><path class="g" d="M185.93,127.13a1,1,0,0,1,.46-.79c.25-.15.46,0,.46.26a1,1,0,0,1-.46.79C186.14,127.54,185.93,127.42,185.93,127.13Z" transform="translate(-90.62 -88.81)"/><path class="g" d="M185.93,121.29a1,1,0,0,1,.46-.79c.25-.14.46,0,.46.27a1,1,0,0,1-.46.79A.28.28,0,0,1,185.93,121.29Z" transform="translate(-90.62 -88.81)"/><path class="g" d="M185.93,115.46a1,1,0,0,1,.46-.79c.25-.15.46,0,.46.26a1,1,0,0,1-.46.79C186.14,115.87,185.93,115.75,185.93,115.46Z" transform="translate(-90.62 -88.81)"/><path class="g" d="M185.93,109.62a1,1,0,0,1,.46-.79c.25-.15.46,0,.46.26a1,1,0,0,1-.46.8A.28.28,0,0,1,185.93,109.62Z" transform="translate(-90.62 -88.81)"/><path class="g" d="M185.93,103.79a1,1,0,0,1,.46-.79c.25-.15.46,0,.46.26a1,1,0,0,1-.46.79C186.14,104.2,185.93,104.08,185.93,103.79Z" transform="translate(-90.62 -88.81)"/><path class="g" d="M185.93,98a1,1,0,0,1,.46-.79c.25-.15.46,0,.46.26a1,1,0,0,1-.46.8A.28.28,0,0,1,185.93,98Z" transform="translate(-90.62 -88.81)"/><path class="h" d="M167.08,222.67c2.15,1.24,2.16,3.25,0,4.49L133.66,246.6a8.54,8.54,0,0,1-7.75,0L92.24,227.16c-2.15-1.24-2.16-3.25,0-4.49l33.45-19.43a8.54,8.54,0,0,1,7.75,0Z" transform="translate(-90.62 -88.81)"/><path class="i" d="M164.85,222.15l-31.43,18.27a8,8,0,0,1-7.29,0L94.49,222.15A2.58,2.58,0,0,1,93,220v3.45a2.58,2.58,0,0,0,1.52,2.12l31.64,18.27a8,8,0,0,0,7.29,0l31.43-18.27a2.54,2.54,0,0,0,1.5-2.09v-3.45A2.53,2.53,0,0,1,164.85,222.15Z" transform="translate(-90.62 -88.81)"/><path class="j" d="M164.83,217.93c2,1.17,2,3.06,0,4.22l-31.43,18.27a8,8,0,0,1-7.29,0L94.49,222.15c-2-1.16-2-3.05,0-4.21l31.43-18.27a8,8,0,0,1,7.29,0Z" transform="translate(-90.62 -88.81)"/><path class="d" d="M149.51,232.72a.81.81,0,0,1,.37-.64.23.23,0,0,1,.37.21.84.84,0,0,1-.37.65C149.67,233.05,149.51,233,149.51,232.72Z" transform="translate(-90.62 -88.81)"/><path class="d" d="M153.25,230.56a.81.81,0,0,1,.37-.64c.2-.12.37,0,.37.22a.84.84,0,0,1-.37.64C153.41,230.89,153.25,230.8,153.25,230.56Z" transform="translate(-90.62 -88.81)"/><path class="d" d="M157.16,228.3a.82.82,0,0,1,.37-.64c.21-.12.37,0,.37.21a.78.78,0,0,1-.37.64C157.33,228.63,157.16,228.54,157.16,228.3Z" transform="translate(-90.62 -88.81)"/><path class="d" d="M160.9,226.14a.84.84,0,0,1,.37-.64c.21-.12.37,0,.37.21a.82.82,0,0,1-.37.65C161.07,226.47,160.9,226.38,160.9,226.14Z" transform="translate(-90.62 -88.81)"/><path class="k" d="M164.85,212.9l-31.43,18.27a8.07,8.07,0,0,1-7.29,0L94.49,212.9A2.6,2.6,0,0,1,93,210.77v3.45a2.6,2.6,0,0,0,1.52,2.13l31.64,18.27a8.07,8.07,0,0,0,7.29,0l31.43-18.27a2.56,2.56,0,0,0,1.5-2.1V210.8A2.56,2.56,0,0,1,164.85,212.9Z" transform="translate(-90.62 -88.81)"/><path class="j" d="M164.83,208.68c2,1.16,2,3,0,4.22l-31.43,18.27a8.07,8.07,0,0,1-7.29,0L94.49,212.9c-2-1.17-2-3.06,0-4.22l31.43-18.27a8.07,8.07,0,0,1,7.29,0Z" transform="translate(-90.62 -88.81)"/><path class="l" d="M164.85,203.64l-31.43,18.27a8.07,8.07,0,0,1-7.29,0L94.49,203.64A2.58,2.58,0,0,1,93,201.52V205a2.59,2.59,0,0,0,1.52,2.12l31.64,18.27a8.07,8.07,0,0,0,7.29,0l31.43-18.27a2.56,2.56,0,0,0,1.5-2.09v-3.45A2.54,2.54,0,0,1,164.85,203.64Z" transform="translate(-90.62 -88.81)"/><path class="j" d="M164.83,199.42c2,1.17,2,3.06,0,4.22l-31.43,18.27a8.07,8.07,0,0,1-7.29,0L94.49,203.64c-2-1.16-2-3,0-4.22l31.43-18.27a8.07,8.07,0,0,1,7.29,0Z" transform="translate(-90.62 -88.81)"/><path class="m" d="M164.85,194.39l-31.43,18.26a8,8,0,0,1-7.29,0L94.49,194.39A2.6,2.6,0,0,1,93,192.26v3.45a2.58,2.58,0,0,0,1.52,2.12l31.64,18.27a8,8,0,0,0,7.29,0l31.43-18.27a2.53,2.53,0,0,0,1.5-2.09v-3.45A2.56,2.56,0,0,1,164.85,194.39Z" transform="translate(-90.62 -88.81)"/><path class="j" d="M164.83,190.17c2,1.16,2,3.05,0,4.22l-31.43,18.26a8,8,0,0,1-7.29,0L94.49,194.39c-2-1.17-2-3.06,0-4.22L125.9,171.9a8,8,0,0,1,7.29,0Z" transform="translate(-90.62 -88.81)"/><path class="f" d="M113.29,207.63a.76.76,0,0,1-.31-.6c0-.23.14-.34.31-.24a.75.75,0,0,1,.32.61C113.61,207.63,113.47,207.73,113.29,207.63Z" transform="translate(-90.62 -88.81)"/><path class="f" d="M116.42,209.44a.76.76,0,0,1-.31-.6c0-.23.14-.34.31-.24a.74.74,0,0,1,.32.6C116.74,209.43,116.6,209.54,116.42,209.44Z" transform="translate(-90.62 -88.81)"/><path class="f" d="M119.55,211.25a.76.76,0,0,1-.31-.61c0-.23.14-.33.31-.23a.77.77,0,0,1,.32.6C119.87,211.24,119.72,211.35,119.55,211.25Z" transform="translate(-90.62 -88.81)"/><path class="f" d="M122.68,213.05a.74.74,0,0,1-.32-.6c0-.23.14-.34.32-.24a.76.76,0,0,1,.31.6C123,213.05,122.85,213.15,122.68,213.05Z" transform="translate(-90.62 -88.81)"/><path class="d" d="M147.55,206.06a.81.81,0,0,1,.37-.64c.2-.11.37,0,.37.22a.84.84,0,0,1-.37.64C147.71,206.4,147.55,206.3,147.55,206.06Z" transform="translate(-90.62 -88.81)"/><path class="d" d="M151.29,203.91a.82.82,0,0,1,.37-.65c.2-.11.37,0,.37.22a.84.84,0,0,1-.37.64C151.45,204.24,151.29,204.14,151.29,203.91Z" transform="translate(-90.62 -88.81)"/><path class="d" d="M155.21,201.64a.81.81,0,0,1,.37-.64c.2-.12.37,0,.37.22a.84.84,0,0,1-.37.64C155.37,202,155.21,201.88,155.21,201.64Z" transform="translate(-90.62 -88.81)"/><path class="d" d="M158.94,199.48a.84.84,0,0,1,.37-.64c.21-.11.37,0,.37.22a.81.81,0,0,1-.37.64C159.11,199.82,158.94,199.72,158.94,199.48Z" transform="translate(-90.62 -88.81)"/><path class="f" d="M113.29,216.62a.76.76,0,0,1-.31-.6c0-.23.14-.34.31-.24a.74.74,0,0,1,.32.6C113.61,216.61,113.47,216.72,113.29,216.62Z" transform="translate(-90.62 -88.81)"/><path class="f" d="M116.42,218.43a.78.78,0,0,1-.31-.61c0-.23.14-.33.31-.23a.74.74,0,0,1,.32.6C116.74,218.42,116.6,218.53,116.42,218.43Z" transform="translate(-90.62 -88.81)"/><path class="f" d="M119.55,220.23a.76.76,0,0,1-.31-.6c0-.23.14-.34.31-.24a.77.77,0,0,1,.32.6C119.87,220.22,119.72,220.33,119.55,220.23Z" transform="translate(-90.62 -88.81)"/><path class="f" d="M122.68,222a.74.74,0,0,1-.32-.6c0-.24.14-.34.32-.24a.76.76,0,0,1,.31.6C123,222,122.85,222.14,122.68,222Z" transform="translate(-90.62 -88.81)"/><path class="h" d="M243.55,270.23c2.15,1.24,2.16,3.25,0,4.49l-33.45,19.44a8.54,8.54,0,0,1-7.75,0l-33.67-19.44c-2.15-1.24-2.16-3.25,0-4.49l33.45-19.44a8.54,8.54,0,0,1,7.75,0Z" transform="translate(-90.62 -88.81)"/><path class="n" d="M241.32,269.44l-31.43,18.27a8.07,8.07,0,0,1-7.29,0L171,269.44a2.59,2.59,0,0,1-1.52-2.12v3.45a2.6,2.6,0,0,0,1.52,2.12l31.64,18.27a8.07,8.07,0,0,0,7.29,0l31.43-18.27a2.56,2.56,0,0,0,1.5-2.1v-3.44A2.56,2.56,0,0,1,241.32,269.44Z" transform="translate(-90.62 -88.81)"/><path class="j" d="M241.3,265.22c2,1.17,2,3.06,0,4.22l-31.43,18.27a8.07,8.07,0,0,1-7.29,0L171,269.44c-2-1.16-2-3.05,0-4.22L202.37,247a8.07,8.07,0,0,1,7.29,0Z" transform="translate(-90.62 -88.81)"/><path class="f" d="M187.79,281.4a.76.76,0,0,1-.31-.6c0-.23.14-.34.31-.24a.74.74,0,0,1,.32.6C188.11,281.39,188,281.5,187.79,281.4Z" transform="translate(-90.62 -88.81)"/><path class="f" d="M190.92,283.21a.76.76,0,0,1-.31-.61c0-.23.14-.33.31-.23a.74.74,0,0,1,.32.6C191.24,283.2,191.1,283.31,190.92,283.21Z" transform="translate(-90.62 -88.81)"/><path class="f" d="M194.05,285a.76.76,0,0,1-.31-.6c0-.23.14-.34.31-.24a.77.77,0,0,1,.32.6C194.37,285,194.22,285.11,194.05,285Z" transform="translate(-90.62 -88.81)"/><path class="f" d="M197.18,286.82a.77.77,0,0,1-.32-.6c0-.24.15-.34.32-.24a.76.76,0,0,1,.31.6C197.49,286.81,197.35,286.92,197.18,286.82Z" transform="translate(-90.62 -88.81)"/><path class="d" d="M228.19,279.16a.81.81,0,0,1,.37-.64c.2-.12.37,0,.37.22a.84.84,0,0,1-.37.64C228.35,279.49,228.19,279.4,228.19,279.16Z" transform="translate(-90.62 -88.81)"/><path class="d" d="M231.93,277a.81.81,0,0,1,.37-.64c.2-.11.37,0,.37.22a.84.84,0,0,1-.37.64C232.09,277.34,231.93,277.24,231.93,277Z" transform="translate(-90.62 -88.81)"/><path class="d" d="M235.84,274.74a.84.84,0,0,1,.37-.64c.21-.12.37,0,.37.21a.82.82,0,0,1-.37.65C236,275.07,235.84,275,235.84,274.74Z" transform="translate(-90.62 -88.81)"/><path class="d" d="M239.58,272.58a.84.84,0,0,1,.37-.64c.21-.12.37,0,.37.22a.81.81,0,0,1-.37.64C239.75,272.91,239.58,272.82,239.58,272.58Z" transform="translate(-90.62 -88.81)"/><path class="h" d="M319.13,222.1c2.15,1.24,2.16,3.25,0,4.49L285.71,246a8.54,8.54,0,0,1-7.75,0l-33.67-19.44c-2.15-1.24-2.16-3.25,0-4.49l33.45-19.44a8.54,8.54,0,0,1,7.75,0Z" transform="translate(-90.62 -88.81)"/><path class="o" d="M316.9,221.45l-31.43,18.27a8.07,8.07,0,0,1-7.29,0l-31.64-18.27a2.6,2.6,0,0,1-1.52-2.12v3.44a2.6,2.6,0,0,0,1.52,2.13l31.64,18.27a8.07,8.07,0,0,0,7.29,0l31.43-18.27a2.56,2.56,0,0,0,1.5-2.1v-3.45A2.56,2.56,0,0,1,316.9,221.45Z" transform="translate(-90.62 -88.81)"/><path class="j" d="M316.88,217.23c2,1.16,2,3.05,0,4.22l-31.43,18.27a8.07,8.07,0,0,1-7.29,0l-31.64-18.27c-2-1.16-2-3,0-4.22L278,199a8.07,8.07,0,0,1,7.29,0Z" transform="translate(-90.62 -88.81)"/><path class="d" d="M302.67,231.92a.84.84,0,0,1,.37-.65c.21-.11.37,0,.37.22a.81.81,0,0,1-.37.64A.23.23,0,0,1,302.67,231.92Z" transform="translate(-90.62 -88.81)"/><path class="d" d="M306.41,229.76a.81.81,0,0,1,.37-.64c.21-.12.37,0,.37.21a.8.8,0,0,1-.37.64A.23.23,0,0,1,306.41,229.76Z" transform="translate(-90.62 -88.81)"/><path class="d" d="M310.33,227.49a.84.84,0,0,1,.37-.64c.2-.11.37,0,.37.22a.84.84,0,0,1-.37.64C310.5,227.83,310.33,227.73,310.33,227.49Z" transform="translate(-90.62 -88.81)"/><path class="d" d="M314.07,225.34a.82.82,0,0,1,.37-.65c.2-.11.37,0,.37.22a.84.84,0,0,1-.37.64C314.23,225.67,314.07,225.57,314.07,225.34Z" transform="translate(-90.62 -88.81)"/><path class="p" d="M316.9,212.19l-31.43,18.27a8,8,0,0,1-7.29,0l-31.64-18.27a2.58,2.58,0,0,1-1.52-2.12v3.45a2.58,2.58,0,0,0,1.52,2.12l31.64,18.27a8,8,0,0,0,7.29,0l31.43-18.27a2.54,2.54,0,0,0,1.5-2.09V210.1A2.54,2.54,0,0,1,316.9,212.19Z" transform="translate(-90.62 -88.81)"/><path class="j" d="M316.88,208c2,1.17,2,3.06,0,4.22l-31.43,18.27a8,8,0,0,1-7.29,0l-31.64-18.27c-2-1.16-2-3.05,0-4.22L278,189.71a8,8,0,0,1,7.29,0Z" transform="translate(-90.62 -88.81)"/><path class="q" d="M316.9,202.94l-31.43,18.27a8.07,8.07,0,0,1-7.29,0l-31.64-18.27a2.6,2.6,0,0,1-1.52-2.13v3.45a2.6,2.6,0,0,0,1.52,2.13l31.64,18.26a8,8,0,0,0,7.29,0l31.43-18.26a2.56,2.56,0,0,0,1.5-2.1v-3.45A2.56,2.56,0,0,1,316.9,202.94Z" transform="translate(-90.62 -88.81)"/><path class="j" d="M316.88,198.72c2,1.16,2,3.05,0,4.22l-31.43,18.27a8.07,8.07,0,0,1-7.29,0l-31.64-18.27c-2-1.17-2-3.06,0-4.22L278,180.45a8,8,0,0,1,7.29,0Z" transform="translate(-90.62 -88.81)"/><path class="d" d="M288.38,221.4a.82.82,0,0,1,.38-.64c.2-.11.37,0,.37.22a.84.84,0,0,1-.37.64C288.55,221.74,288.38,221.64,288.38,221.4Z" transform="translate(-90.62 -88.81)"/><path class="d" d="M292.12,219.25a.84.84,0,0,1,.37-.65c.21-.11.37,0,.37.22a.81.81,0,0,1-.37.64A.23.23,0,0,1,292.12,219.25Z" transform="translate(-90.62 -88.81)"/><path class="d" d="M296,217a.84.84,0,0,1,.37-.64c.21-.12.37,0,.37.22a.81.81,0,0,1-.37.64C296.21,217.31,296,217.22,296,217Z" transform="translate(-90.62 -88.81)"/><path class="d" d="M299.78,214.82a.84.84,0,0,1,.37-.64c.21-.11.37,0,.37.22a.81.81,0,0,1-.37.64C300,215.16,299.78,215.06,299.78,214.82Z" transform="translate(-90.62 -88.81)"/><path class="q" d="M316.9,202.94l-31.43,18.27a8.07,8.07,0,0,1-7.29,0l-31.64-18.27a2.6,2.6,0,0,1-1.52-2.13v3.45a2.6,2.6,0,0,0,1.52,2.13l31.64,18.26a8,8,0,0,0,7.29,0l31.43-18.26a2.56,2.56,0,0,0,1.5-2.1v-3.45A2.56,2.56,0,0,1,316.9,202.94Z" transform="translate(-90.62 -88.81)"/><path class="j" d="M316.88,198.72c2,1.16,2,3.05,0,4.22l-31.43,18.27a8.07,8.07,0,0,1-7.29,0l-31.64-18.27c-2-1.17-2-3.06,0-4.22L278,180.45a8,8,0,0,1,7.29,0Z" transform="translate(-90.62 -88.81)"/><path class="r" d="M288.7,200.41c.4.23.41.61,0,.84l-6.25,3.63a1.61,1.61,0,0,1-1.45,0l-6.29-3.63a.45.45,0,0,1,0-.84l6.25-3.63a1.55,1.55,0,0,1,1.45,0Z" transform="translate(-90.62 -88.81)"/><path class="d" d="M288.38,221.4a.82.82,0,0,1,.38-.64c.2-.11.37,0,.37.22a.84.84,0,0,1-.37.64C288.55,221.74,288.38,221.64,288.38,221.4Z" transform="translate(-90.62 -88.81)"/><path class="d" d="M292.12,219.25a.84.84,0,0,1,.37-.65c.21-.11.37,0,.37.22a.81.81,0,0,1-.37.64A.23.23,0,0,1,292.12,219.25Z" transform="translate(-90.62 -88.81)"/><path class="d" d="M296,217a.84.84,0,0,1,.37-.64c.21-.12.37,0,.37.22a.81.81,0,0,1-.37.64C296.21,217.31,296,217.22,296,217Z" transform="translate(-90.62 -88.81)"/><path class="d" d="M299.78,214.82a.84.84,0,0,1,.37-.64c.21-.11.37,0,.37.22a.81.81,0,0,1-.37.64C300,215.16,299.78,215.06,299.78,214.82Z" transform="translate(-90.62 -88.81)"/><path class="f" d="M262.11,214.23a.76.76,0,0,1-.31-.6c0-.23.14-.34.31-.24a.74.74,0,0,1,.32.6C262.43,214.22,262.29,214.33,262.11,214.23Z" transform="translate(-90.62 -88.81)"/><path class="f" d="M265.24,216a.76.76,0,0,1-.31-.61c0-.23.14-.33.31-.23a.77.77,0,0,1,.32.6C265.56,216,265.41,216.14,265.24,216Z" transform="translate(-90.62 -88.81)"/><path class="f" d="M268.37,217.84a.74.74,0,0,1-.32-.6c0-.23.14-.34.32-.24a.76.76,0,0,1,.31.6C268.68,217.84,268.54,217.94,268.37,217.84Z" transform="translate(-90.62 -88.81)"/><path class="f" d="M271.5,219.65a.74.74,0,0,1-.32-.6c0-.24.14-.34.32-.24a.76.76,0,0,1,.31.6C271.81,219.64,271.67,219.75,271.5,219.65Z" transform="translate(-90.62 -88.81)"/><path class="f" d="M262.11,223.24a.76.76,0,0,1-.31-.6c0-.23.14-.34.31-.24a.74.74,0,0,1,.32.6C262.43,223.23,262.29,223.34,262.11,223.24Z" transform="translate(-90.62 -88.81)"/><path class="f" d="M265.24,225a.74.74,0,0,1-.31-.6c0-.23.14-.33.31-.23a.75.75,0,0,1,.32.6C265.56,225,265.41,225.14,265.24,225Z" transform="translate(-90.62 -88.81)"/><path class="f" d="M268.37,226.85a.74.74,0,0,1-.32-.6c0-.23.14-.34.32-.24a.76.76,0,0,1,.31.6C268.68,226.84,268.54,227,268.37,226.85Z" transform="translate(-90.62 -88.81)"/><path class="f" d="M271.5,228.66a.74.74,0,0,1-.32-.6c0-.24.14-.34.32-.24a.76.76,0,0,1,.31.6C271.81,228.65,271.67,228.76,271.5,228.66Z" transform="translate(-90.62 -88.81)"/><path class="h" d="M243.55,177.46c2.15,1.24,2.16,3.25,0,4.49l-33.45,19.44a8.54,8.54,0,0,1-7.75,0L168.71,182c-2.15-1.24-2.16-3.25,0-4.49L202.13,158a8.6,8.6,0,0,1,7.75,0Z" transform="translate(-90.62 -88.81)"/><path class="s" d="M241.32,177.11l-31.43,18.27a8.07,8.07,0,0,1-7.29,0L171,177.11a2.58,2.58,0,0,1-1.52-2.12v3.45a2.6,2.6,0,0,0,1.52,2.12l31.64,18.27a8.07,8.07,0,0,0,7.29,0l31.43-18.27a2.56,2.56,0,0,0,1.5-2.09V175A2.56,2.56,0,0,1,241.32,177.11Z" transform="translate(-90.62 -88.81)"/><path class="j" d="M241.3,172.89c2,1.17,2,3.06,0,4.22l-31.43,18.27a8.07,8.07,0,0,1-7.29,0L171,177.11c-2-1.16-2-3.05,0-4.22l31.43-18.27a8.07,8.07,0,0,1,7.29,0Z" transform="translate(-90.62 -88.81)"/><path class="t" d="M241.32,167.85l-31.43,18.27a8,8,0,0,1-7.29,0L171,167.86a2.6,2.6,0,0,1-1.52-2.13v3.45A2.58,2.58,0,0,0,171,171.3l31.64,18.27a8,8,0,0,0,7.29,0l31.43-18.27a2.53,2.53,0,0,0,1.5-2.09v-3.45A2.53,2.53,0,0,1,241.32,167.85Z" transform="translate(-90.62 -88.81)"/><path class="j" d="M241.3,163.64c2,1.16,2,3.05,0,4.21l-31.43,18.27a8,8,0,0,1-7.29,0L171,167.86c-2-1.17-2-3.06,0-4.22l31.43-18.27a8,8,0,0,1,7.29,0Z" transform="translate(-90.62 -88.81)"/><ellipse class="h" cx="206.13" cy="226.85" rx="9.88" ry="17.43" transform="translate(-111.91 343.55) rotate(-89.84)"/><path class="e" d="M217,215.45c6.05,3.42,6.08,9,.07,12.38s-15.79,3.42-21.84,0-6.08-9-.07-12.38S211,212,217,215.45Z" transform="translate(-90.62 -88.81)"/><path class="u" d="M219.85,213.65l0,11.68c0-2.05-1.34-4.1-4-5.65-5.36-3.1-14.06-3.1-19.39,0-2.65,1.54-4,3.56-4,5.58l0-11.67c0-2,1.33-4,4-5.58,5.33-3.1,14-3.1,19.4,0C218.5,209.56,219.85,211.61,219.85,213.65Z" transform="translate(-90.62 -88.81)"/><path class="v" d="M221.57,213.66l0,11.68c0,2.27-1.49,4.54-4.47,6.27-6,3.49-15.79,3.49-21.83,0-3-1.75-4.55-4.06-4.55-6.36l0-11.68c0,2.31,1.51,4.61,4.54,6.37,6,3.48,15.83,3.48,21.83,0C220.07,218.21,221.56,215.93,221.57,213.66Z" transform="translate(-90.62 -88.81)"/><path class="w" d="M217,207.29c6,3.49,6.07,9.16.07,12.65s-15.79,3.48-21.83,0-6.06-9.16-.07-12.65S211,203.81,217,207.29Zm-20.55,11.94c5.37,3.1,14.07,3.1,19.4,0s5.3-8.13-.06-11.23-14.07-3.1-19.4,0-5.3,8.13.06,11.23" transform="translate(-90.62 -88.81)"/><path class="x" d="M217.88,162.4l-.13,46.22c0,1.72-1.13,3.44-3.39,4.75-4.56,2.65-12,2.65-16.54,0-2.31-1.33-3.46-3.08-3.45-4.82l.13-46.22c0,1.74,1.15,3.49,3.45,4.82,4.58,2.65,12,2.65,16.54,0C216.75,165.84,217.88,164.12,217.88,162.4Z" transform="translate(-90.62 -88.81)"/><path class="y" d="M214.43,157.58c4.58,2.64,4.61,6.93.06,9.57s-12,2.65-16.54,0-4.61-6.93,0-9.58S209.85,154.93,214.43,157.58Z" transform="translate(-90.62 -88.81)"/><path class="z" d="M214.43,152.38c4.58,2.65,4.61,6.94.06,9.58s-12,2.64-16.54,0-4.61-6.93,0-9.58S209.85,149.74,214.43,152.38Z" transform="translate(-90.62 -88.81)"/><path class="aa" d="M214.43,90.8c4.58,2.64,4.61,6.93.06,9.57s-12,2.65-16.54,0-4.61-6.94,0-9.58S209.85,88.15,214.43,90.8Z" transform="translate(-90.62 -88.81)"/><path class="ab" d="M210,106c2.15,1.24,2.16,3.25,0,4.48a8.5,8.5,0,0,1-7.73,0c-2.14-1.23-2.16-3.24,0-4.48A8.56,8.56,0,0,1,210,106Z" transform="translate(-90.62 -88.81)"/><polygon class="ac" points="115.42 58.49 121.23 55.11 121.21 61.89 115.4 65.27 115.42 58.49"/><polygon class="ad" points="109.52 55.09 115.33 51.71 121.23 55.11 115.42 58.49 109.52 55.09"/><polygon class="ae" points="115.42 58.49 115.4 65.27 109.5 61.86 109.52 55.09 115.42 58.49"/><polygon class="af" points="152.83 17.45 158.64 14.08 158.62 27.64 152.81 31.01 152.83 17.45"/><polygon class="ag" points="146.93 14.05 152.74 10.67 158.64 14.08 152.83 17.45 146.93 14.05"/><polygon class="ah" points="152.83 17.45 152.81 31.01 146.91 27.61 146.93 14.05 152.83 17.45"/><line class="ai" x1="136.95" y1="33.43" x2="149.87" y2="25.92"/><polygon class="aj" points="134.04 35.22 139.85 31.84 139.83 38.62 134.02 41.99 134.04 35.22"/><polygon class="ak" points="128.14 31.81 133.95 28.43 139.85 31.84 134.04 35.22 128.14 31.81"/><polygon class="al" points="134.04 35.22 134.02 41.99 128.12 38.59 128.14 31.81 134.04 35.22"/><line class="ai" x1="117.87" y1="44.55" x2="130.79" y2="37.04"/><polygon class="am" points="115.55 45.32 121.36 41.94 121.34 48.72 115.53 52.1 115.55 45.32"/><polygon class="an" points="109.66 41.92 115.47 38.54 121.36 41.94 115.55 45.32 109.66 41.92"/><polygon class="ao" points="115.55 45.32 115.53 52.1 109.64 48.69 109.66 41.92 115.55 45.32"/><line class="ai" x1="115.64" y1="41.94" x2="115.64" y2="37.82"/><polygon class="ap" points="115.7 32.08 121.51 28.7 121.49 35.48 115.68 38.85 115.7 32.08"/><polygon class="aq" points="109.8 28.67 115.61 25.29 121.51 28.7 115.7 32.08 109.8 28.67"/><polygon class="ar" points="115.7 32.08 115.68 38.85 109.78 35.45 109.8 28.67 115.7 32.08"/><path class="g" d="M237,158.94l43.28-25a1.06,1.06,0,0,1,1.07-.11l.81.47a1.06,1.06,0,0,0-1.07.11l-43.29,25a3.31,3.31,0,0,0-1.5,2.6l.09,30.35a1,1,0,0,0,.44,1l-.81-.47a1,1,0,0,1-.44-1l-.09-30.35A3.3,3.3,0,0,1,237,158.94Z" transform="translate(-90.62 -88.81)"/><path class="as" d="M237.77,159.41a3.31,3.31,0,0,0-1.5,2.6l.09,30.35c0,.95.68,1.34,1.51.86l43.28-25a3.31,3.31,0,0,0,1.51-2.6l-.09-30.35c0-1-.68-1.34-1.51-.86Z" transform="translate(-90.62 -88.81)"/><path class="d" d="M244.63,161.37a2.22,2.22,0,0,0-1,1.76v5.76l2-1.18V162C245.65,161.31,245.19,161,244.63,161.37Z" transform="translate(-90.62 -88.81)"/><path class="at" d="M243.61,173.21c0,.65.45.91,1,.59a2.28,2.28,0,0,0,1-1.77v-4.32l-2,1.18Z" transform="translate(-90.62 -88.81)"/><path class="h" d="M248.33,160.06a2.27,2.27,0,0,0-1,1.77v4.91l2-1.54v-4.92C249.35,160,248.9,159.73,248.33,160.06Z" transform="translate(-90.62 -88.81)"/><path class="h" d="M247.32,168c0,.65.45.92,1,.59a2.22,2.22,0,0,0,1-1.76v-1.21l-2,1.17Z" transform="translate(-90.62 -88.81)"/><path class="at" d="M251,167.79c0,.65.46.91,1,.59a2.25,2.25,0,0,0,1-1.77v-3.19l-2,1.18Z" transform="translate(-90.62 -88.81)"/><path class="d" d="M252,155.94a2.28,2.28,0,0,0-1,1.77v6.89l2-1.18v-6.89C253.06,155.88,252.61,155.62,252,155.94Z" transform="translate(-90.62 -88.81)"/><path class="h" d="M254.73,169c0,.65.46,1.29,1,1a2.25,2.25,0,0,0,1-1.77v-6.89l-2,1.18Z" transform="translate(-90.62 -88.81)"/><path class="h" d="M255.75,157.51a2.24,2.24,0,0,0-1,1.76v3.19l2-1.18v-3.55C256.77,157.08,256.32,157.18,255.75,157.51Z" transform="translate(-90.62 -88.81)"/><path class="at" d="M258.44,165.48c0,.65.46.91,1,.59a2.25,2.25,0,0,0,1-1.77v-5.16l-2,1.18Z" transform="translate(-90.62 -88.81)"/><path class="d" d="M259.46,153.63a2.28,2.28,0,0,0-1,1.77v4.92l2-1.18v-4.92C260.48,153.57,260,153.31,259.46,153.63Z" transform="translate(-90.62 -88.81)"/><path class="h" d="M262.15,161.93c0,.65.46.92,1,.59a3,3,0,0,0,1-2.13V157l-2,1.18Z" transform="translate(-90.62 -88.81)"/><path class="h" d="M263.17,150.09a2.36,2.36,0,0,0-1,1.4v6.32l2-.81v-6.32C264.19,150,263.74,149.76,263.17,150.09Z" transform="translate(-90.62 -88.81)"/><path class="at" d="M265.86,157.64c0,.65.46.91,1,.59a2.25,2.25,0,0,0,1-1.77v-1.6l-2,1.17Z" transform="translate(-90.62 -88.81)"/><path class="d" d="M266.88,146.46a2.24,2.24,0,0,0-1,1.76V156l2-1.17v-7.81C267.9,146.4,267.45,146.13,266.88,146.46Z" transform="translate(-90.62 -88.81)"/><path class="h" d="M270.59,145.81a2.24,2.24,0,0,0-1,1.76v6.32l2-1.54V146C271.61,145.74,271.16,145.48,270.59,145.81Z" transform="translate(-90.62 -88.81)"/><path class="h" d="M269.57,157.65c0,.65.46.91,1,.59a3,3,0,0,0,1-2.14v-3.38l-2,1.17Z" transform="translate(-90.62 -88.81)"/><path class="d" d="M275.32,147.39c0-.65-.45-.92-1-.59a2.26,2.26,0,0,0-1,1.77v3.18l2-1.18Z" transform="translate(-90.62 -88.81)"/><path class="at" d="M273.28,151.75v3.19c0,.65.46.91,1,.59a2.25,2.25,0,0,0,1-1.77v-3.19Z" transform="translate(-90.62 -88.81)"/><polygon class="au" points="186.45 61.28 151.24 81.61 151.24 80.79 186.45 60.47 186.45 61.28"/><polyline class="av" points="151.24 93.86 154 90.53 162.44 86.52 165.63 82.43 176.26 80.17 183.68 72.01"/><path class="h" d="M255.75,171.53a1.08,1.08,0,0,1,.48-.83c.27-.15.48,0,.48.28a1,1,0,0,1-.48.83C256,172,255.75,171.84,255.75,171.53Z" transform="translate(-90.62 -88.81)"/><polyline class="aw" points="151.24 96.97 156.69 88.14 158.73 87.94 161.42 89.29 164.11 85.25 169.38 83.66 175.24 77.44 179.43 79.17 180.99 75.92 186.45 70.41"/><path class="h" d="M246.84,177.24a1,1,0,0,1,.48-.83c.26-.16.47,0,.47.27a1.05,1.05,0,0,1-.47.83C247.05,177.67,246.84,177.54,246.84,177.24Z" transform="translate(-90.62 -88.81)"/><path class="h" d="M265.38,166.53a1.06,1.06,0,0,1,.48-.83c.27-.16.48,0,.48.27a1.07,1.07,0,0,1-.48.84A.3.3,0,0,1,265.38,166.53Z" transform="translate(-90.62 -88.81)"/><path class="h" d="M269.57,168.27a1.1,1.1,0,0,1,.48-.84c.27-.15.48,0,.48.28a1,1,0,0,1-.48.83C269.79,168.7,269.57,168.57,269.57,168.27Z" transform="translate(-90.62 -88.81)"/><path class="h" d="M251.56,178.39a1.1,1.1,0,0,1,.48-.84c.27-.15.48,0,.48.28a1,1,0,0,1-.48.83C251.78,178.82,251.56,178.69,251.56,178.39Z" transform="translate(-90.62 -88.81)"/><path class="g" d="M174,152.53l-43.28-25a1.06,1.06,0,0,0-1.08-.11l-.81.47a1.06,1.06,0,0,1,1.08.11l43.28,25a3.26,3.26,0,0,1,1.5,2.6l-.08,30.34a1.06,1.06,0,0,1-.44,1l.81-.47a1.08,1.08,0,0,0,.44-1l.08-30.34A3.31,3.31,0,0,0,174,152.53Z" transform="translate(-90.62 -88.81)"/><path class="ax" d="M173.2,153a3.26,3.26,0,0,1,1.5,2.6l-.08,30.34c0,1-.68,1.35-1.51.87l-43.29-25a3.35,3.35,0,0,1-1.5-2.61l.09-30.34c0-1,.67-1.35,1.51-.86Z" transform="translate(-90.62 -88.81)"/><path class="ay" d="M164.53,161.88c-1.92-.43-3.61,0-5.48-.24a8.35,8.35,0,0,1-5.8-3.38c-1.64-2.18-2.51-5.27-4.42-6.87-2.23-1.87-4.13-.29-6.4-1.24a12.42,12.42,0,0,1-3.38-2.67c-1.09-1.08-2.88-3.37-4-4.15a7,7,0,0,0-.72-.42v15.4l34.44,19.88V163.93A11.56,11.56,0,0,0,164.53,161.88Z" transform="translate(-90.62 -88.81)"/><path class="az" d="M161.82,166.57c-2.29-.89-4.2-.13-6.45-.82-2.8-.87-5.7-3.84-8.26-6.83s-5.1-6.26-8-8.26a6.68,6.68,0,0,0-4.86-1.43v9.08l34.44,19.88v-6C166.49,170,164.17,167.49,161.82,166.57Z" transform="translate(-90.62 -88.81)"/><line class="ba" x1="48.11" y1="50.76" x2="48.11" y2="72.06"/><line class="ba" x1="53.15" y1="53.67" x2="53.15" y2="74.97"/><line class="ba" x1="58.19" y1="56.58" x2="58.19" y2="77.88"/><line class="ba" x1="63.23" y1="59.49" x2="63.23" y2="80.79"/><line class="ba" x1="68.27" y1="62.4" x2="68.27" y2="83.7"/><line class="ba" x1="73.31" y1="65.31" x2="73.31" y2="86.61"/><line class="bb" x1="33.44" y1="74.84" x2="33.44" y2="76.48"/><path class="bc" d="M122.57,165.92s-2.6,1.94-3,4c-.31,1.85.56,3,2.55,5.13" transform="translate(-90.62 -88.81)"/><path class="bd" d="M124.51,176.6h0a.63.63,0,0,1-.79.22l-1.1-.52a.82.82,0,0,1-.33-1.21h0a.83.83,0,0,1,1.25-.13l.88.83A.64.64,0,0,1,124.51,176.6Z" transform="translate(-90.62 -88.81)"/><path class="be" d="M124.74,197s.58.57,1,.48c.57-.15,2.73-.76,3.43-1.63s-.08-1.12-.72-1c-1.81.44-2.43.69-3.06.86A.93.93,0,0,0,124.74,197Z" transform="translate(-90.62 -88.81)"/><path class="be" d="M121.66,195.32s.58.57,1,.47c.57-.14,2.73-.75,3.44-1.62s-.09-1.12-.73-1c-1.8.45-2.42.7-3,.87A.93.93,0,0,0,121.66,195.32Z" transform="translate(-90.62 -88.81)"/><line class="bf" x1="35" y1="107.2" x2="35.49" y2="104.14"/><line class="bf" x1="32.03" y1="105.37" x2="32.77" y2="102.36"/><path class="h" d="M121.79,176a52,52,0,0,1,5.19.72,4.25,4.25,0,0,1,.46,3,31.83,31.83,0,0,1,.43,6.42,47.85,47.85,0,0,1-.92,8.71.69.69,0,0,1-.78.64,2.17,2.17,0,0,1-.57-.07c-.38-.11-.67-.32-.57-.8a38.9,38.9,0,0,0,.92-8.46,25.69,25.69,0,0,0-.72-5.9,5.75,5.75,0,0,1-1-.33,32.76,32.76,0,0,1,.29,4.8,39,39,0,0,1-.48,8.55.9.9,0,0,1-.9.79,1.09,1.09,0,0,1-.26,0,1,1,0,0,1-.69-1.33,38.54,38.54,0,0,0,.44-7.91C122.53,182.48,120.67,176,121.79,176Z" transform="translate(-90.62 -88.81)"/><path class="d" d="M120.92,176.2a1.49,1.49,0,0,0,.66,1.26,11.33,11.33,0,0,0,3.53,1.66c2.18.31,2.36-1.12,2.36-1.12s-.06-8.58-.37-10.36c-.16-.95-.9-1.42-1.67-1.93l-.28-.18a3.63,3.63,0,0,0-1.94-.57,2.53,2.53,0,0,0-.5,0,2,2,0,0,0-1.37,1,1.49,1.49,0,0,0-.26.8Z" transform="translate(-90.62 -88.81)"/><path class="bd" d="M126.93,161.12c.49,1.42,0,3-1.05,3.43a1.43,1.43,0,0,1-.5.09,2.7,2.7,0,0,1-2.12-1.42,3.45,3.45,0,0,1-.33-.7.69.69,0,0,1,0-.1l-.06-.23a2.43,2.43,0,0,1,.46-2.24,1.74,1.74,0,0,1,.54-.43l.25-.11a2.11,2.11,0,0,1,2.4.86A3.42,3.42,0,0,1,126.93,161.12Z" transform="translate(-90.62 -88.81)"/><path class="be" d="M122.71,160.17c.88-2.48,3.22-1.4,3.81-.21.11.23,0,.41-.22.53a1,1,0,0,1-.37.64c-.38.21.49.75.24,1s-.53-.27-.83,0,.53.9.06,1.15-.84,1.32-1.94,1.09-1.4-1.65-1.51-2.52A1.75,1.75,0,0,1,122.71,160.17Z" transform="translate(-90.62 -88.81)"/><path class="bd" d="M126.17,162.39a.65.65,0,0,1-.21.85c-.27.11-.61-.12-.75-.47a.57.57,0,0,1,.25-.77A.57.57,0,0,1,126.17,162.39Z" transform="translate(-90.62 -88.81)"/><path class="bc" d="M126.37,168s2.62,1.91,4.73,1.64c1.86-.24,2.7-1.4,4.15-3.93" transform="translate(-90.62 -88.81)"/><path class="bd" d="M136,163h0a.62.62,0,0,1,.43.69l-.17,1.21a.82.82,0,0,1-1.06.66h0a.81.81,0,0,1-.49-1.15l.54-1.09A.63.63,0,0,1,136,163Z" transform="translate(-90.62 -88.81)"/><line class="bb" x1="200.78" y1="72.03" x2="200.78" y2="73.67"/><path class="bc" d="M292.89,163.11s2.6,1.95,2.95,4c.32,1.85-.55,3-2.54,5.12" transform="translate(-90.62 -88.81)"/><path class="bd" d="M291,173.8h0a.63.63,0,0,0,.79.21l1.1-.52a.83.83,0,0,0,.33-1.21h0a.83.83,0,0,0-1.25-.13L291,173A.62.62,0,0,0,291,173.8Z" transform="translate(-90.62 -88.81)"/><path class="be" d="M290.72,194.22s-.58.57-1,.47c-.57-.14-2.73-.75-3.44-1.62s.09-1.12.73-1c1.8.45,2.42.7,3.05.87A.93.93,0,0,1,290.72,194.22Z" transform="translate(-90.62 -88.81)"/><path class="be" d="M293.79,192.51s-.58.57-1,.48c-.57-.14-2.73-.76-3.43-1.63s.08-1.12.73-1c1.8.44,2.42.69,3.05.86A.93.93,0,0,1,293.79,192.51Z" transform="translate(-90.62 -88.81)"/><line class="bf" x1="199.21" y1="104.39" x2="198.72" y2="101.33"/><line class="bf" x1="202.18" y1="102.57" x2="201.45" y2="99.56"/><path class="h" d="M293.66,173.19a49.43,49.43,0,0,0-5.19.71,4.33,4.33,0,0,0-.46,3,31.85,31.85,0,0,0-.42,6.42,47.94,47.94,0,0,0,.92,8.71.69.69,0,0,0,.77.64,2.7,2.7,0,0,0,.58-.08c.37-.1.67-.32.57-.8a39.53,39.53,0,0,1-.93-8.45,25.68,25.68,0,0,1,.73-5.9,6,6,0,0,0,1-.33,35.68,35.68,0,0,0-.29,4.8,40.31,40.31,0,0,0,.48,8.55.92.92,0,0,0,.91.79.74.74,0,0,0,.26,0,1,1,0,0,0,.69-1.32,38.62,38.62,0,0,1-.45-7.92C292.93,179.67,294.78,173.2,293.66,173.19Z" transform="translate(-90.62 -88.81)"/><path class="d" d="M294.54,173.39a1.53,1.53,0,0,1-.66,1.27,11.27,11.27,0,0,1-3.53,1.65c-2.19.31-2.37-1.12-2.37-1.12s.07-8.57.37-10.35c.17-1,.91-1.43,1.68-1.94l.28-.18a3.69,3.69,0,0,1,1.94-.57,2.57,2.57,0,0,1,.5,0,2,2,0,0,1,1.37,1,1.45,1.45,0,0,1,.25.8Z" transform="translate(-90.62 -88.81)"/><path class="bd" d="M288.53,158.32c-.5,1.42-.06,3,1.05,3.43a1.36,1.36,0,0,0,.49.08,2.72,2.72,0,0,0,2.13-1.41,4.19,4.19,0,0,0,.33-.71l0-.1a1.87,1.87,0,0,0,.07-.22,2.49,2.49,0,0,0-.46-2.25,1.87,1.87,0,0,0-.55-.42,1.12,1.12,0,0,0-.25-.11,2.1,2.1,0,0,0-2.4.86A3,3,0,0,0,288.53,158.32Z" transform="translate(-90.62 -88.81)"/><path class="be" d="M292.75,157.37c-.89-2.49-3.23-1.41-3.81-.21-.12.22,0,.41.22.53a1,1,0,0,0,.36.64c.39.21-.48.74-.24,1s.53-.27.84,0-.53.91-.06,1.15.83,1.33,1.93,1.09,1.41-1.64,1.51-2.52A1.7,1.7,0,0,0,292.75,157.37Z" transform="translate(-90.62 -88.81)"/><path class="bd" d="M289.28,159.59c-.13.34,0,.74.22.84s.61-.12.74-.46a.53.53,0,1,0-1-.38Z" transform="translate(-90.62 -88.81)"/><path class="bd" d="M286.54,175.75h0a.64.64,0,0,1-.19-.8l.57-1.08a.82.82,0,0,1,1.22-.28h0a.83.83,0,0,1,.08,1.26l-.87.84A.62.62,0,0,1,286.54,175.75Z" transform="translate(-90.62 -88.81)"/><path class="bc" d="M289.5,164.44s-2.94,1.37-3.72,3.35c-.69,1.75-.07,3,1.43,5.54" transform="translate(-90.62 -88.81)"/><polygon class="be" points="50.03 94.18 52.48 92.76 52.47 95.61 50.02 97.03 50.03 94.18"/><polygon class="h" points="47.55 92.75 50 91.32 52.48 92.76 50.03 94.18 47.55 92.75"/><polygon class="bg" points="50.03 94.18 50.02 97.03 47.54 95.6 47.55 92.75 50.03 94.18"/><polygon class="be" points="55.62 97.74 58.07 96.32 58.06 99.18 55.61 100.6 55.62 97.74"/><polygon class="h" points="53.14 96.31 55.58 94.89 58.07 96.32 55.62 97.74 53.14 96.31"/><polygon class="bg" points="55.62 97.74 55.61 100.6 53.13 99.17 53.14 96.31 55.62 97.74"/><polygon class="be" points="61.68 101.05 64.13 99.63 64.12 102.48 61.67 103.9 61.68 101.05"/><polygon class="h" points="59.2 99.62 61.65 98.19 64.13 99.63 61.68 101.05 59.2 99.62"/><polygon class="bg" points="61.68 101.05 61.67 103.9 59.19 102.47 59.2 99.62 61.68 101.05"/><path class="bh" d="M276.8,194.25l-16,9.32a3.33,3.33,0,0,1-3,0L251.6,200a1.07,1.07,0,0,1-.62-.88v2.22a1.09,1.09,0,0,0,.63.88l6.15,3.54a3.27,3.27,0,0,0,3,0l16-9.31a1.07,1.07,0,0,0,.62-.87v-2.21A1.06,1.06,0,0,1,276.8,194.25Z" transform="translate(-90.62 -88.81)"/><path class="bi" d="M276.79,192.51a.92.92,0,0,1,0,1.74l-16,9.32a3.33,3.33,0,0,1-3,0L251.6,200a.92.92,0,0,1,0-1.74l16-9.32a3.33,3.33,0,0,1,3,0Z" transform="translate(-90.62 -88.81)"/><ellipse class="h" cx="168.58" cy="111.73" rx="0.64" ry="0.37"/><path class="e" d="M261.56,199.18c-.25-.15-.25-.38,0-.52a1,1,0,0,1,.9,0c.25.14.25.37,0,.52A1,1,0,0,1,261.56,199.18Z" transform="translate(-90.62 -88.81)"/><ellipse class="h" cx="174.2" cy="108.48" rx="0.64" ry="0.37"/><ellipse class="d" cx="177.01" cy="106.86" rx="0.64" ry="0.37"/><polygon class="bj" points="136.24 64.13 140.63 61.58 140.61 72.9 136.22 75.45 136.24 64.13"/><polygon class="f" points="131.78 61.55 136.17 59 140.63 61.58 136.24 64.13 131.78 61.55"/><polygon class="bk" points="136.24 64.13 136.22 75.45 131.76 72.88 131.78 61.55 136.24 64.13"/><path class="bc" d="M199.3,245.59s2.73,1.75,4.82,1.36c1.84-.35,2.61-1.56,3.92-4.17" transform="translate(-90.62 -88.81)"/><path class="bd" d="M208.65,240.05h0a.63.63,0,0,1,.47.67l-.1,1.21a.83.83,0,0,1-1,.73h0a.83.83,0,0,1-.56-1.13l.48-1.12A.63.63,0,0,1,208.65,240.05Z" transform="translate(-90.62 -88.81)"/><path class="be" d="M195.39,275.24s-.27.76,0,1.07,1.94,2.13,3.07,2.39,1-.56.58-1.07c-1.23-1.44-1.74-1.89-2.19-2.38A1,1,0,0,0,195.39,275.24Z" transform="translate(-90.62 -88.81)"/><line class="bl" x1="105.63" y1="186.57" x2="105.77" y2="183.47"/><path class="be" d="M199.14,274.14s-.29.83.06.95a14.84,14.84,0,0,0,3.81.57c1.07,0,.56-.91,0-1.12-1.63-.59-2.25-.72-2.83-.91S199.16,273.74,199.14,274.14Z" transform="translate(-90.62 -88.81)"/><line class="bl" x1="109.19" y1="184.77" x2="109.31" y2="181.67"/><path class="h" d="M200.9,258a.5.5,0,0,0,.1-.28c.05-.82.28-2.46-.27-2.62s-5.57,1.48-5.57,1.48a3.91,3.91,0,0,0,.15,3l.45,6.4-.43,8.3a.69.69,0,0,0,.66.73l.61,0a.69.69,0,0,0,.73-.66l.44-8.42v-6.08l1-.47.6,5-.43,8.14a.87.87,0,0,0,.81.9h.3a.85.85,0,0,0,.9-.8l.43-8.27Z" transform="translate(-90.62 -88.81)"/><path class="d" d="M201.09,255.56a1.47,1.47,0,0,1-.66,1.26,11.16,11.16,0,0,1-3.52,1.66c-2.19.31-2.37-1.12-2.37-1.12s.06-8.58.37-10.35c.17-.95.9-1.43,1.68-1.94l.27-.18a3.65,3.65,0,0,1,1.94-.57,2.67,2.67,0,0,1,.51.05,2,2,0,0,1,1.36,1,1.52,1.52,0,0,1,.26.8Z" transform="translate(-90.62 -88.81)"/><path class="bm" d="M196.91,244.52s0-.2,1-.31l.07,1-1-.12Z" transform="translate(-90.62 -88.81)"/><line class="bb" x1="107.33" y1="154.2" x2="107.33" y2="155.84"/><path class="g" d="M196.91,244.52l-.1.87a12.31,12.31,0,0,0,.6,1.16l.88-1.24A3.46,3.46,0,0,1,196.91,244.52Z" transform="translate(-90.62 -88.81)"/><path class="g" d="M198.84,244.77a1.11,1.11,0,0,1-.61.54l1,.6a7.59,7.59,0,0,0-.18-1.46S199,244.32,198.84,244.77Z" transform="translate(-90.62 -88.81)"/><polygon class="bn" points="134.65 175.87 140.46 172.49 140.44 179.27 134.63 182.64 134.65 175.87"/><polygon class="bo" points="128.75 172.46 134.56 169.08 140.46 172.49 134.65 175.87 128.75 172.46"/><polygon class="bp" points="134.65 175.87 134.63 182.64 128.73 179.24 128.75 172.46 134.65 175.87"/><line class="ai" x1="118.78" y1="185.06" x2="131.69" y2="177.55"/><polygon class="bq" points="115.86 186.84 121.67 183.47 121.65 190.25 115.84 193.62 115.86 186.84"/><polygon class="br" points="109.96 183.44 115.77 180.06 121.67 183.47 115.86 186.84 109.96 183.44"/><polygon class="bs" points="115.86 186.84 115.84 193.62 109.94 190.22 109.96 183.44 115.86 186.84"/><line class="ai" x1="116.08" y1="183.47" x2="116.08" y2="166.17"/><polygon class="bt" points="116.14 160.43 121.94 157.05 121.93 163.83 116.12 167.21 116.14 160.43"/><polygon class="bu" points="110.24 157.03 116.05 153.65 121.94 157.05 116.14 160.43 110.24 157.03"/><polygon class="bv" points="116.14 160.43 116.12 167.21 110.22 163.8 110.24 157.03 116.14 160.43"/><polygon class="be" points="116.11 155.23 118.55 153.81 118.54 156.66 116.1 158.08 116.11 155.23"/><polygon class="h" points="113.62 153.79 116.07 152.37 118.55 153.81 116.11 155.23 113.62 153.79"/><polygon class="bg" points="116.11 155.23 116.1 158.08 113.61 156.65 113.62 153.79 116.11 155.23"/><path class="bd" d="M200.42,240.84c.49,1.42.05,3-1,3.43a1.69,1.69,0,0,1-.5.08,2.71,2.71,0,0,1-2.12-1.43,3.22,3.22,0,0,1-.33-.7l0-.1a2,2,0,0,1-.07-.23,2.46,2.46,0,0,1,.47-2.24,1.87,1.87,0,0,1,.55-.42,1.12,1.12,0,0,1,.25-.11A2.09,2.09,0,0,1,200,240,3,3,0,0,1,200.42,240.84Z" transform="translate(-90.62 -88.81)"/><path class="be" d="M200,239.68c-.58-1.2-2.92-2.29-3.81.19a1.44,1.44,0,0,0,.21,2.35s.37.83.74.41-.36-1.42-.35-1.68a.7.7,0,0,1,.22-.43,1.62,1.62,0,0,0,.92.33c.58.06.64-.25.57-.56C199.52,240.48,200.27,240.18,200,239.68Z" transform="translate(-90.62 -88.81)"/><path class="bd" d="M196.8,242.13a.65.65,0,0,1,.14.87.66.66,0,0,1-.87-.14.56.56,0,0,1-.07-.8A.55.55,0,0,1,196.8,242.13Z" transform="translate(-90.62 -88.81)"/><path class="bc" d="M195.53,247.55s-.26,3.23,1.07,4.89c1.18,1.46,2.61,1.57,5.52,1.5" transform="translate(-90.62 -88.81)"/><path class="bd" d="M204.82,253.18h0a.63.63,0,0,1-.36.73l-1.12.48a.83.83,0,0,1-1.13-.55h0a.83.83,0,0,1,.73-1l1.21-.11A.63.63,0,0,1,204.82,253.18Z" transform="translate(-90.62 -88.81)"/></svg>