<svg xmlns="http://www.w3.org/2000/svg" viewBox="0 0 583.92 504"><defs><style>.cls-1{fill:#ddecff;}.cls-2{fill:#60a8ff;}.cls-3{fill:#223a7a;}.cls-22,.cls-4{fill:#fff;}.cls-5{fill:#1c83ff;}.cls-6{fill:#ff9d8c;}.cls-7{fill:#8593b6;}.cls-8{fill:#8e9bbb;}.cls-9{fill:#dee1eb;}.cls-10{fill:#818fb3;}.cls-11{fill:#6baeff;}.cls-12{fill:#43588e;}.cls-13{fill:#f6f7fa;}.cls-14{fill:#d9dee8;}.cls-15{fill:#596b9b;}.cls-16{fill:#7a89af;}.cls-17{fill:#bdc4d7;}.cls-18{fill:#6f7fa9;}.cls-19{fill:#9ca6c3;}.cls-20{fill:#d2e6ff;}.cls-21{fill:#ff5f42;}.cls-22{isolation:isolate;font-size:15px;font-family:Arial-BoldMT, Arial;font-weight:700;}.cls-23{fill:#67acff;}</style></defs><title>Risorsa 3cont</title><g id="Livello_2" data-name="Livello 2"><g id="Livello_1-2" data-name="Livello 1"><g id="Livello_2-2" data-name="Livello 2"><g id="BACKGROUND"><path class="cls-1" d="M100.06,481.54s-72.72-60-93.64-162S17.42,93.7,78,31.23,247.69,10.82,296.16,63.12l48.49,52.31s46.27,29.29,106.86,26.8,114.58,93.14,128.9,168.42-19.84,174.78-19.84,174.78Z"/><path class="cls-1" d="M67,494.56s-50.68-29.15-63.9-96.78S47.18,268.36,52.69,234.54,46,158.76,96.75,126.06s141-20.94,175.18-29.08,73.79-64.15,142.13-51.33S548.51,97,551.76,180.91s-22,86.28,3.32,131.76,35.25,76.95,23.13,123.59-37.46,59.44-37.46,59.44Z"/><path class="cls-1" d="M172.82,481.24c-3.14-3.1-49.39-90,2.1-169.6s180.76-70.33,232.24-39.3,76.72,71.36,82,113.72-29.43,108.58-29.43,108.58Z"/></g><g id="OBJECTS"><path class="cls-2" d="M476,294.66h59.4A6.46,6.46,0,0,1,542,300.9v27.85a6.46,6.46,0,0,1-6.66,6.24H476a6.45,6.45,0,0,1-6.65-6.24V300.9A6.45,6.45,0,0,1,476,294.66Z"/><polygon class="cls-2" points="505.67 350.76 515.09 329.82 496.26 329.82 505.67 350.76"/><polygon class="cls-3" points="505.45 307.9 522.46 307.9 522.46 310.24 530.79 305.73 522.46 301.22 522.46 303.55 505.45 303.55 505.45 307.9"/><polygon class="cls-4" points="530.79 317.07 513.79 317.07 513.79 314.75 505.45 319.26 513.79 323.77 513.79 321.44 530.79 321.44 530.79 317.07"/><path class="cls-3" d="M495,321.19l-.8.27a23.86,23.86,0,0,1-3.83-5.65,18.83,18.83,0,0,1-1.33-6.53l.58-.24L486,301a6.7,6.7,0,0,0-1.75,1.85c-2,3.23-1.83,8.18.22,13s4.23,9.16,8.22,11.87a8.28,8.28,0,0,0,5.95,1.65Z"/><path class="cls-3" d="M497.59,320.24l-1.12.37,3.69,8.27a5.87,5.87,0,0,0,1.11-.45,2,2,0,0,0,1-2.5l-1.92-4.53A2.18,2.18,0,0,0,497.59,320.24Z"/><path class="cls-3" d="M488.82,299.5a10.33,10.33,0,0,0-1.44.64l3.68,8.25,1.23-.48a2,2,0,0,0,1.18-2.58l-1.93-4.58A2.21,2.21,0,0,0,488.82,299.5Z"/><path class="cls-5" d="M155.65,467.28V374.21s-1.11-25.08,12.95-32.32,73.22-3.36,73.22-3.36V467.25Z"/><path class="cls-6" d="M260.36,251.39s-3.58,28.19-5,30.52l-1.33,2.32-6.86,4.4s13.22,17.58,29.46,20.42,14.89-6.25,14.89-6.25l-2.49-4.92L292.38,271S262.84,258.38,260.36,251.39Z"/><path class="cls-4" d="M238.6,291l10.74-4.4s6.88,10.59,22.86,16.81,16.25,2.58,17.08,0a9.35,9.35,0,0,0-.28-5.44l1.18-9.05,6.39,2,22.18,168.39-57,2.59Z"/><path class="cls-3" d="M291.21,289.06s3.86,8.36,7.44,28,6.88,52.74,7.71,75.5,1.33,74.71,1.33,74.71h71.89c.82,0,5.79-25.59,5.79-25.59s-31.37-25.25-33-29.39c-1.1-2.75-.55-53.86-5.23-77.39s-10.74-28.27-23.44-34.16C310.62,294.72,291.21,289.06,291.21,289.06Z"/><path class="cls-7" d="M328.67,437.67A.64.64,0,0,1,328,437c0-1.85-.36-28.12-.7-53.52s-.69-51.66-.69-53.52a.67.67,0,0,1,1.33,0c0,1.85.36,28.11.69,53.51s.7,51.67.7,53.53A.67.67,0,0,1,328.67,437.67Z"/><path class="cls-3" d="M185.44,431.34l-.54,35.94h83.72s3.58-30.5,2.21-33.35S185.44,431.34,185.44,431.34Z"/><path class="cls-8" d="M278.63,281.13a44.43,44.43,0,0,0,11.71,5.9l2-16s-22.13-9.52-29.64-16.61C264.24,262.49,268.1,273.15,278.63,281.13Z"/><path class="cls-6" d="M318.21,198.91a53.75,53.75,0,0,1,6.88,20.69c1.1,11.37,0,40.59-9.92,53s-30.62,8.75-39.94,1.25c-8.6-6.87-17.08-14.47-19.27-29.47s4.67-43.44,24.23-49.39S318.21,198.91,318.21,198.91Z"/><path class="cls-6" d="M343.06,451h-3.58l-4.9-.13h-1.17c-1.73,0-3.21.17-4.59.09h-1.51a6.86,6.86,0,0,1-1.82-.67,131.3,131.3,0,0,0-28.57-3.58c-12.3,0-23.34.84-25.13-.57s-2.91-15.95,7.6-16.9l12.91,4.6s29.49-3.29,40.3,4.2S343.06,451,343.06,451Z"/><path class="cls-3" d="M328.76,450.91H327.7a12.79,12.79,0,0,0-1.13-1.42c-3.33-3.19-11.37-5.25-14.29-5.91a.47.47,0,0,1-.37-.56.5.5,0,0,1,.61-.35h0c4.25,1,13.32,3.42,15.82,7.49C328.42,450.28,328.63,450.71,328.76,450.91Z"/><path class="cls-3" d="M334.57,450.85H333.4c-3.64-6.25-9.57-8-16.92-10.22l-.44-.14a.47.47,0,0,1-.32-.59.52.52,0,0,1,.64-.3h0l.42.14C324.54,442,330.8,443.92,334.57,450.85Z"/><path class="cls-3" d="M340.6,451h-1.13a28.93,28.93,0,0,0-19.15-13.32.47.47,0,0,1-.41-.53v0a.52.52,0,0,1,.57-.38C330.43,438.49,338.46,446.1,340.6,451Z"/><path class="cls-3" d="M262.56,231.62a25,25,0,0,0,10.33-10.35,27.82,27.82,0,0,0,3.72-14.48s7.72-1.16,19.29,2.08,25.29,7.62,36.9,1.42,11.57-16.16,5.92-20.29c-6.32-4.64-18.86-1.82-18.86-1.82s4.82-4.4,2.19-7-12.11.77-12.11.77-11.57-8.66-33.47-7.62-32.36,15.38-33.6,31.43,4.95,32.05,4.95,32.05Z"/><path class="cls-8" d="M307,235.51c-1.23,2.86-1.21,6.25-1.51,9.25-.24,2.37-.71,5.13,1.61,6.73,1.1.76,6.32,2.83,3.63,4.5a7.5,7.5,0,0,1-3.9.41,16.28,16.28,0,0,1-2.42-.12,17.87,17.87,0,0,0-2.57-.31.49.49,0,0,0-.49.49.48.48,0,0,0,.24.38,11.2,11.2,0,0,0,5,1.13,8,8,0,0,0,4.18-.69,2.93,2.93,0,0,0,1.92-2,3.18,3.18,0,0,0-1.65-2.77c-1-.72-2.32-1.06-3.37-1.77-1.46-1-1.33-2.62-1.24-4.16.24-3.68,1.15-7.29,1.49-10.95,0-.55-.77-.55-1-.11Z"/><path class="cls-3" d="M318.25,244.09c-.42,2.19-2.11,3.75-3.77,3.45s-2.66-2.27-2.29-4.45,2.1-3.74,3.77-3.45S318.66,241.92,318.25,244.09Z"/><path class="cls-3" d="M297.17,242.37c-.37,2.35-2.14,4.06-4,3.75s-3-2.36-2.6-4.71,2.15-4,4-3.75S297.55,240,297.17,242.37Z"/><path class="cls-3" d="M313.33,235.12c1.34.2,2.6,0,3.89.08l.93.08h.1l.49.09c.27.06.53.16.81.23a5.17,5.17,0,0,0,.79.1l.42-.07H321a1.35,1.35,0,0,0,1-1.63,1.43,1.43,0,0,0-.28-.53c0-.07-.11-.14-.17-.2l.16.16-.17-.21a.84.84,0,0,0-.29-.27l-.32-.23a4.18,4.18,0,0,0-1.19-.45,11.06,11.06,0,0,0-2.37-.29,18.29,18.29,0,0,0-2.34.18,4.74,4.74,0,0,0-2,.7,1.23,1.23,0,0,0-.63,1.25,1.28,1.28,0,0,0,.93,1Z"/><path class="cls-3" d="M298.65,231.66a3.82,3.82,0,0,0-.54-.26c-.15-.07-.58-.28-.26-.12l-.36-.17a8.76,8.76,0,0,0-1.66-.56,11.65,11.65,0,0,0-3.86-.25,9.35,9.35,0,0,0-3.82,1.12,2.41,2.41,0,0,0-.5.33l-.26.33V232a1.21,1.21,0,0,0-.57,1.05,1.07,1.07,0,0,0,.6.94,1.8,1.8,0,0,0,1.33,0h-.7a2.6,2.6,0,0,0,1,0s.38-.09.14,0,.37,0,.44,0h.23l.63-.06c.91,0,1.81-.1,2.73-.13s1.7,0,2.56,0h1.3l.45.14a1.38,1.38,0,0,0,1.51-.69,1.22,1.22,0,0,0-.52-1.5Z"/><path class="cls-3" d="M305.19,267.6a12.24,12.24,0,0,1,6.21-5.26c-2.3-.23-13.19-1.16-16,.3-3.08,1.64.57,8.23,6.94,8.56a8.93,8.93,0,0,0,1.86-.1A8.15,8.15,0,0,1,305.19,267.6Z"/><path class="cls-9" d="M254.85,253.73s1.11,4,7.44,8.66a75,75,0,0,0,15.54,8.05l.73-3s-9.5-3.88-13.91-8.15-4.95-6.59-4.95-6.59Z"/><path class="cls-3" d="M279.64,265.2a7.9,7.9,0,0,1,8.29,6c.36,2.5-2.09,5.2-7.81,2.79C273,271,274.54,265.41,279.64,265.2Z"/><path class="cls-9" d="M258.85,224.12s2.19-14.85,12.8-25C291.9,179.87,309.11,181,309.11,181s-.14-2.72-6.65-4.79c-6.07-1.94-8.81-.9-8.81-.9s-16.67,1.25-30.72,15.9-15.52,33.27-15.52,33.27Z"/><path class="cls-4" d="M257.33,222.31c-13.31-2.11-20.66,7.63-21.21,17.5s7.1,17.21,17.22,16.49C276.19,254.63,273.58,224.9,257.33,222.31Z"/><path class="cls-10" d="M250.73,246.76a9.15,9.15,0,0,1-8.15-4.55,9,9,0,0,1,.38-9.78.53.53,0,0,1,.7-.12.45.45,0,0,1,.13.65h0A8.19,8.19,0,0,0,251,245.77a8.89,8.89,0,0,0,7.23-3.66,9.8,9.8,0,0,0,1.09-9.19,7.46,7.46,0,0,0-7.43-4.58.5.5,0,0,1-.56-.4h0a.49.49,0,0,1,.43-.53,8.36,8.36,0,0,1,8.5,5.19,10.73,10.73,0,0,1-1.19,10,10,10,0,0,1-8,4.08Z"/><path class="cls-3" d="M241.07,287.33s-40.2,9.31-54.24,24.31-20.66,88.94-20.94,102.65,9.91,19.39,16,23.26,32.78,10.86,54.26,11.9,41.87,0,41.87,0a25.63,25.63,0,0,1,3.24-10.86c3.06-6,6.94-7.25,6.94-7.25l-18.45-6.24s-3.23-54.37-8.26-80.61C255.68,314.23,241.07,287.33,241.07,287.33Z"/><path class="cls-7" d="M307.73,416.46a.61.61,0,0,1-.27,0,.61.61,0,0,1-.33-.82c3.77-8,7.67-23.65,9.87-34.65l.18-.88c.67-3.24,1.49-7.26-.16-10-.85-1.41-2.75-4.49-4.58-7.44s-3.68-6-4.19-6.82c-1-1.69,2.09-6.25,6.51-12.38,1.18-1.68,2.22-3.11,2.82-4.09,1.59-2.5.53-4.91-.68-7.62l-.46-1c-1.1-2.5-2.35-5.08-3.56-7.5l-1.48-3c-.65-1.33-1.33-2.68-1.95-4.07a231.23,231.23,0,0,0-13-24.74.62.62,0,0,1,.24-.87.67.67,0,0,1,.89.21v0a232,232,0,0,1,13.14,24.83l2,4.06,1.48,3c1.21,2.5,2.46,5,3.58,7.59l.41.92c1.24,2.78,2.52,5.64.61,8.75-.62,1-1.66,2.5-2.87,4.16-2.31,3.23-7.11,9.94-6.45,11.09.5.85,2.28,3.75,4.17,6.79s3.76,6,4.59,7.5c1.89,3.18,1,7.44.31,10.87l-.19.88c-.8,4-5,24.51-10,34.92A.7.7,0,0,1,307.73,416.46Z"/><path class="cls-7" d="M268.51,418.66a.66.66,0,0,1-.46-.19c-3.15-3-18.23-27.49-19.36-32.1-.61-2.5.93-8.94,2.42-15.14,1.16-4.79,2.36-9.75,2-11.09-.52-2-4.38-5-8.11-7.84-4.51-3.46-9.17-7-10.08-10.26-1-3.66-.15-26.57.44-41.72.2-5.46.37-9.76.37-11.25a.65.65,0,0,1,.67-.63h0a.64.64,0,0,1,.66.63c0,1.55-.17,5.87-.37,11.33-.54,14.18-1.45,37.89-.48,41.38.8,2.82,5.49,6.42,9.63,9.61s8,6.09,8.56,8.5c.41,1.62-.72,6.25-2,11.67-1.33,5.79-3,12.32-2.43,14.58,1.11,4.51,16,28.6,19,31.51a.58.58,0,0,1,0,.86h0A.64.64,0,0,1,268.51,418.66Z"/><path class="cls-7" d="M214.37,407.93h-.09a.64.64,0,0,1-.58-.71h0c.5-3.25,8.14-68,8.48-72.94a.65.65,0,0,1,.72-.58.65.65,0,0,1,.62.67c-.36,5-8,69.78-8.5,73A.66.66,0,0,1,214.37,407.93Z"/><path class="cls-7" d="M269.18,425.51a.57.57,0,0,1-.26,0c-1.69-.64-9.17-3-18.63-6C231.17,413.45,205,405.16,200,402.74a.61.61,0,0,1-.28-.85.68.68,0,0,1,.89-.26c4.88,2.38,32.09,11,50.08,16.69,9.49,3,17,5.38,18.73,6a.6.6,0,0,1,.36.81A.71.71,0,0,1,269.18,425.51Z"/><path class="cls-7" d="M260,451.29c-16.82,0-49.43-2.85-74.21-11.07a.66.66,0,0,1-.44-.83.7.7,0,0,1,.88-.42c31.3,10.39,75.09,12.17,83.23,10.46a.69.69,0,0,1,.82.48.65.65,0,0,1-.52.77A57,57,0,0,1,260,451.29Z"/><path class="cls-11" d="M67.49,296.05c5.22,4.32,11.84,7.08,16.42,12.06,1.81,2,3.42,4.05,5.1,6.12,1.22,1.49,4.47,4,5,5.86.23.82.17-.3,0-1.13v-.1c-.45-3.81-.78-7.63-.93-11.47s.12-7.66-.13-11.49c-.38-5.37-2.16-10.59-6.85-14-2.29-1.63-5.24-2.65-7.34-4.47s-1.2-3.75,0-5.66a19.39,19.39,0,0,0,2.86-5.69,9.58,9.58,0,0,0-1.75-6.83c-2.73-4.3-8.78-9.1-14.51-8.45-4.78.54-5.32,5.71-5.24,9.31s.42,7,.46,10.51-.61,7.12-.66,10.71C59.67,287.46,62.66,292.11,67.49,296.05Z"/><path class="cls-11" d="M116,352a56.07,56.07,0,0,1,5.17-9.26c2.82-4.06,5.94-8,7.83-12.56s1.65-9.62,1.83-14.51c.15-3.58,1.34-7.17,1-10.78-.15-1.73-1.22-4.51-3.59-4.24-1.86.23-3,2.39-3.67,3.75a62.16,62.16,0,0,0-3,7.5c-.36,1-.71,2-1.16,2.93-.27.55-1.12,1.9-1.9,1.73-1.33-.33-.14-5.51,0-6.42,1-4.62,2.54-8.9,2.74-13.65.31-6.89-.25-15.08-7.43-18.85-1.88-1-4.25-1.57-6-.1s-2.26,4-2.52,6c-.79,6.36.79,12.38,3,18.36,1.79,5,3.92,10,4.08,15.32.14,5.09-2.67,9.58-4,14.4a42.8,42.8,0,0,0-1.67,14.18c0,3.1.1,6.17.34,9.27.23,2.85.49,5.69.87,8.52a12.36,12.36,0,0,0,.22,1.78c-1.17-2.64-1.58-5.65-2.54-8.3-1.72-4.7-3.7-9.31-5.32-14a110.79,110.79,0,0,0-4.44-11.6C94,328,92,324.23,88.85,321.65a10.44,10.44,0,0,0-6.74-2.5,19.6,19.6,0,0,0-4.63.92,5.5,5.5,0,0,1-5-.82c-5.13-3.75-6.65-10.36-10.5-15-2.79-3.5-9.53-9.46-14.46-5.65-2.66,2-3.35,5.95-3.2,8.95a20.76,20.76,0,0,0,4,10.36c2.22,3.35,5.08,6.35,7.14,9.79a9.81,9.81,0,0,1,1.19,6.24,14.17,14.17,0,0,0,.4,6.34c2.36,6.25,9.72,5.39,15.45,5.55a45.46,45.46,0,0,1,12.1,1.89,13,13,0,0,1,8.82,8.14c1.13,2.95,1.75,6.25,3.89,8.81a10,10,0,0,0,3.79,2.67c2.24.92,9,1.32,9.1.75a26.39,26.39,0,0,1,1.77-5.88C113.1,358.76,114.46,355.38,116,352Z"/><path class="cls-11" d="M147.55,350.84c-.58-3.59-.48-7.5-2.29-10.81a.52.52,0,0,0-.69-.18h0c-1.33.67-1.33,2.63-1.46,3.83-.18,2,0,4-.31,6a42.6,42.6,0,0,1-2.66,10.38,11.76,11.76,0,0,1-8.29,7,21.75,21.75,0,0,0-7.25,3,14.46,14.46,0,0,0-4.26,5.51c-2.66,5.64-4,11.92-5.18,17.95-.83,4.05-1.51,8.12-2.56,12.13a109.38,109.38,0,0,0-2.77,12.08c-.11.22-.22.42-.31.63-.28.61.75.94,1.09.44,4.14-6,9.19-11.35,16.06-14.64,3.1-1.48,7.23-1.8,9.82-4.13,2-1.78,2.24-4.49,1.95-6.91-.39-3.18-2-5.79-3.71-8.49-.93-1.49-2-3.09-1.65-4.88a6.35,6.35,0,0,1,3.37-3.84c2.85-1.66,6.19-2.41,8.53-4.81a12.75,12.75,0,0,0,3.63-8A52,52,0,0,0,147.55,350.84Z"/><path class="cls-11" d="M91.15,371.47a53.64,53.64,0,0,0-13-11.24c-2.66-1.65-8.88-4.9-10.14,0-.73,2.84,2.24,5.64,4.19,7.43,2.94,2.69,6.34,5,8.82,8.1-3.07.92-6.28,1.1-9,3.1-3.16,2.36-4.58,6.91-1.44,9.81a20.34,20.34,0,0,0,5.45,3.13c2.47,1.12,5,2.14,7.52,3.13,5.47,2.15,11,4.32,15.67,7.83s9.22,9.64,9.59,15.47c0,.57-.18,0,.16-.2.2.17.86-.13.86-.46a58.49,58.49,0,0,0-5.54-24.85A102.24,102.24,0,0,0,91.15,371.47Z"/><path class="cls-12" d="M78.54,290.76c2,3.92,4.13,7.74,6.37,11.57a93.46,93.46,0,0,1,5.91,11.25c2,4.83,4,9.59,6.15,14.39a135.76,135.76,0,0,1,5.68,15.25,170.76,170.76,0,0,1,6.43,31,117.65,117.65,0,0,1,.68,16c-.12,4.18-.63,8.32-1,12.5a68.59,68.59,0,0,0-.37,13.05c.33,3.62.94,7.93,4,10.52a.72.72,0,0,0,1-.06.63.63,0,0,0,.1-.71c-3.57-6.87-3.37-14.35-2.66-21.8.38-4.1.9-8.18,1-12.31a114.79,114.79,0,0,0-.56-15.73,175.42,175.42,0,0,0-6-30.39,130.51,130.51,0,0,0-5.33-15c-2.06-4.92-4.46-9.72-6.47-14.67-3.63-9-9.18-16.9-14.08-25.24-.26-.44-.92,0-.71.38Z"/><path class="cls-12" d="M109.25,364c.58-6.53,1.19-12.8,3.53-19,1.09-2.9,2.42-5.73,3.48-8.64.86-2.41,2.17-5.71,1.5-8.27a.29.29,0,0,0-.36-.22.3.3,0,0,0-.24.22c-.45,1.46-.4,3.06-.73,4.56a37.73,37.73,0,0,1-1.21,4.31c-1,3-2.37,5.9-3.54,8.87A41.55,41.55,0,0,0,108.76,364a.24.24,0,0,0,.48,0Z"/><path class="cls-12" d="M69,326.56c2.76,6.25,11,6.61,17.1,8a15.83,15.83,0,0,1,9.78,7.21,52.62,52.62,0,0,1,5.58,12.62h.08c-1.69-7.5-4.1-16.52-12.34-20-6.66-2.8-15.28-1.4-19.5-8.09-.22-.32-.86-.11-.7.28Z"/><path class="cls-12" d="M104.89,363.05c.33.41.62.85,1,1.25a3.18,3.18,0,0,0,.55.55,1.32,1.32,0,0,0,.77.36.16.16,0,0,0,.17-.14.11.11,0,0,0,0-.08,2.52,2.52,0,0,0-.58-.5l-.59-.49c-.38-.35-.73-.73-1.12-1.08,0-.06-.21,0-.14.12Z"/><path class="cls-12" d="M87.65,382.89a64.63,64.63,0,0,1,12.63,12.75,75.47,75.47,0,0,1,4.59,7.11A75.12,75.12,0,0,1,108.6,411c.08.21.49.21.47,0-.67-5.89-4.63-10.93-7.82-15.82a38,38,0,0,0-5.91-6.71,50.83,50.83,0,0,0-7.27-6c-.32-.21-.74.28-.42.53Z"/><path class="cls-12" d="M125.52,376c-2.29,1.25-2.35,4.62-2.41,6.78-.08,4.18,1,8.09-.93,12.06-1.76,3.59-4.57,6.59-6.79,9.91-2.06,3.13-4.1,7.11-4,10.86,0,.23.36.34.46.13a41.77,41.77,0,0,0,1.73-5.43,22.28,22.28,0,0,1,2.83-5.59c2.13-3.1,4.74-5.92,6.47-9.25s1.54-7,1.42-10.77c-.08-2.43-.33-6.33,1.74-8.13.34-.28-.08-.76-.46-.57Z"/><path class="cls-4" d="M110.2,416c-9.23-.11-26.73-.24-26.73-.24L87.81,446c1,6.82,7.19,11.91,14.52,11.91h15.88c7.33,0,13.53-5.09,14.51-11.91L137,415.72S119.41,415.85,110.2,416Z"/><polygon class="cls-13" points="556.32 360.25 503.66 458.15 350.14 459.19 397.52 358.86 556.32 360.25"/><path class="cls-14" d="M248.28,458.57v-7.83h99.36l45.73-94.11h159l4,3.62H401.06L353.55,458.5S248.28,458.31,248.28,458.57Z"/><path class="cls-14" d="M476.6,414.27c-1.73,4.89-11.14,8.65-21,8.43s-16.48-4.38-14.75-9.26,11.15-8.66,21-8.43S478.33,409.39,476.6,414.27Z"/><path class="cls-4" d="M353.55,459.12a.71.71,0,0,1-.28-.06.61.61,0,0,1-.33-.82l47.68-98.61H556.38a.65.65,0,0,1,.67.62.67.67,0,0,1-.67.63H401.49l-47.34,97.88A.64.64,0,0,1,353.55,459.12Z"/><rect class="cls-15" x="58.75" y="466" width="182.61" height="38"/><rect class="cls-16" x="240.32" y="466" width="328.55" height="38"/><polygon class="cls-17" points="241.35 466 240.32 466 58.75 466 58.75 472.97 240.32 472.97 241.35 472.97 568.87 472.97 568.87 466 241.35 466"/><rect class="cls-18" x="49.93" y="458.5" width="199.41" height="9.31"/><rect class="cls-19" x="248.3" y="458.5" width="328.55" height="9.31"/><path class="cls-4" d="M130.79,215.31h64.46a7,7,0,0,1,7.23,6.79v30.2a7,7,0,0,1-7.23,6.79H130.79a7,7,0,0,1-7.22-6.79V222.1A7,7,0,0,1,130.79,215.31Z"/><polygon class="cls-4" points="220.84 237.2 196.64 227.61 196.64 246.79 220.84 237.2"/><ellipse class="cls-3" cx="147.73" cy="237.2" rx="4.46" ry="4.19"/><ellipse class="cls-3" cx="163.02" cy="237.2" rx="4.46" ry="4.19"/><ellipse class="cls-3" cx="178.31" cy="237.2" rx="4.46" ry="4.19"/><path class="cls-2" d="M523.45,122.38H374.61c-9.56,0-17.3,7.27-17.3,16.24v66.23c0,9,7.74,16.25,17.3,16.25h13.31c.38,6-.54,15-5.89,26.37A73.59,73.59,0,0,0,414.3,221.1H523.46c9.56,0,17.31-7.27,17.31-16.25h0V138.62c0-9-7.75-16.24-17.31-16.24Z"/><path class="cls-4" d="M460,154H386.14a3.57,3.57,0,0,1-3.67-3.45h0a3.57,3.57,0,0,1,3.67-3.45H460a3.58,3.58,0,0,1,3.67,3.45h0A3.58,3.58,0,0,1,460,154Z"/><path class="cls-20" d="M512.89,174.05H384.72a2.18,2.18,0,0,1-2.25-2.11h0a2.18,2.18,0,0,1,2.25-2.11H512.89a2.18,2.18,0,0,1,2.25,2.11h0a2.19,2.19,0,0,1-2.25,2.11Z"/><path class="cls-20" d="M512.89,185.78H384.72a2.18,2.18,0,0,1-2.25-2.11h0a2.18,2.18,0,0,1,2.25-2.11H512.89a2.19,2.19,0,0,1,2.25,2.11h0a2.18,2.18,0,0,1-2.25,2.11Z"/><path class="cls-20" d="M484.93,198.28H384.72a2.18,2.18,0,0,1-2.25-2.11h0a2.18,2.18,0,0,1,2.25-2.11H484.93a2.18,2.18,0,0,1,2.25,2.11h0a2.18,2.18,0,0,1-2.25,2.11Z"/><path class="cls-4" d="M511.88,154H476.67a3.59,3.59,0,0,1-3.68-3.45h0a3.59,3.59,0,0,1,3.68-3.45h35.21a3.59,3.59,0,0,1,3.67,3.45h0A3.59,3.59,0,0,1,511.88,154Z"/><path class="cls-4" d="M383.15,275.75h40a2.59,2.59,0,0,1,2.67,2.5v25.64a2.59,2.59,0,0,1-2.67,2.5h-40a2.59,2.59,0,0,1-2.67-2.5V278.25A2.59,2.59,0,0,1,383.15,275.75Z"/><path class="cls-18" d="M403.41,295.64a1.08,1.08,0,0,1-.63-.21L381,278.56a.91.91,0,0,1-.11-1.35,1.06,1.06,0,0,1,1.44-.1l21.1,16.37L424,276.67a1.06,1.06,0,0,1,1.42.08.9.9,0,0,1-.08,1.33l-21.21,17.33A1,1,0,0,1,403.41,295.64Z"/><path class="cls-18" d="M381.67,305.68a1,1,0,0,1-1-.91.92.92,0,0,1,.29-.67l15.22-15a1,1,0,0,1,1.41,0,.89.89,0,0,1,0,1.32l-15.22,15A1,1,0,0,1,381.67,305.68Z"/><path class="cls-18" d="M424.63,305.13a1,1,0,0,1-.72-.28l-15.15-14.26a.89.89,0,0,1,0-1.32,1,1,0,0,1,1.39,0l0,0,15.16,14.26a.91.91,0,0,1,0,1.34A1,1,0,0,1,424.63,305.13Z"/><ellipse class="cls-21" cx="427.86" cy="274.8" rx="13.35" ry="12.53"/><text class="cls-22" transform="translate(418.48 280.09) scale(1.07 1)">85</text><path class="cls-3" d="M484,248.72h78a5.17,5.17,0,0,1,5.32,5v11.46a5.16,5.16,0,0,1-5.32,5H484a5.16,5.16,0,0,1-5.32-5V253.72A5.17,5.17,0,0,1,484,248.72Z"/><path class="cls-4" d="M489.63,265.08a1.1,1.1,0,0,1-.84-.35,1.15,1.15,0,0,1-.29-.88l.35-2.79v-.13s-.11,0-.19,0l-2.44,1.65a1.18,1.18,0,0,1-.93.22,1.14,1.14,0,0,1-.8-.54,1,1,0,0,1-.12-1,1.19,1.19,0,0,1,.7-.6l2.73-1.17c.07,0,.11,0,.11-.1s0-.08-.11-.11l-2.73-1.15a1.06,1.06,0,0,1-.68-.67,1.11,1.11,0,0,1,.1-.91,1.15,1.15,0,0,1,.8-.55,1.31,1.31,0,0,1,.93.2l2.44,1.68h.19s0-.07,0-.15L488.5,255a1.05,1.05,0,0,1,.31-.88,1.19,1.19,0,0,1,.9-.35,1.09,1.09,0,0,1,1.14,1,.78.78,0,0,1,0,.22l-.33,2.78v.15a.23.23,0,0,0,.2,0l2.42-1.65a1.31,1.31,0,0,1,1-.24,1.11,1.11,0,0,1,.77.55,1,1,0,0,1,.13,1,1.32,1.32,0,0,1-.69.6l-2.74,1.15c-.07,0-.11,0-.11.11s0,.07.11.1l2.74,1.16a1.13,1.13,0,0,1,.69.68,1,1,0,0,1-.13.91,1.09,1.09,0,0,1-.77.54,1.35,1.35,0,0,1-1-.19L490.7,261a.23.23,0,0,0-.2,0,.1.1,0,0,0,0,.14l.33,2.79a1,1,0,0,1-.28.87A1.23,1.23,0,0,1,489.63,265.08Z"/><path class="cls-4" d="M505.77,265.08a1.07,1.07,0,0,1-.84-.35,1.11,1.11,0,0,1-.28-.88l.33-2.79v-.13s-.1,0-.18,0l-2.44,1.65a1.18,1.18,0,0,1-.93.22,1.08,1.08,0,0,1-.23-2.12l2.74-1.17c.07,0,.11,0,.11-.1s0-.08-.11-.11l-2.74-1.15a1.15,1.15,0,0,1-.68-.67,1.16,1.16,0,0,1,.91-1.46,1.28,1.28,0,0,1,.93.2l2.44,1.68H505s0-.07,0-.15l-.33-2.77a1.11,1.11,0,0,1,.29-.88,1.24,1.24,0,0,1,.91-.35,1.14,1.14,0,0,1,.86.35,1,1,0,0,1,.26.88l-.34,2.77v.15s.11,0,.19,0l2.43-1.65a1.26,1.26,0,0,1,1-.23,1.06,1.06,0,0,1,.76.55,1,1,0,0,1,.14,1,1.29,1.29,0,0,1-.7.6l-2.73,1.15c-.08,0-.12,0-.12.11s0,.08.12.1l2.73,1.17a1.13,1.13,0,0,1,.7.67,1,1,0,0,1-.14.91,1,1,0,0,1-.76.54,1.26,1.26,0,0,1-1-.19L506.81,261h-.19c-.05,0,0,.08,0,.14l.33,2.79a1,1,0,0,1-.28.87A1.23,1.23,0,0,1,505.77,265.08Z"/><path class="cls-4" d="M521.92,265.08a1.12,1.12,0,0,1-.86-.35,1.18,1.18,0,0,1-.28-.88l.35-2.79v-.13a.17.17,0,0,0-.19,0l-2.43,1.65a1.18,1.18,0,0,1-.93.22,1.12,1.12,0,0,1-.8-.54,1,1,0,0,1-.12-1,1.14,1.14,0,0,1,.69-.6l2.73-1.17c.08,0,.12,0,.12-.1s0-.08-.12-.11l-2.73-1.15a1.06,1.06,0,0,1-.68-.67,1.08,1.08,0,0,1,.11-.91,1.15,1.15,0,0,1,.8-.55,1.34,1.34,0,0,1,.93.2l2.43,1.68a.17.17,0,0,0,.19,0v-.15l-.35-2.77a1.12,1.12,0,0,1,.31-.88,1.21,1.21,0,0,1,.89-.35,1.1,1.1,0,0,1,1.15,1,.58.58,0,0,1,0,.23l-.33,2.78v.15a.21.21,0,0,0,.19,0l2.43-1.65a1.31,1.31,0,0,1,1-.24,1.08,1.08,0,0,1,.77.55,1,1,0,0,1,.14,1,1.34,1.34,0,0,1-.7.6l-2.74,1.15c-.06,0-.1,0-.1.11s0,.07.1.1l2.74,1.16a1.18,1.18,0,0,1,.7.68,1,1,0,0,1-.14.91,1.07,1.07,0,0,1-.77.54,1.35,1.35,0,0,1-1-.19L523,261a.21.21,0,0,0-.19,0,.12.12,0,0,0,0,.14l.33,2.79a.93.93,0,0,1-.28.87A1.21,1.21,0,0,1,521.92,265.08Z"/><path class="cls-4" d="M538.05,265.08a1.1,1.1,0,0,1-.84-.35,1.11,1.11,0,0,1-.28-.88l.33-2.79v-.13s-.1,0-.18,0l-2.44,1.65a1.18,1.18,0,0,1-.93.22,1.24,1.24,0,0,1-.92-1.52,1.37,1.37,0,0,1,.64-.52l2.74-1.16c.07,0,.11,0,.11-.1s0-.09-.11-.11l-2.74-1.15a1.15,1.15,0,0,1-.68-.67,1.23,1.23,0,0,1,.12-.92,1.2,1.2,0,0,1,.79-.55,1.33,1.33,0,0,1,.93.2L537,258h.19s0-.07,0-.15l-.33-2.77a1.07,1.07,0,0,1,.29-.88,1.2,1.2,0,0,1,.91-.35,1.14,1.14,0,0,1,.86.35,1,1,0,0,1,.25.88l-.33,2.77V258s.11,0,.19,0l2.43-1.65a1.31,1.31,0,0,1,1-.24,1.09,1.09,0,0,1,.76.55,1,1,0,0,1,.13,1,1.28,1.28,0,0,1-.69.6l-2.73,1.15c-.08,0-.12,0-.12.11s0,.08.12.1l2.84,1.16a1.13,1.13,0,0,1,.69.68.93.93,0,0,1-.13.91,1,1,0,0,1-.76.54,1.3,1.3,0,0,1-1-.19L539.15,261H539c-.05,0,0,.08,0,.14l.33,2.79a1,1,0,0,1-.28.87A1.25,1.25,0,0,1,538.05,265.08Z"/><path class="cls-23" d="M554.2,265.08a1.09,1.09,0,0,1-1.13-1.23l.34-2.79v-.13a.15.15,0,0,0-.18,0l-2.49,1.68a1.27,1.27,0,0,1-1.7-.31,1.09,1.09,0,0,1-.17-.94,1.36,1.36,0,0,1,.71-.6l2.73-1.16c.08,0,.1,0,.1-.1s0-.09-.1-.11l-2.73-1.15a1.07,1.07,0,0,1-.57-1.59,1.18,1.18,0,0,1,.78-.55,1.5,1.5,0,0,1,1,.2l2.43,1.69a.21.21,0,0,0,.19,0v-.15l-.35-2.77a1.12,1.12,0,0,1,.31-.88,1.21,1.21,0,0,1,.89-.35,1.09,1.09,0,0,1,1.15,1,.6.6,0,0,1,0,.23l-.34,2.78V258a.19.19,0,0,0,.18,0l2.44-1.65a1.26,1.26,0,0,1,1-.24,1.08,1.08,0,0,1,.77.55,1,1,0,0,1,.13,1,1.38,1.38,0,0,1-.7.6l-2.73,1.14c-.08,0-.11,0-.11.12s0,.07.11.1l2.73,1.16a1.11,1.11,0,0,1,.7.67,1,1,0,0,1-.13.92,1.05,1.05,0,0,1-.77.53,1.29,1.29,0,0,1-1-.18L555.18,261a.19.19,0,0,0-.18,0v.14l.34,2.78a.94.94,0,0,1-.28.88A1.24,1.24,0,0,1,554.2,265.08Z"/></g></g></g></g></svg>