<svg xmlns="http://www.w3.org/2000/svg" xmlns:xlink="http://www.w3.org/1999/xlink" viewBox="0 0 302.46 343.23"><defs><style>.cls-1{fill:url(#White_Black_1);}.cls-2{fill:url(#linear-gradient);}.cls-3{fill:url(#linear-gradient-2);}.cls-4{fill:url(#linear-gradient-3);}.cls-5{fill:url(#linear-gradient-4);}.cls-6{fill:url(#linear-gradient-5);}.cls-7{fill:url(#linear-gradient-6);}.cls-8{isolation:isolate;}.cls-10,.cls-9{opacity:0.2;}.cls-9{fill:url(#linear-gradient-7);}.cls-11,.cls-174,.cls-34{opacity:0;}.cls-12,.cls-35{opacity:0.09;}.cls-13,.cls-36{opacity:0.18;}.cls-14,.cls-37{opacity:0.27;}.cls-15,.cls-38{opacity:0.36;}.cls-16,.cls-39{opacity:0.45;}.cls-17,.cls-40{opacity:0.55;}.cls-18,.cls-41{opacity:0.64;}.cls-19,.cls-42{opacity:0.73;}.cls-20,.cls-43{opacity:0.82;}.cls-21,.cls-44{opacity:0.91;}.cls-22{fill:url(#linear-gradient-8);}.cls-23{fill:url(#linear-gradient-9);}.cls-24{opacity:0.82;fill:url(#linear-gradient-10);}.cls-174,.cls-175,.cls-176,.cls-177,.cls-178,.cls-179,.cls-180,.cls-192,.cls-193,.cls-215,.cls-24,.cls-30,.cls-33,.cls-80{mix-blend-mode:multiply;}.cls-225,.cls-25,.cls-32,.cls-50,.cls-75{opacity:0.6;}.cls-213,.cls-224,.cls-25,.cls-32,.cls-50,.cls-75,.cls-83,.cls-86{mix-blend-mode:screen;}.cls-25{fill:url(#radial-gradient);}.cls-120,.cls-157,.cls-165,.cls-173,.cls-202,.cls-204,.cls-209,.cls-210,.cls-216,.cls-220,.cls-221,.cls-222,.cls-223,.cls-225,.cls-226,.cls-227,.cls-228,.cls-229,.cls-230,.cls-26,.cls-27,.cls-47,.cls-74,.cls-88,.cls-89{mix-blend-mode:color-dodge;}.cls-26{fill:url(#radial-gradient-2);}.cls-227,.cls-27,.cls-33{opacity:0.3;}.cls-27{fill:url(#radial-gradient-3);}.cls-28{fill:url(#linear-gradient-11);}.cls-29{fill:url(#linear-gradient-12);}.cls-30{fill:#bcbec0;}.cls-31{fill:url(#linear-gradient-13);}.cls-32{fill:url(#radial-gradient-4);}.cls-34{fill:url(#linear-gradient-14);}.cls-35{fill:url(#linear-gradient-15);}.cls-36{fill:url(#linear-gradient-16);}.cls-37{fill:url(#linear-gradient-17);}.cls-38{fill:url(#linear-gradient-18);}.cls-39{fill:url(#linear-gradient-19);}.cls-40{fill:url(#linear-gradient-20);}.cls-41{fill:url(#linear-gradient-21);}.cls-42{fill:url(#linear-gradient-22);}.cls-43{fill:url(#linear-gradient-23);}.cls-44{fill:url(#linear-gradient-24);}.cls-45{fill:url(#linear-gradient-25);}.cls-126,.cls-127,.cls-129,.cls-130,.cls-132,.cls-133,.cls-152,.cls-226,.cls-46{opacity:0.8;}.cls-46{fill:url(#New_Gradient_Swatch_copy_26);}.cls-47{fill:url(#radial-gradient-5);}.cls-48{mask:url(#mask);}.cls-49{fill:url(#linear-gradient-26);}.cls-50{fill:url(#radial-gradient-6);}.cls-51{fill:url(#linear-gradient-27);}.cls-52{fill:url(#linear-gradient-28);}.cls-53{fill:url(#linear-gradient-29);}.cls-54{fill:url(#linear-gradient-30);}.cls-55{fill:url(#New_Gradient_Swatch_copy_9);}.cls-56{fill:url(#New_Gradient_Swatch_copy_9-2);}.cls-57{fill:url(#New_Gradient_Swatch_copy_9-3);}.cls-58{fill:url(#New_Gradient_Swatch_copy_9-4);}.cls-59{fill:url(#New_Gradient_Swatch_copy_9-5);}.cls-60{fill:url(#New_Gradient_Swatch_copy_9-6);}.cls-61{fill:url(#New_Gradient_Swatch_copy_9-7);}.cls-62{fill:url(#New_Gradient_Swatch_copy_9-8);}.cls-63{fill:url(#New_Gradient_Swatch_copy_9-9);}.cls-64{fill:url(#linear-gradient-31);}.cls-65{fill:url(#linear-gradient-32);}.cls-66{fill:url(#linear-gradient-33);}.cls-67{fill:url(#linear-gradient-34);}.cls-68{fill:url(#linear-gradient-35);}.cls-69{fill:url(#linear-gradient-36);}.cls-70{fill:url(#linear-gradient-37);}.cls-71{fill:url(#linear-gradient-38);}.cls-72{fill:url(#linear-gradient-39);}.cls-73{fill:url(#linear-gradient-40);}.cls-74{fill:url(#radial-gradient-7);}.cls-75{fill:url(#radial-gradient-8);}.cls-76{fill:url(#linear-gradient-41);}.cls-77{fill:url(#linear-gradient-42);}.cls-78{fill:url(#linear-gradient-43);}.cls-79{fill:url(#linear-gradient-44);}.cls-80{fill:#b086cc;}.cls-125,.cls-81{fill:#fff;}.cls-82{fill:#9122eb;}.cls-83{opacity:0.7;}.cls-84{fill:#3c0862;}.cls-85{fill:url(#linear-gradient-45);}.cls-87{fill:#7c1dc9;}.cls-88{fill:url(#radial-gradient-9);}.cls-89{fill:url(#radial-gradient-10);}.cls-90{fill:url(#New_Gradient_Swatch_copy_8);}.cls-91{fill:url(#New_Gradient_Swatch_copy_8-2);}.cls-92{fill:url(#New_Gradient_Swatch_copy_8-3);}.cls-93{fill:url(#New_Gradient_Swatch_copy_8-4);}.cls-94{fill:url(#New_Gradient_Swatch_copy_8-5);}.cls-95{fill:url(#New_Gradient_Swatch_copy_8-6);}.cls-96{fill:url(#New_Gradient_Swatch_copy_8-7);}.cls-97{fill:url(#New_Gradient_Swatch_copy_8-8);}.cls-98{fill:url(#New_Gradient_Swatch_copy_9-10);}.cls-99{fill:url(#New_Gradient_Swatch_copy_9-11);}.cls-100{fill:url(#New_Gradient_Swatch_copy_9-12);}.cls-101{fill:url(#New_Gradient_Swatch_copy_9-13);}.cls-102{fill:url(#New_Gradient_Swatch_copy_9-14);}.cls-103{fill:url(#New_Gradient_Swatch_copy_9-15);}.cls-104{fill:url(#New_Gradient_Swatch_copy_9-16);}.cls-105{fill:url(#New_Gradient_Swatch_copy_9-17);}.cls-106{fill:url(#New_Gradient_Swatch_copy_9-18);}.cls-107{fill:url(#linear-gradient-46);}.cls-108{fill:url(#linear-gradient-47);}.cls-109{fill:url(#linear-gradient-48);}.cls-110{fill:url(#linear-gradient-49);}.cls-111{fill:url(#linear-gradient-50);}.cls-112{fill:url(#linear-gradient-51);}.cls-113{fill:url(#linear-gradient-52);}.cls-114{fill:url(#linear-gradient-53);}.cls-115{fill:url(#linear-gradient-54);}.cls-116{fill:url(#linear-gradient-55);}.cls-117{fill:url(#linear-gradient-56);}.cls-118{fill:url(#linear-gradient-57);}.cls-119{fill:url(#linear-gradient-58);}.cls-121{fill:url(#Radial_Gradient_1);}.cls-122{fill:url(#Radial_Gradient_1-2);}.cls-123{fill:url(#New_Gradient_Swatch_copy_26-2);}.cls-124{fill:url(#New_Gradient_Swatch_copy_50);}.cls-125,.cls-139,.cls-180,.cls-192,.cls-222,.cls-224,.cls-229{opacity:0.5;}.cls-126{fill:url(#New_Gradient_Swatch_copy_26-3);}.cls-127{fill:url(#New_Gradient_Swatch_copy_26-4);}.cls-128{fill:url(#New_Gradient_Swatch_copy_50-2);}.cls-129{fill:url(#New_Gradient_Swatch_copy_26-5);}.cls-130{fill:url(#New_Gradient_Swatch_copy_26-6);}.cls-131{fill:url(#New_Gradient_Swatch_copy_50-3);}.cls-132{fill:url(#New_Gradient_Swatch_copy_26-7);}.cls-133{fill:url(#New_Gradient_Swatch_copy_26-8);}.cls-134{fill:url(#New_Gradient_Swatch_copy_7);}.cls-135{fill:url(#New_Gradient_Swatch_copy_9-19);}.cls-136{fill:url(#New_Gradient_Swatch_copy_8-9);}.cls-137{fill:url(#New_Gradient_Swatch_copy_13);}.cls-138{mask:url(#mask-2);}.cls-140{fill:url(#New_Gradient_Swatch_copy_26-9);}.cls-141{fill:url(#New_Gradient_Swatch_copy_26-10);}.cls-142{mask:url(#mask-3);}.cls-143{fill:url(#New_Gradient_Swatch_copy_26-11);}.cls-144{fill:url(#New_Gradient_Swatch_copy_26-12);}.cls-145{mask:url(#mask-4);}.cls-146{fill:url(#New_Gradient_Swatch_copy_26-13);}.cls-147{fill:url(#New_Gradient_Swatch_copy_26-14);}.cls-148{mask:url(#mask-5);}.cls-149{opacity:0.95;}.cls-150{fill:url(#New_Gradient_Swatch_copy_9-20);}.cls-151{fill:url(#New_Gradient_Swatch_copy_9-21);}.cls-153{fill:url(#New_Gradient_Swatch_copy_26-15);}.cls-154{fill:url(#New_Gradient_Swatch_copy_26-16);}.cls-155{fill:url(#New_Gradient_Swatch_copy_9-22);}.cls-156{fill:url(#New_Gradient_Swatch_copy_9-23);}.cls-157{fill:url(#Radial_Gradient_1-3);}.cls-158{mask:url(#mask-6);}.cls-159{fill:url(#New_Gradient_Swatch_copy_9-24);}.cls-160{fill:url(#New_Gradient_Swatch_copy_9-25);}.cls-161{fill:url(#New_Gradient_Swatch_copy_26-17);}.cls-162{fill:url(#New_Gradient_Swatch_copy_26-18);}.cls-163{fill:url(#New_Gradient_Swatch_copy_9-26);}.cls-164{fill:url(#New_Gradient_Swatch_copy_9-27);}.cls-165{fill:url(#Radial_Gradient_1-4);}.cls-166{mask:url(#mask-7);}.cls-167{fill:url(#New_Gradient_Swatch_copy_9-28);}.cls-168{fill:url(#New_Gradient_Swatch_copy_9-29);}.cls-169{fill:url(#New_Gradient_Swatch_copy_26-19);}.cls-170{fill:url(#New_Gradient_Swatch_copy_26-20);}.cls-171{fill:url(#New_Gradient_Swatch_copy_9-30);}.cls-172{fill:url(#New_Gradient_Swatch_copy_9-31);}.cls-173{fill:url(#Radial_Gradient_1-5);}.cls-174,.cls-175,.cls-176,.cls-177,.cls-178,.cls-179,.cls-180{fill:#98bcd9;}.cls-175{opacity:0.08;}.cls-176{opacity:0.17;}.cls-177{opacity:0.25;}.cls-178{opacity:0.33;}.cls-179{opacity:0.42;}.cls-181{fill:url(#New_Gradient_Swatch_copy_9-32);}.cls-182{fill:url(#New_Gradient_Swatch_copy_9-33);}.cls-183{fill:url(#linear-gradient-59);}.cls-184{fill:url(#linear-gradient-60);}.cls-185{fill:url(#linear-gradient-61);}.cls-186{fill:url(#linear-gradient-62);}.cls-187{fill:url(#linear-gradient-63);}.cls-188{fill:url(#linear-gradient-64);}.cls-189{fill:url(#linear-gradient-65);}.cls-190{fill:url(#linear-gradient-66);}.cls-191{fill:url(#linear-gradient-67);}.cls-192{fill:url(#radial-gradient-11);}.cls-193{fill:url(#radial-gradient-12);}.cls-194{fill:url(#linear-gradient-68);}.cls-195{fill:url(#linear-gradient-69);}.cls-196{fill:url(#linear-gradient-70);}.cls-197{fill:url(#radial-gradient-13);}.cls-198{fill:url(#radial-gradient-14);}.cls-199{fill:url(#linear-gradient-71);}.Graphic-Style-716{fill:url(#linear-gradient-72);}.cls-200{fill:url(#linear-gradient-73);}.cls-201,.cls-228{opacity:0.15;}.cls-201{fill:url(#linear-gradient-74);}.cls-202{fill:url(#radial-gradient-15);}.cls-203{fill:url(#linear-gradient-75);}.cls-204{fill:url(#radial-gradient-16);}.cls-205{fill:url(#linear-gradient-77);}.cls-206{fill:url(#linear-gradient-79);}.cls-207{fill:url(#radial-gradient-17);}.cls-208{fill:url(#linear-gradient-81);}.cls-209{fill:url(#radial-gradient-18);}.cls-210{fill:url(#radial-gradient-19);}.cls-211{fill:url(#linear-gradient-82);}.cls-212{fill:url(#linear-gradient-83);}.cls-213{fill:url(#White_Black_Radial);}.cls-214{fill:url(#linear-gradient-84);}.cls-215{fill:url(#radial-gradient-20);}.cls-216{fill:url(#radial-gradient-21);}.cls-217{fill:url(#linear-gradient-85);}.cls-218{fill:url(#linear-gradient-86);}.cls-219{fill:url(#linear-gradient-87);}.cls-220{fill:url(#radial-gradient-22);}.cls-221{fill:url(#radial-gradient-23);}.cls-222{fill:url(#radial-gradient-24);}.cls-223{fill:url(#radial-gradient-25);}.cls-225,.cls-226,.cls-227,.cls-228,.cls-229,.cls-230{fill:#27043d;}</style><linearGradient id="White_Black_1" x1="270.13" y1="228.64" x2="234.71" y2="298.38" gradientUnits="userSpaceOnUse"><stop offset="0" stop-color="#fff"/><stop offset="1"/></linearGradient><linearGradient id="linear-gradient" x1="94.83" y1="242.81" x2="94.83" y2="274.51" xlink:href="#White_Black_1"/><linearGradient id="linear-gradient-2" x1="64.18" y1="260.94" x2="64.18" y2="292.64" xlink:href="#White_Black_1"/><linearGradient id="linear-gradient-3" x1="33.78" y1="278.28" x2="33.78" y2="309.99" xlink:href="#White_Black_1"/><linearGradient id="linear-gradient-4" x1="6966.04" y1="2593.22" x2="6966.04" y2="2442.74" gradientTransform="translate(-6872.96 -2297.4)" gradientUnits="userSpaceOnUse"><stop offset="0.56" stop-color="#fff"/><stop offset="0.61" stop-color="#f5f4f5"/><stop offset="0.69" stop-color="#d8d8d9"/><stop offset="0.8" stop-color="#abaaab"/><stop offset="0.92" stop-color="#6c6c6d"/><stop offset="1" stop-color="#414042"/></linearGradient><linearGradient id="linear-gradient-5" x1="6996.7" y1="2575.14" x2="6996.7" y2="2424.66" gradientTransform="translate(-6934.27 -2261.24)" xlink:href="#linear-gradient-4"/><linearGradient id="linear-gradient-6" x1="7027.09" y1="2557.59" x2="7027.09" y2="2407.11" gradientTransform="translate(-6995.05 -2226.13)" xlink:href="#linear-gradient-4"/><linearGradient id="linear-gradient-7" x1="7503.54" y1="225.53" x2="7621.19" y2="225.53" gradientTransform="matrix(-1, 0, 0, 1, 7655.4, 0)" gradientUnits="userSpaceOnUse"><stop offset="0.06" stop-color="#200041"/><stop offset="0.26" stop-color="#210243"/><stop offset="0.36" stop-color="#25084b"/><stop offset="0.43" stop-color="#2c1358"/><stop offset="0.47" stop-color="#311b61"/><stop offset="0.48" stop-color="#351f65"/><stop offset="0.5" stop-color="#422c73"/><stop offset="0.51" stop-color="#584188"/><stop offset="0.52" stop-color="#765fa7"/><stop offset="0.53" stop-color="#8770b8"/><stop offset="0.54" stop-color="#7e67ae"/><stop offset="0.56" stop-color="#5c468d"/><stop offset="0.59" stop-color="#442e75"/><stop offset="0.61" stop-color="#362066"/><stop offset="0.63" stop-color="#311b61"/><stop offset="0.67" stop-color="#2a1155"/><stop offset="0.75" stop-color="#230446"/><stop offset="0.81" stop-color="#200041"/><stop offset="1" stop-color="#200041"/></linearGradient><linearGradient id="linear-gradient-8" x1="7503.54" y1="207.59" x2="7621.19" y2="207.59" xlink:href="#linear-gradient-7"/><linearGradient id="linear-gradient-9" x1="7535.02" y1="215.15" x2="7588.35" y2="185.65" gradientTransform="matrix(-1, 0, 0, 1, 7655.4, 0)" gradientUnits="userSpaceOnUse"><stop offset="0" stop-color="#311b61"/><stop offset="0.2" stop-color="#290f52"/><stop offset="0.49" stop-color="#200041"/><stop offset="1" stop-color="#0f001f"/></linearGradient><linearGradient id="linear-gradient-10" x1="7563.3" y1="201.21" x2="7573.77" y2="183.65" gradientTransform="matrix(-1, 0, 0, 1, 7655.4, 0)" xlink:href="#White_Black_1"/><radialGradient id="radial-gradient" cx="7563.65" cy="225.06" r="41.85" gradientTransform="matrix(-1, 0, 0, 1, 7655.4, 0)" gradientUnits="userSpaceOnUse"><stop offset="0" stop-color="#af8afc"/><stop offset="1" stop-color="#10054d"/></radialGradient><radialGradient id="radial-gradient-2" cx="11962.16" cy="2895.52" r="29.41" gradientTransform="matrix(0, -0.57, -0.66, 0, 2008.21, 7032.9)" gradientUnits="userSpaceOnUse"><stop offset="0" stop-color="#972a74"/><stop offset="0.04" stop-color="#8a266a"/><stop offset="0.19" stop-color="#601b4a"/><stop offset="0.35" stop-color="#3d112f"/><stop offset="0.51" stop-color="#230a1b"/><stop offset="0.67" stop-color="#0f040c"/><stop offset="0.83" stop-color="#040103"/><stop offset="1"/></radialGradient><radialGradient id="radial-gradient-3" cx="4560.86" cy="-9378.49" r="38.44" gradientTransform="matrix(-1.08, 0, 0, 0.44, 5084.93, 4311.53)" gradientUnits="userSpaceOnUse"><stop offset="0" stop-color="#4f18ad"/><stop offset="0.18" stop-color="#3d1285"/><stop offset="0.46" stop-color="#230b4c"/><stop offset="0.7" stop-color="#100523"/><stop offset="0.89" stop-color="#040109"/><stop offset="1"/></radialGradient><linearGradient id="linear-gradient-11" x1="7649.64" y1="235.87" x2="7469.61" y2="-13.24" xlink:href="#linear-gradient-9"/><linearGradient id="linear-gradient-12" x1="7493.95" y1="11.57" x2="7647.12" y2="241.89" gradientTransform="matrix(-1, 0, 0, 1, 7655.4, 0)" gradientUnits="userSpaceOnUse"><stop offset="0.01" stop-color="#9f19ab"/><stop offset="0.43" stop-color="#5f27bd"/><stop offset="0.9" stop-color="#3d065f"/></linearGradient><linearGradient id="linear-gradient-13" x1="7687.89" y1="241.28" x2="7546.19" y2="14.86" xlink:href="#linear-gradient-7"/><radialGradient id="radial-gradient-4" cx="7647.69" cy="112.34" r="24.12" xlink:href="#radial-gradient"/><linearGradient id="linear-gradient-14" x1="7703.96" y1="-0.62" x2="7782.53" y2="149.21" gradientTransform="matrix(-1, 0, 0, 1, 7917.72, 0)" xlink:href="#linear-gradient-12"/><linearGradient id="linear-gradient-15" x1="7703.46" y1="-0.26" x2="7781.86" y2="149.23" gradientTransform="matrix(-1, 0, 0, 1, 7917.72, 0)" xlink:href="#linear-gradient-12"/><linearGradient id="linear-gradient-16" x1="7702.96" y1="0.1" x2="7781.18" y2="149.25" gradientTransform="matrix(-1, 0, 0, 1, 7917.72, 0)" xlink:href="#linear-gradient-12"/><linearGradient id="linear-gradient-17" x1="7702.47" y1="0.45" x2="7780.51" y2="149.26" gradientTransform="matrix(-1, 0, 0, 1, 7917.72, 0)" xlink:href="#linear-gradient-12"/><linearGradient id="linear-gradient-18" x1="7701.98" y1="0.81" x2="7779.84" y2="149.28" gradientTransform="matrix(-1, 0, 0, 1, 7917.72, 0)" xlink:href="#linear-gradient-12"/><linearGradient id="linear-gradient-19" x1="7701.48" y1="1.16" x2="7779.17" y2="149.29" gradientTransform="matrix(-1, 0, 0, 1, 7917.72, 0)" xlink:href="#linear-gradient-12"/><linearGradient id="linear-gradient-20" x1="7700.99" y1="1.52" x2="7778.5" y2="149.31" gradientTransform="matrix(-1, 0, 0, 1, 7917.72, 0)" xlink:href="#linear-gradient-12"/><linearGradient id="linear-gradient-21" x1="7700.51" y1="1.87" x2="7777.83" y2="149.32" gradientTransform="matrix(-1, 0, 0, 1, 7917.72, 0)" xlink:href="#linear-gradient-12"/><linearGradient id="linear-gradient-22" x1="7700.02" y1="2.22" x2="7777.17" y2="149.33" gradientTransform="matrix(-1, 0, 0, 1, 7917.72, 0)" xlink:href="#linear-gradient-12"/><linearGradient id="linear-gradient-23" x1="7699.53" y1="2.57" x2="7776.51" y2="149.35" gradientTransform="matrix(-1, 0, 0, 1, 7917.72, 0)" xlink:href="#linear-gradient-12"/><linearGradient id="linear-gradient-24" x1="7699.05" y1="2.92" x2="7775.85" y2="149.36" gradientTransform="matrix(-1, 0, 0, 1, 7917.72, 0)" xlink:href="#linear-gradient-12"/><linearGradient id="linear-gradient-25" x1="7698.57" y1="3.27" x2="7775.19" y2="149.37" gradientTransform="matrix(-1, 0, 0, 1, 7917.72, 0)" xlink:href="#linear-gradient-12"/><linearGradient id="New_Gradient_Swatch_copy_26" x1="7809.97" y1="220.67" x2="7687.66" y2="-18.27" gradientTransform="matrix(-1, 0, 0, 1, 7917.72, 0)" gradientUnits="userSpaceOnUse"><stop offset="0.03" stop-color="#7c1dc9"/><stop offset="0.21" stop-color="#6e41d2"/><stop offset="0.62" stop-color="#4c9be8"/><stop offset="1" stop-color="#2af6ff"/></linearGradient><radialGradient id="radial-gradient-5" cx="7759.33" cy="68.02" r="52.72" gradientTransform="matrix(-1, 0, 0, 1, 7917.72, 0)" gradientUnits="userSpaceOnUse"><stop offset="0" stop-color="#711f56"/><stop offset="0.16" stop-color="#6c1e52"/><stop offset="0.36" stop-color="#5c1946"/><stop offset="0.58" stop-color="#431233"/><stop offset="0.82" stop-color="#200918"/><stop offset="1"/></radialGradient><mask id="mask" x="188.86" y="256.36" width="85.59" height="96.07" maskUnits="userSpaceOnUse"><rect class="cls-1" x="188.86" y="256.36" width="85.59" height="96.07"/></mask><linearGradient id="linear-gradient-26" x1="233.49" y1="343.08" x2="231.75" y2="273" gradientTransform="matrix(1, 0, 0, 1, 0, 0)" xlink:href="#linear-gradient-7"/><radialGradient id="radial-gradient-6" cx="260.1" cy="281.04" r="29.73" gradientTransform="matrix(1, 0, 0, 1, 0, 0)" xlink:href="#radial-gradient"/><linearGradient id="linear-gradient-27" x1="255.73" y1="312.29" x2="119.54" y2="269.66" gradientUnits="userSpaceOnUse"><stop offset="0.19" stop-color="#3d065f"/><stop offset="0.93" stop-color="#3d065f"/></linearGradient><linearGradient id="linear-gradient-28" x1="248.47" y1="345.91" x2="200.88" y2="245.34" gradientTransform="matrix(1, 0, 0, 1, 0, 0)" xlink:href="#linear-gradient-9"/><linearGradient id="linear-gradient-29" x1="199.01" y1="303.78" x2="258.05" y2="303.78" gradientTransform="matrix(1, 0, 0, 1, 0, 0)" xlink:href="#linear-gradient-9"/><linearGradient id="linear-gradient-30" x1="142.37" y1="364.77" x2="244.03" y2="292.81" gradientTransform="matrix(1, 0, 0, 1, 0, 0)" xlink:href="#linear-gradient-12"/><linearGradient id="New_Gradient_Swatch_copy_9" x1="7513.31" y1="11387.39" x2="7520.43" y2="11363.96" gradientTransform="translate(7738.26 11673.83) rotate(180)" gradientUnits="userSpaceOnUse"><stop offset="0.04" stop-color="#9f19ab"/><stop offset="0.24" stop-color="#ae25b1"/><stop offset="0.65" stop-color="#d744bf"/><stop offset="1" stop-color="#ff63ce"/></linearGradient><linearGradient id="New_Gradient_Swatch_copy_9-2" x1="7518.41" y1="11388.47" x2="7528.63" y2="11354.85" xlink:href="#New_Gradient_Swatch_copy_9"/><linearGradient id="New_Gradient_Swatch_copy_9-3" x1="7523.85" y1="11390.36" x2="7534.09" y2="11356.66" xlink:href="#New_Gradient_Swatch_copy_9"/><linearGradient id="New_Gradient_Swatch_copy_9-4" x1="7501.76" y1="11382.54" x2="7509.93" y2="11355.68" xlink:href="#New_Gradient_Swatch_copy_9"/><linearGradient id="New_Gradient_Swatch_copy_9-5" x1="7508.15" y1="11385.19" x2="7514.14" y2="11365.49" xlink:href="#New_Gradient_Swatch_copy_9"/><linearGradient id="New_Gradient_Swatch_copy_9-6" x1="7530.76" y1="11392.3" x2="7541.69" y2="11356.34" xlink:href="#New_Gradient_Swatch_copy_9"/><linearGradient id="New_Gradient_Swatch_copy_9-7" x1="7495.13" y1="11380.02" x2="7503.72" y2="11351.76" xlink:href="#New_Gradient_Swatch_copy_9"/><linearGradient id="New_Gradient_Swatch_copy_9-8" x1="7484.53" y1="11374.79" x2="7490.89" y2="11353.87" xlink:href="#New_Gradient_Swatch_copy_9"/><linearGradient id="New_Gradient_Swatch_copy_9-9" x1="7488.71" y1="11377.6" x2="7497.47" y2="11348.8" xlink:href="#New_Gradient_Swatch_copy_9"/><linearGradient id="linear-gradient-31" x1="7513.9" y1="11389.71" x2="7523.51" y2="11352.82" gradientTransform="translate(7738.26 11673.83) rotate(180)" gradientUnits="userSpaceOnUse"><stop offset="0" stop-color="#6d1cbe"/><stop offset="0.29" stop-color="#8a27d5"/><stop offset="0.79" stop-color="#ca3cdc"/></linearGradient><linearGradient id="linear-gradient-32" x1="7518.84" y1="11391.3" x2="7529.07" y2="11352.01" xlink:href="#linear-gradient-31"/><linearGradient id="linear-gradient-33" x1="7524.77" y1="11392.63" x2="7536.98" y2="11345.74" xlink:href="#linear-gradient-31"/><linearGradient id="linear-gradient-34" x1="7501.72" y1="11386.63" x2="7513.93" y2="11339.74" xlink:href="#linear-gradient-31"/><linearGradient id="linear-gradient-35" x1="7508.55" y1="11387.3" x2="7515.16" y2="11361.93" xlink:href="#linear-gradient-31"/><linearGradient id="linear-gradient-36" x1="7494.55" y1="11384.76" x2="7506.75" y2="11337.88" xlink:href="#linear-gradient-31"/><linearGradient id="linear-gradient-37" x1="7483.43" y1="11381.87" x2="7495.63" y2="11334.98" xlink:href="#linear-gradient-31"/><linearGradient id="linear-gradient-38" x1="7489.06" y1="11383.33" x2="7501.26" y2="11336.45" xlink:href="#linear-gradient-31"/><linearGradient id="linear-gradient-39" x1="7531.9" y1="11394.48" x2="7544.1" y2="11347.6" xlink:href="#linear-gradient-31"/><linearGradient id="linear-gradient-40" x1="185" y1="118.88" x2="245.56" y2="223.78" gradientTransform="matrix(1, 0, 0, 1, 0, 0)" xlink:href="#linear-gradient-7"/><radialGradient id="radial-gradient-7" cx="279.11" cy="161.5" r="113.65" gradientTransform="matrix(1, 0, 0, 1, 0, 0)" xlink:href="#radial-gradient-5"/><radialGradient id="radial-gradient-8" cx="260.1" cy="153.38" r="66.96" gradientTransform="matrix(1, 0, 0, 1, 0, 0)" xlink:href="#radial-gradient"/><linearGradient id="linear-gradient-41" x1="265.5" y1="215.61" x2="80.4" y2="157.67" xlink:href="#linear-gradient-27"/><linearGradient id="linear-gradient-42" x1="267.91" y1="287.25" x2="173.91" y2="88.63" gradientTransform="matrix(1, 0, 0, 1, 0, 0)" xlink:href="#linear-gradient-9"/><linearGradient id="linear-gradient-43" x1="199.01" y1="204.04" x2="258.05" y2="204.04" gradientTransform="matrix(1, 0, 0, 1, 0, 0)" xlink:href="#linear-gradient-9"/><linearGradient id="linear-gradient-44" x1="192.34" y1="135.04" x2="282.16" y2="306.3" gradientTransform="matrix(1, 0, 0, 1, 0, 0)" xlink:href="#linear-gradient-12"/><linearGradient id="linear-gradient-45" x1="309.01" y1="156.86" x2="120.54" y2="258.06" gradientUnits="userSpaceOnUse"><stop offset="0.01" stop-color="#ffe4a7"/><stop offset="0.1" stop-color="#fac098"/><stop offset="0.2" stop-color="#f49587"/><stop offset="0.46" stop-color="#a142b5"/><stop offset="0.6" stop-color="#7c1dc9"/><stop offset="0.63" stop-color="#7926cb"/><stop offset="0.7" stop-color="#703ed1"/><stop offset="0.78" stop-color="#6165db"/><stop offset="0.87" stop-color="#4c9ce9"/><stop offset="0.97" stop-color="#32e1fa"/><stop offset="1" stop-color="#2af6ff"/></linearGradient><radialGradient id="radial-gradient-9" cx="728.99" cy="2951.58" r="2.03" gradientTransform="matrix(0.87, 0.53, 0.02, -0.98, -475.79, 2680.56)" gradientUnits="userSpaceOnUse"><stop offset="0.39" stop-color="#fff"/><stop offset="0.4" stop-color="#e2dee7"/><stop offset="0.42" stop-color="#b0a5bf"/><stop offset="0.44" stop-color="#86749c"/><stop offset="0.47" stop-color="#634c80"/><stop offset="0.49" stop-color="#482d69"/><stop offset="0.51" stop-color="#35175a"/><stop offset="0.53" stop-color="#290a50"/><stop offset="0.55" stop-color="#25054d"/><stop offset="0.57" stop-color="#1d043c"/><stop offset="0.61" stop-color="#120226"/><stop offset="0.66" stop-color="#0a0115"/><stop offset="0.71" stop-color="#040109"/><stop offset="0.79" stop-color="#010002"/><stop offset="1"/></radialGradient><radialGradient id="radial-gradient-10" cx="749.73" cy="2913.53" r="2.03" xlink:href="#radial-gradient-9"/><linearGradient id="New_Gradient_Swatch_copy_8" x1="248.82" y1="174.16" x2="202.77" y2="126.14" gradientUnits="userSpaceOnUse"><stop offset="0.04" stop-color="#ffa98c"/><stop offset="0.32" stop-color="#ffb892"/><stop offset="0.86" stop-color="#fee1a3"/><stop offset="1" stop-color="#feeca8"/></linearGradient><linearGradient id="New_Gradient_Swatch_copy_8-2" x1="249.75" y1="170.51" x2="189.22" y2="109.26" xlink:href="#New_Gradient_Swatch_copy_8"/><linearGradient id="New_Gradient_Swatch_copy_8-3" x1="251.8" y1="168.48" x2="191.27" y2="107.24" xlink:href="#New_Gradient_Swatch_copy_8"/><linearGradient id="New_Gradient_Swatch_copy_8-4" x1="242.63" y1="178.58" x2="182.1" y2="117.34" xlink:href="#New_Gradient_Swatch_copy_8"/><linearGradient id="New_Gradient_Swatch_copy_8-5" x1="244.68" y1="176.56" x2="184.15" y2="115.31" xlink:href="#New_Gradient_Swatch_copy_8"/><linearGradient id="New_Gradient_Swatch_copy_8-6" x1="233.14" y1="159.37" x2="236.27" y2="159.37" xlink:href="#New_Gradient_Swatch_copy_8"/><linearGradient id="New_Gradient_Swatch_copy_8-7" x1="219.26" y1="145.15" x2="226.13" y2="145.15" xlink:href="#New_Gradient_Swatch_copy_8"/><linearGradient id="New_Gradient_Swatch_copy_8-8" x1="227.85" y1="147.26" x2="237.83" y2="147.26" xlink:href="#New_Gradient_Swatch_copy_8"/><linearGradient id="New_Gradient_Swatch_copy_9-10" x1="231.52" y1="269.47" x2="238.64" y2="246.04" gradientTransform="matrix(1, 0, 0, 1, 0, 0)" xlink:href="#New_Gradient_Swatch_copy_9"/><linearGradient id="New_Gradient_Swatch_copy_9-11" x1="236.62" y1="270.54" x2="246.83" y2="236.93" gradientTransform="matrix(1, 0, 0, 1, 0, 0)" xlink:href="#New_Gradient_Swatch_copy_9"/><linearGradient id="New_Gradient_Swatch_copy_9-12" x1="242.06" y1="272.44" x2="252.3" y2="238.74" gradientTransform="matrix(1, 0, 0, 1, 0, 0)" xlink:href="#New_Gradient_Swatch_copy_9"/><linearGradient id="New_Gradient_Swatch_copy_9-13" x1="219.97" y1="264.62" x2="228.14" y2="237.76" gradientTransform="matrix(1, 0, 0, 1, 0, 0)" xlink:href="#New_Gradient_Swatch_copy_9"/><linearGradient id="New_Gradient_Swatch_copy_9-14" x1="226.36" y1="267.27" x2="232.35" y2="247.57" gradientTransform="matrix(1, 0, 0, 1, 0, 0)" xlink:href="#New_Gradient_Swatch_copy_9"/><linearGradient id="New_Gradient_Swatch_copy_9-15" x1="248.97" y1="274.37" x2="259.9" y2="238.41" gradientTransform="matrix(1, 0, 0, 1, 0, 0)" xlink:href="#New_Gradient_Swatch_copy_9"/><linearGradient id="New_Gradient_Swatch_copy_9-16" x1="213.34" y1="262.1" x2="221.93" y2="233.84" gradientTransform="matrix(1, 0, 0, 1, 0, 0)" xlink:href="#New_Gradient_Swatch_copy_9"/><linearGradient id="New_Gradient_Swatch_copy_9-17" x1="202.74" y1="256.87" x2="209.1" y2="235.95" gradientTransform="matrix(1, 0, 0, 1, 0, 0)" xlink:href="#New_Gradient_Swatch_copy_9"/><linearGradient id="New_Gradient_Swatch_copy_9-18" x1="206.92" y1="259.68" x2="215.68" y2="230.88" gradientTransform="matrix(1, 0, 0, 1, 0, 0)" xlink:href="#New_Gradient_Swatch_copy_9"/><linearGradient id="linear-gradient-46" x1="232.11" y1="271.79" x2="241.72" y2="234.89" gradientTransform="matrix(1, 0, 0, 1, 0, 0)" xlink:href="#linear-gradient-31"/><linearGradient id="linear-gradient-47" x1="237.05" y1="273.38" x2="247.27" y2="234.09" gradientTransform="matrix(1, 0, 0, 1, 0, 0)" xlink:href="#linear-gradient-31"/><linearGradient id="linear-gradient-48" x1="242.98" y1="274.71" x2="255.19" y2="227.82" gradientTransform="matrix(1, 0, 0, 1, 0, 0)" xlink:href="#linear-gradient-31"/><linearGradient id="linear-gradient-49" x1="219.93" y1="268.71" x2="232.14" y2="221.82" gradientTransform="matrix(1, 0, 0, 1, 0, 0)" xlink:href="#linear-gradient-31"/><linearGradient id="linear-gradient-50" x1="226.76" y1="269.37" x2="233.36" y2="244.01" gradientTransform="matrix(1, 0, 0, 1, 0, 0)" xlink:href="#linear-gradient-31"/><linearGradient id="linear-gradient-51" x1="212.76" y1="266.84" x2="224.96" y2="219.95" gradientTransform="matrix(1, 0, 0, 1, 0, 0)" xlink:href="#linear-gradient-31"/><linearGradient id="linear-gradient-52" x1="201.64" y1="263.95" x2="213.84" y2="217.06" gradientTransform="matrix(1, 0, 0, 1, 0, 0)" xlink:href="#linear-gradient-31"/><linearGradient id="linear-gradient-53" x1="207.27" y1="265.41" x2="219.47" y2="218.52" gradientTransform="matrix(1, 0, 0, 1, 0, 0)" xlink:href="#linear-gradient-31"/><linearGradient id="linear-gradient-54" x1="250.11" y1="276.56" x2="262.31" y2="229.67" gradientTransform="matrix(1, 0, 0, 1, 0, 0)" xlink:href="#linear-gradient-31"/><linearGradient id="linear-gradient-55" x1="293.89" y1="160.66" x2="58.21" y2="231.1" xlink:href="#linear-gradient-45"/><linearGradient id="linear-gradient-56" x1="327.37" y1="150.72" x2="178.33" y2="242.89" xlink:href="#linear-gradient-45"/><linearGradient id="linear-gradient-57" x1="308.3" y1="165.84" x2="226.59" y2="216.37" xlink:href="#linear-gradient-45"/><linearGradient id="linear-gradient-58" x1="308.01" y1="161.88" x2="187.83" y2="222.67" xlink:href="#linear-gradient-45"/><radialGradient id="Radial_Gradient_1" cx="271.05" cy="182.81" r="8.56" xlink:href="#White_Black_1"/><radialGradient id="Radial_Gradient_1-2" cx="287.21" cy="155.8" r="20.58" xlink:href="#White_Black_1"/><linearGradient id="New_Gradient_Swatch_copy_26-2" x1="-4.28" y1="161.62" x2="190.66" y2="9.13" gradientTransform="matrix(1, 0, 0, 1, 0, 0)" xlink:href="#New_Gradient_Swatch_copy_26"/><linearGradient id="New_Gradient_Swatch_copy_50" x1="76.48" y1="11371.32" x2="-82.79" y2="11199.83" gradientTransform="matrix(1, 0, 0, -1, 31.37, 11433.09)" gradientUnits="userSpaceOnUse"><stop offset="0.04" stop-color="#6b24d6"/><stop offset="0.32" stop-color="#7a1cd0"/><stop offset="0.86" stop-color="#a306c1"/><stop offset="0.98" stop-color="#ad00bd"/></linearGradient><linearGradient id="New_Gradient_Swatch_copy_26-3" x1="-13.45" y1="11344.42" x2="133.8" y2="11190.1" gradientTransform="matrix(1, 0, 0, -1, 31.37, 11433.09)" xlink:href="#New_Gradient_Swatch_copy_26"/><linearGradient id="New_Gradient_Swatch_copy_26-4" x1="27.17" y1="11383.18" x2="174.42" y2="11228.86" gradientTransform="matrix(1, 0, 0, -1, 31.37, 11433.09)" xlink:href="#New_Gradient_Swatch_copy_26"/><linearGradient id="New_Gradient_Swatch_copy_50-2" x1="76.48" y1="11344.34" x2="-82.79" y2="11172.84" xlink:href="#New_Gradient_Swatch_copy_50"/><linearGradient id="New_Gradient_Swatch_copy_26-5" x1="-13.45" y1="11317.44" x2="133.8" y2="11163.11" gradientTransform="matrix(1, 0, 0, -1, 31.37, 11433.09)" xlink:href="#New_Gradient_Swatch_copy_26"/><linearGradient id="New_Gradient_Swatch_copy_26-6" x1="27.17" y1="11356.19" x2="174.42" y2="11201.87" gradientTransform="matrix(1, 0, 0, -1, 31.37, 11433.09)" xlink:href="#New_Gradient_Swatch_copy_26"/><linearGradient id="New_Gradient_Swatch_copy_50-3" x1="76.48" y1="11316.83" x2="-82.79" y2="11145.33" xlink:href="#New_Gradient_Swatch_copy_50"/><linearGradient id="New_Gradient_Swatch_copy_26-7" x1="-13.45" y1="11289.93" x2="133.8" y2="11135.6" gradientTransform="matrix(1, 0, 0, -1, 31.37, 11433.09)" xlink:href="#New_Gradient_Swatch_copy_26"/><linearGradient id="New_Gradient_Swatch_copy_26-8" x1="27.17" y1="11328.68" x2="174.42" y2="11174.36" gradientTransform="matrix(1, 0, 0, -1, 31.37, 11433.09)" xlink:href="#New_Gradient_Swatch_copy_26"/><linearGradient id="New_Gradient_Swatch_copy_7" x1="7381.38" y1="86.93" x2="7391.28" y2="86.93" gradientTransform="matrix(-1, 0, 0, 1, 7448.99, 0)" gradientUnits="userSpaceOnUse"><stop offset="0.04" stop-color="#138bbd"/><stop offset="0.23" stop-color="#169ac7"/><stop offset="0.59" stop-color="#1fc3df"/><stop offset="1" stop-color="#2af6ff"/></linearGradient><linearGradient id="New_Gradient_Swatch_copy_9-19" x1="7392.58" y1="93.62" x2="7402.48" y2="93.62" gradientTransform="matrix(-1, 0, 0, 1, 7448.99, 0)" xlink:href="#New_Gradient_Swatch_copy_9"/><linearGradient id="New_Gradient_Swatch_copy_8-9" x1="7403.93" y1="100.32" x2="7413.83" y2="100.32" gradientTransform="matrix(-1, 0, 0, 1, 7448.99, 0)" xlink:href="#New_Gradient_Swatch_copy_8"/><linearGradient id="New_Gradient_Swatch_copy_13" x1="7415.13" y1="107.01" x2="7425.03" y2="107.01" gradientTransform="matrix(-1, 0, 0, 1, 7448.99, 0)" gradientUnits="userSpaceOnUse"><stop offset="0.04" stop-color="#6b24d6"/><stop offset="0.29" stop-color="#7733dc"/><stop offset="0.79" stop-color="#975ced"/><stop offset="1" stop-color="#a56ef4"/></linearGradient><mask id="mask-2" x="71.77" y="246.47" width="46.11" height="49.78" maskUnits="userSpaceOnUse"><rect class="cls-2" x="71.77" y="246.47" width="46.11" height="49.78"/></mask><linearGradient id="New_Gradient_Swatch_copy_26-9" x1="99.21" y1="275.36" x2="197.46" y2="267.83" gradientTransform="matrix(1, 0, 0, 1, 0, 0)" xlink:href="#New_Gradient_Swatch_copy_26"/><linearGradient id="New_Gradient_Swatch_copy_26-10" x1="61.85" y1="270.81" x2="108.56" y2="278.64" gradientTransform="matrix(1, 0, 0, 1, 0, 0)" xlink:href="#New_Gradient_Swatch_copy_26"/><mask id="mask-3" x="41.12" y="264.6" width="46.11" height="49.78" maskUnits="userSpaceOnUse"><rect class="cls-3" x="41.12" y="264.6" width="46.11" height="49.78"/></mask><linearGradient id="New_Gradient_Swatch_copy_26-11" x1="68.55" y1="293.49" x2="166.8" y2="285.96" gradientTransform="matrix(1, 0, 0, 1, 0, 0)" xlink:href="#New_Gradient_Swatch_copy_26"/><linearGradient id="New_Gradient_Swatch_copy_26-12" x1="31.19" y1="288.94" x2="77.9" y2="296.77" gradientTransform="matrix(1, 0, 0, 1, 0, 0)" xlink:href="#New_Gradient_Swatch_copy_26"/><mask id="mask-4" x="10.73" y="281.95" width="46.11" height="49.78" maskUnits="userSpaceOnUse"><rect class="cls-4" x="10.73" y="281.95" width="46.11" height="49.78"/></mask><linearGradient id="New_Gradient_Swatch_copy_26-13" x1="38.16" y1="310.84" x2="136.41" y2="303.3" gradientTransform="matrix(1, 0, 0, 1, 0, 0)" xlink:href="#New_Gradient_Swatch_copy_26"/><linearGradient id="New_Gradient_Swatch_copy_26-14" x1="0.8" y1="306.29" x2="47.51" y2="314.12" gradientTransform="matrix(1, 0, 0, 1, 0, 0)" xlink:href="#New_Gradient_Swatch_copy_26"/><mask id="mask-5" x="58.66" y="136.46" width="68.86" height="165.44" maskUnits="userSpaceOnUse"><rect class="cls-5" x="58.66" y="136.46" width="68.86" height="165.44" transform="translate(186.17 438.35) rotate(180)"/></mask><linearGradient id="New_Gradient_Swatch_copy_9-20" x1="106.39" y1="235.91" x2="90.31" y2="263.77" gradientTransform="matrix(1, 0, 0, 1, 0, 0)" xlink:href="#New_Gradient_Swatch_copy_9"/><linearGradient id="New_Gradient_Swatch_copy_9-21" x1="106.39" y1="169.36" x2="90.31" y2="197.22" gradientTransform="matrix(1, 0, 0, 1, 0, 0)" xlink:href="#New_Gradient_Swatch_copy_9"/><linearGradient id="New_Gradient_Swatch_copy_26-15" x1="98.34" y1="227.48" x2="210.3" y2="218.89" gradientTransform="matrix(1, 0, 0, 1, 0, 0)" xlink:href="#New_Gradient_Swatch_copy_26"/><linearGradient id="New_Gradient_Swatch_copy_26-16" x1="55.44" y1="221.79" x2="114.47" y2="231.68" gradientTransform="matrix(1, 0, 0, 1, 0, 0)" xlink:href="#New_Gradient_Swatch_copy_26"/><linearGradient id="New_Gradient_Swatch_copy_9-22" x1="99.66" y1="196.59" x2="190.7" y2="189.61" gradientTransform="matrix(1, 0, 0, 1, 0, 0)" xlink:href="#New_Gradient_Swatch_copy_9"/><linearGradient id="New_Gradient_Swatch_copy_9-23" x1="65.22" y1="192.64" x2="105.45" y2="199.38" gradientTransform="matrix(1, 0, 0, 1, 0, 0)" xlink:href="#New_Gradient_Swatch_copy_9"/><radialGradient id="Radial_Gradient_1-3" cx="79.74" cy="207.02" r="31.75" xlink:href="#White_Black_1"/><mask id="mask-6" x="28" y="154.53" width="68.86" height="165.44" maskUnits="userSpaceOnUse"><rect class="cls-6" x="28" y="154.53" width="68.86" height="165.44" transform="translate(124.86 474.51) rotate(180)"/></mask><linearGradient id="New_Gradient_Swatch_copy_9-24" x1="75.73" y1="253.99" x2="59.65" y2="281.85" gradientTransform="matrix(1, 0, 0, 1, 0, 0)" xlink:href="#New_Gradient_Swatch_copy_9"/><linearGradient id="New_Gradient_Swatch_copy_9-25" x1="75.73" y1="206.3" x2="59.65" y2="234.16" gradientTransform="matrix(1, 0, 0, 1, 0, 0)" xlink:href="#New_Gradient_Swatch_copy_9"/><linearGradient id="New_Gradient_Swatch_copy_26-17" x1="68.09" y1="254.96" x2="173.64" y2="246.86" gradientTransform="matrix(1, 0, 0, 1, 0, 0)" xlink:href="#New_Gradient_Swatch_copy_26"/><linearGradient id="New_Gradient_Swatch_copy_26-18" x1="27.78" y1="249.8" x2="81.05" y2="258.73" gradientTransform="matrix(1, 0, 0, 1, 0, 0)" xlink:href="#New_Gradient_Swatch_copy_26"/><linearGradient id="New_Gradient_Swatch_copy_9-26" x1="69.01" y1="233.54" x2="160.05" y2="226.55" gradientTransform="matrix(1, 0, 0, 1, 0, 0)" xlink:href="#New_Gradient_Swatch_copy_9"/><linearGradient id="New_Gradient_Swatch_copy_9-27" x1="34.56" y1="229.59" x2="74.8" y2="236.33" gradientTransform="matrix(1, 0, 0, 1, 0, 0)" xlink:href="#New_Gradient_Swatch_copy_9"/><radialGradient id="Radial_Gradient_1-4" cx="49.08" cy="239.32" r="26.33" xlink:href="#White_Black_1"/><mask id="mask-7" x="-2.39" y="172.09" width="68.86" height="165.44" maskUnits="userSpaceOnUse"><rect class="cls-7" x="-2.39" y="172.09" width="68.86" height="165.44" transform="translate(64.07 509.62) rotate(180)"/></mask><linearGradient id="New_Gradient_Swatch_copy_9-28" x1="45.34" y1="271.54" x2="29.26" y2="299.4" gradientTransform="matrix(1, 0, 0, 1, 0, 0)" xlink:href="#New_Gradient_Swatch_copy_9"/><linearGradient id="New_Gradient_Swatch_copy_9-29" x1="45.34" y1="245.34" x2="29.26" y2="273.2" gradientTransform="matrix(1, 0, 0, 1, 0, 0)" xlink:href="#New_Gradient_Swatch_copy_9"/><linearGradient id="New_Gradient_Swatch_copy_26-19" x1="38.16" y1="283.22" x2="136.41" y2="275.69" gradientTransform="matrix(1, 0, 0, 1, 0, 0)" xlink:href="#New_Gradient_Swatch_copy_26"/><linearGradient id="New_Gradient_Swatch_copy_26-20" x1="0.8" y1="278.67" x2="47.51" y2="286.5" gradientTransform="matrix(1, 0, 0, 1, 0, 0)" xlink:href="#New_Gradient_Swatch_copy_26"/><linearGradient id="New_Gradient_Swatch_copy_9-30" x1="38.61" y1="272.57" x2="129.65" y2="265.59" gradientTransform="matrix(1, 0, 0, 1, 0, 0)" xlink:href="#New_Gradient_Swatch_copy_9"/><linearGradient id="New_Gradient_Swatch_copy_9-31" x1="4.17" y1="268.63" x2="44.4" y2="275.37" gradientTransform="matrix(1, 0, 0, 1, 0, 0)" xlink:href="#New_Gradient_Swatch_copy_9"/><radialGradient id="Radial_Gradient_1-5" cx="18.69" cy="273.08" r="20.97" xlink:href="#White_Black_1"/><linearGradient id="New_Gradient_Swatch_copy_9-32" x1="84.14" y1="84.23" x2="166.06" y2="14.36" gradientTransform="matrix(1, 0, 0, 1, 0, 0)" xlink:href="#New_Gradient_Swatch_copy_9"/><linearGradient id="New_Gradient_Swatch_copy_9-33" x1="88.69" y1="89.57" x2="170.61" y2="19.7" gradientTransform="matrix(1, 0, 0, 1, 0, 0)" xlink:href="#New_Gradient_Swatch_copy_9"/><linearGradient id="linear-gradient-59" x1="158.22" y1="46.3" x2="148.79" y2="94.51" gradientUnits="userSpaceOnUse"><stop offset="0.01" stop-color="#2af6ff"/><stop offset="1" stop-color="#4e00d4"/></linearGradient><linearGradient id="linear-gradient-60" x1="138.48" y1="103.55" x2="184.33" y2="107.48" xlink:href="#linear-gradient-59"/><linearGradient id="linear-gradient-61" x1="173.89" y1="91.55" x2="167.86" y2="55.66" xlink:href="#linear-gradient-59"/><linearGradient id="linear-gradient-62" x1="184.67" y1="74.27" x2="164.23" y2="74" xlink:href="#linear-gradient-59"/><linearGradient id="linear-gradient-63" x1="150.53" y1="121.03" x2="148.96" y2="175" xlink:href="#linear-gradient-59"/><linearGradient id="linear-gradient-64" x1="131.7" y1="148.68" x2="171.26" y2="184.83" xlink:href="#linear-gradient-59"/><linearGradient id="linear-gradient-65" x1="155.86" y1="170.22" x2="191.49" y2="142.97" xlink:href="#linear-gradient-59"/><linearGradient id="linear-gradient-66" x1="168.31" y1="134.85" x2="176.69" y2="171.53" xlink:href="#linear-gradient-59"/><linearGradient id="linear-gradient-67" x1="154.52" y1="161.49" x2="175.48" y2="121.66" xlink:href="#linear-gradient-59"/><radialGradient id="radial-gradient-11" cx="-835.44" cy="-2138.53" r="35.94" gradientTransform="matrix(0.87, 0.5, -0.86, 0.5, -1018.47, 1637.83)" gradientUnits="userSpaceOnUse"><stop offset="0.43" stop-color="#8770b8"/><stop offset="0.51" stop-color="#907abd"/><stop offset="0.64" stop-color="#a796cb"/><stop offset="0.81" stop-color="#cdc3e1"/><stop offset="1" stop-color="#fff"/></radialGradient><radialGradient id="radial-gradient-12" cx="-1183.56" cy="2949.46" r="12.69" gradientTransform="matrix(1.18, 0, 0, -0.58, 1492.26, 1896.38)" gradientUnits="userSpaceOnUse"><stop offset="0.19" stop-color="#5f5c5d"/><stop offset="1" stop-color="#fff"/></radialGradient><linearGradient id="linear-gradient-68" x1="7334.14" y1="146.2" x2="7325.56" y2="127.06" gradientTransform="matrix(-1, 0, 0, 1, 7445.54, 0)" gradientUnits="userSpaceOnUse"><stop offset="0" stop-color="#ffbb96"/><stop offset="0.23" stop-color="#fffbc9"/><stop offset="0.54" stop-color="#f9b673"/><stop offset="0.64" stop-color="#f9b876"/><stop offset="0.72" stop-color="#fabe81"/><stop offset="0.81" stop-color="#fcc993"/><stop offset="0.86" stop-color="#fed2a3"/><stop offset="0.97" stop-color="#ffc28c"/></linearGradient><linearGradient id="linear-gradient-69" x1="7319.22" y1="134.52" x2="7331.53" y2="138.44" gradientTransform="matrix(-1, 0, 0, 1, 7445.54, 0)" gradientUnits="userSpaceOnUse"><stop offset="0" stop-color="#f9b673"/><stop offset="0.21" stop-color="#fab876"/><stop offset="0.39" stop-color="#fcbd81"/><stop offset="0.51" stop-color="#ffc28c"/><stop offset="1" stop-color="#fed2a3"/></linearGradient><linearGradient id="linear-gradient-70" x1="7328.79" y1="124.33" x2="7334.48" y2="132.83" xlink:href="#linear-gradient-68"/><radialGradient id="radial-gradient-13" cx="7325.39" cy="140.08" r="4.89" gradientTransform="matrix(-1, 0, 0, 1, 7445.54, 0)" xlink:href="#White_Black_1"/><radialGradient id="radial-gradient-14" cx="7330.06" cy="128.41" r="1.87" gradientTransform="matrix(-1, 0, 0, 1, 7445.54, 0)" xlink:href="#White_Black_1"/><linearGradient id="linear-gradient-71" x1="7337.63" y1="189.95" x2="7361.88" y2="189.95" xlink:href="#linear-gradient-68"/><linearGradient id="linear-gradient-72" x1="7371.83" y1="163.7" x2="7348.55" y2="187.14" gradientTransform="matrix(-1, 0, 0, 1, 7445.54, 0)" gradientUnits="userSpaceOnUse"><stop offset="0.04" stop-color="#ffba78"/><stop offset="0.4" stop-color="#ffc987"/><stop offset="1" stop-color="#feeca8"/></linearGradient><linearGradient id="linear-gradient-73" x1="7362.15" y1="188.28" x2="7362.16" y2="188.28" xlink:href="#linear-gradient-68"/><linearGradient id="linear-gradient-74" x1="7337.63" y1="192.18" x2="7361.88" y2="192.18" xlink:href="#linear-gradient-68"/><radialGradient id="radial-gradient-15" cx="7344.96" cy="192.71" r="4.78" gradientTransform="matrix(-1, 0, 0, 1, 7445.54, 0)" xlink:href="#White_Black_1"/><linearGradient id="linear-gradient-75" x1="7342.83" y1="186.7" x2="7356.75" y2="186.7" xlink:href="#linear-gradient-68"/><radialGradient id="radial-gradient-16" cx="7345.46" cy="187.89" r="3.05" gradientTransform="matrix(-1, 0, 0, 1, 7445.54, 0)" xlink:href="#White_Black_1"/><linearGradient id="linear-gradient-77" x1="7345.25" y1="181.46" x2="7354.9" y2="184.53" xlink:href="#linear-gradient-68"/><linearGradient id="linear-gradient-79" x1="7346.59" y1="177.1" x2="7353.04" y2="177.1" xlink:href="#linear-gradient-68"/><radialGradient id="radial-gradient-17" cx="7348.24" cy="168.35" r="7.25" gradientTransform="matrix(-1, 0, 0, 1, 7445.54, 0)" gradientUnits="userSpaceOnUse"><stop offset="0.15" stop-color="#fffbc9"/><stop offset="0.54" stop-color="#f9b673"/><stop offset="0.64" stop-color="#f9b876"/><stop offset="0.72" stop-color="#fabe81"/><stop offset="0.81" stop-color="#fcc993"/><stop offset="0.86" stop-color="#fed2a3"/><stop offset="0.97" stop-color="#ffc28c"/></radialGradient><linearGradient id="linear-gradient-81" x1="7331.19" y1="154.72" x2="7368.31" y2="154.72" xlink:href="#linear-gradient-68"/><radialGradient id="radial-gradient-18" cx="22534.44" cy="-2044.44" r="17.41" gradientTransform="matrix(-0.2, 0.06, 0.24, 0.77, 5001.83, 343.62)" gradientUnits="userSpaceOnUse"><stop offset="0" stop-color="#754c29"/><stop offset="0.09" stop-color="#603e22"/><stop offset="0.27" stop-color="#3d2816"/><stop offset="0.44" stop-color="#22160c"/><stop offset="0.62" stop-color="#0f0a05"/><stop offset="0.81" stop-color="#040201"/><stop offset="1"/></radialGradient><radialGradient id="radial-gradient-19" cx="14818.86" cy="1221.92" r="16.65" gradientTransform="matrix(-0.41, -0.09, -0.21, 0.98, 6485.75, 254.09)" gradientUnits="userSpaceOnUse"><stop offset="0" stop-color="#f49587"/><stop offset="0.12" stop-color="#bd7368"/><stop offset="0.24" stop-color="#8b554d"/><stop offset="0.36" stop-color="#603b35"/><stop offset="0.48" stop-color="#3e2622"/><stop offset="0.61" stop-color="#231513"/><stop offset="0.74" stop-color="#0f0908"/><stop offset="0.86" stop-color="#040202"/><stop offset="1"/></radialGradient><linearGradient id="linear-gradient-82" x1="7330.5" y1="142.39" x2="7369" y2="142.39" xlink:href="#linear-gradient-68"/><linearGradient id="linear-gradient-83" x1="7386.01" y1="99.22" x2="7347.75" y2="137.72" xlink:href="#linear-gradient-72"/><radialGradient id="White_Black_Radial" cx="7341.46" cy="143.97" r="24.58" gradientTransform="matrix(-1, 0, 0, 1, 7445.54, 0)" xlink:href="#White_Black_1"/><linearGradient id="linear-gradient-84" x1="7368.01" y1="135.5" x2="7331.79" y2="135.5" xlink:href="#linear-gradient-68"/><radialGradient id="radial-gradient-20" cx="7350.53" cy="145.73" r="17.83" gradientTransform="matrix(-1, 0, 0, 1, 7445.54, 0)" gradientUnits="userSpaceOnUse"><stop offset="0" stop-color="#e6c7bd"/><stop offset="1" stop-color="#fff"/></radialGradient><radialGradient id="radial-gradient-21" cx="31120.43" cy="13366.93" r="27.76" gradientTransform="matrix(-0.05, -0.14, -0.29, 0.1, 5420.82, 3243.05)" xlink:href="#radial-gradient-19"/><linearGradient id="linear-gradient-85" x1="7361.75" y1="145.86" x2="7371.85" y2="165.14" xlink:href="#linear-gradient-68"/><linearGradient id="linear-gradient-86" x1="7350.36" y1="163.01" x2="7369.83" y2="150.07" xlink:href="#linear-gradient-69"/><linearGradient id="linear-gradient-87" x1="7358.74" y1="163.64" x2="7363.01" y2="165" xlink:href="#linear-gradient-72"/><radialGradient id="radial-gradient-22" cx="7370.09" cy="149.5" r="4.81" gradientTransform="matrix(-1, 0, 0, 1, 7445.54, 0)" xlink:href="#White_Black_1"/><radialGradient id="radial-gradient-23" cx="2282.87" cy="20826.13" r="10.87" gradientTransform="matrix(0.08, -0.13, -0.2, -0.13, 4060.29, 3057.92)" xlink:href="#radial-gradient-19"/><radialGradient id="radial-gradient-24" cx="30365.28" cy="-13900.55" r="20.54" gradientTransform="matrix(-0.12, 0.09, 0.18, 0.24, 6257.69, 912.33)" xlink:href="#radial-gradient-19"/><radialGradient id="radial-gradient-25" cx="30692.3" cy="13380.8" r="11.75" gradientTransform="matrix(-0.05, -0.14, -0.29, 0.1, 5420.82, 3243.05)" xlink:href="#radial-gradient-19"/></defs><title>yyRisorsa 1seo2</title><g class="cls-8"><g id="Livello_2" data-name="Livello 2"><g id="Layer_1" data-name="Layer 1"><path class="cls-9" d="M44.8,205.52c0,1.58,1.15,3.24,3.4,4.54l32.56,31.08c4.12,2.38,10.35,2.64,13.92.58l59.24-34.41c1.73-1,2.5-2.35,2.39-3.75a1.44,1.44,0,0,1,0,.24v4.48a4.16,4.16,0,0,1-2.41,3.42L94.68,246.11c-3.57,2.06-9.8,1.8-13.92-.58L48.2,214.45c-2.29-1.32-3.44-3-3.41-4.61C44.8,209.57,44.75,206.62,44.8,205.52Z"/><g class="cls-10"><path class="cls-11" d="M88.64,245.54a17.15,17.15,0,0,0,8.53-2l59.24-34.41a9,9,0,0,0,4.89-7.8c0-3.46-2.15-6.69-5.89-8.85l-52-20a21,21,0,0,0-10.36-2.63,17,17,0,0,0-8.53,2.06L44.71,195.18a9,9,0,0,0-4.89,7.8c0,3.46,2.15,6.69,5.89,8.85l32.57,31.08A21,21,0,0,0,88.64,245.54Z"/><path class="cls-12" d="M84.75,172.25,45.38,195.31l-.48.29a8.22,8.22,0,0,0-4.32,7.79c.18,3.14,2.54,6.64,6,8.61l32,30.52A19.91,19.91,0,0,0,89.19,245a18.19,18.19,0,0,0,8.37-2.22l58.62-34.05a8.59,8.59,0,0,0,4.67-7.44c0-3.28-2.07-6.35-5.67-8.43L103.51,173a21.88,21.88,0,0,0-10.27-2.69A16.77,16.77,0,0,0,84.75,172.25Z"/><path class="cls-13" d="M85,172.64,45.56,195.73l-.48.29a7.51,7.51,0,0,0-3.74,7.79c.33,2.81,2.94,6.59,6,8.36l31.39,30a19,19,0,0,0,11,2.25A19.51,19.51,0,0,0,98,242l58-33.69a8.11,8.11,0,0,0,4.44-7.08c0-3.1-2-6-5.44-8l-51.34-19.75a25.22,25.22,0,0,0-3.71-1.58,22,22,0,0,0-6.48-1.16A16.36,16.36,0,0,0,85,172.64Z"/><path class="cls-14" d="M85.21,173,45.75,196.15l-.49.29c-3.09,1.88-4.22,4.86-3.16,7.78,0,2.52,3.33,6.55,6.06,8.12L79,241.73a18.26,18.26,0,0,0,11.33,2.08c2.37,0,6.36-1.59,8.06-2.57l57.39-33.33a7.68,7.68,0,0,0,4.21-6.73c0-2.91-1.92-5.67-5.21-7.57l-51-19.63a29,29,0,0,0-3.69-1.56,21.64,21.64,0,0,0-6.43-1.23A15.88,15.88,0,0,0,85.21,173Z"/><path class="cls-15" d="M85.43,173.42l-39.5,23.15-.49.29c-3.08,1.9-4,4.94-2.57,7.77,0,2.2,3.72,6.5,6.1,7.88l30.21,28.83a17.62,17.62,0,0,0,11.65,1.89c2.07,0,6.41-1.88,7.89-2.74l56.78-33a7.21,7.21,0,0,0,4-6.36c-.06-2.74-1.85-5.34-5-7.15l-50.7-19.5a32.53,32.53,0,0,0-3.67-1.54,21.81,21.81,0,0,0-6.36-1.31A15.72,15.72,0,0,0,85.43,173.42Z"/><path class="cls-16" d="M85.66,173.81,46.11,197l-.49.3c-3.07,1.93-3.77,5-2,7.76,0,1.89,4.11,6.46,6.15,7.64L79.41,241a17.08,17.08,0,0,0,12,1.7c1.78,0,6.46-2.18,7.73-2.91l56.17-32.62a6.72,6.72,0,0,0,3.75-6c-.07-2.56-1.76-5-4.75-6.73L103.9,175c-.63-.36-2.94-1.25-3.65-1.51a21.55,21.55,0,0,0-6.3-1.39A15.35,15.35,0,0,0,85.66,173.81Z"/><path class="cls-17" d="M85.88,174.21,46.29,197.4l-.49.3c-3.06,2-3.55,5.09-1.41,7.76,0,1.57,4.51,6.41,6.21,7.39l29,27.71a16.72,16.72,0,0,0,12.3,1.51c1.48,0,6.51-2.47,7.57-3.08l55.55-32.26a6.27,6.27,0,0,0,3.53-5.64c-.09-2.38-1.69-4.67-4.53-6.31L104,175.53c-.53-.31-3-1.26-3.64-1.49a21.34,21.34,0,0,0-6.23-1.47A15.06,15.06,0,0,0,85.88,174.21Z"/><path class="cls-18" d="M86.11,174.6,46.47,197.82a5.6,5.6,0,0,0-.48.3c-3.06,2-3.33,5.16-.84,7.75,0,1.26,4.9,6.36,6.26,7.15l28.45,27.15a16.35,16.35,0,0,0,12.62,1.32c1.18,0,6.57-2.76,7.41-3.25l54.93-31.9c2.26-1.3,3.41-3.22,3.3-5.29s-1.61-4.33-4.3-5.88L104.09,176c-.41-.24-3.14-1.27-3.62-1.46A21.18,21.18,0,0,0,94.31,173,14.6,14.6,0,0,0,86.11,174.6Z"/><path class="cls-19" d="M86.34,175,46.65,198.24c-.12.07-.37.22-.48.3-3.05,2-3.11,5.24-.26,7.74,0,.95,5.29,6.32,6.32,6.91l27.85,26.59c3.8,2.19,9.34,2.63,13,1.13.89,0,6.62-3,7.25-3.42L154.6,206c2.13-1.23,3.19-3,3.07-4.93s-1.54-4-4.07-5.46l-49.41-19c-.31-.18-3.25-1.3-3.6-1.44a20.88,20.88,0,0,0-6.1-1.62A14.34,14.34,0,0,0,86.34,175Z"/><path class="cls-20" d="M86.56,175.38,46.84,198.65c-.14.08-.37.22-.49.31-3,2-2.88,5.31.33,7.74,0,.63,5.68,6.27,6.36,6.66l27.27,26c3.91,2.26,9.67,2.64,13.27,1,.59,0,6.67-3.35,7.09-3.6l53.7-31.18c2-1.16,3-2.82,2.85-4.57s-1.46-3.66-3.85-5l-49.08-18.89c-.21-.12-3.35-1.31-3.59-1.41a21.06,21.06,0,0,0-6-1.7A14.15,14.15,0,0,0,86.56,175.38Z"/><path class="cls-21" d="M86.79,175.77,47,199.07c-.16.09-.35.21-.49.31-3,2.06-2.66,5.39.91,7.73a84.36,84.36,0,0,0,6.41,6.42L80.54,239c4,2.32,10,2.64,13.59.77.3,0,6.72-3.64,6.93-3.76l53.09-30.83c1.88-1.09,2.76-2.62,2.61-4.22s-1.38-3.31-3.61-4.6l-48.77-18.76c-.1-.06-3.45-1.34-3.56-1.39a21.09,21.09,0,0,0-6-1.78A13.88,13.88,0,0,0,86.79,175.77Z"/><path d="M94.68,239.18l59.24-34.41c3.57-2.06,3.12-5.65-1-8l-52-20c-4.12-2.38-10.35-2.64-13.92-.58L47.2,199.49c-3.57,2.06-3.12,5.66,1,8L80.76,238.6C84.88,241,91.11,241.24,94.68,239.18Z"/></g><path class="cls-22" d="M94.68,239.1l59.24-34.41a4.17,4.17,0,0,0,2.41-3.42v-4.48c0-1.56-1.18,1.15-3.41-.13l-52-20c-4.12-2.38-10.35-2.64-13.92-.58L47.2,199.41c-1.19.68-2.05-2.24-2.36-1.31-.11.31,0,4.41-.05,4.73,0,1.6,1.12,3.29,3.41,4.61l32.56,31.08C84.88,240.9,91.11,241.16,94.68,239.1Z"/><path class="cls-23" d="M94.68,234.7l59.24-34.4c3.57-2.06,3.12-5.66-1-8l-52-20c-4.12-2.37-10.35-2.63-13.92-.57L47.2,195c-3.57,2.06-3.12,5.66,1,8l32.56,31.08C84.88,236.5,91.11,236.76,94.68,234.7Z"/><path class="cls-24" d="M47.2,195,87,171.69c3.57-2.06,9.8-1.8,13.92.57l26.19,10.08a5.51,5.51,0,0,1-.81.56L67.07,217.31a10.12,10.12,0,0,1-2.83,1.05l-16-15.31C44.08,200.67,43.63,197.07,47.2,195Z"/><path class="cls-25" d="M48.2,202.3l32.56,31.08c4.12,2.38,10.35,2.64,13.92.58l59.24-34.41a4.24,4.24,0,0,0,2.38-3.16c.19,1.46-.59,2.88-2.38,3.91L94.68,234.7c-3.57,2.06-9.8,1.8-13.92-.57L48.2,203.05c-2.41-1.39-3.55-3.2-3.38-4.88C45,199.63,46.14,201.12,48.2,202.3Z"/><ellipse class="cls-26" cx="85.91" cy="238.11" rx="19.52" ry="16.7" transform="translate(-166.98 227.07) rotate(-67.66)"/><ellipse class="cls-27" cx="155.55" cy="204.28" rx="41.55" ry="16.83" transform="translate(-72.33 85.96) rotate(-25.27)"/><path class="cls-28" d="M17.29,234.89l145.48-84.06c7.44-4.3,13.47-15.82,13.47-25.74V13.83c0-9.92-6-14.48-13.47-10.19L17.29,87.71C9.85,92,3.82,103.53,3.82,113.44V224.71C3.82,234.63,9.85,239.19,17.29,234.89Z"/><path class="cls-29" d="M15.55,227.15,159,144.28c6-3.81,9.69-11.41,9.69-19.19v-112a2.39,2.39,0,0,0-3.6-2.05l-.42.24-143.59,83c-7.13,4.11-9.69,11.41-9.69,19.18V225.09a2.58,2.58,0,0,0,3.86,2.24Z"/><path class="cls-30" d="M11.38,113.44V225.09a2.58,2.58,0,0,0,3.86,2.24l.31-.18L159,144.28c6-3.81,9.69-11.41,9.69-19.19v-112a2.39,2.39,0,0,0-3.6-2.05l-.42.24-143.59,83C13.94,98.37,11.38,105.67,11.38,113.44Zm1.51,0c0-5.8,1.55-13.62,8.94-17.87l144-83.23a.86.86,0,0,1,.44-.12.88.88,0,0,1,.88.87v112c0,7.41-3.53,14.44-8.94,17.88L14.49,226a1,1,0,0,1-.53.15,1.08,1.08,0,0,1-1.07-1.07Z"/><path class="cls-31" d="M13.47,85.68,159,1.62c2.94-1.7,5.66-2,7.88-1.16.28.11,4,2.1,4.3,2.25h0c-2.29-1.12-5.2-.91-8.38.92L17.29,87.71C9.85,92,3.82,103.53,3.82,113.44V224.71c0,6.19,2.35,10.29,5.92,11.46a2.34,2.34,0,0,1-1.18-.4c-.17-.1-4.25-2.4-4.41-2.51C1.59,231.46,0,227.78,0,222.68V111.42C0,101.5,6,90,13.47,85.68Z"/><path class="cls-32" d="M16.64,87.39,162.13,3.32c3.05-1.76,5.85-2,8.11-1a10,10,0,0,0-6.5,1.53L18.25,87.87c-7.43,4.3-13.46,15.82-13.46,25.74V224.87c0,5.85,2.1,9.82,5.35,11.22-4.15-.66-7-4.92-7-11.7V113.12C3.17,103.2,9.2,91.68,16.64,87.39Z"/><g class="cls-33"><path class="cls-34" d="M168.73,47.69c5.93-3.42,10.74-.68,10.74,6.12v98.81c0,6.8-4.81,15.09-10.74,18.51l-33.38,18.65c-5.92,3.42-13.1.31-13.1-6.49V84.47c0-6.8,7.18-14.71,13.1-18.13Z"/><path class="cls-35" d="M169.3,47.93c5.93-3.42,10.74-.68,10.74,6.12V152.5c0,6.8-4.81,15.09-10.74,18.51l-33.39,18.66c-5.93,3.42-12.9.34-12.9-6.46V84.76c0-6.8,7-14.74,12.9-18.17Z"/><path class="cls-36" d="M169.87,48.18c5.93-3.43,10.74-.69,10.74,6.12v98.07c0,6.8-4.81,15.09-10.74,18.52l-33.41,18.67c-5.93,3.42-12.68.37-12.68-6.43V85.06c0-6.8,6.75-14.79,12.68-18.21Z"/><path class="cls-37" d="M170.44,48.42c5.93-3.42,10.74-.68,10.74,6.12v97.71c0,6.8-4.81,15.09-10.74,18.51L137,189.45c-5.93,3.42-12.46.41-12.46-6.39V85.35c0-6.8,6.53-14.82,12.46-18.24Z"/><path class="cls-38" d="M171,48.66c5.93-3.42,10.74-.68,10.74,6.13v97.33c0,6.8-4.81,15.09-10.74,18.52l-33.45,18.7c-5.93,3.42-12.24.44-12.24-6.36V85.64c0-6.8,6.31-14.85,12.24-18.28Z"/><path class="cls-39" d="M171.58,48.91c5.93-3.43,10.74-.68,10.74,6.12v97c0,6.81-4.81,15.1-10.74,18.52l-33.46,18.72c-5.93,3.42-12,.48-12-6.33v-97c0-6.81,6.11-14.89,12-18.32Z"/><path class="cls-40" d="M172.15,49.15c5.93-3.42,10.74-.68,10.74,6.12v96.6c0,6.8-4.81,15.1-10.74,18.52l-33.48,18.73c-5.93,3.42-11.82.51-11.82-6.3V86.23c0-6.81,5.89-14.93,11.82-18.35Z"/><path class="cls-41" d="M172.72,49.4c5.93-3.43,10.74-.69,10.74,6.12v96.22c0,6.81-4.81,15.1-10.74,18.53L139.22,189c-5.93,3.42-11.6.54-11.6-6.26V86.52c0-6.8,5.67-15,11.6-18.38Z"/><path class="cls-42" d="M173.29,49.64C179.22,46.21,184,49,184,55.76v95.86c0,6.8-4.81,15.1-10.74,18.52L139.77,188.9c-5.93,3.42-11.39.58-11.39-6.23V86.82c0-6.81,5.46-15,11.39-18.43Z"/><path class="cls-43" d="M173.86,49.88c5.93-3.42,10.74-.68,10.74,6.13v95.48c0,6.81-4.81,15.1-10.74,18.53l-33.53,18.77c-5.94,3.42-11.18.61-11.18-6.2V87.11c0-6.81,5.24-15,11.18-18.46Z"/><path class="cls-44" d="M174.42,50.13c5.94-3.43,10.75-.69,10.75,6.12v95.11c0,6.81-4.81,15.11-10.75,18.54l-33.54,18.77c-5.94,3.43-11,.65-11-6.16V87.4c0-6.81,5-15.07,11-18.49Z"/><path class="cls-45" d="M175,50.37c5.94-3.43,10.75-.68,10.75,6.13v94.74c0,6.81-4.81,15.11-10.75,18.53l-33.56,18.79c-5.93,3.43-10.74.69-10.74-6.12V87.7c0-6.81,4.81-15.11,10.74-18.54Z"/></g><path class="cls-46" d="M175.3,49.47c5.95-3.44,10.78-.68,10.78,6.15V156.47c0,6.83-4.83,15.16-10.78,18.6L141.49,194c-6,3.44-10.79.69-10.79-6.14V87c0-6.84,4.83-15.16,10.79-18.6Z"/><path class="cls-47" d="M141.49,68.41,175.3,49.47c5.95-3.44,10.78-.68,10.78,6.15v1c0-6.83-4.83-9.58-10.78-6.14L141.49,69.45c-6,3.44-10.79,11.77-10.79,18.6V87C130.7,80.17,135.53,71.85,141.49,68.41Z"/><g class="cls-10"><path class="cls-11" d="M260.17,298.8a9.76,9.76,0,0,1-4.88-1.17l-29.64-16.87L196,263.89a5.16,5.16,0,0,1-2.8-4.46,6,6,0,0,1,3.37-5.07L216,243.45a12,12,0,0,1,5.93-1.51,9.79,9.79,0,0,1,4.88,1.18L256.43,260l29.64,16.87a5.15,5.15,0,0,1,2.8,4.46,6,6,0,0,1-3.37,5.06L266.1,297.3A12,12,0,0,1,260.17,298.8Z"/><path class="cls-12" d="M197.11,254.78l5.26-2.93c.21-.13,10.08-5.51,10.27-5.4l3.39-1.67a12.2,12.2,0,0,1,5.72-1.17,10,10,0,0,1,4.71,1.22l23.76,13.54,5,2.86,28.8,16.41a6.07,6.07,0,0,1,2.22,2.16,4.55,4.55,0,0,1,.6,2.09c.06,1.91-1.11,3.71-3.22,4.93l-5.26,2.93c-.22.13-10.09,5.51-10.27,5.4l-3.39,1.67A12.22,12.22,0,0,1,259,298a10,10,0,0,1-4.71-1.22l-23.75-13.54-5-2.87L196.71,264a6.18,6.18,0,0,1-2.23-2.16,4.55,4.55,0,0,1-.6-2.1C193.83,257.8,195,256,197.11,254.78Z"/><path class="cls-13" d="M197.63,255.2l5.12-2.83c.43-.25,9.67-5.11,10-4.89l3.29-1.37c1.37-.79,3.77-.84,5.52-.84a10.38,10.38,0,0,1,4.54,1.28L249.2,259.7l4.88,2.78,28,15.94a6.63,6.63,0,0,1,2.2,2.06,4.5,4.5,0,0,1,.65,2c.11,1.83-1,3.59-3.07,4.79l-5.12,2.82c-.43.25-9.67,5.11-10,4.9l-3.28,1.36c-1.38.79-3.77.85-5.52.85a10.46,10.46,0,0,1-4.55-1.28l-23.05-13.15L225.37,280l-28-15.94a6.73,6.73,0,0,1-2.2-2.06,4.46,4.46,0,0,1-.65-2C194.45,258.15,195.56,256.39,197.63,255.2Z"/><path class="cls-14" d="M198.16,255.62l5-2.73c.65-.37,9.26-4.71,9.81-4.38l3.19-1.06c1.22-.71,3.76-.52,5.31-.52a10.92,10.92,0,0,1,4.38,1.33L248.18,261l4.73,2.7L280,279.21a7.34,7.34,0,0,1,2.17,2,4.36,4.36,0,0,1,.7,1.89c.17,1.75-.88,3.47-2.92,4.64l-5,2.73c-.65.37-9.26,4.7-9.81,4.38L262,295.86c-1.22.71-3.75.52-5.31.52a10.87,10.87,0,0,1-4.37-1.33L230,282.28l-4.73-2.7L198.11,264.1a7.48,7.48,0,0,1-2.17-2,4.49,4.49,0,0,1-.7-1.89C195.07,258.51,196.12,256.79,198.16,255.62Z"/><path class="cls-15" d="M198.68,256l4.84-2.61c.85-.5,8.83-4.31,9.58-3.88l3.08-.76c1.07-.62,3.75-.19,5.11-.19a11.57,11.57,0,0,1,4.2,1.39l21.67,12.38,4.58,2.62L278,280a8.08,8.08,0,0,1,2.14,1.85,4.37,4.37,0,0,1,.75,1.79c.22,1.67-.77,3.35-2.76,4.5l-4.84,2.62c-.86.49-8.83,4.31-9.58,3.88l-3.08.75c-1.07.62-3.75.19-5.11.19a11.56,11.56,0,0,1-4.2-1.38l-21.67-12.38-4.58-2.62-26.28-15a8.08,8.08,0,0,1-2.14-1.85,4.47,4.47,0,0,1-.76-1.79C195.7,258.86,196.69,257.18,198.68,256Z"/><path class="cls-16" d="M199.21,256.45l4.69-2.51c1.07-.62,8.42-3.91,9.35-3.37l3-.46c.91-.53,3.74.15,4.9.15a12.51,12.51,0,0,1,4,1.43l21,12,4.43,2.53L276,280.78a9.54,9.54,0,0,1,2.1,1.74,4.42,4.42,0,0,1,.82,1.69c.27,1.59-.66,3.23-2.62,4.36l-4.69,2.51c-1.08.62-8.42,3.91-9.35,3.37l-3,.45c-.92.53-3.74-.14-4.91-.14a12.54,12.54,0,0,1-4-1.43l-21-12L225,278.79l-25.44-14.55a9.84,9.84,0,0,1-2.11-1.74,4.46,4.46,0,0,1-.81-1.69C196.32,259.21,197.25,257.58,199.21,256.45Z"/><path class="cls-17" d="M199.73,256.87l4.55-2.41c1.29-.74,8-3.51,9.12-2.86l2.87-.16c.77-.44,3.74.48,4.71.48a13.89,13.89,0,0,1,3.86,1.49L245.11,265l4.29,2.45L274,281.56a11.16,11.16,0,0,1,2.08,1.64,4.54,4.54,0,0,1,.87,1.59c.33,1.51-.55,3.1-2.47,4.21l-4.55,2.41c-1.29.74-8,3.51-9.12,2.86l-2.87.16c-.77.44-3.73-.48-4.7-.48a13.94,13.94,0,0,1-3.87-1.48l-20.27-11.62-4.28-2.45-24.6-14.09a11.5,11.5,0,0,1-2.08-1.64,4.4,4.4,0,0,1-.86-1.58C196.94,259.57,197.81,258,199.73,256.87Z"/><path class="cls-18" d="M200.26,257.29l4.41-2.31c1.5-.86,7.59-3.1,8.88-2.35l2.77.15c.62-.36,3.73.8,4.5.8a16,16,0,0,1,3.7,1.54l19.57,11.23,4.13,2.37L272,282.34a15.62,15.62,0,0,1,2,1.53,4.79,4.79,0,0,1,.92,1.49c.39,1.44-.43,3-2.32,4.08l-4.41,2.3c-1.5.87-7.58,3.11-8.88,2.36l-2.77-.15c-.61.35-3.72-.81-4.5-.81a16.19,16.19,0,0,1-3.7-1.53L228.8,280.38,224.67,278l-23.76-13.63a14.77,14.77,0,0,1-2-1.53,4.68,4.68,0,0,1-.92-1.49C197.56,259.92,198.37,258.37,200.26,257.29Z"/><path class="cls-19" d="M200.78,257.7l4.27-2.19c1.72-1,7.17-2.71,8.66-1.85l2.66.45c.46-.27,3.71,1.13,4.3,1.13a20.11,20.11,0,0,1,3.53,1.59l18.87,10.85,4,2.28L270,283.13a13.31,13.31,0,0,1,2,1.42,3.05,3.05,0,0,1,1,1.39c.44,1.36-.32,2.87-2.16,3.94l-4.27,2.19c-1.72,1-7.17,2.71-8.66,1.85l-2.66-.45c-.46.27-3.72-1.14-4.3-1.14a20.08,20.08,0,0,1-3.53-1.58L228.51,279.9l-4-2.28-22.92-13.17a12.83,12.83,0,0,1-2-1.42,3.05,3.05,0,0,1-1-1.39C198.17,260.27,198.94,258.77,200.78,257.7Z"/><path class="cls-20" d="M201.31,258.12l4.12-2.09c1.93-1.11,6.76-2.31,8.43-1.34l2.56.75c.31-.18,3.7,1.47,4.09,1.47a27.49,27.49,0,0,1,3.36,1.64L242.05,269l3.83,2.2L268,283.91a20.64,20.64,0,0,1,2,1.32,2.94,2.94,0,0,1,1,1.29c.5,1.29-.2,2.75-2,3.79l-4.13,2.09c-1.93,1.12-6.75,2.31-8.42,1.35l-2.57-.76c-.3.18-3.7-1.46-4.09-1.46a28.22,28.22,0,0,1-3.36-1.64l-18.18-10.46-3.82-2.21-22.08-12.7a16.62,16.62,0,0,1-2-1.32,2.94,2.94,0,0,1-1-1.29C198.79,260.63,199.5,259.17,201.31,258.12Z"/><path class="cls-21" d="M201.83,258.54l4-2c2.14-1.23,6.34-1.91,8.19-.83l2.46,1c.15-.08,3.69,1.8,3.89,1.8s3.07,1.62,3.19,1.69L241,270.34l3.68,2.12,21.23,12.23c.1.06,1.91,1.14,2,1.22A2.88,2.88,0,0,1,269,287.1c.56,1.2-.09,2.63-1.86,3.65l-4,2c-2.15,1.24-6.34,1.91-8.2.84l-2.46-1.06c-.15.09-3.69-1.79-3.88-1.79s-3.07-1.62-3.19-1.69L227.92,279l-3.67-2.12L203,264.59c-.09,0-1.91-1.13-1.95-1.21a3,3,0,0,1-1.09-1.19C199.41,261,200.06,259.56,201.83,258.54Z"/><path d="M253.48,293.4l-25.85-14.93-25.84-14.92c-2-1.18-1.79-3.23.57-4.6l3.84-1.87c2.36-1.36,5.92-1.51,8-.33L240,271.67l25.84,14.92c2,1.18,1.79,3.24-.57,4.6l-3.84,1.88C259.08,294.43,255.52,294.57,253.48,293.4Z"/></g><g class="cls-48"><path class="cls-49" d="M256.14,340l-46.37-26.77c-5.23-3-9.46-11.12-9.46-18.09V270.53c0-3.54-2.92-4.33-1.15-5.6.06-.05,4.13-1.9,4.21-1.93a6.84,6.84,0,0,1,6.4.37l46.37,26.77c5.23,3,9.47,11.12,9.47,18.09v24.61c0,3.71-1.2,6.35-3.11,7.56-.11.07-5,2.4-5.14,2.44C255.67,343.41,258.43,341.32,256.14,340Z"/><path class="cls-50" d="M252.54,341.65l-46.37-26.77c-5.23-3-9.47-11.12-9.47-18.09V272.18c0-7,4.24-10.18,9.47-7.16l46.37,26.77c5.23,3,9.47,11.12,9.47,18.09v24.61C262,341.46,257.77,344.67,252.54,341.65Z"/><path class="cls-51" d="M251.71,342.09l-46.36-26.76c-5.23-3-9.47-11.13-9.47-18.1V272.62c0-7,4.24-10.17,9.47-7.15l46.36,26.76c5.23,3,9.47,11.12,9.47,18.1v24.6C261.18,341.91,256.94,345.11,251.71,342.09Z"/><path class="cls-52" d="M197.17,298.05V273.29c0-6.11,3.72-8.92,8.3-6.27l46.12,26.62c4.58,2.65,8.3,9.75,8.3,15.87v24.75c0,6.12-3.72,8.93-8.3,6.28l-46.12-26.63C200.89,311.27,197.17,304.17,197.17,298.05Z"/><path class="cls-53" d="M199,298.81V274.67c0-5.12,3.12-7.47,7-5.25l45.14,26.06c3.83,2.21,7,8.16,7,13.27v24.14c0,5.11-3.12,7.47-7,5.25L206,312.08C202.13,309.87,199,303.92,199,298.81Z"/><path class="cls-54" d="M206.49,270.78c-3.62-2.09-6.55-.42-6.55,3.73V300a14.4,14.4,0,0,0,6.55,11.29l44.08,25.46c3.62,2.09,6.55.42,6.55-3.73V307.53a14.43,14.43,0,0,0-6.55-11.3Z"/><polygon class="cls-55" points="220.77 304.89 223.85 306.73 223.85 285.33 220.77 283.5 220.77 304.89"/><polygon class="cls-56" points="215.07 309.94 218.15 311.78 218.15 282.09 215.07 280.25 215.07 309.94"/><polygon class="cls-57" points="209.2 312.3 212.29 314.13 212.29 278.74 209.2 276.9 209.2 312.3"/><polygon class="cls-58" points="235.59 308.28 235.59 292.23 232.51 290.4 232.51 306.45 235.59 308.28"/><polygon class="cls-59" points="226.64 301.1 229.72 302.93 229.72 288.88 226.64 287.04 226.64 301.1"/><polygon class="cls-60" points="203.45 304.21 206.53 306.04 206.53 275.38 203.45 273.55 203.45 304.21"/><polygon class="cls-61" points="238.38 312.97 241.46 314.81 241.46 295.77 238.38 293.94 238.38 312.97"/><polygon class="cls-62" points="253.19 310.9 253.19 302.67 250.11 300.84 250.11 309.06 253.19 310.9"/><polygon class="cls-63" points="244.24 317.87 247.33 319.7 247.33 299.32 244.24 297.48 244.24 317.87"/><polygon class="cls-64" points="220.77 298.59 223.85 300.43 223.85 285.33 220.77 283.5 220.77 298.59"/><polygon class="cls-65" points="215.07 304.53 218.15 306.36 218.15 282.09 215.07 280.25 215.07 304.53"/><polygon class="cls-66" points="209.2 304.71 212.29 306.55 212.29 278.74 209.2 276.9 209.2 304.71"/><polygon class="cls-67" points="235.59 303.1 235.59 292.23 232.51 290.4 232.51 301.26 235.59 303.1"/><polygon class="cls-68" points="226.64 295.89 229.72 297.73 229.72 288.88 226.64 287.04 226.64 295.89"/><polygon class="cls-69" points="238.38 311.48 241.46 313.31 241.46 295.77 238.38 293.94 238.38 311.48"/><polygon class="cls-70" points="253.19 307.48 253.19 302.67 250.11 300.84 250.11 305.65 253.19 307.48"/><polygon class="cls-71" points="244.24 307.92 247.33 309.76 247.33 299.32 244.24 297.48 244.24 307.92"/><polygon class="cls-72" points="203.45 293.86 206.53 295.69 206.53 275.38 203.45 273.55 203.45 293.86"/></g><path class="cls-73" d="M256.14,289.69l-46.37-26.76c-5.23-3-9.46-11.12-9.46-18.1V121.36c0-3.55-2.92-4.33-1.15-5.6.06-.05,4.13-1.9,4.21-1.93a6.84,6.84,0,0,1,6.4.37L256.14,141c5.23,3,9.47,11.12,9.47,18.09V282.54c0,3.7-1.2,6.34-3.11,7.55-.11.07-5,2.41-5.14,2.45C255.67,293.1,258.43,291,256.14,289.69Z"/><path class="cls-74" d="M255.71,141.11l-46.36-26.77c-2.47-1.42,43.8,27.63,43.8,27.63,5.23,3,9.47,11.12,9.47,18.09,0,0,2.56,126.32,2.56,122.62V159.2C265.18,152.23,260.94,144.13,255.71,141.11Z"/><path class="cls-75" d="M252.54,291.34l-46.37-26.77c-5.23-3-9.47-11.12-9.47-18.09V123c0-7,4.24-10.18,9.47-7.16l46.37,26.77c5.23,3,9.47,11.12,9.47,18.09V284.18C262,291.16,257.77,294.36,252.54,291.34Z"/><path class="cls-76" d="M251.71,291.79,205.35,265c-5.23-3-9.47-11.12-9.47-18.09V123.45c0-7,4.24-10.18,9.47-7.16l46.36,26.77c5.23,3,9.47,11.12,9.47,18.09V284.63C261.18,291.6,256.94,294.81,251.71,291.79Z"/><path class="cls-77" d="M197.17,247.75V124.12c0-6.11,3.72-8.92,8.3-6.27l46.12,26.62c4.58,2.65,8.3,9.75,8.3,15.86V284c0,6.11-3.72,8.92-8.3,6.27l-46.12-26.62C200.89,261,197.17,253.86,197.17,247.75Z"/><path class="cls-78" d="M199,248.5v-123c0-5.12,3.12-7.47,7-5.25l45.14,26.06c3.83,2.21,7,8.15,7,13.27v123c0,5.12-3.12,7.47-7,5.25L206,261.78C202.13,259.56,199,253.62,199,248.5Z"/><path class="cls-79" d="M206.49,121.61c-3.62-2.09-6.55-.42-6.55,3.73V249.72a14.43,14.43,0,0,0,6.55,11.3l44.08,25.45c3.62,2.09,6.55.42,6.55-3.73V158.36a14.43,14.43,0,0,0-6.55-11.3Z"/><polygon class="cls-80" points="199.94 214.2 257.12 247.22 257.12 185.09 199.94 152.07 199.94 214.2"/><path class="cls-81" d="M247.07,153l5.72,3.3c.22.13.4,0,.4-.22a.86.86,0,0,0-.4-.68l-5.72-3.31c-.22-.12-.4,0-.4.23A.88.88,0,0,0,247.07,153Zm5.72,4.44-5.72-3.31c-.22-.13-.4,0-.4.23a.88.88,0,0,0,.4.68l5.72,3.3c.22.13.4,0,.4-.22A.86.86,0,0,0,252.79,157.42Zm0,2-5.72-3.3c-.22-.13-.4,0-.4.22a.89.89,0,0,0,.4.69l5.72,3.3c.22.13.4,0,.4-.22A.89.89,0,0,0,252.79,159.45Z"/><ellipse class="cls-81" cx="211.03" cy="132.65" rx="0.78" ry="1.34" transform="translate(-38.1 124.63) rotate(-30.31)"/><path class="cls-81" d="M209.11,131.53c0,.61-.43.85-1,.55a2.11,2.11,0,0,1-1-1.65c0-.6.43-.85,1-.54A2.11,2.11,0,0,1,209.11,131.53Z"/><path class="cls-81" d="M206.24,129.86c0,.61-.43.85-1,.55a2.13,2.13,0,0,1-.95-1.65c0-.6.43-.85.95-.54A2.09,2.09,0,0,1,206.24,129.86Z"/><polygon class="cls-82" points="254.87 228.85 244.06 222.61 244.06 221.1 254.87 227.35 254.87 228.85"/><polygon class="cls-82" points="251.88 229.81 244.06 225.26 244.06 224.29 251.88 228.85 251.88 229.81"/><polygon class="cls-82" points="251.88 231.57 244.06 227.01 244.06 226.05 251.88 230.6 251.88 231.57"/><polygon class="cls-82" points="238.04 180.91 227.23 174.67 227.23 173.16 238.04 179.41 238.04 180.91"/><g class="cls-83"><path class="cls-84" d="M256.74,246.75l-.56-.32-56.49-32.62V152.42l57.05,32.94Zm-56.3-33.37L256,245.45V185.79l-55.55-32.07Z"/><rect class="cls-84" x="205.02" y="156.32" width="0.75" height="60.28"/><rect class="cls-84" x="211.45" y="160.01" width="0.75" height="60.28"/><rect class="cls-84" x="217.88" y="163.71" width="0.75" height="60.28"/><rect class="cls-84" x="224.31" y="167.4" width="0.75" height="60.28"/><rect class="cls-84" x="230.74" y="171.09" width="0.75" height="60.28"/><rect class="cls-84" x="237.18" y="174.78" width="0.75" height="60.28"/><rect class="cls-84" x="243.61" y="178.47" width="0.75" height="60.28"/><rect class="cls-84" x="250.04" y="182.16" width="0.75" height="60.28"/><rect class="cls-84" x="227.84" y="143.9" width="0.75" height="65.02" transform="translate(-38.66 285.84) rotate(-60)"/><rect class="cls-84" x="227.84" y="150.58" width="0.75" height="65.02" transform="translate(-44.45 289.18) rotate(-60)"/><rect class="cls-84" x="227.84" y="157.25" width="0.75" height="65.02" transform="translate(-50.23 292.52) rotate(-60)"/><rect class="cls-84" x="227.84" y="163.93" width="0.75" height="65.02" transform="translate(-56.01 295.86) rotate(-60)"/><rect class="cls-84" x="227.84" y="170.61" width="0.75" height="65.02" transform="translate(-61.8 299.2) rotate(-60)"/><rect class="cls-84" x="227.84" y="177.28" width="0.75" height="65.02" transform="translate(-67.58 302.54) rotate(-60)"/><rect class="cls-84" x="227.84" y="183.96" width="0.75" height="65.02" transform="translate(-73.36 305.88) rotate(-60)"/><rect class="cls-84" x="227.84" y="190.64" width="0.75" height="65.02" transform="translate(-79.14 309.21) rotate(-60)"/></g><polygon class="cls-82" points="235.05 181.87 227.23 177.32 227.23 176.35 235.05 180.91 235.05 181.87"/><polygon class="cls-82" points="235.05 183.63 227.23 179.07 227.23 178.11 235.05 182.67 235.05 183.63"/><polygon class="cls-85" points="257.12 190.47 242.14 202.89 225.07 187.33 199.94 205.3 199.94 209.59 224.91 191.74 242.07 207.4 257.12 194.92 257.12 190.47"/><path class="cls-30" d="M250.57,147.06l-44.08-25.45c-3.62-2.09-6.55-.42-6.55,3.73V249.72a14.43,14.43,0,0,0,6.55,11.3l44.08,25.45c3.62,2.09,6.55.42,6.55-3.73V158.36A14.43,14.43,0,0,0,250.57,147.06Zm6,135.68a4.86,4.86,0,0,1-.87,3.06,2.68,2.68,0,0,1-2.17,1h0a5.43,5.43,0,0,1-2.65-.82l-44.09-25.45a13.84,13.84,0,0,1-6.26-10.81V125.34c0-2.51,1.16-4.06,3-4.06a5.43,5.43,0,0,1,2.65.82l44.09,25.46a13.82,13.82,0,0,1,6.26,10.8Z"/><g class="cls-86"><path class="cls-87" d="M225.13,186.64a.5.5,0,0,1-.5-.5v-2.47a.5.5,0,0,1,.5-.5.5.5,0,0,1,.5.5v2.47A.5.5,0,0,1,225.13,186.64Zm0-4.95a.5.5,0,0,1-.5-.5v-2.47a.5.5,0,0,1,.5-.5.5.5,0,0,1,.5.5v2.47A.5.5,0,0,1,225.13,181.69Zm0-4.95a.5.5,0,0,1-.5-.5v-2.47a.5.5,0,0,1,.5-.5.5.5,0,0,1,.5.5v2.47A.5.5,0,0,1,225.13,176.74Z"/></g><g class="cls-86"><path class="cls-87" d="M242.14,220.74a.5.5,0,0,1-.5-.5v-2.48a.5.5,0,0,1,.5-.5.51.51,0,0,1,.5.5v2.48A.5.5,0,0,1,242.14,220.74Zm0-5a.5.5,0,0,1-.5-.5v-2.48a.5.5,0,0,1,.5-.5.51.51,0,0,1,.5.5v2.48A.5.5,0,0,1,242.14,215.79Zm0-4.95a.5.5,0,0,1-.5-.5v-2.48a.5.5,0,0,1,.5-.5.51.51,0,0,1,.5.5v2.48A.5.5,0,0,1,242.14,210.84Z"/></g><path class="cls-88" d="M226.71,174.07A3.91,3.91,0,0,0,225,171c-1-.59-1.79-.18-1.81.92A3.88,3.88,0,0,0,224.9,175C225.87,175.58,226.68,175.17,226.71,174.07Z"/><path class="cls-89" d="M243.77,222.28a3.89,3.89,0,0,0-1.71-3.07c-1-.59-1.78-.18-1.81.92A3.86,3.86,0,0,0,242,223.2C242.94,223.79,243.75,223.38,243.77,222.28Z"/><polygon class="cls-90" points="227.85 156.28 222.43 157.48 224.34 151.33 219.08 143.72 225.68 147.37 227.85 141.47 230.02 149.87 236.62 153.84 231.36 155.38 233.27 163.73 227.85 156.28"/><polygon class="cls-91" points="240.95 163.31 238.69 163.81 239.49 161.24 237.29 158.06 240.05 159.59 240.95 157.12 241.86 160.63 244.61 162.29 242.42 162.93 243.22 166.42 240.95 163.31"/><polygon class="cls-92" points="249.79 168.15 247.53 168.65 248.33 166.09 246.13 162.91 248.89 164.43 249.79 161.97 250.7 165.48 253.46 167.13 251.26 167.78 252.06 171.27 249.79 168.15"/><polygon class="cls-93" points="206.43 143.66 204.17 144.16 204.97 141.59 202.77 138.41 205.53 139.94 206.43 137.47 207.34 140.98 210.09 142.64 207.9 143.28 208.69 146.77 206.43 143.66"/><polygon class="cls-94" points="215.27 148.5 213.01 149 213.81 146.44 211.61 143.25 214.37 144.78 215.27 142.32 216.18 145.83 218.94 147.48 216.74 148.13 217.54 151.62 215.27 148.5"/><polygon class="cls-95" points="231.36 155.38 233.27 163.73 233.27 163.73 233.27 163.73 234.48 162.94 232.66 155 231.36 155.38"/><polygon class="cls-96" points="225.68 147.37 226.13 146.16 220.3 142.92 219.26 143.77 220.83 144.68 225.68 147.37"/><polygon class="cls-97" points="231.23 149.08 229.06 140.68 227.85 141.47 227.85 141.47 230.02 149.87 236.62 153.84 236.62 153.84 237.83 153.05 231.23 149.08"/><polygon class="cls-81" points="231.36 155.38 233.27 163.73 233.27 163.73 233.27 163.73 231.75 155.26 231.36 155.38"/><polygon class="cls-81" points="225.68 147.37 225.82 147 219.26 143.77 220.83 144.68 225.68 147.37"/><polygon class="cls-81" points="230.39 149.68 227.85 141.47 227.85 141.47 230.02 149.87 236.62 153.84 236.62 153.84 230.39 149.68"/><polygon class="cls-98" points="235.7 251.01 232.61 249.18 232.61 270.57 235.7 272.41 235.7 251.01"/><polygon class="cls-99" points="241.4 245.96 238.31 244.12 238.31 273.81 241.4 275.65 241.4 245.96"/><polygon class="cls-100" points="247.26 243.6 244.18 241.77 244.18 277.17 247.26 279 247.26 243.6"/><polygon class="cls-101" points="220.88 247.62 220.88 263.67 223.96 265.51 223.96 249.46 220.88 247.62"/><polygon class="cls-102" points="229.83 254.81 226.75 252.97 226.75 267.02 229.83 268.86 229.83 254.81"/><polygon class="cls-103" points="253.02 251.7 249.94 249.86 249.94 280.52 253.02 282.36 253.02 251.7"/><polygon class="cls-104" points="218.09 242.94 215.01 241.1 215.01 260.13 218.09 261.97 218.09 242.94"/><polygon class="cls-105" points="203.27 245 203.27 253.23 206.36 255.07 206.36 246.84 203.27 245"/><polygon class="cls-106" points="212.22 238.04 209.14 236.2 209.14 256.58 212.22 258.42 212.22 238.04"/><polygon class="cls-107" points="235.7 257.31 232.61 255.48 232.61 270.57 235.7 272.41 235.7 257.31"/><polygon class="cls-108" points="241.4 251.38 238.31 249.54 238.31 273.81 241.4 275.65 241.4 251.38"/><polygon class="cls-109" points="247.26 251.19 244.18 249.36 244.18 277.17 247.26 279 247.26 251.19"/><polygon class="cls-110" points="220.88 252.81 220.88 263.67 223.96 265.51 223.96 254.64 220.88 252.81"/><polygon class="cls-111" points="229.83 260.01 226.75 258.18 226.75 267.02 229.83 268.86 229.83 260.01"/><polygon class="cls-112" points="218.09 244.43 215.01 242.59 215.01 260.13 218.09 261.97 218.09 244.43"/><polygon class="cls-113" points="203.27 248.42 203.27 253.23 206.36 255.07 206.36 250.26 203.27 248.42"/><polygon class="cls-114" points="212.22 247.98 209.14 246.15 209.14 256.58 212.22 258.42 212.22 247.98"/><polygon class="cls-115" points="253.02 262.05 249.94 260.21 249.94 280.52 253.02 282.36 253.02 262.05"/><polygon class="cls-116" points="274.64 165.75 268.67 169.28 296.49 160.55 302.46 157.02 274.64 165.75"/><polygon class="cls-117" points="285.09 185.97 291.06 182.45 302.46 157.02 296.49 160.55 285.09 185.97"/><polygon class="cls-118" points="262.19 195.97 265.27 194.69 286.17 177.44 280.2 180.97 262.19 195.97"/><polygon class="cls-119" points="262.19 195.97 280.2 180.97 285.09 185.97 296.49 160.55 268.67 169.28 273.72 174.35 262.22 183.96 262.19 195.97"/><g class="cls-120"><polygon class="cls-121" points="262.33 184.52 273.83 174.91 273.44 174.52 262.33 183.8 262.3 195.81 262.31 195.81 262.33 184.52"/><polygon class="cls-122" points="296.22 161.23 296.6 160.39 268.77 169.12 269.32 169.67 296.22 161.23"/></g><path class="cls-123" d="M155.58,47.64l-10.36,6a4.18,4.18,0,0,0-1.9,3.27c0,1.2.85,1.69,1.9,1.08l10.36-6a4.17,4.17,0,0,0,1.9-3.27C157.48,47.52,156.63,47,155.58,47.64Zm-17.06,9.85-10.36,6a4.18,4.18,0,0,0-1.9,3.27c0,1.2.85,1.69,1.9,1.08l10.36-6a4.17,4.17,0,0,0,1.9-3.27C140.42,57.37,139.57,56.89,138.52,57.49Zm-17.06,9.85-10.36,6a4.18,4.18,0,0,0-1.9,3.27c0,1.2.85,1.69,1.9,1.08l10.36-6a4.17,4.17,0,0,0,1.9-3.27C123.36,67.22,122.51,66.74,121.46,67.34ZM104.4,77.19,94,83.17a4.18,4.18,0,0,0-1.9,3.27c0,1.2.85,1.69,1.9,1.08l10.36-6a4.17,4.17,0,0,0,1.9-3.27C106.3,77.07,105.45,76.59,104.4,77.19Zm-51.25,29.7-10.36,6a4.16,4.16,0,0,0-1.89,3.27c0,1.2.84,1.68,1.89,1.08l10.36-6a4.18,4.18,0,0,0,1.9-3.27C55.05,106.77,54.2,106.28,53.15,106.89Zm-17.06,9.85-10.36,6a4.17,4.17,0,0,0-1.9,3.27c0,1.2.85,1.68,1.9,1.08l10.36-6a4.18,4.18,0,0,0,1.9-3.27C38,116.62,37.14,116.13,36.09,116.74ZM70.21,97l-10.36,6A4.19,4.19,0,0,0,58,106.29c0,1.2.85,1.68,1.89,1.08l10.36-6a4.18,4.18,0,0,0,1.9-3.27C72.11,96.92,71.26,96.43,70.21,97Zm17.07-9.85-10.37,6A4.19,4.19,0,0,0,75,96.44c0,1.2.85,1.68,1.89,1.08l10.37-6a4.2,4.2,0,0,0,1.89-3.27C89.17,87.07,88.32,86.58,87.28,87.19Z"/><polygon class="cls-124" points="25.1 138.36 25.1 136.14 78.77 105.58 78.77 107.8 25.1 138.36"/><polygon class="cls-125" points="61.63 129.29 25.1 150.28 25.1 148.06 61.63 127.07 61.63 129.29"/><polygon class="cls-126" points="83 111.47 25.1 144.67 25.1 141.6 83 108.39 83 111.47"/><polygon class="cls-125" points="52.91 138.94 25.1 154.89 25.1 152.67 52.91 136.72 52.91 138.94"/><polygon class="cls-125" points="55.09 137.67 55.09 135.45 105.05 107.06 105.05 109.28 55.09 137.67"/><polygon class="cls-125" points="63.81 128.03 63.81 125.81 89.08 111.33 89.08 113.55 63.81 128.03"/><polygon class="cls-127" points="85.18 107.13 123.37 85.49 123.37 88.56 85.18 110.2 85.18 107.13"/><polygon class="cls-125" points="107.23 105.8 123.37 96.56 123.37 98.78 107.23 108.02 107.23 105.8"/><polygon class="cls-125" points="91.27 110.07 123.37 91.94 123.37 94.17 91.27 112.29 91.27 110.07"/><polygon class="cls-128" points="25.1 165.35 25.1 163.13 78.77 132.56 78.77 134.78 25.1 165.35"/><polygon class="cls-125" points="61.63 156.28 25.1 177.26 25.1 175.04 61.63 154.06 61.63 156.28"/><polygon class="cls-129" points="83 138.45 25.1 171.66 25.1 168.59 83 135.38 83 138.45"/><polygon class="cls-125" points="52.91 165.92 25.1 181.88 25.1 179.66 52.91 163.7 52.91 165.92"/><polygon class="cls-125" points="55.09 164.66 55.09 162.44 105.05 134.05 105.05 136.27 55.09 164.66"/><polygon class="cls-125" points="63.81 155.01 63.81 152.79 89.08 138.32 89.08 140.54 63.81 155.01"/><polygon class="cls-130" points="85.18 134.12 123.37 112.48 123.37 115.55 85.18 137.19 85.18 134.12"/><polygon class="cls-125" points="107.23 132.79 123.37 123.55 123.37 125.77 107.23 135.01 107.23 132.79"/><polygon class="cls-125" points="91.27 137.06 123.37 118.93 123.37 121.15 91.27 139.28 91.27 137.06"/><polygon class="cls-131" points="25.1 192.86 25.1 190.64 78.77 160.07 78.77 162.29 25.1 192.86"/><polygon class="cls-125" points="61.63 183.79 25.1 204.78 25.1 202.56 61.63 181.57 61.63 183.79"/><polygon class="cls-132" points="83 165.96 25.1 199.17 25.1 196.1 83 162.89 83 165.96"/><polygon class="cls-125" points="52.91 193.43 25.1 209.39 25.1 207.17 52.91 191.21 52.91 193.43"/><polygon class="cls-125" points="55.09 192.17 55.09 189.95 105.05 161.56 105.05 163.78 55.09 192.17"/><polygon class="cls-125" points="63.81 182.52 63.81 180.3 89.08 165.83 89.08 168.05 63.81 182.52"/><polygon class="cls-133" points="85.18 161.63 123.37 139.99 123.37 143.06 85.18 164.7 85.18 161.63"/><polygon class="cls-125" points="107.23 160.3 123.37 151.06 123.37 153.28 107.23 162.52 107.23 160.3"/><polygon class="cls-125" points="91.27 164.57 123.37 146.44 123.37 148.66 91.27 166.79 91.27 164.57"/><path class="cls-134" d="M58.53,92a4.25,4.25,0,0,1-.82-2.67,9.82,9.82,0,0,1,4.52-7.79,4.52,4.52,0,0,1,2.26-.68c1.87,0,3.12,1.51,3.12,3.76a9.82,9.82,0,0,1-4.51,7.79,4.64,4.64,0,0,1-2.27.67h0A2.88,2.88,0,0,1,58.53,92ZM63.1,83a8.16,8.16,0,0,0-3.64,6.28,2.54,2.54,0,0,0,.43,1.58c.47.58,1.34.56,2.34,0a8.16,8.16,0,0,0,3.64-6.27c0-.6-.14-2-1.38-2A2.87,2.87,0,0,0,63.1,83Z"/><path class="cls-135" d="M47.33,98.65A4.23,4.23,0,0,1,46.51,96,9.79,9.79,0,0,1,51,88.19a4.5,4.5,0,0,1,2.26-.67c1.87,0,3.12,1.51,3.12,3.75a9.81,9.81,0,0,1-4.51,7.79,4.54,4.54,0,0,1-2.27.67h0A2.88,2.88,0,0,1,47.33,98.65Zm4.57-9A8.15,8.15,0,0,0,48.26,96a2.54,2.54,0,0,0,.43,1.58c.47.58,1.34.56,2.34,0a8.16,8.16,0,0,0,3.63-6.28c0-.6-.13-2-1.37-2A2.87,2.87,0,0,0,51.9,89.7Z"/><path class="cls-136" d="M36,105.34a4.23,4.23,0,0,1-.81-2.67,9.81,9.81,0,0,1,4.51-7.79,4.53,4.53,0,0,1,2.26-.67c1.87,0,3.12,1.51,3.12,3.75a9.81,9.81,0,0,1-4.51,7.79,4.55,4.55,0,0,1-2.26.68h0A2.9,2.9,0,0,1,36,105.34Zm4.57-8.94a8.14,8.14,0,0,0-3.64,6.27,2.54,2.54,0,0,0,.43,1.58c.47.58,1.34.56,2.34,0A8.18,8.18,0,0,0,43.32,98c0-.6-.14-2-1.38-2A2.92,2.92,0,0,0,40.55,96.4Z"/><path class="cls-137" d="M24.78,112a4.21,4.21,0,0,1-.81-2.67,9.84,9.84,0,0,1,4.51-7.79,4.64,4.64,0,0,1,2.26-.67c1.87,0,3.12,1.51,3.12,3.76a9.81,9.81,0,0,1-4.51,7.78,4.56,4.56,0,0,1-2.27.68h0A2.89,2.89,0,0,1,24.78,112Zm4.57-8.94a8.16,8.16,0,0,0-3.64,6.27,2.54,2.54,0,0,0,.43,1.58c.47.59,1.34.56,2.34,0a8.16,8.16,0,0,0,3.64-6.27c0-.61-.14-2-1.38-2A2.89,2.89,0,0,0,29.35,103.09Z"/><g class="cls-138"><g class="cls-139"><polygon class="cls-140" points="115.03 282.78 95.78 293.9 95.78 266.99 115.03 255.87 115.03 282.78"/><polygon class="cls-141" points="95.78 293.9 76.52 282.78 76.52 255.87 95.78 266.99 95.78 293.9"/></g></g><g class="cls-142"><g class="cls-139"><polygon class="cls-143" points="84.38 300.92 65.12 312.03 65.12 285.12 84.38 274 84.38 300.92"/><polygon class="cls-144" points="65.12 312.03 45.87 300.92 45.87 274 65.12 285.12 65.12 312.03"/></g></g><g class="cls-145"><g class="cls-139"><polygon class="cls-146" points="53.98 318.26 34.73 329.38 34.73 302.46 53.98 291.35 53.98 318.26"/><polygon class="cls-147" points="34.73 329.38 15.47 318.26 15.47 291.35 34.73 302.46 34.73 329.38"/></g></g><g class="cls-148"><g class="cls-149"><polygon class="cls-150" points="95.77 243.18 115.02 254.31 95.77 265.42 76.53 254.3 95.77 243.18"/><polygon class="cls-151" points="95.77 176.63 115.02 187.75 95.77 198.87 76.53 187.75 95.77 176.63"/><g class="cls-152"><polygon class="cls-153" points="115.03 255.01 95.78 266.13 95.78 198.86 115.03 187.75 115.03 255.01"/><polygon class="cls-154" points="95.78 266.13 76.52 255.01 76.52 187.75 95.78 198.86 95.78 266.13"/></g><polygon class="cls-155" points="115.03 193.44 95.78 204.56 95.78 198.86 115.03 187.75 115.03 193.44"/><polygon class="cls-156" points="95.78 204.56 76.52 193.44 76.52 187.75 95.78 198.86 95.78 204.56"/></g><polygon class="cls-157" points="76.52 187.75 95.68 198.06 115.03 187.75 96.36 199.29 95.78 266.13 94.86 199.15 76.52 187.75"/></g><g class="cls-158"><g class="cls-149"><polygon class="cls-159" points="65.12 261.26 84.36 272.38 65.11 283.5 45.87 272.38 65.12 261.26"/><polygon class="cls-160" points="65.12 213.57 84.36 224.7 65.11 235.81 45.87 224.69 65.12 213.57"/><g class="cls-152"><polygon class="cls-161" points="84.38 273.09 65.12 284.21 65.12 235.81 84.38 224.69 84.38 273.09"/><polygon class="cls-162" points="65.12 284.21 45.87 273.09 45.87 224.69 65.12 235.81 65.12 284.21"/></g><polygon class="cls-163" points="84.38 230.38 65.12 241.5 65.12 235.81 84.38 224.69 84.38 230.38"/><polygon class="cls-164" points="65.12 241.5 45.87 230.38 45.87 224.69 65.12 235.81 65.12 241.5"/></g><polygon class="cls-165" points="45.87 224.69 65.02 235.01 84.38 224.69 65.7 236.23 65.12 284.21 64.21 236.09 45.87 224.69"/></g><g class="cls-166"><g class="cls-149"><polygon class="cls-167" points="34.72 278.81 53.97 289.94 34.72 301.06 15.48 289.93 34.72 278.81"/><polygon class="cls-168" points="34.72 252.61 53.97 263.74 34.72 274.85 15.48 263.73 34.72 252.61"/><g class="cls-152"><polygon class="cls-169" points="53.98 290.64 34.73 301.76 34.73 274.85 53.98 263.73 53.98 290.64"/><polygon class="cls-170" points="34.73 301.76 15.47 290.64 15.47 263.73 34.73 274.85 34.73 301.76"/></g><polygon class="cls-171" points="53.98 269.42 34.73 280.54 34.73 274.85 53.98 263.73 53.98 269.42"/><polygon class="cls-172" points="34.73 280.54 15.47 269.42 15.47 263.73 34.73 274.85 34.73 280.54"/></g><polygon class="cls-173" points="15.47 263.73 34.63 274.05 53.98 263.73 35.31 275.27 34.73 301.76 33.82 275.13 15.47 263.73"/></g><path class="cls-81" d="M150.76,30.54,84.09,69a11.69,11.69,0,0,0-5.31,9.15c0,3.36,2.38,4.72,5.31,3l66.67-38.42a11.7,11.7,0,0,0,5.3-9.15c0-3.36-2.37-4.72-5.3-3Z"/><g class="cls-139"><path class="cls-174" d="M151.67,39.74,85,78.17c-2.93,1.69-5.3.34-5.3-3A7.88,7.88,0,0,1,79.79,74a10.15,10.15,0,0,0-1,4.14c0,3.36,2.38,4.72,5.31,3l66.67-38.42a11.86,11.86,0,0,0,5.21-8A11.31,11.31,0,0,1,151.67,39.74Z"/><path class="cls-175" d="M151.59,40,84.92,78.47c-2.93,1.69-5.31.34-5.31-3a8.28,8.28,0,0,1,.14-1.38,10.17,10.17,0,0,0-1,4.05c0,3.36,2.38,4.72,5.31,3l66.67-38.42A11.85,11.85,0,0,0,155.92,35,11.36,11.36,0,0,1,151.59,40Z"/><path class="cls-176" d="M151.5,40.34,84.83,78.77c-2.93,1.69-5.3.34-5.3-3a7.34,7.34,0,0,1,.19-1.59,9.87,9.87,0,0,0-.94,4c0,3.36,2.38,4.72,5.31,3l66.67-38.42a11.8,11.8,0,0,0,5.11-7.56A11.34,11.34,0,0,1,151.5,40.34Z"/><path class="cls-177" d="M151.42,40.65,84.75,79.07c-2.93,1.69-5.31.34-5.31-3a7.62,7.62,0,0,1,.24-1.8,9.9,9.9,0,0,0-.9,3.87c0,3.36,2.38,4.72,5.31,3l66.67-38.42a11.75,11.75,0,0,0,5.06-7.34A11.46,11.46,0,0,1,151.42,40.65Z"/><path class="cls-178" d="M151.33,41,84.66,79.38c-2.93,1.69-5.3.33-5.3-3a7.94,7.94,0,0,1,.29-2,9.74,9.74,0,0,0-.87,3.78c0,3.36,2.38,4.72,5.31,3l66.67-38.42a11.84,11.84,0,0,0,5-7.12A11.55,11.55,0,0,1,151.33,41Z"/><path class="cls-179" d="M151.25,41.25,84.58,79.68c-2.93,1.69-5.3.33-5.3-3a8.29,8.29,0,0,1,.33-2.22,9.84,9.84,0,0,0-.83,3.69c0,3.36,2.38,4.72,5.31,3l66.67-38.42a11.81,11.81,0,0,0,5-6.91A11.52,11.52,0,0,1,151.25,41.25Z"/><path class="cls-180" d="M151.16,41.55,84.49,80c-2.92,1.69-5.3.33-5.3-3a9.29,9.29,0,0,1,.38-2.44,9.81,9.81,0,0,0-.79,3.61c0,3.36,2.38,4.72,5.31,3l66.67-38.42A11.83,11.83,0,0,0,155.68,36,11.53,11.53,0,0,1,151.16,41.55Z"/></g><path class="cls-181" d="M153.14,29.6a5.06,5.06,0,0,0-2.49.76L84,68.79a11.93,11.93,0,0,0-5.4,9.33c0,2.41,1.23,4,3.13,4a5,5,0,0,0,2.48-.75L150.86,42.9a11.92,11.92,0,0,0,5.41-9.33C156.27,31.16,155,29.6,153.14,29.6Zm2.31,4.2a10.58,10.58,0,0,1-4.8,8.27L84,80.5a4.26,4.26,0,0,1-2.08.64c-1.54,0-2.5-1.25-2.5-3.25a10.57,10.57,0,0,1,4.79-8.27l66.67-38.43a4.29,4.29,0,0,1,2.09-.64C154.49,30.55,155.45,31.79,155.45,33.8Z"/><path class="cls-182" d="M156.06,33.57a11.7,11.7,0,0,1-5.3,9.15c-2.93,1.69-5.31.33-5.31-3a11.69,11.69,0,0,1,5.31-9.15C153.69,28.85,156.06,30.21,156.06,33.57Z"/><path class="cls-81" d="M154,37.47l-1.49-.85c-.16-.09-.4,0-.58.25l-.44-.25c.66-1.37.59-2.75-.2-3.2s-2.26.31-3.12,1.8-.86,3.09,0,3.59,2-.19,2.89-1.45l.44.25c-.11.27-.08.53.07.62l1.5.85c.18.11.49-.06.67-.39l.26-.44C154.18,37.93,154.18,37.58,154,37.47Zm-3.24-.77c-.57,1-1.49,1.51-2.06,1.19s-.57-1.38,0-2.37,1.49-1.51,2.06-1.18S151.32,35.72,150.75,36.7Z"/><g class="cls-86"><path class="cls-183" d="M158.8,78.73V72c-6.69,3.86-12.58,10.85-16.31,19.37l4.9,1C149.86,86.65,154.05,81.48,158.8,78.73Z"/><path class="cls-184" d="M158.81,110.32c-7.61,4.39-13.77.87-13.77-7.85a26,26,0,0,1,2.35-10.19l-4.9-1a42,42,0,0,0-2.18,6.16c-3.72,13.86,1.55,23.78,11.76,22.14s21.5-14.19,25.22-28.05l-5.54.89C169.82,99.63,164.76,106.88,158.81,110.32Z"/><path class="cls-185" d="M167.73,69.25l-2.68,7.59c4.46,0,7.52,3.59,7.52,9.73a23.15,23.15,0,0,1-.82,5.89l5.54-.89C180.72,78.78,176.67,69.32,167.73,69.25Z"/><path class="cls-186" d="M158.81,78.72a12.54,12.54,0,0,1,6.24-1.88l2.68-7.59A16.71,16.71,0,0,0,158.8,72v6.78Z"/></g><g class="cls-86"><path class="cls-187" d="M158.81,133.3h0V126.4c-7.7,4.44-14.39,13.11-17.77,23l5.39-.09C148.68,142.77,153.37,136.44,158.81,133.3Z"/><path class="cls-188" d="M158.81,164.9c-7.61,4.39-13.77.87-13.77-7.85a24,24,0,0,1,1.4-7.74l-5.39.09c-2,5.77-2.49,10.66-1.64,15.23,2.09,11.1,12.47,13.14,23.19,4.56l-1.15-6.11A21.43,21.43,0,0,1,158.81,164.9Z"/><path class="cls-189" d="M161.45,163.08l1.15,6.11a38.34,38.34,0,0,0,6.7-6.91l-3.19-4A28,28,0,0,1,161.45,163.08Z"/><path class="cls-190" d="M166.11,158.27l3.19,4a44.85,44.85,0,0,0,8.63-18.35l-5.82,1.57A32.19,32.19,0,0,1,166.11,158.27Z"/><path class="cls-191" d="M158.82,126.4v6.89c7.6-4.37,13.75-.86,13.75,7.86a21.89,21.89,0,0,1-.46,4.35l5.82-1.57a28.42,28.42,0,0,0,.67-6.26C178.6,125.14,169.75,120.09,158.82,126.4Z"/></g><path class="cls-81" d="M158.81,83.34c-5.37,3.1-9.75,10.64-9.75,16.81s4.38,8.65,9.75,5.55,9.74-10.64,9.74-16.8S164.18,80.24,158.81,83.34Zm-.61,5.92a16.91,16.91,0,0,1-2.73,1.19,11.85,11.85,0,0,1,2.73-5.24Zm0,1.4v3.51l-3.64,2.1a24.69,24.69,0,0,1,.52-4.25A18.15,18.15,0,0,0,158.2,90.66Zm0,4.91v3.51a26.55,26.55,0,0,0-3.12,2.25,15.79,15.79,0,0,1-.52-3.66Zm0,4.91v4.06c-1.09.25-2.06-.55-2.73-2.1A25.13,25.13,0,0,1,158.2,100.48Zm1.22-.7a16.45,16.45,0,0,1,2.72-1.19,11.85,11.85,0,0,1-2.72,5.25Zm0-1.4V94.87l3.63-2.1a24,24,0,0,1-.51,4.26A18.87,18.87,0,0,0,159.42,98.38Zm0-4.91V90a26.55,26.55,0,0,0,3.12-2.25,15.3,15.3,0,0,1,.51,3.66Zm0-4.91V84.5c1.09-.25,2.06.55,2.72,2.1A26,26,0,0,1,159.42,88.56Zm2.64-5a4.63,4.63,0,0,1,2.68.48c-.43.5-.9,1-1.4,1.46A5.33,5.33,0,0,0,162.06,83.6Zm-7.78,7.17a7.24,7.24,0,0,1-1.4.16,19.78,19.78,0,0,1,2.67-3.57A20.66,20.66,0,0,0,154.28,90.77Zm-.38,1.55a26.39,26.39,0,0,0-.56,4.66l-3,1.75A17.31,17.31,0,0,1,152,92.49,7.27,7.27,0,0,0,153.9,92.32Zm-.56,6.05a16.93,16.93,0,0,0,.56,4,22.88,22.88,0,0,0-1.86,2,6.19,6.19,0,0,1-1.73-4.24Zm.94,5.13a5.32,5.32,0,0,0,1.27,1.94,4.6,4.6,0,0,1-2.67-.48C153.31,104.46,153.78,104,154.28,103.5Zm9.06-5.23a7.24,7.24,0,0,1,1.4-.16,19.83,19.83,0,0,1-2.68,3.57A20.33,20.33,0,0,0,163.34,98.27Zm.38-1.55a26.27,26.27,0,0,0,.55-4.65l3-1.75a16.82,16.82,0,0,1-1.73,6.23A7.63,7.63,0,0,0,163.72,96.72Zm.55-6a17,17,0,0,0-.55-4,24.4,24.4,0,0,0,1.85-2,6.12,6.12,0,0,1,1.73,4.24Z"/><path class="cls-81" d="M158.81,137.92c-5.38,3.11-9.74,10.63-9.74,16.8s4.36,8.66,9.74,5.56,9.74-10.63,9.74-16.8S164.19,134.82,158.81,137.92Zm0,20.12c-4.31,2.49-7.79.5-7.79-4.44a17.14,17.14,0,0,1,7.79-13.44c4.3-2.49,7.79-.5,7.79,4.44S163.11,155.56,158.81,158Zm0-15.65A12.89,12.89,0,0,0,153,152.47c0,3.71,2.62,5.2,5.85,3.34a12.88,12.88,0,0,0,5.84-10.08C164.65,142,162,140.53,158.81,142.39Zm0,11.18c-2.15,1.24-3.9.25-3.9-2.22a8.59,8.59,0,0,1,3.9-6.72c2.15-1.24,3.89-.25,3.89,2.22A8.58,8.58,0,0,1,158.81,153.57Zm0-6.7a4.27,4.27,0,0,0-1.95,3.36c0,1.23.87,1.73,1.95,1.11a4.33,4.33,0,0,0,1.95-3.36C160.76,146.74,159.88,146.24,158.81,146.87Z"/><ellipse class="cls-192" cx="90.52" cy="151.46" rx="57.89" ry="33.42" transform="translate(-85.92 153.17) rotate(-59.69)"/><ellipse class="cls-193" cx="94.47" cy="187.46" rx="14.99" ry="7.35"/><path class="cls-194" d="M117.72,126.43a7.28,7.28,0,0,0-.48-.71,3,3,0,0,1,2.57,1.86c2.94,5.18-7.52,22.62-7.52,22.62l0-4.83C115.14,140,119.81,130.11,117.72,126.43Z"/><path class="cls-195" d="M114,145.39c3.35-6.39,6.58-14.33,5.08-17-.68-1.2-1.24-1.2-1.43-1.2-1.14,0-2.79,1.66-3.75,3l-1.31,1.83v-2.24s4.71-7.24,7.65-2.06-7.52,22.62-7.52,22.62v-2.68Z"/><path class="cls-196" d="M116.74,125l2.16,1.25h0c-2.85-1.82-6.34,3.54-6.34,3.54l-2.11-1.23S113.9,123.28,116.74,125Z"/><g class="cls-120"><path class="cls-197" d="M118.82,128.4a3.67,3.67,0,0,0-.59-.8,2.75,2.75,0,0,1,.9,1.05c1.49,2.63-1.74,10.57-5.09,17l-1.3,2.32v1.93l-.3.5v-2.68l1.3-2.32C117.09,139,120.32,131,118.82,128.4Z"/><path class="cls-198" d="M119.08,126.58c-2.87-2-6.46,3.47-6.46,3.47v1.58l-.3.42v-2.24S116.17,123.89,119.08,126.58Z"/></g><path class="cls-199" d="M83.38,185.79H108v1h0v.1c0,4-5.51,7.17-12.32,7.17s-12.32-3.21-12.32-7.17c0,0,0-.07,0-.1h0Z"/><ellipse class="Graphic-Style-716" cx="95.7" cy="185.84" rx="12.32" ry="6.17"/><path class="cls-200" d="M83.38,188.3v-.05h0A.43.43,0,0,1,83.38,188.3Z"/><path class="cls-201" d="M83.38,188.31c0,3.4,5.52,6.17,12.32,6.17S108,191.71,108,188.3v-.05h0v1h0v.1c0,4-5.51,6.71-12.32,6.71s-12.32-2.75-12.32-6.71c0,0,0-.07,0-.1h0Z"/><path class="cls-202" d="M95.7,191.87c6.63,0,12-2.78,12.31-6.07a2.26,2.26,0,0,1,0,.26c0,3.41-5.51,6.18-12.32,6.18s-12.32-2.77-12.32-6.18a2.28,2.28,0,0,1,0-.26C83.67,189.09,89.08,191.87,95.7,191.87Z"/><path class="cls-203" d="M88.63,183.89h14.15v1.46h0v.05c0,2.28-3.17,4.12-7.08,4.12s-7.07-1.84-7.07-4.12v-.05h0Z"/><ellipse class="Graphic-Style-716" cx="95.7" cy="183.91" rx="7.08" ry="3.55"/><path class="cls-204" d="M95.7,187.28c3.79,0,6.87-1.49,7.06-3.37a1.37,1.37,0,0,1,0,.19c0,2-3.17,3.55-7.08,3.55s-7.07-1.59-7.07-3.55a1.37,1.37,0,0,1,0-.19C88.84,185.79,91.92,187.28,95.7,187.28Z"/><path class="cls-205" d="M92.43,179.75H99s2.48,3.43,2.48,4c0,1.59-2.57,2.88-5.76,2.88s-5.76-1.29-5.76-2.88C89.94,183.18,92.43,179.75,92.43,179.75Z"/><path class="Graphic-Style-716" d="M92.43,180.13c0,.91,1.46,1.65,3.27,1.65S99,181,99,180.13s-1.47-1.64-3.28-1.64S92.43,179.23,92.43,180.13Z"/><path class="cls-206" d="M92.43,172.62H99v7h0v0c0,1.05-1.47,1.91-3.28,1.91s-3.27-.86-3.27-1.91v0h0Z"/><path class="Graphic-Style-716" d="M92.43,172.63c0,.91,1.46,1.64,3.27,1.64s3.28-.73,3.28-1.64S97.51,171,95.7,171,92.43,171.72,92.43,172.63Z"/><path class="cls-207" d="M91.28,169.59a4.43,4.43,0,1,0,4.42-4.43A4.43,4.43,0,0,0,91.28,169.59Z"/><path class="cls-208" d="M114.53,138.89s0,1.92,0,2c-3.26,23.67-12,29.68-18.86,29.68s-16.07-8.29-18.86-29.68c0-.07,0-2,0-2Z"/><path class="cls-209" d="M85.73,143l.48,1.53c5,18.33,4.73,23.46,3.38,23.89s-5.14-5.37-10.79-21.58l-.48-1.53Z"/><path class="cls-210" d="M114.64,140.89s-.37,1.77-.39,1.83c-5.88,21.56-14.32,26.63-17,26.06s-.77-9.21,2.31-29.16c0-.07.39-1.84.39-1.84Z"/><path class="cls-211" d="M76.11,135.51h39.12v2.22h0a.81.81,0,0,1,0,.16c0,6.29-8.76,11.39-19.56,11.39s-19.56-5.1-19.56-11.39c0-.06,0-.11,0-.16h0Z"/><ellipse class="cls-212" cx="95.67" cy="135.59" rx="19.56" ry="11.39"/><path class="cls-213" d="M95.67,146.67c10.57,0,19.17-4.88,19.53-11,0,.13,0,.26,0,.4,0,6.29-8.76,11.39-19.56,11.39s-19.56-5.1-19.56-11.39c0-.14,0-.27,0-.4C76.51,141.79,85.1,146.67,95.67,146.67Z"/><ellipse class="cls-214" cx="95.67" cy="135.5" rx="18.44" ry="10.31"/><ellipse class="cls-215" cx="95.67" cy="135.5" rx="18.44" ry="10.31"/><path class="cls-216" d="M85.4,124.62c-4.4,1.49-7.36,4.47-6.62,6.65s4.91,2.73,9.3,1.23,7.36-4.47,6.62-6.65S89.79,123.12,85.4,124.62Z"/><path class="cls-217" d="M73.57,148.78c1.7-4.38,7.06-5.38,7.06-5.38l2.83,1.54s-5.31,1-7,5.32-1.67,10.79,6.18,14.48l-2.79-1.3C71.87,159.72,71.87,153.16,73.57,148.78Z"/><path class="cls-218" d="M76.47,150.26c1.68-4.34,7-5.32,7-5.32l-.12,1.43c-1.14.42-4.51,1.45-5.64,4.36-2.2,5.7,0,10.23,5.56,12.84l7.24,3.37.6,1.72s-.49-.21-8.4-3.9S74.79,154.59,76.47,150.26Z"/><path class="cls-219" d="M79.87,161.38l.28.19a55.83,55.83,0,0,0,5.94,2.86l4.41,2.51-7.24-3.37A13.58,13.58,0,0,1,79.87,161.38Z"/><path class="cls-220" d="M76.15,150.26c1.68-4.33,7-5.31,7-5.31l.14.16c-1.14.38-5.22,1.56-6.63,5.2C75,154.5,75,160.72,82.1,164.44,74.65,160.73,74.5,154.51,76.15,150.26Z"/><path class="cls-221" d="M78.11,146.92c-1.2-.75-2.57-.75-3,0s.1,2,1.3,2.75,2.56.75,3,0S79.31,147.68,78.11,146.92Z"/><path class="cls-222" d="M99.94,190.91c2.19,3,2.73,1.74,4.22.66s2-1.65-.23-4.65-5.16-8-6.65-6.88S97.76,187.91,99.94,190.91Z"/><path class="cls-223" d="M102.88,189c-1.86.63-3.12,1.89-2.8,2.81s2.07,1.16,3.93.52,3.12-1.89,2.8-2.81S104.74,188.4,102.88,189Z"/><g class="cls-224"><polygon class="cls-225" points="148.56 302.25 160.9 309.38 166.86 305.93 154.53 298.81 148.56 302.25"/><polygon class="cls-226" points="157.77 296.94 170.1 304.06 176.72 300.24 164.39 293.12 157.77 296.94"/><polygon class="cls-227" points="130.14 312.89 142.48 320.01 147.14 317.32 134.8 310.2 130.14 312.89"/><polygon class="cls-228" points="123.89 316.54 136.22 323.66 138.63 322.47 126.29 315.35 123.89 316.54"/><polygon class="cls-229" points="139.35 307.57 151.69 314.69 157 311.63 144.66 304.5 139.35 307.57"/><polygon class="cls-230" points="156.81 285.04 190.31 304.38 196.63 281.39 156.81 285.04"/></g></g></g></g></svg>