<svg xmlns="http://www.w3.org/2000/svg" xmlns:xlink="http://www.w3.org/1999/xlink" viewBox="0 0 443.14 338.63"><defs><style>.cls-1{isolation:isolate;}.cls-2{fill:url(#linear-gradient);}.cls-3{fill:url(#radial-gradient);}.cls-4,.cls-6,.cls-7{mix-blend-mode:multiply;}.cls-4{fill:url(#radial-gradient-2);}.cls-5{fill:url(#New_Gradient_Swatch_copy_10);}.cls-6{fill:#d1d3d4;}.cls-7{opacity:0.1;}.cls-8{fill:#10054d;}.cls-9{fill:url(#linear-gradient-2);}.cls-10{fill:url(#linear-gradient-3);}.cls-11{fill:url(#linear-gradient-4);}.cls-12{fill:url(#linear-gradient-5);}.cls-13{fill:url(#linear-gradient-6);}.cls-14{fill:url(#New_Gradient_Swatch_copy_7);}.cls-15{fill:url(#New_Gradient_Swatch_copy_10-2);}.cls-16{fill:url(#New_Gradient_Swatch_copy_10-3);}.cls-17{fill:url(#linear-gradient-7);}.cls-18{fill:url(#linear-gradient-8);}.cls-100,.cls-104,.cls-111,.cls-114,.cls-117,.cls-121,.cls-124,.cls-127,.cls-131,.cls-134,.cls-138,.cls-141,.cls-144,.cls-147,.cls-150,.cls-159,.cls-160,.cls-161,.cls-162,.cls-19,.cls-27,.cls-31,.cls-35,.cls-43,.cls-49,.cls-54,.cls-58,.cls-62,.cls-66,.cls-72{mix-blend-mode:color-dodge;}.cls-19{fill:url(#Radial_Gradient_1);}.cls-20{fill:url(#linear-gradient-9);}.cls-21{fill:url(#linear-gradient-10);}.cls-22{fill:url(#radial-gradient-3);}.cls-23{fill:url(#linear-gradient-11);}.cls-24{fill:url(#radial-gradient-4);}.cls-25{fill:url(#New_Gradient_Swatch_copy_60);}.cls-26{fill:url(#New_Gradient_Swatch_copy_36);}.cls-27{fill:url(#Radial_Gradient_1-2);}.cls-28{fill:url(#New_Gradient_Swatch_copy_58);}.cls-29{fill:url(#New_Gradient_Swatch_copy_60-2);}.cls-30{fill:url(#New_Gradient_Swatch_copy_36-2);}.cls-31{fill:url(#Radial_Gradient_1-3);}.cls-32{fill:url(#New_Gradient_Swatch_copy_58-2);}.cls-33{fill:url(#New_Gradient_Swatch_copy_60-3);}.cls-34{fill:url(#New_Gradient_Swatch_copy_36-3);}.cls-35{fill:url(#Radial_Gradient_1-4);}.cls-36{fill:url(#New_Gradient_Swatch_copy_58-3);}.cls-37{fill:url(#New_Gradient_Swatch_copy_7-2);}.cls-38{fill:url(#New_Gradient_Swatch_copy_7-3);}.cls-39{fill:url(#linear-gradient-12);}.cls-40{fill:url(#New_Gradient_Swatch_copy_7-4);}.cls-41{fill:url(#linear-gradient-13);}.cls-42{fill:url(#New_Gradient_Swatch_copy_7-5);}.cls-44{fill:url(#Radial_Gradient_1-5);}.cls-45{fill:url(#Radial_Gradient_1-6);}.cls-46{fill:url(#Radial_Gradient_1-7);}.cls-47{fill:url(#New_Gradient_Swatch_copy_60-4);}.cls-48{fill:url(#New_Gradient_Swatch_copy_36-4);}.cls-49{fill:url(#Radial_Gradient_1-8);}.cls-50{fill:url(#New_Gradient_Swatch_copy_13);}.cls-51{fill:url(#New_Gradient_Swatch_copy_58-4);}.cls-52{fill:url(#New_Gradient_Swatch_copy_60-5);}.cls-53{fill:url(#New_Gradient_Swatch_copy_36-5);}.cls-54{fill:url(#Radial_Gradient_1-9);}.cls-55{fill:url(#New_Gradient_Swatch_copy_8);}.cls-56{fill:url(#New_Gradient_Swatch_copy_60-6);}.cls-57{fill:url(#New_Gradient_Swatch_copy_36-6);}.cls-58{fill:url(#Radial_Gradient_1-10);}.cls-59{fill:url(#New_Gradient_Swatch_copy_58-5);}.cls-60{fill:url(#New_Gradient_Swatch_copy_60-7);}.cls-61{fill:url(#New_Gradient_Swatch_copy_36-7);}.cls-62{fill:url(#Radial_Gradient_1-11);}.cls-63{fill:url(#New_Gradient_Swatch_copy_58-6);}.cls-64{fill:url(#New_Gradient_Swatch_copy_60-8);}.cls-65{fill:url(#New_Gradient_Swatch_copy_36-8);}.cls-66{fill:url(#Radial_Gradient_1-12);}.cls-67{fill:url(#New_Gradient_Swatch_copy_58-7);}.cls-68{fill:url(#New_Gradient_Swatch_copy_22);}.cls-69{fill:url(#New_Gradient_Swatch_copy_8-2);}.cls-70{fill:url(#New_Gradient_Swatch_copy_60-9);}.cls-71{fill:url(#New_Gradient_Swatch_copy_36-9);}.cls-72{fill:url(#Radial_Gradient_1-13);}.cls-73{fill:url(#New_Gradient_Swatch_copy_22-2);}.cls-74{fill:url(#New_Gradient_Swatch_copy_22-3);}.cls-75{fill:url(#New_Gradient_Swatch_copy_9);}.cls-76{fill:url(#New_Gradient_Swatch_copy_9-2);}.cls-77{fill:url(#New_Gradient_Swatch_copy_9-3);}.cls-78{fill:url(#New_Gradient_Swatch_copy_9-4);}.cls-79{fill:url(#New_Gradient_Swatch_copy_9-5);}.cls-80{fill:url(#Radial_Gradient_1-14);}.cls-81{fill:url(#Radial_Gradient_1-15);}.cls-82{fill:url(#Radial_Gradient_1-16);}.cls-83{fill:url(#New_Gradient_Swatch_copy_9-6);}.cls-84{fill:url(#New_Gradient_Swatch_copy_7-6);}.cls-85{fill:url(#New_Gradient_Swatch_copy_8-3);}.cls-86{fill:#eb4680;}.cls-87{fill:url(#New_Gradient_Swatch_copy_8-4);}.cls-88{fill:url(#New_Gradient_Swatch_copy_8-5);}.cls-89{fill:url(#New_Gradient_Swatch_copy_8-6);}.cls-90{fill:url(#New_Gradient_Swatch_copy_8-7);}.cls-91{fill:url(#New_Gradient_Swatch_copy_17);}.cls-92{fill:url(#New_Gradient_Swatch_copy_8-8);}.cls-93{fill:url(#New_Gradient_Swatch_copy_8-9);}.cls-94{fill:url(#Radial_Gradient_1-17);}.cls-95{fill:url(#Radial_Gradient_1-18);}.cls-96{fill:url(#Radial_Gradient_1-19);}.cls-97{fill:url(#New_Gradient_Swatch_copy_22-4);}.cls-98{fill:url(#New_Gradient_Swatch_copy_60-10);}.cls-99{fill:url(#New_Gradient_Swatch_copy_36-10);}.cls-100{fill:url(#Radial_Gradient_1-20);}.cls-101{fill:url(#New_Gradient_Swatch_copy_58-8);}.cls-102{fill:url(#New_Gradient_Swatch_copy_60-11);}.cls-103{fill:url(#New_Gradient_Swatch_copy_36-11);}.cls-104{fill:url(#Radial_Gradient_1-21);}.cls-105{fill:url(#New_Gradient_Swatch_copy_22-5);}.cls-106{fill:url(#New_Gradient_Swatch_copy_22-6);}.cls-107{fill:url(#New_Gradient_Swatch_copy_58-9);}.cls-108{fill:url(#New_Gradient_Swatch_copy_18);}.cls-109{fill:url(#New_Gradient_Swatch_copy_60-12);}.cls-110{fill:url(#New_Gradient_Swatch_copy_36-12);}.cls-111{fill:url(#Radial_Gradient_1-22);}.cls-112{fill:url(#New_Gradient_Swatch_copy_60-13);}.cls-113{fill:url(#New_Gradient_Swatch_copy_36-13);}.cls-114{fill:url(#Radial_Gradient_1-23);}.cls-115{fill:url(#New_Gradient_Swatch_copy_60-14);}.cls-116{fill:url(#New_Gradient_Swatch_copy_36-14);}.cls-117{fill:url(#Radial_Gradient_1-24);}.cls-118{fill:url(#New_Gradient_Swatch_copy_58-10);}.cls-119{fill:url(#New_Gradient_Swatch_copy_60-15);}.cls-120{fill:url(#New_Gradient_Swatch_copy_36-15);}.cls-121{fill:url(#Radial_Gradient_1-25);}.cls-122{fill:url(#New_Gradient_Swatch_copy_60-16);}.cls-123{fill:url(#New_Gradient_Swatch_copy_36-16);}.cls-124{fill:url(#Radial_Gradient_1-26);}.cls-125{fill:url(#New_Gradient_Swatch_copy_60-17);}.cls-126{fill:url(#New_Gradient_Swatch_copy_36-17);}.cls-127{fill:url(#Radial_Gradient_1-27);}.cls-128{fill:url(#New_Gradient_Swatch_copy_58-11);}.cls-129{fill:url(#New_Gradient_Swatch_copy_60-18);}.cls-130{fill:url(#New_Gradient_Swatch_copy_36-18);}.cls-131{fill:url(#Radial_Gradient_1-28);}.cls-132{fill:url(#New_Gradient_Swatch_copy_60-19);}.cls-133{fill:url(#New_Gradient_Swatch_copy_36-19);}.cls-134{fill:url(#Radial_Gradient_1-29);}.cls-135{fill:url(#New_Gradient_Swatch_copy_58-12);}.cls-136{fill:url(#New_Gradient_Swatch_copy_60-20);}.cls-137{fill:url(#New_Gradient_Swatch_copy_36-20);}.cls-138{fill:url(#Radial_Gradient_1-30);}.cls-139{fill:url(#New_Gradient_Swatch_copy_60-21);}.cls-140{fill:url(#New_Gradient_Swatch_copy_36-21);}.cls-141{fill:url(#Radial_Gradient_1-31);}.cls-142{fill:url(#New_Gradient_Swatch_copy_60-22);}.cls-143{fill:url(#New_Gradient_Swatch_copy_36-22);}.cls-144{fill:url(#Radial_Gradient_1-32);}.cls-145{fill:url(#New_Gradient_Swatch_copy_60-23);}.cls-146{fill:url(#New_Gradient_Swatch_copy_36-23);}.cls-147{fill:url(#Radial_Gradient_1-33);}.cls-148{fill:url(#New_Gradient_Swatch_copy_60-24);}.cls-149{fill:url(#New_Gradient_Swatch_copy_36-24);}.cls-150{fill:url(#Radial_Gradient_1-34);}.cls-151{fill:url(#New_Gradient_Swatch_copy_13-2);}.cls-152{fill:url(#New_Gradient_Swatch_copy_13-3);}.cls-153{fill:url(#New_Gradient_Swatch_copy_13-4);}.cls-154{fill:url(#Radial_Gradient_1-35);}.cls-155{fill:url(#Radial_Gradient_1-36);}.cls-156{fill:url(#Radial_Gradient_1-37);}.cls-157{fill:url(#New_Gradient_Swatch_copy_13-5);}.cls-158{fill:url(#New_Gradient_Swatch_copy_13-6);}.cls-159{fill:url(#New_Gradient_Swatch_copy_56);}.cls-160{fill:url(#New_Gradient_Swatch_copy_56-2);}.cls-161{fill:url(#New_Gradient_Swatch_copy_56-3);}.cls-162{fill:url(#New_Gradient_Swatch_copy_56-4);}.cls-163{fill:url(#linear-gradient-14);}.cls-164{fill:url(#radial-gradient-5);}.cls-165{fill:url(#radial-gradient-6);}.cls-166{fill:url(#linear-gradient-15);}.cls-167{fill:url(#radial-gradient-7);}</style><linearGradient id="linear-gradient" x1="77.89" y1="318.07" x2="82" y2="319.98" gradientUnits="userSpaceOnUse"><stop offset="0.04" stop-color="#6b24d6"/><stop offset="0.29" stop-color="#7733dc"/><stop offset="0.79" stop-color="#975ced"/><stop offset="1" stop-color="#a56ef4"/></linearGradient><radialGradient id="radial-gradient" cx="86.03" cy="302.28" r="19.06" gradientUnits="userSpaceOnUse"><stop offset="0.03" stop-color="#fedfcb"/><stop offset="1" stop-color="#f9b69e"/></radialGradient><radialGradient id="radial-gradient-2" cx="82.9" cy="322.69" r="4.41" gradientUnits="userSpaceOnUse"><stop offset="0" stop-color="#9da7b3"/><stop offset="1" stop-color="#fff"/></radialGradient><linearGradient id="New_Gradient_Swatch_copy_10" x1="35.08" y1="238.7" x2="48.64" y2="250.95" gradientUnits="userSpaceOnUse"><stop offset="0.04" stop-color="#9d9eb3"/><stop offset="0.58" stop-color="#d4d1d8"/><stop offset="1" stop-color="#eeebf2"/></linearGradient><linearGradient id="linear-gradient-2" x1="55.06" y1="381.96" x2="72.21" y2="381.96" gradientUnits="userSpaceOnUse"><stop offset="0.09" stop-color="#25054d"/><stop offset="0.47" stop-color="#330a68"/><stop offset="0.89" stop-color="#45108a"/></linearGradient><linearGradient id="linear-gradient-3" x1="45.09" y1="357.3" x2="65.16" y2="357.3" xlink:href="#linear-gradient"/><linearGradient id="linear-gradient-4" x1="47.08" y1="324.11" x2="73.35" y2="301.49" xlink:href="#linear-gradient"/><linearGradient id="linear-gradient-5" x1="29.53" y1="392.7" x2="42.63" y2="392.7" xlink:href="#linear-gradient-2"/><linearGradient id="linear-gradient-6" x1="28.71" y1="362.87" x2="48.91" y2="362.87" xlink:href="#linear-gradient"/><linearGradient id="New_Gradient_Swatch_copy_7" x1="44.58" y1="317.97" x2="57.52" y2="301.9" gradientUnits="userSpaceOnUse"><stop offset="0.04" stop-color="#138bbd"/><stop offset="0.23" stop-color="#169ac7"/><stop offset="0.59" stop-color="#1fc3df"/><stop offset="1" stop-color="#2af6ff"/></linearGradient><linearGradient id="New_Gradient_Swatch_copy_10-2" x1="37.75" y1="306.9" x2="43.48" y2="300.37" xlink:href="#New_Gradient_Swatch_copy_10"/><linearGradient id="New_Gradient_Swatch_copy_10-3" x1="52.47" y1="303.85" x2="46.45" y2="300.15" xlink:href="#New_Gradient_Swatch_copy_10"/><linearGradient id="linear-gradient-7" x1="29.67" y1="321.2" x2="51.72" y2="321.2" xlink:href="#linear-gradient"/><linearGradient id="linear-gradient-8" x1="43.25" y1="320.18" x2="45.28" y2="305.71" xlink:href="#linear-gradient"/><radialGradient id="Radial_Gradient_1" cx="44.56" cy="310.85" r="10.3" gradientUnits="userSpaceOnUse"><stop offset="0" stop-color="#fff"/><stop offset="1"/></radialGradient><linearGradient id="linear-gradient-9" x1="64.87" y1="318.28" x2="46.69" y2="317.6" xlink:href="#linear-gradient"/><linearGradient id="linear-gradient-10" x1="70.49" y1="294.01" x2="47.61" y2="310.77" xlink:href="#linear-gradient"/><radialGradient id="radial-gradient-3" cx="51.44" cy="291.22" r="15.3" xlink:href="#radial-gradient"/><linearGradient id="linear-gradient-11" x1="34.33" y1="299.66" x2="46.69" y2="283.12" gradientUnits="userSpaceOnUse"><stop offset="0.04" stop-color="#602213"/><stop offset="0.57" stop-color="#6d310e"/><stop offset="1" stop-color="#7a4108"/></linearGradient><radialGradient id="radial-gradient-4" cx="40.4" cy="304.41" r="9.76" xlink:href="#radial-gradient"/><linearGradient id="New_Gradient_Swatch_copy_60" x1="107.7" y1="299.67" x2="126.66" y2="299.67" gradientUnits="userSpaceOnUse"><stop offset="0.01" stop-color="#45108a"/><stop offset="0.06" stop-color="#4f1793"/><stop offset="0.14" stop-color="#6a2baa"/><stop offset="0.22" stop-color="#8f46c9"/><stop offset="0.27" stop-color="#8b3cc9"/><stop offset="0.34" stop-color="#7f22c9"/><stop offset="0.36" stop-color="#7c1dc9"/><stop offset="0.41" stop-color="#6b19b6"/><stop offset="0.48" stop-color="#56149e"/><stop offset="0.55" stop-color="#49118f"/><stop offset="0.61" stop-color="#45108a"/><stop offset="0.71" stop-color="#4e1295"/><stop offset="0.88" stop-color="#6818b2"/><stop offset="1" stop-color="#7c1dc9"/></linearGradient><linearGradient id="New_Gradient_Swatch_copy_36" x1="118.74" y1="283.25" x2="116.56" y2="300.88" gradientUnits="userSpaceOnUse"><stop offset="0.1" stop-color="#45108a"/><stop offset="1" stop-color="#7c1dc9"/></linearGradient><radialGradient id="Radial_Gradient_1-2" cx="117.18" cy="298.55" r="7" xlink:href="#Radial_Gradient_1"/><linearGradient id="New_Gradient_Swatch_copy_58" x1="108.97" y1="293.93" x2="125.4" y2="293.93" gradientUnits="userSpaceOnUse"><stop offset="0" stop-color="#311b61"/><stop offset="0.05" stop-color="#341d65"/><stop offset="0.11" stop-color="#3e2573"/><stop offset="0.16" stop-color="#4d3188"/><stop offset="0.22" stop-color="#6341a7"/><stop offset="0.25" stop-color="#6f4bb8"/><stop offset="0.31" stop-color="#54318f"/><stop offset="0.37" stop-color="#3d1c6d"/><stop offset="0.43" stop-color="#2d0c55"/><stop offset="0.48" stop-color="#230346"/><stop offset="0.52" stop-color="#200041"/><stop offset="0.66" stop-color="#210243"/><stop offset="0.73" stop-color="#25084b"/><stop offset="0.79" stop-color="#2c1358"/><stop offset="0.81" stop-color="#311b61"/><stop offset="0.86" stop-color="#2a1155"/><stop offset="0.94" stop-color="#230446"/><stop offset="1" stop-color="#200041"/></linearGradient><linearGradient id="New_Gradient_Swatch_copy_60-2" x1="414.27" y1="200.14" x2="433.23" y2="200.14" xlink:href="#New_Gradient_Swatch_copy_60"/><linearGradient id="New_Gradient_Swatch_copy_36-2" x1="425.32" y1="183.72" x2="423.14" y2="201.35" xlink:href="#New_Gradient_Swatch_copy_36"/><radialGradient id="Radial_Gradient_1-3" cx="423.75" cy="199.02" r="7" xlink:href="#Radial_Gradient_1"/><linearGradient id="New_Gradient_Swatch_copy_58-2" x1="415.54" y1="194.4" x2="431.97" y2="194.4" xlink:href="#New_Gradient_Swatch_copy_58"/><linearGradient id="New_Gradient_Swatch_copy_60-3" x1="207.33" y1="317.46" x2="226.29" y2="317.46" xlink:href="#New_Gradient_Swatch_copy_60"/><linearGradient id="New_Gradient_Swatch_copy_36-3" x1="218.37" y1="301.04" x2="216.19" y2="318.67" xlink:href="#New_Gradient_Swatch_copy_36"/><radialGradient id="Radial_Gradient_1-4" cx="216.81" cy="316.33" r="7" xlink:href="#Radial_Gradient_1"/><linearGradient id="New_Gradient_Swatch_copy_58-3" x1="208.6" y1="311.72" x2="225.03" y2="311.72" xlink:href="#New_Gradient_Swatch_copy_58"/><linearGradient id="New_Gradient_Swatch_copy_7-2" x1="331.69" y1="113.88" x2="368.46" y2="113.88" xlink:href="#New_Gradient_Swatch_copy_7"/><linearGradient id="New_Gradient_Swatch_copy_7-3" x1="199.66" y1="59.31" x2="310.13" y2="154.32" xlink:href="#New_Gradient_Swatch_copy_7"/><linearGradient id="linear-gradient-12" x1="257.22" y1="115.17" x2="297.29" y2="115.17" gradientUnits="userSpaceOnUse"><stop offset="0.02" stop-color="#138bbd"/><stop offset="0.17" stop-color="#169ac7"/><stop offset="0.33" stop-color="#1bb0d4"/><stop offset="0.43" stop-color="#1ebfde"/><stop offset="0.6" stop-color="#26e2f3"/><stop offset="0.87" stop-color="#1bb0d4"/></linearGradient><linearGradient id="New_Gradient_Swatch_copy_7-4" x1="207.44" y1="71.59" x2="317.91" y2="166.59" xlink:href="#New_Gradient_Swatch_copy_7"/><linearGradient id="linear-gradient-13" x1="293.8" y1="135.15" x2="345.4" y2="135.15" gradientUnits="userSpaceOnUse"><stop offset="0.01" stop-color="#138bbd"/><stop offset="0.1" stop-color="#148fc0"/><stop offset="0.19" stop-color="#179dc8"/><stop offset="0.28" stop-color="#1bb0d4"/><stop offset="0.32" stop-color="#1cb3d6"/><stop offset="0.34" stop-color="#1ebedd"/><stop offset="0.35" stop-color="#1fc4e1"/><stop offset="0.63" stop-color="#2af6ff"/><stop offset="0.87" stop-color="#1bb0d4"/></linearGradient><linearGradient id="New_Gradient_Swatch_copy_7-5" x1="336.04" y1="-4.91" x2="284.68" y2="113.29" xlink:href="#New_Gradient_Swatch_copy_7"/><radialGradient id="Radial_Gradient_1-5" cx="263.07" cy="95.43" r="18.44" xlink:href="#Radial_Gradient_1"/><radialGradient id="Radial_Gradient_1-6" cx="307.51" cy="114.89" r="46.56" xlink:href="#Radial_Gradient_1"/><radialGradient id="Radial_Gradient_1-7" cx="334.54" cy="95.03" r="7.39" xlink:href="#Radial_Gradient_1"/><linearGradient id="New_Gradient_Swatch_copy_60-4" x1="414.27" y1="112.54" x2="433.23" y2="112.54" xlink:href="#New_Gradient_Swatch_copy_60"/><linearGradient id="New_Gradient_Swatch_copy_36-4" x1="423.07" y1="34.12" x2="420.89" y2="51.75" xlink:href="#New_Gradient_Swatch_copy_36"/><radialGradient id="Radial_Gradient_1-8" cx="423.75" cy="111.41" r="7" xlink:href="#Radial_Gradient_1"/><linearGradient id="New_Gradient_Swatch_copy_13" x1="13.27" y1="246.93" x2="433.79" y2="246.93" xlink:href="#linear-gradient"/><linearGradient id="New_Gradient_Swatch_copy_58-4" x1="415.54" y1="106.8" x2="431.97" y2="106.8" xlink:href="#New_Gradient_Swatch_copy_58"/><linearGradient id="New_Gradient_Swatch_copy_60-5" x1="414.27" y1="104.68" x2="433.23" y2="104.68" xlink:href="#New_Gradient_Swatch_copy_60"/><linearGradient id="New_Gradient_Swatch_copy_36-5" x1="424.65" y1="94.7" x2="423.09" y2="105.49" xlink:href="#New_Gradient_Swatch_copy_36"/><radialGradient id="Radial_Gradient_1-9" cx="423.75" cy="103.55" r="7" xlink:href="#Radial_Gradient_1"/><linearGradient id="New_Gradient_Swatch_copy_8" x1="192.91" y1="135.47" x2="325.43" y2="135.47" gradientTransform="matrix(0.5, 0.86, -0.86, 0.5, 245.63, -156.66)" gradientUnits="userSpaceOnUse"><stop offset="0.04" stop-color="#ffa98c"/><stop offset="0.32" stop-color="#ffb892"/><stop offset="0.86" stop-color="#fee1a3"/><stop offset="1" stop-color="#feeca8"/></linearGradient><linearGradient id="New_Gradient_Swatch_copy_60-6" x1="167.38" y1="268.7" x2="186.34" y2="268.7" xlink:href="#New_Gradient_Swatch_copy_60"/><linearGradient id="New_Gradient_Swatch_copy_36-6" x1="176.17" y1="190.28" x2="173.99" y2="207.91" xlink:href="#New_Gradient_Swatch_copy_36"/><radialGradient id="Radial_Gradient_1-10" cx="176.86" cy="267.58" r="7" xlink:href="#Radial_Gradient_1"/><linearGradient id="New_Gradient_Swatch_copy_58-5" x1="168.64" y1="262.97" x2="185.07" y2="262.97" xlink:href="#New_Gradient_Swatch_copy_58"/><linearGradient id="New_Gradient_Swatch_copy_60-7" x1="137.79" y1="236.76" x2="156.75" y2="236.76" xlink:href="#New_Gradient_Swatch_copy_60"/><linearGradient id="New_Gradient_Swatch_copy_36-7" x1="146.58" y1="158.34" x2="144.4" y2="175.97" xlink:href="#New_Gradient_Swatch_copy_36"/><radialGradient id="Radial_Gradient_1-11" cx="147.27" cy="235.64" r="7" xlink:href="#Radial_Gradient_1"/><linearGradient id="New_Gradient_Swatch_copy_58-6" x1="139.06" y1="231.03" x2="155.48" y2="231.03" xlink:href="#New_Gradient_Swatch_copy_58"/><linearGradient id="New_Gradient_Swatch_copy_60-8" x1="125.6" y1="145.75" x2="144.56" y2="145.75" xlink:href="#New_Gradient_Swatch_copy_60"/><linearGradient id="New_Gradient_Swatch_copy_36-8" x1="134.39" y1="67.33" x2="132.21" y2="84.96" xlink:href="#New_Gradient_Swatch_copy_36"/><radialGradient id="Radial_Gradient_1-12" cx="135.08" cy="144.63" r="7" xlink:href="#Radial_Gradient_1"/><linearGradient id="New_Gradient_Swatch_copy_58-7" x1="126.86" y1="140.01" x2="143.29" y2="140.01" xlink:href="#New_Gradient_Swatch_copy_58"/><radialGradient id="New_Gradient_Swatch_copy_22" cx="289.81" cy="143.6" r="2.93" gradientUnits="userSpaceOnUse"><stop offset="0" stop-color="#eeebf2"/><stop offset="0.58" stop-color="#d4d1d8"/><stop offset="0.94" stop-color="#a5a6b9"/><stop offset="1" stop-color="#9d9eb3"/></radialGradient><linearGradient id="New_Gradient_Swatch_copy_8-2" x1="2.25" y1="249.15" x2="196.31" y2="249.15" gradientTransform="matrix(1, 0, 0, 1, 0, 0)" xlink:href="#New_Gradient_Swatch_copy_8"/><linearGradient id="New_Gradient_Swatch_copy_60-9" x1="125.6" y1="137.89" x2="144.56" y2="137.89" xlink:href="#New_Gradient_Swatch_copy_60"/><linearGradient id="New_Gradient_Swatch_copy_36-9" x1="135.97" y1="127.91" x2="134.41" y2="138.7" xlink:href="#New_Gradient_Swatch_copy_36"/><radialGradient id="Radial_Gradient_1-13" cx="135.08" cy="136.76" r="7" xlink:href="#Radial_Gradient_1"/><radialGradient id="New_Gradient_Swatch_copy_22-2" cx="4720.28" cy="144.43" r="3.56" gradientTransform="matrix(-1, 0, 0, 1, 5001.21, -62)" xlink:href="#New_Gradient_Swatch_copy_22"/><radialGradient id="New_Gradient_Swatch_copy_22-3" cx="4719.8" cy="147.29" r="2.18" gradientTransform="matrix(-1, 0, 0, 1, 5003.46, 0)" xlink:href="#New_Gradient_Swatch_copy_22"/><linearGradient id="New_Gradient_Swatch_copy_9" x1="224.81" y1="143.36" x2="241.16" y2="143.36" gradientUnits="userSpaceOnUse"><stop offset="0.04" stop-color="#9f19ab"/><stop offset="0.24" stop-color="#ae25b1"/><stop offset="0.65" stop-color="#d744bf"/><stop offset="1" stop-color="#ff63ce"/></linearGradient><linearGradient id="New_Gradient_Swatch_copy_9-2" x1="186.44" y1="169.58" x2="327.84" y2="156.32" xlink:href="#New_Gradient_Swatch_copy_9"/><linearGradient id="New_Gradient_Swatch_copy_9-3" x1="186.1" y1="166.82" x2="238.21" y2="166.82" xlink:href="#New_Gradient_Swatch_copy_9"/><linearGradient id="New_Gradient_Swatch_copy_9-4" x1="188.12" y1="187.56" x2="329.52" y2="174.3" xlink:href="#New_Gradient_Swatch_copy_9"/><linearGradient id="New_Gradient_Swatch_copy_9-5" x1="206.31" y1="23.74" x2="181.46" y2="160.72" xlink:href="#New_Gradient_Swatch_copy_9"/><radialGradient id="Radial_Gradient_1-14" cx="227.42" cy="124.12" r="6.76" xlink:href="#Radial_Gradient_1"/><radialGradient id="Radial_Gradient_1-15" cx="212.39" cy="146.52" r="19.04" xlink:href="#Radial_Gradient_1"/><radialGradient id="Radial_Gradient_1-16" cx="166.65" cy="156.82" r="27.42" xlink:href="#Radial_Gradient_1"/><linearGradient id="New_Gradient_Swatch_copy_9-6" x1="84.65" y1="51.9" x2="201.75" y2="155.19" xlink:href="#New_Gradient_Swatch_copy_9"/><linearGradient id="New_Gradient_Swatch_copy_7-6" x1="15.4" y1="273.17" x2="284.11" y2="273.17" xlink:href="#New_Gradient_Swatch_copy_7"/><linearGradient id="New_Gradient_Swatch_copy_8-3" x1="284.09" y1="127.07" x2="387.93" y2="214.34" gradientTransform="matrix(1, 0, 0, 1, 0, 0)" xlink:href="#New_Gradient_Swatch_copy_8"/><linearGradient id="New_Gradient_Swatch_copy_8-4" x1="324.1" y1="178.18" x2="342.57" y2="178.18" gradientTransform="matrix(1, 0, 0, 1, 0, 0)" xlink:href="#New_Gradient_Swatch_copy_8"/><linearGradient id="New_Gradient_Swatch_copy_8-5" x1="376.16" y1="147.62" x2="325.35" y2="147.62" gradientTransform="matrix(1, 0, 0, 1, 0, 0)" xlink:href="#New_Gradient_Swatch_copy_8"/><linearGradient id="New_Gradient_Swatch_copy_8-6" x1="375.08" y1="116.55" x2="492.29" y2="116.55" gradientTransform="matrix(1, 0, 0, 1, 0, 0)" xlink:href="#New_Gradient_Swatch_copy_8"/><linearGradient id="New_Gradient_Swatch_copy_8-7" x1="294.57" y1="142.18" x2="398.41" y2="229.45" gradientTransform="matrix(1, 0, 0, 1, 0, 0)" xlink:href="#New_Gradient_Swatch_copy_8"/><linearGradient id="New_Gradient_Swatch_copy_17" x1="326.26" y1="188.76" x2="355.93" y2="188.76" gradientUnits="userSpaceOnUse"><stop offset="0.04" stop-color="#f7aa90"/><stop offset="0.23" stop-color="#f9b996"/><stop offset="0.61" stop-color="#ffe2a6"/><stop offset="0.63" stop-color="#ffe4a7"/><stop offset="0.87" stop-color="#f7aa90"/></linearGradient><linearGradient id="New_Gradient_Swatch_copy_8-8" x1="326.26" y1="188.48" x2="430.03" y2="188.48" gradientTransform="matrix(1, 0, 0, 1, 0, 0)" xlink:href="#New_Gradient_Swatch_copy_8"/><linearGradient id="New_Gradient_Swatch_copy_8-9" x1="422.15" y1="41.87" x2="366.91" y2="166.7" gradientTransform="matrix(1, 0, 0, 1, 0, 0)" xlink:href="#New_Gradient_Swatch_copy_8"/><radialGradient id="Radial_Gradient_1-17" cx="367.24" cy="128.4" r="6.7" xlink:href="#Radial_Gradient_1"/><radialGradient id="Radial_Gradient_1-18" cx="378.19" cy="158.58" r="38.24" xlink:href="#Radial_Gradient_1"/><radialGradient id="Radial_Gradient_1-19" cx="333.34" cy="148.44" r="7.64" xlink:href="#Radial_Gradient_1"/><radialGradient id="New_Gradient_Swatch_copy_22-4" cx="4716.24" cy="162.88" r="2.93" gradientTransform="matrix(-1, 0, 0, 1, 4948.78, 0)" xlink:href="#New_Gradient_Swatch_copy_22"/><linearGradient id="New_Gradient_Swatch_copy_60-10" x1="331.79" y1="238.3" x2="350.75" y2="238.3" xlink:href="#New_Gradient_Swatch_copy_60"/><linearGradient id="New_Gradient_Swatch_copy_36-10" x1="342.83" y1="221.88" x2="340.65" y2="239.51" xlink:href="#New_Gradient_Swatch_copy_36"/><radialGradient id="Radial_Gradient_1-20" cx="341.27" cy="237.17" r="7" xlink:href="#Radial_Gradient_1"/><linearGradient id="New_Gradient_Swatch_copy_58-8" x1="333.05" y1="232.56" x2="349.48" y2="232.56" xlink:href="#New_Gradient_Swatch_copy_58"/><linearGradient id="New_Gradient_Swatch_copy_60-11" x1="249.4" y1="285" x2="268.36" y2="285" xlink:href="#New_Gradient_Swatch_copy_60"/><linearGradient id="New_Gradient_Swatch_copy_36-11" x1="260.44" y1="268.58" x2="258.26" y2="286.21" xlink:href="#New_Gradient_Swatch_copy_36"/><radialGradient id="Radial_Gradient_1-21" cx="258.88" cy="283.87" r="7" xlink:href="#Radial_Gradient_1"/><radialGradient id="New_Gradient_Swatch_copy_22-5" cx="237.04" cy="101.78" r="3.56" xlink:href="#New_Gradient_Swatch_copy_22"/><radialGradient id="New_Gradient_Swatch_copy_22-6" cx="238.8" cy="166.64" r="2.18" xlink:href="#New_Gradient_Swatch_copy_22"/><linearGradient id="New_Gradient_Swatch_copy_58-9" x1="250.67" y1="279.26" x2="267.09" y2="279.26" xlink:href="#New_Gradient_Swatch_copy_58"/><linearGradient id="New_Gradient_Swatch_copy_18" x1="12.02" y1="283.4" x2="349.63" y2="283.4" gradientUnits="userSpaceOnUse"><stop offset="0.04" stop-color="#9f19ab"/><stop offset="0.16" stop-color="#ae25b1"/><stop offset="0.41" stop-color="#d744bf"/><stop offset="0.63" stop-color="#ff63ce"/><stop offset="0.87" stop-color="#dc48c1"/></linearGradient><linearGradient id="New_Gradient_Swatch_copy_60-12" x1="414.27" y1="192.28" x2="433.23" y2="192.28" xlink:href="#New_Gradient_Swatch_copy_60"/><linearGradient id="New_Gradient_Swatch_copy_36-12" x1="422.4" y1="120.3" x2="420.84" y2="131.09" xlink:href="#New_Gradient_Swatch_copy_36"/><radialGradient id="Radial_Gradient_1-22" cx="423.75" cy="191.15" r="7" xlink:href="#Radial_Gradient_1"/><linearGradient id="New_Gradient_Swatch_copy_60-13" x1="331.79" y1="230.43" x2="350.75" y2="230.43" xlink:href="#New_Gradient_Swatch_copy_60"/><linearGradient id="New_Gradient_Swatch_copy_36-13" x1="339.91" y1="158.46" x2="338.35" y2="169.24" xlink:href="#New_Gradient_Swatch_copy_36"/><radialGradient id="Radial_Gradient_1-23" cx="341.27" cy="229.31" r="7" xlink:href="#Radial_Gradient_1"/><linearGradient id="New_Gradient_Swatch_copy_60-14" x1="195.36" y1="266.4" x2="214.32" y2="266.4" xlink:href="#New_Gradient_Swatch_copy_60"/><linearGradient id="New_Gradient_Swatch_copy_36-14" x1="206.4" y1="249.98" x2="204.23" y2="267.61" xlink:href="#New_Gradient_Swatch_copy_36"/><radialGradient id="Radial_Gradient_1-24" cx="204.84" cy="265.27" r="7" xlink:href="#Radial_Gradient_1"/><linearGradient id="New_Gradient_Swatch_copy_58-10" x1="196.63" y1="260.66" x2="213.06" y2="260.66" xlink:href="#New_Gradient_Swatch_copy_58"/><linearGradient id="New_Gradient_Swatch_copy_60-15" x1="195.36" y1="258.53" x2="214.32" y2="258.53" xlink:href="#New_Gradient_Swatch_copy_60"/><linearGradient id="New_Gradient_Swatch_copy_36-15" x1="205.74" y1="248.56" x2="204.18" y2="259.35" xlink:href="#New_Gradient_Swatch_copy_36"/><radialGradient id="Radial_Gradient_1-25" cx="204.84" cy="257.41" r="7" xlink:href="#Radial_Gradient_1"/><linearGradient id="New_Gradient_Swatch_copy_60-16" x1="207.33" y1="309.59" x2="226.29" y2="309.59" xlink:href="#New_Gradient_Swatch_copy_60"/><linearGradient id="New_Gradient_Swatch_copy_36-16" x1="215.45" y1="237.62" x2="213.9" y2="248.4" xlink:href="#New_Gradient_Swatch_copy_36"/><radialGradient id="Radial_Gradient_1-26" cx="216.81" cy="308.47" r="7" xlink:href="#Radial_Gradient_1"/><linearGradient id="New_Gradient_Swatch_copy_60-17" x1="186.91" y1="110.22" x2="205.87" y2="110.22" xlink:href="#New_Gradient_Swatch_copy_60"/><linearGradient id="New_Gradient_Swatch_copy_36-17" x1="195.7" y1="31.8" x2="193.52" y2="49.43" xlink:href="#New_Gradient_Swatch_copy_36"/><radialGradient id="Radial_Gradient_1-27" cx="196.39" cy="109.09" r="7" xlink:href="#Radial_Gradient_1"/><linearGradient id="New_Gradient_Swatch_copy_58-11" x1="188.17" y1="104.48" x2="204.6" y2="104.48" xlink:href="#New_Gradient_Swatch_copy_58"/><linearGradient id="New_Gradient_Swatch_copy_60-18" x1="186.91" y1="102.35" x2="205.87" y2="102.35" xlink:href="#New_Gradient_Swatch_copy_60"/><linearGradient id="New_Gradient_Swatch_copy_36-18" x1="195.03" y1="30.38" x2="193.47" y2="41.16" xlink:href="#New_Gradient_Swatch_copy_36"/><radialGradient id="Radial_Gradient_1-28" cx="196.39" cy="101.23" r="7" xlink:href="#Radial_Gradient_1"/><linearGradient id="New_Gradient_Swatch_copy_60-19" x1="150.13" y1="294.02" x2="169.09" y2="294.02" xlink:href="#New_Gradient_Swatch_copy_60"/><linearGradient id="New_Gradient_Swatch_copy_36-19" x1="161.17" y1="277.6" x2="158.99" y2="295.23" xlink:href="#New_Gradient_Swatch_copy_36"/><radialGradient id="Radial_Gradient_1-29" cx="159.61" cy="292.89" r="7" xlink:href="#Radial_Gradient_1"/><linearGradient id="New_Gradient_Swatch_copy_58-12" x1="151.39" y1="288.28" x2="167.82" y2="288.28" xlink:href="#New_Gradient_Swatch_copy_58"/><linearGradient id="New_Gradient_Swatch_copy_60-20" x1="150.13" y1="286.15" x2="169.09" y2="286.15" xlink:href="#New_Gradient_Swatch_copy_60"/><linearGradient id="New_Gradient_Swatch_copy_36-20" x1="160.5" y1="276.18" x2="158.94" y2="286.97" xlink:href="#New_Gradient_Swatch_copy_36"/><radialGradient id="Radial_Gradient_1-30" cx="159.61" cy="285.03" r="7" xlink:href="#Radial_Gradient_1"/><linearGradient id="New_Gradient_Swatch_copy_60-21" x1="107.7" y1="291.81" x2="126.66" y2="291.81" xlink:href="#New_Gradient_Swatch_copy_60"/><linearGradient id="New_Gradient_Swatch_copy_36-21" x1="118.07" y1="281.83" x2="116.52" y2="292.62" xlink:href="#New_Gradient_Swatch_copy_36"/><radialGradient id="Radial_Gradient_1-31" cx="117.18" cy="290.68" r="7" xlink:href="#Radial_Gradient_1"/><linearGradient id="New_Gradient_Swatch_copy_60-22" x1="167.38" y1="260.84" x2="186.34" y2="260.84" xlink:href="#New_Gradient_Swatch_copy_60"/><linearGradient id="New_Gradient_Swatch_copy_36-22" x1="177.75" y1="250.86" x2="176.2" y2="261.65" xlink:href="#New_Gradient_Swatch_copy_36"/><radialGradient id="Radial_Gradient_1-32" cx="176.86" cy="259.71" r="7" xlink:href="#Radial_Gradient_1"/><linearGradient id="New_Gradient_Swatch_copy_60-23" x1="137.79" y1="228.9" x2="156.75" y2="228.9" xlink:href="#New_Gradient_Swatch_copy_60"/><linearGradient id="New_Gradient_Swatch_copy_36-23" x1="148.16" y1="218.92" x2="146.61" y2="229.71" xlink:href="#New_Gradient_Swatch_copy_36"/><radialGradient id="Radial_Gradient_1-33" cx="147.27" cy="227.77" r="7" xlink:href="#Radial_Gradient_1"/><linearGradient id="New_Gradient_Swatch_copy_60-24" x1="249.4" y1="277.13" x2="268.36" y2="277.13" xlink:href="#New_Gradient_Swatch_copy_60"/><linearGradient id="New_Gradient_Swatch_copy_36-24" x1="257.52" y1="205.16" x2="255.97" y2="215.94" xlink:href="#New_Gradient_Swatch_copy_36"/><radialGradient id="Radial_Gradient_1-34" cx="258.88" cy="276.01" r="7" xlink:href="#Radial_Gradient_1"/><linearGradient id="New_Gradient_Swatch_copy_13-2" x1="236.42" y1="202.73" x2="207.7" y2="202.73" xlink:href="#linear-gradient"/><linearGradient id="New_Gradient_Swatch_copy_13-3" x1="272.21" y1="203.63" x2="297.18" y2="203.63" xlink:href="#linear-gradient"/><linearGradient id="New_Gradient_Swatch_copy_13-4" x1="318.91" y1="81.64" x2="264.23" y2="204.26" xlink:href="#linear-gradient"/><radialGradient id="Radial_Gradient_1-35" cx="228.41" cy="182.87" r="6.81" xlink:href="#Radial_Gradient_1"/><radialGradient id="Radial_Gradient_1-36" cx="280.08" cy="184.39" r="6.61" xlink:href="#Radial_Gradient_1"/><radialGradient id="Radial_Gradient_1-37" cx="267.98" cy="152.64" r="38.42" xlink:href="#Radial_Gradient_1"/><linearGradient id="New_Gradient_Swatch_copy_13-5" x1="267.33" y1="172.63" x2="407.05" y2="172.63" xlink:href="#linear-gradient"/><linearGradient id="New_Gradient_Swatch_copy_13-6" x1="189.4" y1="172.63" x2="285.55" y2="172.63" xlink:href="#linear-gradient"/><radialGradient id="New_Gradient_Swatch_copy_56" cx="96.92" cy="334.87" r="86.84" gradientUnits="userSpaceOnUse"><stop offset="0" stop-color="#9f19ab"/><stop offset="0.21" stop-color="#75127e"/><stop offset="0.47" stop-color="#490b4f"/><stop offset="0.69" stop-color="#2a062d"/><stop offset="0.88" stop-color="#160318"/><stop offset="1" stop-color="#0f0210"/></radialGradient><radialGradient id="New_Gradient_Swatch_copy_56-2" cx="312.34" cy="287.82" r="149.97" xlink:href="#New_Gradient_Swatch_copy_56"/><radialGradient id="New_Gradient_Swatch_copy_56-3" cx="99.53" cy="264.28" r="123.53" xlink:href="#New_Gradient_Swatch_copy_56"/><radialGradient id="New_Gradient_Swatch_copy_56-4" cx="424.15" cy="185.38" r="71.02" xlink:href="#New_Gradient_Swatch_copy_56"/><linearGradient id="linear-gradient-14" x1="55.09" y1="330.01" x2="68.15" y2="338.23" xlink:href="#linear-gradient"/><radialGradient id="radial-gradient-5" cx="61.82" cy="326.35" r="10.76" xlink:href="#radial-gradient"/><radialGradient id="radial-gradient-6" cx="66.09" cy="324.84" r="5.41" xlink:href="#radial-gradient"/><linearGradient id="linear-gradient-15" x1="28.61" y1="319.1" x2="56.67" y2="319.1" xlink:href="#linear-gradient"/><radialGradient id="radial-gradient-7" cx="82.37" cy="321.29" r="4.39" xlink:href="#radial-gradient"/></defs><title>Senza titolo-1</title><g class="cls-1"><g id="Livello_1" data-name="Livello 1"><path class="cls-2" d="M79.71,315.09c.74.44,0,2.34-1.19,4.19s-1.9,2.08-2.3,1.84-.2-2.83.71-4.14S79.34,314.88,79.71,315.09Z" transform="translate(-2.25 -62)"/><path class="cls-3" d="M78.68,315.25c.39.12,1.28.7,2.4,1.07s4.33,1.4,5,2.4a7.69,7.69,0,0,1,1.07,3.75c.09,1.28-.3,2.75-1.34,3.2a3.73,3.73,0,0,1-2.77-.06c-.55-.37-.8-1.15-1.44-2.28s-1.95-1.4-2.8-1.77-1.07-1.77-1.59-2.29a26.31,26.31,0,0,0-2.71-1.89Z" transform="translate(-2.25 -62)"/><path class="cls-4" d="M78.68,315.25c.39.12,1.28.7,2.4,1.07s4.33,1.4,5,2.4a7.69,7.69,0,0,1,1.07,3.75c.09,1.28-.3,2.75-1.34,3.2a3.73,3.73,0,0,1-2.77-.06c-.55-.37-.8-1.15-1.44-2.28s-1.95-1.4-2.8-1.77-1.07-1.77-1.59-2.29a26.31,26.31,0,0,0-2.71-1.89Z" transform="translate(-2.25 -62)"/><polygon class="cls-5" points="36.14 235.57 45.57 233.54 48.03 239.27 51.08 248.63 49.85 266.68 40.35 255.08 36.14 235.57"/><path class="cls-6" d="M43,304.71l3.12,1.53,1.41-3.88s.51-.22,1,.61,1,1.38,1,1.38l.94-2.86-.25-.44-5.41,1.49-6-5Z" transform="translate(-2.25 -62)"/><path class="cls-7" d="M30.48,395c7.78,6.87,18.87,2.23,25.9-.14s22.26-8.71,15.3-12c-9.28-4.45-25.57.14-32.6,2.51S24.39,389.6,30.48,395Z" transform="translate(-2.25 -62)"/><path class="cls-8" d="M55.05,380.11s-.46,2.7-.14,3.11,4.3,1.23,4.62,1.19.46-1.1.91-.74a11.68,11.68,0,0,0,6,3.21c3.25.41,5.94-.3,6-1.45s-.77-2.12-3.52-3.26-3.2-1.65-4.29-2.84S55.05,380.11,55.05,380.11Z" transform="translate(-2.25 -62)"/><path class="cls-9" d="M55.41,379.88s-1.09,1.74.6,2.1,4.43.09,6.08,1.51a11.46,11.46,0,0,0,8,2.34c2.74-.41,2.19-1.37,2-1.92s-1.92-1.24-3.2-1.84-2.38-1-3.15-2-1.6-2.06-1.6-2.06Z" transform="translate(-2.25 -62)"/><path class="cls-10" d="M56.07,332.06s5.3,11.77,6.46,14.88,2.62,4.7,2.38,8.41-1.71,16.71-1.16,19.51,1.71,3.78,1.34,4.58a7.24,7.24,0,0,1-4.87,2.92c-2.69.49-4.88-.12-5.31-1s-1-7.87-1-11.95.3-12-.13-13.6-8.72-17.19-8.72-17.19Z" transform="translate(-2.25 -62)"/><path class="cls-6" d="M60.76,380.47c-2.86-1.4-1.95-4.81-1.34-10.12a132.31,132.31,0,0,0,.43-16.09c-.12-1.77-2.32-4.39-4.39-8.6-1.85-3.76-6.09-8.2-7-9.09l-3.41,2s8.3,15.61,8.72,17.19.19,9.51.13,13.6.54,11,1,11.95,2.62,1.52,5.31,1a8.54,8.54,0,0,0,2.24-.74A6.27,6.27,0,0,0,60.76,380.47Z" transform="translate(-2.25 -62)"/><path class="cls-11" d="M52.37,298.13c3.35.29,7.19,6.19,9.05,7.81a54,54,0,0,0,5.12,4.17c1,.58,13.17,5,13.17,5a6.58,6.58,0,0,0-2.9,3.57,7,7,0,0,0-.49,2.5s-5.12-1.47-8.4-2.54a26.87,26.87,0,0,1-7-3.23c-1.74-1.28-8.17-5.61-8.17-5.61S47.51,297.72,52.37,298.13Z" transform="translate(-2.25 -62)"/><path class="cls-6" d="M77.26,317.9c-3.6-1-10.63-3-11.41-3.34a54.13,54.13,0,0,1-5.44-3.76c-2-1.46-6.27-7-9.64-7.06h0a40.38,40.38,0,0,0,2,6s6.43,4.33,8.17,5.61a26.87,26.87,0,0,0,7,3.23c3.28,1.07,8.4,2.54,8.4,2.54a5,5,0,0,1,.49-2.5A5.2,5.2,0,0,1,77.26,317.9Z" transform="translate(-2.25 -62)"/><path class="cls-8" d="M29.62,389.34s-.82,2.15-.54,2.47a23.19,23.19,0,0,0,2.14,1.56s.05-.37.6,0,1,2.09,2.47,3.06c2.07,1.41,6.44,2,8.09.93s-.23-2.39-.46-2.71-5.39-6-5.39-6l-6.77.92Z" transform="translate(-2.25 -62)"/><path class="cls-12" d="M29.53,390.31c.78.77,3,2.88,4.71,4.43a9.81,9.81,0,0,0,7.32,1.92c2-.46.64-2.06.23-2.61s-2.61-2.56-3.11-3.38a13.32,13.32,0,0,0-1.74-2l-7.22-.09Z" transform="translate(-2.25 -62)"/><path class="cls-13" d="M48.87,335.3s-.18,14.2-.06,19.87.43,10.55-1.34,13.35-8,13.05-8.72,16.59-.54,4.33-1,4.51-7.56,1.58-8.42.85-1-4.39,1-10,6.46-14.81,6.58-17-3.47-15.3-3.53-20.91,1-7.56,1-7.56Z" transform="translate(-2.25 -62)"/><path class="cls-6" d="M33.33,342.61c.06,5.61,3.66,18.78,3.53,20.91s-4.63,11.34-6.58,17-1.83,9.27-1,10c.53.45,3.43.09,5.69-.29.28-1.89-1.22-3.35-.93-6,.3-2.8,9.88-16.46,9.39-17.68s.3-1.95.3-3.78A52.64,52.64,0,0,0,41,349.62C39.49,346,37.47,336,37.47,336l-3.08-1H34.3S33.27,337,33.33,342.61Z" transform="translate(-2.25 -62)"/><path class="cls-14" d="M48.11,302.22l.06,1.83a28.94,28.94,0,0,1,3.45,6.31,17.8,17.8,0,0,1,1.52,6.49c.28,2.56-1.8,5.64-1.8,5.64s-1.22-6.77-2.16-11-1.77-7-1.77-7L46,303.32l.82-1,.61-.46Z" transform="translate(-2.25 -62)"/><path class="cls-15" d="M40.06,297.07l-1.61.76a6.53,6.53,0,0,0,3,5.18c3,1.68,4.51,2.75,4.51,2.75l1.13-3.6a5.39,5.39,0,0,1-3.81-1.49A21,21,0,0,1,40.06,297.07Z" transform="translate(-2.25 -62)"/><path class="cls-16" d="M47.44,302l.4-2.66a20.37,20.37,0,0,1,1.37,2.56,5.67,5.67,0,0,1,.31,1.89s-.92-1.61-1.29-1.73A1.82,1.82,0,0,0,47.44,302Z" transform="translate(-2.25 -62)"/><path class="cls-17" d="M37.35,298.53s-4.92,4.51-7,6.08c-2.66,2,2.9,10.45,3.38,16s-1.36,14.2-1.66,17.12-1,5.37,1.16,5.86,15.6.85,17-3.9,2.19-14.88.42-21S37.35,298.53,37.35,298.53Z" transform="translate(-2.25 -62)"/><path class="cls-6" d="M39.56,298.22s-.61.58.27,2,4.73,5.28,6.89,9.21,3.84,7,4.51,10.15a14.79,14.79,0,0,1,.43,4.73,29.22,29.22,0,0,0-4.39-9.55,30.91,30.91,0,0,0-5.33-5.88l.21-1.8-2.56-.88a41.25,41.25,0,0,1-2.11-5.31c-.21-1.25-.27-1.64-.27-1.64A6.54,6.54,0,0,1,39,297.7C39.71,297.43,39.8,297.8,39.56,298.22Z" transform="translate(-2.25 -62)"/><path class="cls-18" d="M39.67,297.42s-.61.58.27,2,4.73,5.27,6.89,9.2,3.84,7,4.51,10.15a14.79,14.79,0,0,1,.43,4.73A29.12,29.12,0,0,0,47.38,314,30.61,30.61,0,0,0,42,308.06l.22-1.8-2.56-.88a41,41,0,0,1-2.11-5.3c-.21-1.25-.27-1.65-.27-1.65a6.39,6.39,0,0,1,1.77-1.52C39.82,296.63,39.91,297,39.67,297.42Z" transform="translate(-2.25 -62)"/><path class="cls-19" d="M47.56,313.62a30.49,30.49,0,0,0-5.33-5.88l.21-1.8-2.56-.89a41,41,0,0,1-2.11-5.3c-.15-.91-.22-1.36-.25-1.55l-.2.23s.06.4.27,1.65a41,41,0,0,0,2.11,5.3l2.56.89L42,308.06A30.61,30.61,0,0,1,47.38,314a29.12,29.12,0,0,1,4.39,9.54,7.34,7.34,0,0,0,0-.87A29,29,0,0,0,47.56,313.62Z" transform="translate(-2.25 -62)"/><path class="cls-20" d="M50.58,303.23c1.71,4.93,3,10.6,2.14,14.63s-1.83,4.45-2,7.19.55,12.93,1.22,13.72,3.17-1.77,4.76-2.38,2.25-1.09,2.25-1.58-4.08-9.7-4.51-13.78,1.83-8.23,1.83-10.43.06-10.54-1.16-11.52-7.43-2.56-7.43-2.56l.61,2.93Z" transform="translate(-2.25 -62)"/><path class="cls-6" d="M48.16,299.29a28.1,28.1,0,0,1,3.42,7.23c1.19,4,1.68,6.37,1.43,9a36.72,36.72,0,0,1-1.38,6.25,19.56,19.56,0,0,0,2.33-9,31.69,31.69,0,0,0-1.07-10l-1.19-.52.4-1.83a10.08,10.08,0,0,0-1.4-2.86,7.18,7.18,0,0,0-2.5-1.19Z" transform="translate(-2.25 -62)"/><path class="cls-21" d="M47.84,299.29a28.27,28.27,0,0,1,3.41,7.23c1.19,4,1.68,6.37,1.44,9a54.76,54.76,0,0,1-1.28,6.65,23.63,23.63,0,0,0,2.22-9.39,31.69,31.69,0,0,0-1.07-10l-1.19-.52.4-1.83a10.08,10.08,0,0,0-1.4-2.86,7.1,7.1,0,0,0-2.5-1.19Z" transform="translate(-2.25 -62)"/><path class="cls-22" d="M49.76,286.28a28.08,28.08,0,0,1,1.07,7.89c0,1.56-.17,3-1,3.76a2.12,2.12,0,0,1-1.93.49,10.86,10.86,0,0,0-.1,1.45c0,.89,0,1.8-.4,2.08-.85.54-3.14-.37-4.94-2.2s-2.16-1.92-2.25-3.29,1.22-5.61,2.71-8.23S49.36,285,49.76,286.28Z" transform="translate(-2.25 -62)"/><path class="cls-23" d="M44.33,292.46c-.33-.45-1.34-.73-2,.43s.21,2.29.12,2.71-1.87,1.86-2.35,1.68c-1.79-.65-4.26-5.83-3-10.47,1.26-4.44,6.39-6.06,10.58-4.19,3.2,1.43,3.51,5.2,2.72,5.26-1.24.08-3,.5-3.27,1.6s-.58,3.75-1.25,4.11S44.84,293.16,44.33,292.46Z" transform="translate(-2.25 -62)"/><path class="cls-24" d="M46.83,300.54a2.55,2.55,0,0,0,1,.33c0-.32,0-.66,0-1a10.86,10.86,0,0,1,.1-1.45,13.89,13.89,0,0,1-3.38-.78C43.2,297.06,45.72,299.82,46.83,300.54Z" transform="translate(-2.25 -62)"/><path class="cls-6" d="M40.58,290.55a24.88,24.88,0,0,1-3.83-1.19c-.07,3.82,1.85,7.39,3.31,7.92.48.18,2.26-1.25,2.35-1.67s-.82-1.56-.12-2.72,1.71-.88,2-.43c.51.7.89,1.5,1.56,1.13.42-.23.69-1.34.91-2.42A24.08,24.08,0,0,1,40.58,290.55Z" transform="translate(-2.25 -62)"/><path class="cls-6" d="M55.82,326.89s-9.43-3.77-12.09-6-4.88-10.35-7-13.59l-3.18,11.91a11,11,0,0,1,.23,1.44,30.87,30.87,0,0,1,0,5c-.2,1.84.58,5.08,2.32,5.7,3.24,1.17,14.65,1.79,14.65,1.79Z" transform="translate(-2.25 -62)"/><path class="cls-25" d="M126.66,295.85h-19v2h0V298c0,3,4.25,5.52,9.48,5.52s9.48-2.47,9.48-5.52v-.07h0Z" transform="translate(-2.25 -62)"/><path class="cls-26" d="M126.66,295.89c0,3.05-4.24,5.52-9.48,5.52s-9.48-2.47-9.48-5.52,4.25-5.52,9.48-5.52S126.66,292.84,126.66,295.89Z" transform="translate(-2.25 -62)"/><path class="cls-27" d="M117.18,301c-5.11,0-9.27-2.37-9.46-5.32a1.49,1.49,0,0,0,0,.21c0,3.05,4.25,5.52,9.48,5.52s9.48-2.47,9.48-5.52a1.49,1.49,0,0,0,0-.21C126.46,298.63,122.3,301,117.18,301Z" transform="translate(-2.25 -62)"/><path class="cls-28" d="M125.4,287.69H109v7.64h0v.07c0,2.64,3.67,4.78,8.21,4.78s8.22-2.14,8.22-4.78c0,0,0,0,0-.07h0Z" transform="translate(-2.25 -62)"/><path class="cls-29" d="M433.23,196.32h-19v2.05h0s0,0,0,.07c0,3.05,4.25,5.52,9.48,5.52s9.48-2.47,9.48-5.52v-.07h0Z" transform="translate(-2.25 -62)"/><path class="cls-30" d="M433.23,196.36c0,3-4.24,5.52-9.48,5.52s-9.48-2.47-9.48-5.52,4.25-5.52,9.48-5.52S433.23,193.31,433.23,196.36Z" transform="translate(-2.25 -62)"/><path class="cls-31" d="M423.75,201.47c-5.11,0-9.27-2.36-9.46-5.32,0,.07,0,.14,0,.21,0,3,4.25,5.52,9.48,5.52s9.48-2.47,9.48-5.52c0-.07,0-.14,0-.21C433,199.11,428.87,201.47,423.75,201.47Z" transform="translate(-2.25 -62)"/><path class="cls-32" d="M432,188.16H415.54v7.64h0v.07c0,2.64,3.68,4.78,8.21,4.78s8.22-2.14,8.22-4.78v-.07h0Z" transform="translate(-2.25 -62)"/><path class="cls-33" d="M226.29,313.64h-19v2h0v.08c0,3.05,4.25,5.52,9.48,5.52s9.48-2.47,9.48-5.52v-.08h0Z" transform="translate(-2.25 -62)"/><path class="cls-34" d="M226.29,313.67c0,3.05-4.24,5.52-9.48,5.52s-9.48-2.47-9.48-5.52,4.25-5.52,9.48-5.52S226.29,310.62,226.29,313.67Z" transform="translate(-2.25 -62)"/><path class="cls-35" d="M216.81,318.78c-5.12,0-9.27-2.36-9.46-5.31a1.36,1.36,0,0,0,0,.2c0,3.05,4.25,5.52,9.48,5.52s9.48-2.47,9.48-5.52a1.36,1.36,0,0,0,0-.2C226.09,316.42,221.93,318.78,216.81,318.78Z" transform="translate(-2.25 -62)"/><path class="cls-36" d="M225,305.47H208.6v7.65h0v.06c0,2.65,3.67,4.79,8.21,4.79s8.22-2.14,8.22-4.79c0,0,0,0,0-.06h0Z" transform="translate(-2.25 -62)"/><path class="cls-37" d="M343.45,90.16l-17,9.78c-1.62.94-.62,2.6,1.68,2.69h.13l-1.81,1c-1.62.94-.62,2.6,1.68,2.69.41,0,.81,31.2,1.22,31.24l14.15-8.12h.06V90.15Z" transform="translate(-2.25 -62)"/><path class="cls-38" d="M284.92,133.83a8,8,0,0,1,3.26,3.8c.53-1.34.57-33.91.13-35.26.91-2.77-.23-5.84-3.39-7.88-6-3.88-16.32-4-22.57-.42-2.64,1.53-4.12,3.47-4.45,5.46-.17,1-2.31,1.5-3.59.76L237.52,90.8v39.34l16.79,9.5c1.28.73,3.42.27,3.59-.77.33-2,1.81-3.93,4.45-5.45C268.6,129.81,278.91,130,284.92,133.83Z" transform="translate(-2.25 -62)"/><path class="cls-39" d="M257.9,138.87c.33-2,1.81-3.93,4.45-5.45,6.25-3.61,16.56-3.47,22.57.41a8,8,0,0,1,3.26,3.8c.53-1.34.57-33.91.13-35.26.91-2.77-.23-5.84-3.39-7.88-6-3.88-16.32-4-22.57-.42-2.64,1.53-4.12,3.47-4.45,5.46Z" transform="translate(-2.25 -62)"/><path class="cls-40" d="M290.48,120.68l-16.87-9.25a1.22,1.22,0,0,1-.48-.44v38.49c-.28.42-.17.92.48,1.3L290.48,160Z" transform="translate(-2.25 -62)"/><path class="cls-41" d="M290.48,160l17.23-9.94c1.63-.94,4.47-.35,4.63,1,.24,2.11,1.83,4.18,4.75,5.75,5.63,3,14.6,3,20.2,0,3-1.62,4.59-3.78,4.72-6h.07V111.55H342c-.14,2.18-1.7,4.34-4.72,6-5.6,3-14.57,3-20.2,0-2.92-1.57-4.51-3.64-4.75-5.75-.16-1.33-3-1.92-4.63-1l-17.23,9.94Z" transform="translate(-2.25 -62)"/><path class="cls-42" d="M262.35,94.07c6.25-3.61,16.56-3.46,22.57.42,4.86,3.14,5,8.73.12,11.89a20.83,20.83,0,0,1-10.09,3c-1.8.1-2.63,1.33-1.34,2.07l16.87,9.25,17.23-9.94c1.63-.94,4.47-.35,4.63,1,.24,2.11,1.83,4.18,4.75,5.75,5.63,3,14.6,3,20.2,0,6.2-3.32,6.31-8.93.35-12.37a21,21,0,0,0-9.55-2.51c-2.3-.09-3.3-1.75-1.68-2.69l17-9.79L296.07,63.49a11.14,11.14,0,0,0-11.14,0L237.52,90.8l16.79,9.49c1.28.74,3.42.28,3.59-.76C258.23,97.54,259.71,95.6,262.35,94.07Z" transform="translate(-2.25 -62)"/><g class="cls-43"><path class="cls-44" d="M284.92,94.49a7.43,7.43,0,0,1,3.66,5.46c.26-2.41-1-4.89-3.66-6.62-6-3.89-16.32-4-22.57-.42-2.64,1.52-4.12,3.46-4.45,5.46-.17,1-2.31,1.5-3.59.76l-15.77-8.92-1,.59,16.79,9.49c1.28.74,3.42.28,3.59-.76.33-2,1.81-3.93,4.45-5.46C268.6,90.46,278.91,90.61,284.92,94.49Z" transform="translate(-2.25 -62)"/><path class="cls-45" d="M337.29,116.34c-5.6,3-14.57,3-20.2,0-2.92-1.57-4.51-3.64-4.75-5.74-.16-1.33-3-1.93-4.63-1l-17.23,9.94-16.87-9.24a1.46,1.46,0,0,1-.35-.27c-.42.44-.38,1,.35,1.43l16.87,9.25,17.23-9.94c1.63-.94,4.47-.35,4.63,1,.24,2.11,1.83,4.18,4.75,5.75,5.63,3,14.6,3,20.2,0,3.45-1.85,5-4.4,4.69-6.9C341.76,112.72,340.21,114.79,337.29,116.34Z" transform="translate(-2.25 -62)"/><path class="cls-46" d="M326.41,98.77c-.83.48-1,1.15-.6,1.71a1.68,1.68,0,0,1,.6-.54l17-9.79-1-.57Z" transform="translate(-2.25 -62)"/></g><path class="cls-47" d="M433.23,108.72h-19v2h0s0,0,0,.08c0,3,4.25,5.52,9.48,5.52s9.48-2.47,9.48-5.52v-.08h0Z" transform="translate(-2.25 -62)"/><ellipse class="cls-48" cx="421.5" cy="46.76" rx="9.48" ry="5.52"/><path class="cls-49" d="M423.75,113.87c-5.11,0-9.27-2.37-9.46-5.32,0,.07,0,.14,0,.21,0,3,4.25,5.52,9.48,5.52s9.48-2.47,9.48-5.52c0-.07,0-.14,0-.21C433,111.5,428.87,113.87,423.75,113.87Z" transform="translate(-2.25 -62)"/><path class="cls-50" d="M13.85,395.89a.57.57,0,0,1-.5-.29.58.58,0,0,1,.22-.79l1.88-1.08A40.77,40.77,0,0,0,34.6,369.1L36,364.22a42.48,42.48,0,0,1,20-25.49L158.74,281l.29.19,51.33,32.22a13,13,0,0,0,12.84.09L427.44,198a10.16,10.16,0,0,0,5.19-8.9l-.27-84.39a5.62,5.62,0,0,0-8.47-4.82L218.21,222a.58.58,0,0,1-.59-1l205.68-122a6.78,6.78,0,0,1,10.22,5.82l.27,84.39a11.35,11.35,0,0,1-5.78,9.92L223.77,314.47a14.15,14.15,0,0,1-14-.11L158.7,282.31,56.51,339.74a41.31,41.31,0,0,0-19.43,24.79l-1.36,4.88A41.9,41.9,0,0,1,16,394.73l-1.89,1.08A.51.51,0,0,1,13.85,395.89Z" transform="translate(-2.25 -62)"/><path class="cls-51" d="M432,100.56H415.54v7.64h0v.07c0,2.64,3.68,4.78,8.21,4.78s8.22-2.14,8.22-4.78v-.07h0Z" transform="translate(-2.25 -62)"/><path class="cls-52" d="M433.23,100.85h-19v2.05h0s0,0,0,.08c0,3,4.25,5.52,9.48,5.52s9.48-2.48,9.48-5.52v-.08h0Z" transform="translate(-2.25 -62)"/><path class="cls-53" d="M433.23,100.89c0,3-4.24,5.52-9.48,5.52s-9.48-2.47-9.48-5.52,4.25-5.52,9.48-5.52S433.23,97.84,433.23,100.89Z" transform="translate(-2.25 -62)"/><path class="cls-54" d="M423.75,106c-5.11,0-9.27-2.36-9.46-5.31,0,.07,0,.13,0,.2,0,3,4.25,5.52,9.48,5.52s9.48-2.47,9.48-5.52c0-.07,0-.13,0-.2C433,103.64,428.87,106,423.75,106Z" transform="translate(-2.25 -62)"/><rect class="cls-55" x="258.59" y="59.1" width="1.16" height="152.73" transform="translate(9.33 229.1) rotate(-59.75)"/><path class="cls-56" d="M186.34,264.88h-19v2.05h0V267c0,3.05,4.24,5.52,9.48,5.52s9.48-2.47,9.48-5.52v-.07h0Z" transform="translate(-2.25 -62)"/><ellipse class="cls-57" cx="174.61" cy="202.92" rx="9.48" ry="5.52"/><path class="cls-58" d="M176.86,270c-5.12,0-9.28-2.36-9.46-5.32a1.49,1.49,0,0,0,0,.21c0,3.05,4.24,5.52,9.48,5.52s9.48-2.47,9.48-5.52a1.49,1.49,0,0,0,0-.21C186.13,267.67,182,270,176.86,270Z" transform="translate(-2.25 -62)"/><path class="cls-59" d="M185.07,256.72H168.64v7.65h0s0,0,0,.06c0,2.64,3.68,4.78,8.22,4.78s8.21-2.14,8.21-4.78v-.06h0Z" transform="translate(-2.25 -62)"/><path class="cls-60" d="M156.75,232.94h-19V235h0v.07c0,3.05,4.24,5.52,9.48,5.52s9.48-2.47,9.48-5.52V235h0Z" transform="translate(-2.25 -62)"/><ellipse class="cls-61" cx="145.02" cy="170.98" rx="9.48" ry="5.52"/><path class="cls-62" d="M147.27,238.09c-5.12,0-9.28-2.36-9.46-5.32a1.49,1.49,0,0,0,0,.21c0,3.05,4.24,5.52,9.48,5.52s9.48-2.47,9.48-5.52a1.49,1.49,0,0,0,0-.21C156.54,235.73,152.39,238.09,147.27,238.09Z" transform="translate(-2.25 -62)"/><path class="cls-63" d="M155.48,224.78H139.06v7.64h0v.07c0,2.64,3.67,4.78,8.21,4.78s8.21-2.14,8.21-4.78v-.07h0Z" transform="translate(-2.25 -62)"/><path class="cls-64" d="M144.56,141.93h-19v2h0v.07c0,3,4.24,5.52,9.48,5.52s9.48-2.47,9.48-5.52a.17.17,0,0,0,0-.07h0Z" transform="translate(-2.25 -62)"/><ellipse class="cls-65" cx="132.83" cy="79.97" rx="9.48" ry="5.52"/><path class="cls-66" d="M135.08,147.08c-5.12,0-9.28-2.36-9.47-5.32,0,.07,0,.14,0,.21,0,3.05,4.24,5.52,9.48,5.52s9.48-2.47,9.48-5.52c0-.07,0-.14,0-.21C144.35,144.72,140.19,147.08,135.08,147.08Z" transform="translate(-2.25 -62)"/><path class="cls-67" d="M143.29,133.77H126.86v7.64h0s0,.05,0,.07c0,2.64,3.68,4.78,8.22,4.78s8.21-2.14,8.21-4.78v-.07h0Z" transform="translate(-2.25 -62)"/><path class="cls-68" d="M287.94,146c0,.64-.46.9-1,.57a2.19,2.19,0,0,1-1-1.73c0-.64.45-.89,1-.57A2.22,2.22,0,0,1,287.94,146Z" transform="translate(-2.25 -62)"/><path class="cls-69" d="M2.83,400.43a.56.56,0,0,1-.51-.31.58.58,0,0,1,.24-.78l5.81-3a45,45,0,0,0,22-25.59l3.26-9.58a46.38,46.38,0,0,1,21.11-25.47l65.91-37.22a11.34,11.34,0,0,0,5.75-9.91l-.58-150.41,69.64-40.2a.58.58,0,0,1,.58,1L127,138.81l.58,149.74a12.5,12.5,0,0,1-6.34,10.92L55.29,336.7a45.15,45.15,0,0,0-20.58,24.83l-3.26,9.58A46.22,46.22,0,0,1,8.91,397.35l-5.81,3A.66.66,0,0,1,2.83,400.43Z" transform="translate(-2.25 -62)"/><path class="cls-70" d="M144.56,134.07h-19v2h0v.08c0,3.05,4.24,5.52,9.48,5.52s9.48-2.47,9.48-5.52a.22.22,0,0,0,0-.08h0Z" transform="translate(-2.25 -62)"/><path class="cls-71" d="M144.56,134.1c0,3.05-4.25,5.53-9.48,5.53s-9.48-2.48-9.48-5.53,4.24-5.52,9.48-5.52S144.56,131.06,144.56,134.1Z" transform="translate(-2.25 -62)"/><path class="cls-72" d="M135.08,139.21c-5.12,0-9.28-2.36-9.47-5.31,0,.07,0,.13,0,.2,0,3.05,4.24,5.53,9.48,5.53s9.48-2.48,9.48-5.53c0-.07,0-.13,0-.2C144.35,136.85,140.19,139.21,135.08,139.21Z" transform="translate(-2.25 -62)"/><polygon class="cls-73" points="283.18 84.87 285.29 83.61 284.3 82.99 282.65 83.91 283.18 84.87"/><path class="cls-74" d="M281.11,147.29c0-1,1.1-1.72,2.56-1.72s2.55.74,2.55,1.72-1.1,1.72-2.55,1.72S281.11,148.27,281.11,147.29Zm1.11,0c0,.22.55.61,1.45.61s1.44-.39,1.44-.61-.55-.61-1.44-.61S282.22,147.07,282.22,147.29Z" transform="translate(-2.25 -62)"/><path class="cls-75" d="M223,167.47a19.84,19.84,0,0,0,8.66-2.63c2.78-1.73,4.05-4,3.85-6.26h.1V119.24l-.1,0c.19,2.24-1.09,4.51-3.85,6.23a20.49,20.49,0,0,1-9.92,2.71c-2.31.08-3.32,1.72-1.68,2.66l1.85,1.07h-.17C219.46,132,223,167.47,223,167.47Zm12.51-43.79v.19a1.21,1.21,0,0,1,0-.19Z" transform="translate(-2.25 -62)"/><path class="cls-76" d="M220.67,151.94c-1.28.74-3.42.26-3.61-.79-.38-2.16-2.12-4.26-5.21-5.84-5.59-2.86-14.82-2.9-20.42-.1-4.46,2.23-6.1,5.55-5,8.61-.5,1.35-.46,33.92.13,35.26a9.9,9.9,0,0,1,4.85-4.53c5.6-2.8,14.83-2.76,20.42.1,3.09,1.58,4.83,3.68,5.21,5.84.19,1,2.33,1.53,3.61.79l18-10.59V141.35Z" transform="translate(-2.25 -62)"/><path class="cls-77" d="M217.06,151.15c-.38-2.16-2.12-4.26-5.21-5.84-5.59-2.86-14.82-2.9-20.42-.1-4.46,2.23-6.1,5.55-5,8.61-.5,1.35-.46,33.92.13,35.26a9.9,9.9,0,0,1,4.85-4.53c5.6-2.8,14.83-2.76,20.42.1,3.09,1.58,4.83,3.68,5.21,5.84Z" transform="translate(-2.25 -62)"/><path class="cls-78" d="M185.19,211.85h0l16.29-9.5c.5-.28.67-.64.6-1V162.23a1,1,0,0,1-.6.78L185.2,172.5h0Z" transform="translate(-2.25 -62)"/><path class="cls-79" d="M185.19,172.51h0L201.49,163c1.27-.73.46-2-1.34-2.07a21.85,21.85,0,0,1-9.48-2.6c-6.35-3.67-6.1-9.69.76-13.13,5.6-2.8,14.83-2.76,20.42.1,3.09,1.58,4.83,3.68,5.21,5.84.19,1,2.33,1.53,3.61.79l18-10.59-18.6-10.48c-1.64-.94-.63-2.58,1.68-2.66a20.49,20.49,0,0,0,9.92-2.71c5.19-3.23,5.17-8.41-.05-11.66-5.79-3.61-15.51-3.7-21.43-.28-2.65,1.52-4.08,3.49-4.29,5.5-.14,1.33-3,1.89-4.65,1l-16.59-9.42h0L131.2,141.74h0Z" transform="translate(-2.25 -62)"/><g class="cls-43"><path class="cls-80" d="M231.69,124.27a20.6,20.6,0,0,1-9.92,2.71c-1.94.06-3,1.23-2.26,2.16a2.89,2.89,0,0,1,2.26-.93,20.49,20.49,0,0,0,9.92-2.71c2.84-1.77,4.11-4.11,3.83-6.41C235.29,121,234,122.82,231.69,124.27Z" transform="translate(-2.25 -62)"/><path class="cls-81" d="M220.67,150.71c-1.28.74-3.42.25-3.61-.79-.38-2.16-2.12-4.26-5.21-5.84-5.59-2.86-14.82-2.9-20.42-.1-3.88,1.94-5.64,4.72-5.3,7.42.25-2.29,2-4.54,5.3-6.19,5.6-2.8,14.83-2.76,20.42.1,3.09,1.58,4.83,3.68,5.21,5.84.19,1,2.33,1.53,3.61.79l18-10.59-1.07-.6Z" transform="translate(-2.25 -62)"/><path class="cls-82" d="M201.49,161.78l-16.29,9.49h0l-52.93-30.15-1.06.61h0l54,30.76h0L201.49,163c.74-.42.76-1,.31-1.46A1.56,1.56,0,0,1,201.49,161.78Z" transform="translate(-2.25 -62)"/></g><polygon class="cls-83" points="182.95 110.5 182.95 149.85 128.95 119.09 128.95 79.75 182.95 110.5"/><path class="cls-84" d="M16,399.56a.57.57,0,0,1-.48-.25.59.59,0,0,1,.15-.81A38.81,38.81,0,0,0,30.78,378l5.75-18.62a39.68,39.68,0,0,1,18.58-23l126.75-71.06a3.48,3.48,0,0,0,.11-6l-41.79-25.71a4.17,4.17,0,0,1-2-3.69,4.22,4.22,0,0,1,2.17-3.6l142.92-79.45a.58.58,0,0,1,.56,1L140.9,227.31a3.05,3.05,0,0,0-.12,5.28l41.8,25.71a4.64,4.64,0,0,1-.15,8L55.68,337.37a38.46,38.46,0,0,0-18,22.33l-5.75,18.62a40,40,0,0,1-15.58,21.14A.58.58,0,0,1,16,399.56Z" transform="translate(-2.25 -62)"/><path class="cls-85" d="M341.76,157.26l-1.85-1.07h.18c2.3-.08,3.31-1.71,1.67-2.66L324.1,143.43h0v39.34l14.72,8.39c.42,0,.84-31.22,1.27-31.23C342.39,159.85,343.4,158.21,341.76,157.26Z" transform="translate(-2.25 -62)"/><path class="cls-86" d="M339.91,186.4l.1.06a.17.17,0,0,0,0-.07Z" transform="translate(-2.25 -62)"/><path class="cls-87" d="M341.76,184.47l-1.85-1.07h.18c2.3-.08,3.31-1.71,1.67-1.86L324.1,171.44v3.19h0l17.66,10.09a1.44,1.44,0,0,1,.8,1C342.62,185.28,342.38,184.83,341.76,184.47Z" transform="translate(-2.25 -62)"/><path class="cls-88" d="M370.67,127.76a21.72,21.72,0,0,0-9.48-2.6c-1.16-.07-1.9-.61-1.95-1.17h0v39.34h0c0,.57.78,1.11,1.95,1.18a21.85,21.85,0,0,1,9.48,2.6,9.41,9.41,0,0,1,4.09,4.15c.59-1.34.63-33.9.13-35.26C376,133.12,374.55,130,370.67,127.76Z" transform="translate(-2.25 -62)"/><polygon class="cls-89" points="427.78 81.95 375.08 111.81 375.08 151.15 427.78 121.29 427.78 81.95"/><path class="cls-90" d="M360.58,164.38c-1.63-.94-4.5-.37-4.65,1-.21,2-1.64,4-4.29,5.51-5.92,3.42-15.64,3.32-21.42-.28-2.56-1.6-3.86-3.65-3.93-5.71h0v39.35h0c.06,2.06,1.36,4.12,3.93,5.72,5.78,3.6,15.5,3.7,21.42.28,2.65-1.53,4.08-3.5,4.29-5.5.15-1.33,3-1.9,4.65-1l16.75,9.42V173.81Z" transform="translate(-2.25 -62)"/><path class="cls-91" d="M355.93,165.33c-.21,2-1.64,4-4.29,5.51-5.92,3.42-15.64,3.32-21.42-.28-2.56-1.6-3.86-3.65-3.93-5.71h0v39.35h0c.06,2.06,1.36,4.12,3.93,5.72,5.78,3.6,15.5,3.7,21.42.28,2.65-1.53,4.08-3.5,4.29-5.5Z" transform="translate(-2.25 -62)"/><path class="cls-92" d="M377.33,201.81l-16.75-9.42c-1.63-.94-4.51-.38-4.65,1-.21,2-1.64,4-4.29,5.5-5.92,3.42-15.64,3.33-21.42-.28-2.56-1.59-3.86-3.64-3.93-5.7h0v3.2h0c.07,2.06,1.37,4.12,3.93,5.71,5.78,3.6,15.5,3.7,21.42.28,2.65-1.53,4.08-3.5,4.29-5.5.14-1.33,3-1.9,4.65-.95L377.33,205,430,175.15V172Z" transform="translate(-2.25 -62)"/><path class="cls-93" d="M430.08,144l-53.22-30.38-17,9.5c-1.28.74-.46,2,1.34,2.08a21.72,21.72,0,0,1,9.48,2.6c6.35,3.66,6.1,9.69-.76,13.12-5.6,2.8-14.83,2.76-20.42-.09-3.09-1.59-4.83-3.69-5.21-5.85-.19-1-2.33-1.53-3.61-.79l-16.57,9.28,17.66,10.09c1.64.95.63,2.58-1.67,2.66a20.57,20.57,0,0,0-9.92,2.71c-5.2,3.24-5.18,8.41.05,11.67,5.78,3.6,15.5,3.7,21.42.28,2.65-1.53,4.08-3.5,4.29-5.51.14-1.32,3-1.89,4.65-1l16.75,9.43Z" transform="translate(-2.25 -62)"/><g class="cls-43"><path class="cls-94" d="M361.19,125.16a21.72,21.72,0,0,1,9.48,2.6c2.76,1.59,4.27,3.63,4.54,5.72.25-2.48-1.25-5-4.54-6.92a21.85,21.85,0,0,0-9.48-2.6,2.48,2.48,0,0,1-1.66-.63C358.77,124.07,359.58,125.07,361.19,125.16Z" transform="translate(-2.25 -62)"/><path class="cls-95" d="M377.33,172.61l-16.75-9.42c-1.63-.95-4.51-.38-4.65.95-.21,2-1.64,4-4.29,5.5-5.92,3.42-15.64,3.32-21.42-.28-2.38-1.48-3.67-3.36-3.89-5.28-.28,2.31,1,4.68,3.89,6.48,5.78,3.6,15.5,3.7,21.42.28,2.65-1.53,4.08-3.5,4.29-5.51.14-1.32,3-1.89,4.65-1l16.75,9.43L430.08,144l-1.05-.6Z" transform="translate(-2.25 -62)"/><path class="cls-96" d="M342.36,154c.39-.55.26-1.23-.6-1.72l-16.6-9.48-1.06.59,17.66,10.09A1.75,1.75,0,0,1,342.36,154Z" transform="translate(-2.25 -62)"/></g><path class="cls-97" d="M234.42,165.29c0,.63.45.89,1,.57a2.21,2.21,0,0,0,1-1.73c0-.64-.45-.9-1-.58A2.23,2.23,0,0,0,234.42,165.29Z" transform="translate(-2.25 -62)"/><path class="cls-98" d="M350.75,234.48h-19v2h0v.08c0,3.05,4.24,5.52,9.48,5.52s9.48-2.47,9.48-5.52c0,0,0,0,0-.08h0Z" transform="translate(-2.25 -62)"/><path class="cls-99" d="M350.75,234.51c0,3.05-4.25,5.52-9.48,5.52s-9.48-2.47-9.48-5.52S336,229,341.27,229,350.75,231.47,350.75,234.51Z" transform="translate(-2.25 -62)"/><path class="cls-100" d="M341.27,239.62c-5.12,0-9.28-2.36-9.47-5.31,0,.07,0,.13,0,.2,0,3.05,4.24,5.52,9.48,5.52s9.48-2.47,9.48-5.52c0-.07,0-.13,0-.2C350.54,237.26,346.38,239.62,341.27,239.62Z" transform="translate(-2.25 -62)"/><path class="cls-101" d="M349.48,226.31H333.05V234h0V234c0,2.65,3.68,4.79,8.22,4.79s8.21-2.14,8.21-4.79V234h0Z" transform="translate(-2.25 -62)"/><path class="cls-102" d="M268.36,281.18h-19v2h0v.08c0,3.05,4.24,5.52,9.48,5.52s9.48-2.47,9.48-5.52v-.08h0Z" transform="translate(-2.25 -62)"/><path class="cls-103" d="M268.36,281.21c0,3.05-4.24,5.53-9.48,5.53s-9.48-2.48-9.48-5.53,4.24-5.52,9.48-5.52S268.36,278.17,268.36,281.21Z" transform="translate(-2.25 -62)"/><path class="cls-104" d="M258.88,286.32c-5.12,0-9.27-2.36-9.46-5.31a1.36,1.36,0,0,0,0,.2c0,3.05,4.24,5.53,9.48,5.53s9.48-2.48,9.48-5.53a1.36,1.36,0,0,0,0-.2C268.15,284,264,286.32,258.88,286.32Z" transform="translate(-2.25 -62)"/><polygon class="cls-105" points="234.79 104.22 232.69 102.95 233.67 102.33 235.32 103.25 234.79 104.22"/><path class="cls-106" d="M238.8,168.35c-1.45,0-2.55-.73-2.55-1.71s1.1-1.72,2.55-1.72,2.56.74,2.56,1.72S240.26,168.35,238.8,168.35Zm0-2.32c-.89,0-1.44.39-1.44.61s.55.61,1.44.61,1.45-.4,1.45-.61S239.7,166,238.8,166Z" transform="translate(-2.25 -62)"/><path class="cls-107" d="M267.09,273H250.67v7.65h0v.07c0,2.64,3.67,4.78,8.21,4.78s8.21-2.14,8.21-4.78v-.07h0Z" transform="translate(-2.25 -62)"/><path class="cls-108" d="M12.6,400.63a.6.6,0,0,1-.44-.2.58.58,0,0,1,.05-.82l3.72-3.26A51.75,51.75,0,0,0,30.7,374.41L34,365A52.83,52.83,0,0,1,58,336.22L199.29,257a11.72,11.72,0,0,1,11.12-.15l42.08,24.19a13.64,13.64,0,0,0,13-.22l81.41-46.2a3,3,0,0,0,0-5.27L238.78,167.25a.58.58,0,1,1,.57-1l108.17,62.11a4.19,4.19,0,0,1,0,7.29l-81.41,46.2a14.81,14.81,0,0,1-14.15.23l-42.07-24.19a10.55,10.55,0,0,0-10,.14L58.61,337.24A51.66,51.66,0,0,0,35,365.4l-3.25,9.39a53,53,0,0,1-15.1,22.44L13,400.48A.57.57,0,0,1,12.6,400.63Z" transform="translate(-2.25 -62)"/><path class="cls-109" d="M433.23,188.46h-19v2h0s0,.05,0,.08c0,3,4.25,5.52,9.48,5.52s9.48-2.47,9.48-5.52v-.08h0Z" transform="translate(-2.25 -62)"/><ellipse class="cls-110" cx="421.5" cy="126.49" rx="9.48" ry="5.52"/><path class="cls-111" d="M423.75,193.6c-5.11,0-9.27-2.36-9.46-5.31,0,.07,0,.13,0,.2,0,3,4.25,5.52,9.48,5.52s9.48-2.47,9.48-5.52c0-.07,0-.13,0-.2C433,191.24,428.87,193.6,423.75,193.6Z" transform="translate(-2.25 -62)"/><path class="cls-112" d="M350.75,226.61h-19v2h0v.07c0,3.05,4.24,5.52,9.48,5.52s9.48-2.47,9.48-5.52c0,0,0,0,0-.07h0Z" transform="translate(-2.25 -62)"/><ellipse class="cls-113" cx="339.02" cy="164.65" rx="9.48" ry="5.52"/><path class="cls-114" d="M341.27,231.76c-5.12,0-9.28-2.36-9.47-5.32,0,.07,0,.14,0,.21,0,3,4.24,5.52,9.48,5.52s9.48-2.47,9.48-5.52c0-.07,0-.14,0-.21C350.54,229.4,346.38,231.76,341.27,231.76Z" transform="translate(-2.25 -62)"/><path class="cls-115" d="M214.32,262.58h-19v2h0s0,.05,0,.08c0,3.05,4.25,5.52,9.48,5.52s9.48-2.47,9.48-5.52v-.08h0Z" transform="translate(-2.25 -62)"/><path class="cls-116" d="M214.32,262.62c0,3.05-4.24,5.52-9.48,5.52s-9.48-2.47-9.48-5.52,4.25-5.52,9.48-5.52S214.32,259.57,214.32,262.62Z" transform="translate(-2.25 -62)"/><path class="cls-117" d="M204.84,267.72c-5.11,0-9.27-2.36-9.46-5.31,0,.07,0,.14,0,.21,0,3.05,4.25,5.52,9.48,5.52s9.48-2.47,9.48-5.52c0-.07,0-.14,0-.21C214.12,265.36,210,267.72,204.84,267.72Z" transform="translate(-2.25 -62)"/><path class="cls-118" d="M213.06,254.41H196.63v7.65h0v.07c0,2.64,3.68,4.78,8.21,4.78s8.22-2.14,8.22-4.78v-.07h0Z" transform="translate(-2.25 -62)"/><path class="cls-119" d="M214.32,254.71h-19v2h0s0,.05,0,.07c0,3.05,4.25,5.53,9.48,5.53s9.48-2.48,9.48-5.53v-.07h0Z" transform="translate(-2.25 -62)"/><path class="cls-120" d="M214.32,254.75c0,3.05-4.24,5.52-9.48,5.52s-9.48-2.47-9.48-5.52,4.25-5.52,9.48-5.52S214.32,251.7,214.32,254.75Z" transform="translate(-2.25 -62)"/><path class="cls-121" d="M204.84,259.86c-5.11,0-9.27-2.36-9.46-5.31,0,.06,0,.13,0,.2,0,3.05,4.25,5.52,9.48,5.52s9.48-2.47,9.48-5.52c0-.07,0-.14,0-.2C214.12,257.5,210,259.86,204.84,259.86Z" transform="translate(-2.25 -62)"/><path class="cls-122" d="M226.29,305.77h-19v2.05h0v.07c0,3.05,4.25,5.52,9.48,5.52s9.48-2.47,9.48-5.52v-.07h0Z" transform="translate(-2.25 -62)"/><ellipse class="cls-123" cx="214.56" cy="243.81" rx="9.48" ry="5.52"/><path class="cls-124" d="M216.81,310.92c-5.12,0-9.27-2.36-9.46-5.32a1.49,1.49,0,0,0,0,.21c0,3.05,4.25,5.52,9.48,5.52s9.48-2.47,9.48-5.52a1.49,1.49,0,0,0,0-.21C226.09,308.56,221.93,310.92,216.81,310.92Z" transform="translate(-2.25 -62)"/><path class="cls-125" d="M205.87,106.4h-19v2h0v.08c0,3,4.24,5.52,9.48,5.52s9.48-2.47,9.48-5.52a.22.22,0,0,0,0-.08h0Z" transform="translate(-2.25 -62)"/><ellipse class="cls-126" cx="194.14" cy="44.43" rx="9.48" ry="5.52"/><path class="cls-127" d="M196.39,111.54c-5.12,0-9.28-2.36-9.47-5.31,0,.07,0,.14,0,.2,0,3,4.24,5.53,9.48,5.53s9.48-2.48,9.48-5.53c0-.06,0-.13,0-.2C205.66,109.18,201.5,111.54,196.39,111.54Z" transform="translate(-2.25 -62)"/><path class="cls-128" d="M204.6,98.23H188.17v7.65h0s0,0,0,.07c0,2.64,3.68,4.78,8.22,4.78s8.21-2.14,8.21-4.78v-.07h0Z" transform="translate(-2.25 -62)"/><path class="cls-129" d="M205.87,98.53h-19v2h0v.07c0,3,4.24,5.52,9.48,5.52s9.48-2.47,9.48-5.52a.17.17,0,0,0,0-.07h0Z" transform="translate(-2.25 -62)"/><ellipse class="cls-130" cx="194.14" cy="36.57" rx="9.48" ry="5.52"/><path class="cls-131" d="M196.39,103.68c-5.12,0-9.28-2.36-9.47-5.32,0,.07,0,.14,0,.21,0,3.05,4.24,5.52,9.48,5.52s9.48-2.47,9.48-5.52c0-.07,0-.14,0-.21C205.66,101.32,201.5,103.68,196.39,103.68Z" transform="translate(-2.25 -62)"/><path class="cls-132" d="M169.09,290.2h-19v2h0v.08c0,3.05,4.24,5.52,9.48,5.52s9.48-2.47,9.48-5.52c0,0,0-.05,0-.08h0Z" transform="translate(-2.25 -62)"/><path class="cls-133" d="M169.09,290.24c0,3.05-4.25,5.52-9.48,5.52s-9.48-2.47-9.48-5.52,4.24-5.52,9.48-5.52S169.09,287.19,169.09,290.24Z" transform="translate(-2.25 -62)"/><path class="cls-134" d="M159.61,295.34c-5.12,0-9.28-2.36-9.47-5.31,0,.07,0,.14,0,.21,0,3.05,4.24,5.52,9.48,5.52s9.48-2.47,9.48-5.52c0-.07,0-.14,0-.21C168.88,293,164.72,295.34,159.61,295.34Z" transform="translate(-2.25 -62)"/><path class="cls-135" d="M167.82,282H151.39v7.65h0s0,0,0,.07c0,2.64,3.68,4.78,8.22,4.78s8.21-2.14,8.21-4.78v-.07h0Z" transform="translate(-2.25 -62)"/><path class="cls-136" d="M169.09,282.33h-19v2.05h0v.07c0,3.05,4.24,5.53,9.48,5.53s9.48-2.48,9.48-5.53c0,0,0-.05,0-.07h0Z" transform="translate(-2.25 -62)"/><path class="cls-137" d="M169.09,282.37c0,3.05-4.25,5.52-9.48,5.52s-9.48-2.47-9.48-5.52,4.24-5.52,9.48-5.52S169.09,279.32,169.09,282.37Z" transform="translate(-2.25 -62)"/><path class="cls-138" d="M159.61,287.48c-5.12,0-9.28-2.36-9.47-5.31,0,.06,0,.13,0,.2,0,3.05,4.24,5.52,9.48,5.52s9.48-2.47,9.48-5.52c0-.07,0-.14,0-.2C168.88,285.12,164.72,287.48,159.61,287.48Z" transform="translate(-2.25 -62)"/><path class="cls-139" d="M126.66,288h-19v2h0v.08c0,3.05,4.25,5.52,9.48,5.52s9.48-2.47,9.48-5.52V290h0Z" transform="translate(-2.25 -62)"/><path class="cls-140" d="M126.66,288c0,3.05-4.24,5.52-9.48,5.52s-9.48-2.47-9.48-5.52,4.25-5.52,9.48-5.52S126.66,285,126.66,288Z" transform="translate(-2.25 -62)"/><path class="cls-141" d="M117.18,293.13c-5.11,0-9.27-2.36-9.46-5.31a1.36,1.36,0,0,0,0,.2c0,3.05,4.25,5.52,9.48,5.52s9.48-2.47,9.48-5.52a1.36,1.36,0,0,0,0-.2C126.46,290.77,122.3,293.13,117.18,293.13Z" transform="translate(-2.25 -62)"/><path class="cls-142" d="M186.34,257h-19v2h0v.08c0,3.05,4.24,5.52,9.48,5.52s9.48-2.47,9.48-5.52v-.08h0Z" transform="translate(-2.25 -62)"/><path class="cls-143" d="M186.34,257.06c0,3-4.25,5.52-9.48,5.52s-9.48-2.48-9.48-5.52,4.24-5.52,9.48-5.52S186.34,254,186.34,257.06Z" transform="translate(-2.25 -62)"/><path class="cls-144" d="M176.86,262.16c-5.12,0-9.28-2.36-9.46-5.31a1.49,1.49,0,0,0,0,.21c0,3,4.24,5.52,9.48,5.52s9.48-2.48,9.48-5.52a1.49,1.49,0,0,0,0-.21C186.13,259.8,182,262.16,176.86,262.16Z" transform="translate(-2.25 -62)"/><path class="cls-145" d="M156.75,225.08h-19v2h0v.08c0,3.05,4.24,5.52,9.48,5.52s9.48-2.47,9.48-5.52v-.08h0Z" transform="translate(-2.25 -62)"/><path class="cls-146" d="M156.75,225.12c0,3-4.24,5.52-9.48,5.52s-9.48-2.48-9.48-5.52,4.24-5.53,9.48-5.53S156.75,222.07,156.75,225.12Z" transform="translate(-2.25 -62)"/><path class="cls-147" d="M147.27,230.22c-5.12,0-9.28-2.36-9.46-5.31a1.49,1.49,0,0,0,0,.21c0,3,4.24,5.52,9.48,5.52s9.48-2.48,9.48-5.52a1.49,1.49,0,0,0,0-.21C156.54,227.86,152.39,230.22,147.27,230.22Z" transform="translate(-2.25 -62)"/><path class="cls-148" d="M268.36,273.31h-19v2.05h0v.07c0,3.05,4.24,5.52,9.48,5.52s9.48-2.47,9.48-5.52v-.07h0Z" transform="translate(-2.25 -62)"/><ellipse class="cls-149" cx="256.63" cy="211.35" rx="9.48" ry="5.52"/><path class="cls-150" d="M258.88,278.46c-5.12,0-9.27-2.36-9.46-5.32a1.49,1.49,0,0,0,0,.21c0,3,4.24,5.52,9.48,5.52s9.48-2.47,9.48-5.52a1.49,1.49,0,0,0,0-.21C268.15,276.1,264,278.46,258.88,278.46Z" transform="translate(-2.25 -62)"/><path class="cls-151" d="M234.14,190.73H234l1.81-1c1.62-.94.62-2.6-1.68-2.69a21.11,21.11,0,0,1-9.55-2.52c-2.55-1.47-4-3.34-4.31-5.25V182a5.11,5.11,0,0,0,0,1.61v33.29c-.43,2.48,1,5,4.31,7a20.57,20.57,0,0,0,8.33,2.43l2.9-32.83C237.44,192.48,236.44,190.82,234.14,190.73Z" transform="translate(-2.25 -62)"/><path class="cls-152" d="M286,181.18a20.83,20.83,0,0,0-10.09,3c-3.18,2.08-4.3,5-3.37,7.76-.46,1.35-.42,33.92.13,35.26a8.22,8.22,0,0,1,3.24-3.68,20.72,20.72,0,0,1,10.09-3c1.18-.07,1.93-.62,1.95-1.21V180.08C287.84,180.63,287.1,181.12,286,181.18Z" transform="translate(-2.25 -62)"/><path class="cls-153" d="M269.58,230.15l52.72-30.38h0l-15.66-9.52c-1.28-.74-3.42-.28-3.59.76-.33,2-1.81,3.93-4.44,5.46-6.31,3.64-16.75,3.46-22.74-.52-4.89-3.26-4.87-8.58,0-11.79a20.83,20.83,0,0,1,10.09-3c1.8-.1,2.63-1.33,1.34-2.07l-16.45-9.72-16.36,9.49c-1.63.94-4.47.34-4.63-1-.24-2.1-1.83-4.17-4.75-5.74-5.63-3-14.6-3-20.2-.05-6.2,3.32-6.31,8.93-.35,12.37a21.11,21.11,0,0,0,9.55,2.52c2.3.09,3.3,1.75,1.68,2.69l-17.66,10.09h0Z" transform="translate(-2.25 -62)"/><g class="cls-43"><path class="cls-154" d="M224.59,184.47a21.11,21.11,0,0,0,9.55,2.52,2.86,2.86,0,0,1,2.25.94c.7-.93-.31-2.12-2.25-2.19a21.23,21.23,0,0,1-9.55-2.51c-2.62-1.52-4.07-3.45-4.34-5.42C220,180.2,221.41,182.64,224.59,184.47Z" transform="translate(-2.25 -62)"/><path class="cls-155" d="M286,179.94a20.72,20.72,0,0,0-10.09,3c-2.71,1.77-3.92,4.18-3.65,6.53a7.39,7.39,0,0,1,3.65-5.28,20.83,20.83,0,0,1,10.09-3c1.63-.09,2.45-1.1,1.64-1.84A2.65,2.65,0,0,1,286,179.94Z" transform="translate(-2.25 -62)"/><polygon class="cls-156" points="320.04 137.77 318.99 137.13 267.33 166.9 216.99 137.15 215.91 137.77 215.92 137.77 215.92 137.77 267.33 168.15 320.05 137.77 320.04 137.77 320.04 137.77"/></g><polygon class="cls-157" points="320.04 137.77 320.04 177.11 267.33 207.49 267.33 168.15 320.04 137.77"/><polygon class="cls-158" points="267.33 168.15 267.33 207.49 215.91 177.11 215.91 137.77 267.33 168.15"/><path class="cls-159" d="M144.37,300.87c-1.54,0-2.78.73-2.78,1.62s1.24,1.63,2.78,1.63,2.79-.73,2.79-1.63S145.91,300.87,144.37,300.87ZM115.11,319l-2,1.17a.58.58,0,0,0,.29,1.08.51.51,0,0,0,.29-.08l2-1.16a.59.59,0,0,0,.21-.8A.58.58,0,0,0,115.11,319Zm-5,2.92-2,1.16a.58.58,0,0,0,.29,1.09.6.6,0,0,0,.29-.08l2-1.17a.58.58,0,1,0-.59-1Zm-10,5.83-2,1.17a.58.58,0,0,0,.3,1.08.6.6,0,0,0,.29-.08l2-1.16a.59.59,0,0,0,.21-.8A.57.57,0,0,0,100.06,327.74Zm5-2.91-2,1.16a.58.58,0,0,0,.29,1.08.59.59,0,0,0,.29-.07l2-1.17a.58.58,0,0,0,.21-.79A.57.57,0,0,0,105.08,324.83Zm25.08-14.59-2,1.17a.58.58,0,0,0,.29,1.08.51.51,0,0,0,.29-.08l2-1.16a.59.59,0,0,0,.21-.8A.58.58,0,0,0,130.16,310.24Zm5-2.91-2,1.16a.59.59,0,0,0-.21.8.58.58,0,0,0,.8.21l2-1.17a.57.57,0,0,0,.21-.79A.57.57,0,0,0,135.17,307.33Zm5-2.92-2,1.17a.58.58,0,0,0,.29,1.08.6.6,0,0,0,.29-.08l2-1.16a.59.59,0,0,0,.21-.8A.58.58,0,0,0,140.19,304.41Zm-15,8.75-2,1.17a.58.58,0,0,0,.29,1.08.67.67,0,0,0,.3-.08l2-1.17a.58.58,0,0,0-.58-1Zm-5,2.92-2,1.16a.59.59,0,0,0-.21.8.57.57,0,0,0,.5.28.59.59,0,0,0,.29-.07l2-1.17a.58.58,0,1,0-.59-1Zm-28,17.49,5.85-1.63-3.51-2.34Z" transform="translate(-2.25 -62)"/><path class="cls-160" d="M396.32,229.24c-1.54,0-2.79.73-2.79,1.63s1.25,1.62,2.79,1.62,2.79-.73,2.79-1.62S397.86,229.24,396.32,229.24ZM327,271l-2,1.16a.59.59,0,0,0-.21.8.57.57,0,0,0,.5.28.59.59,0,0,0,.29-.07l2-1.17a.58.58,0,1,0-.59-1Zm-5,2.91-2,1.17a.58.58,0,0,0,.29,1.08.51.51,0,0,0,.29-.08l2-1.16a.59.59,0,0,0,.21-.8A.58.58,0,0,0,322,273.92Zm-10,5.83-2,1.17a.58.58,0,0,0,.29,1.08.51.51,0,0,0,.29-.08l2-1.16a.58.58,0,0,0-.58-1Zm5-2.91L315,278a.59.59,0,0,0-.22.8.58.58,0,0,0,.8.21l2-1.17a.57.57,0,0,0,.21-.79A.57.57,0,0,0,317,276.84Zm25.08-14.58-2,1.16a.59.59,0,0,0-.21.8.58.58,0,0,0,.8.21l2-1.17a.57.57,0,0,0,.21-.79A.57.57,0,0,0,342.07,262.26Zm5-2.92-2,1.17a.58.58,0,0,0,.29,1.08.6.6,0,0,0,.29-.08l2-1.16a.59.59,0,0,0,.21-.8A.58.58,0,0,0,347.09,259.34Zm5-2.92-2,1.17a.57.57,0,0,0-.21.79.56.56,0,0,0,.5.29.51.51,0,0,0,.29-.08l2-1.16a.58.58,0,0,0,.22-.79A.59.59,0,0,0,352.1,256.42Zm-15.05,8.75-2,1.17a.58.58,0,0,0,.29,1.08.51.51,0,0,0,.29-.08l2-1.16a.59.59,0,0,0,.21-.8A.59.59,0,0,0,337.05,265.17Zm-5,2.92-2,1.17a.58.58,0,0,0-.21.79.6.6,0,0,0,.5.29.67.67,0,0,0,.3-.08l2-1.17a.58.58,0,0,0-.58-1Zm34.81-20.45-2,1.16a.59.59,0,0,0-.21.8.58.58,0,0,0,.8.21l2-1.17a.57.57,0,0,0,.21-.79A.57.57,0,0,0,366.85,247.64Zm-5,2.91-2,1.17a.58.58,0,0,0,.29,1.08.51.51,0,0,0,.29-.08l2-1.16a.59.59,0,0,0,.21-.8A.58.58,0,0,0,361.84,250.55Zm-5,2.92-2,1.17a.58.58,0,0,0,.3,1.08.67.67,0,0,0,.29-.08l2-1.17a.58.58,0,0,0-.58-1Zm25.08-14.58-2,1.16a.58.58,0,0,0,.29,1.09.67.67,0,0,0,.3-.08l2-1.17a.58.58,0,0,0-.58-1Zm5-2.92-2,1.17a.58.58,0,0,0-.21.79.56.56,0,0,0,.5.29.51.51,0,0,0,.29-.08l2-1.16a.59.59,0,0,0,.21-.8A.59.59,0,0,0,386.91,236Zm5-2.91-2,1.16a.59.59,0,0,0,.59,1l2-1.17a.58.58,0,0,0,.21-.79A.57.57,0,0,0,391.93,233.06Zm-15.05,8.75-2,1.16a.58.58,0,0,0-.21.79.56.56,0,0,0,.5.29.59.59,0,0,0,.29-.07l2-1.17a.59.59,0,0,0,.21-.79A.58.58,0,0,0,376.88,241.81Zm-5,2.91-2,1.17a.58.58,0,0,0,.29,1.08.6.6,0,0,0,.29-.08l2-1.17a.58.58,0,0,0-.58-1ZM304,285.59l5.84-1.64-3.5-2.34Z" transform="translate(-2.25 -62)"/><path class="cls-161" d="M115.84,225.78a.58.58,0,1,0-1.16,0v2.33a.58.58,0,1,0,1.16,0Zm0-17.4a.58.58,0,0,0-1.16,0v2.32a.58.58,0,0,0,1.16,0Zm0-5.8a.58.58,0,1,0-1.16,0v2.32a.58.58,0,1,0,1.16,0Zm0,11.6a.58.58,0,1,0-1.16,0v2.32a.58.58,0,0,0,1.16,0Zm0,5.8a.58.58,0,0,0-1.16,0v2.32a.58.58,0,1,0,1.16,0Zm0,23.21a.58.58,0,0,0-1.16,0v2.32a.58.58,0,0,0,1.16,0Zm0-5.8a.58.58,0,0,0-1.16,0v2.32a.58.58,0,1,0,1.16,0Zm-.58,11a.58.58,0,0,0-.58.58v2.32a.58.58,0,1,0,1.16,0V249A.58.58,0,0,0,115.26,248.41Zm.58-16.82a.58.58,0,1,0-1.16,0v2.32a.58.58,0,0,0,1.16,0Zm0-69.63a.58.58,0,1,0-1.16,0v2.32a.58.58,0,0,0,1.16,0Zm0,34.82a.58.58,0,1,0-1.16,0v2.32a.58.58,0,0,0,1.16,0Zm0-29a.58.58,0,1,0-1.16,0v2.32a.58.58,0,1,0,1.16,0Zm0,5.8a.58.58,0,0,0-1.16,0v2.32a.58.58,0,0,0,1.16,0Zm0,17.4a.58.58,0,1,0-1.16,0v2.32a.58.58,0,0,0,1.16,0Zm0-5.8a.58.58,0,0,0-1.16,0v2.32a.58.58,0,1,0,1.16,0Zm0-5.8a.58.58,0,1,0-1.16,0v2.32a.58.58,0,0,0,1.16,0Zm-.58-19.73a2.32,2.32,0,1,0-2.32-2.32A2.32,2.32,0,0,0,115.26,159.64Zm0,98.27,2.06-4.64h-4.11Z" transform="translate(-2.25 -62)"/><path class="cls-162" d="M443.65,152.6a.58.58,0,0,0-1.16,0v2.32a.58.58,0,0,0,1.16,0Zm0-5.81a.58.58,0,0,0-1.16,0v2.32a.58.58,0,0,0,1.16,0Zm-.58,16.83a.58.58,0,0,0-.58.58v2.32a.58.58,0,0,0,1.16,0V164.2A.58.58,0,0,0,443.07,163.62Zm.58-5.22a.58.58,0,1,0-1.16,0v2.32a.58.58,0,0,0,1.16,0Zm0-29a.58.58,0,0,0-1.16,0v2.32a.58.58,0,0,0,1.16,0Zm0,42.93V170a.58.58,0,1,0-1.16,0v2.32a.51.51,0,0,0,.1.3H441l2.05,4.65,2.06-4.65h-1.57A.59.59,0,0,0,443.65,172.32Zm0-31.33a.58.58,0,1,0-1.16,0v2.32a.58.58,0,0,0,1.16,0Zm0-5.8a.58.58,0,0,0-1.16,0v2.32a.58.58,0,0,0,1.16,0Zm-.58-8.12a2.32,2.32,0,1,0-2.32-2.32A2.32,2.32,0,0,0,443.07,127.07Z" transform="translate(-2.25 -62)"/><path class="cls-163" d="M55.33,334c1.07.29,1.77-2.31,1.89-3.62s.31-2.87-.55-3.27-2.07,1-2.5,3S54.3,333.73,55.33,334Z" transform="translate(-2.25 -62)"/><path class="cls-164" d="M52.82,327.27s3.56.66,5.85.9,2.92.09,4,.64,2.53.78,2,1.36-2.35.87-2.23,1.6a2.26,2.26,0,0,0,1.71,2.16,4,4,0,0,0,3.61-.52c.21-.33.58.06.64.64s-1.14,2.07-3.18,2.8a6,6,0,0,1-5.22-.77c-1.43-.82-2.9-2.48-3.93-2.91s-3.84-1.37-3.84-1.37Z" transform="translate(-2.25 -62)"/><path class="cls-165" d="M66.59,335.69a4.51,4.51,0,0,1-3.91-.94,6.37,6.37,0,0,0-3.9-1.62c-1.65-.22-5.11-2.68-6.27-3.54l-.3,2.21s2.8.95,3.84,1.37,2.5,2.09,3.93,2.91a6,6,0,0,0,5.22.77,4.52,4.52,0,0,0,2.71-2.07C67.44,335,67.08,335.57,66.59,335.69Z" transform="translate(-2.25 -62)"/><path class="cls-166" d="M30.1,305.23c-2.24,1.78-1.65,4.7-.25,9.21s4.88,12.92,5.49,14.5,3.65,1.89,6.21,2.5S55.33,334,55.33,334s-1.46-1.22-.85-4,2.19-2.93,2.19-2.93-7-2-9.45-2.5-4.39-1.09-4.93-2.68a97.26,97.26,0,0,1-3.2-10.07C38.06,306.68,34.06,302.09,30.1,305.23Z" transform="translate(-2.25 -62)"/><path class="cls-167" d="M79,315.7s1.25.42,2.22.83,2,.5,2.76,1.82a30.93,30.93,0,0,0,1.73,2.93c.58.79,1.35,1.55,1.14,2.32s-1.43.06-1.55-.18a11.3,11.3,0,0,0-1.94-2.29c-.73-.55-2.64-.76-3.22-1.2s-2.55-2.61-2.55-2.61Z" transform="translate(-2.25 -62)"/></g></g></svg>