<svg height="512pt" viewBox="0 -38 512 512" width="512pt" xmlns="http://www.w3.org/2000/svg" xmlns:xlink="http://www.w3.org/1999/xlink"><linearGradient id="a" gradientUnits="userSpaceOnUse" x1="0" x2="512" y1="218" y2="218"><stop offset="0" stop-color="#80d8ff"/><stop offset="1" stop-color="#ea80fc"/></linearGradient><path d="m415.867188 166.484375c3.667968-90.769531-69.164063-166.484375-159.867188-166.484375-90.753906 0-163.535156 75.757812-159.867188 166.484375-56.945312 18.160156-96.132812 71.132813-96.132812 131.515625 0 76.09375 61.90625 138 138 138h236c76.09375 0 138-61.90625 138-138 0-60.484375-39.28125-113.386719-96.132812-131.515625zm-41.867188 229.515625h-40v-47.714844l54.140625-54.144531c7.8125-7.808594 7.8125-20.472656 0-28.285156-7.808594-7.808594-20.472656-7.808594-28.28125 0l-60 60c-3.753906 3.753906-5.859375 8.839843-5.859375 14.144531v56h-18v-213c0-11.046875-8.953125-20-20-20s-20 8.953125-20 20v213h-18v-56c0-5.304688-2.105469-10.390625-5.859375-14.144531l-60-60c-7.808594-7.808594-20.472656-7.808594-28.28125 0-7.8125 7.8125-7.8125 20.476562 0 28.285156l54.140625 54.144531v47.714844h-40c-54.035156 0-98-43.964844-98-98 0-47.785156 34.109375-88.390625 81.105469-96.546875 10.75-1.863281 18.023437-12.003906 16.339843-22.789063-11.34375-72.722656 44.878907-138.664062 118.554688-138.664062 73.539062 0 129.921875 65.792969 118.554688 138.664062-1.683594 10.78125 5.589843 20.925782 16.339843 22.789063 46.996094 8.15625 81.105469 48.761719 81.105469 96.546875 0 54.035156-43.964844 98-98 98zm0 0" fill="url(#a)"/></svg>