<svg id="Layer_5" enable-background="new 0 0 64 64" height="512" viewBox="0 0 64 64" width="512" xmlns="http://www.w3.org/2000/svg" xmlns:xlink="http://www.w3.org/1999/xlink"><linearGradient id="SVGID_1_" gradientUnits="userSpaceOnUse" x1="32" x2="32" y1="63" y2="1"><stop offset="0" stop-color="#9f2fff"/><stop offset="1" stop-color="#0bb1d3"/></linearGradient><path d="m57 27h-20c-1.103 0-2 .897-2 2v28c0 1.103.897 2 2 2h20c1.103 0 2-.897 2-2v-28c0-1.103-.897-2-2-2zm0 2 .001 8h-20.001v-8zm.001 10 .001 8h-20.002v-8zm-20.001 18v-8h20.001l.001 8zm2-6h2v4h-2zm4 0h2v4h-2zm6 0v4h-2v-4zm-4-6v-4h2v4zm6 0h-2v-4h2zm4 0h-2v-4h2zm-14-10h-2v-4h2zm4 0h-2v-4h2zm4 0h-2v-4h2zm9-12h-2.539c.987-1.469 1.539-3.203 1.539-5 0-4.962-4.037-9-9-9-.642 0-1.281.07-1.911.208-1.951-4.948-6.693-8.208-12.089-8.208-4.656 0-8.977 2.542-11.277 6.556-.86-.366-1.786-.556-2.723-.556-3.542 0-6.478 2.645-6.938 6.063-3.417.459-6.062 3.395-6.062 6.937 0 3.519 2.614 6.432 6 6.92v10.131c-6.701.514-12 6.119-12 12.949 0 7.168 5.832 13 13 13 6.83 0 12.435-5.299 12.949-12h4.051v7c0 2.757 2.243 5 5 5h22c2.757 0 5-2.243 5-5v-30c0-2.757-2.243-5-5-5zm-49-3c0-2.757 2.243-5 5-5h1v-1c0-2.757 2.243-5 5-5 .923 0 1.83.26 2.623.75l.953.59.478-1.014c1.81-3.843 5.715-6.326 9.946-6.326 4.841 0 9.061 3.102 10.501 7.718l.305.976.969-.326c.726-.244 1.475-.368 2.225-.368 3.859 0 7 3.14 7 7 0 1.885-.776 3.683-2.127 5h-16.873c-1.627 0-3.061.793-3.974 2h-18.026c-2.757 0-5-2.243-5-5zm5 41c-1.075 0-2.22-1.527-3.009-4h6.019c-.79 2.473-1.935 4-3.01 4zm-3.519-6c-.244-1.209-.408-2.553-.46-4h7.958c-.052 1.447-.217 2.791-.46 4zm-7.43-4h4.971c.046 1.419.184 2.763.409 4h-4.217c-.626-1.221-1.034-2.57-1.163-4zm10.949-12c1.075 0 2.22 1.527 3.009 4h-6.019c.79-2.473 1.935-4 3.01-4zm3.519 6c.244 1.209.408 2.553.46 4h-7.958c.052-1.447.217-2.791.46-4zm-9.497 4h-4.971c.13-1.43.537-2.779 1.164-4h4.216c-.225 1.237-.364 2.581-.409 4zm11.956 2h4.971c-.13 1.43-.537 2.779-1.164 4h-4.216c.225-1.237.364-2.581.409-4zm0-2c-.046-1.419-.184-2.763-.409-4h4.216c.626 1.221 1.034 2.57 1.164 4zm-.873-6c-.368-1.295-.837-2.422-1.391-3.341 1.874.675 3.518 1.834 4.764 3.341zm-8.819-3.341c-.554.919-1.023 2.046-1.391 3.341h-3.374c1.247-1.507 2.891-2.665 4.765-3.341zm-4.765 17.341h3.373c.368 1.295.837 2.422 1.391 3.341-1.873-.676-3.517-1.834-4.764-3.341zm12.193 3.341c.553-.919 1.023-2.046 1.391-3.341h3.373c-1.246 1.507-2.89 2.665-4.764 3.341zm9.235-11.341c-.488-6.37-5.579-11.461-11.949-11.949v-10.051h16.101c-.066.323-.101.658-.101 1v21zm34.051 9c0 1.654-1.346 3-3 3h-22c-1.654 0-3-1.346-3-3v-30c0-1.654 1.346-3 3-3h22c1.654 0 3 1.346 3 3zm-33.064-47.5-1.731-1c1.605-2.776 4.592-4.5 7.795-4.5.761 0 1.518.095 2.249.284l-.498 1.936c-.568-.146-1.158-.22-1.751-.22-2.491 0-4.815 1.341-6.064 3.5zm11.314-1.129c-.505-.572-1.094-1.055-1.751-1.435l1.002-1.731c.844.488 1.601 1.108 2.249 1.842zm-25.25 13.629c-1.654 0-3-1.346-3-3s1.346-3 3-3v2c-.552 0-1 .449-1 1s.448 1 1 1h6v2zm10 0h-2v-2h2zm24-8v-2c2.757 0 5 2.243 5 5h-2c0-1.654-1.346-3-3-3z" fill="url(#SVGID_1_)"/></svg>