<svg xmlns="http://www.w3.org/2000/svg" viewBox="0 0 512 512" xmlns:v="https://vecta.io/nano"><linearGradient id="A" gradientUnits="userSpaceOnUse" x1="0" y1="256" x2="512" y2="256"><stop offset="0" stop-color="#80d8ff"/><stop offset="1" stop-color="#ea80fc"/></linearGradient><path d="M492 0H132c-11.046 0-20 8.954-20 20v216H20c-11.046 0-20 8.954-20 20v236c0 11.046 8.954 20 20 20h236c11.046 0 20-8.954 20-20v-92h216c11.046 0 20-8.954 20-20V20c0-11.046-8.954-20-20-20zM236 472H40V276h72v104c0 11.046 8.954 20 20 20h104v72zm0-112h-84v-84h84v84zm236 0H276V256c0-11.046-8.954-20-20-20H152V40h320v320z" fill="url(#A)"/></svg>