<svg enable-background="new 0 0 512 512" height="512" viewBox="0 0 512 512" width="512" xmlns="http://www.w3.org/2000/svg" xmlns:xlink="http://www.w3.org/1999/xlink"><linearGradient id="SVGID_1_" gradientUnits="userSpaceOnUse" x1="62.932" x2="403.465" y1="458.115" y2="117.582"><stop offset="0" stop-color="#f803fe"/><stop offset="1" stop-color="#0ecbde"/></linearGradient><g id="_x33_2_Hosting"><path d="m511.893 258.728c0 43.625-35.417 79.115-78.954 79.115h-23.35c-2.944 0-5.331-2.387-5.331-5.331s2.387-5.331 5.331-5.331h23.35c37.656 0 68.292-30.708 68.292-68.453 0-43.709-40.85-76.933-84.371-66.467-3.819.924-7.31-2.492-6.45-6.341 8.234-37-32.76-66.596-65.509-46.889-3.407 2.05-7.782-.223-8.067-4.186-4.878-68.047-62.281-121.348-130.68-121.348-72.225 0-130.984 58.783-130.984 131.039 0 13.195 1.999 26.312 5.945 38.986 1.038 3.338-1.37 6.768-4.876 6.911-36.711 1.492-65.47 31.489-65.47 68.294 0 37.745 30.682 68.453 68.398 68.453h7.783c2.944 0 5.331 2.387 5.331 5.331s-2.387 5.331-5.331 5.331h-7.783c-43.594 0-79.061-35.49-79.061-79.115 0-40.28 29.808-73.508 69.008-78.397-3.059-11.709-4.607-23.722-4.607-35.795 0-78.134 63.541-141.701 141.646-141.701 71.314 0 131.575 53.592 140.532 123.399 36.793-15.142 77.721 13.241 75.216 54.222 47.556-6.764 89.992 30.422 89.992 78.273zm-117.826-22.498v49.175c0 10.873-8.848 19.718-19.721 19.718h-13.479v13.408h13.479c10.873 0 19.721 8.848 19.721 19.721v49.172c0 10.873-8.848 19.721-19.721 19.721h-13.479v13.406h13.479c10.873 0 19.721 8.848 19.721 19.721v49.172c0 10.873-8.848 19.721-19.721 19.721h-252.21c-10.873 0-19.721-8.848-19.721-19.721v-49.172c0-10.873 8.848-19.721 19.721-19.721h13.476v-13.406h-13.476c-10.873 0-19.721-8.848-19.721-19.721v-49.172c0-10.873 8.848-19.721 19.721-19.721h13.476v-13.408h-13.476c-10.873 0-19.721-8.845-19.721-19.718v-49.175c0-10.873 8.848-19.721 19.721-19.721h252.21c10.873 0 19.721 8.848 19.721 19.721zm-19.721 194.983c-52.927 0-199.287 0-252.21 0-4.995 0-9.059 4.063-9.059 9.059v49.172c0 4.995 4.063 9.059 9.059 9.059h252.21c4.995 0 9.059-4.063 9.059-9.059v-49.172c0-4.995-4.063-9.059-9.059-9.059zm-24.141-24.068h-203.93v13.406h203.93zm24.141-77.952c-52.997 0-199.201 0-252.21 0-4.995 0-9.059 4.063-9.059 9.059v49.172c0 4.995 4.063 9.059 9.059 9.059h252.21c4.995 0 9.059-4.063 9.059-9.059v-49.172c0-4.995-4.063-9.059-9.059-9.059zm-24.141-24.07h-203.93v13.408h203.93zm33.2-68.893c0-4.995-4.063-9.059-9.059-9.059h-252.21c-4.995 0-9.059 4.063-9.059 9.059v49.175c0 4.993 4.063 9.056 9.059 9.056h252.21c4.995 0 9.059-4.063 9.059-9.056zm-239.556 19.255h-2.866c-2.944 0-5.331 2.387-5.331 5.331s2.387 5.331 5.331 5.331h2.866c2.944 0 5.331-2.387 5.331-5.331s-2.387-5.331-5.331-5.331zm20.294 0h-2.866c-2.944 0-5.331 2.387-5.331 5.331s2.387 5.331 5.331 5.331h2.866c2.944 0 5.331-2.387 5.331-5.331s-2.387-5.331-5.331-5.331zm20.293 0h-2.866c-2.944 0-5.331 2.387-5.331 5.331s2.387 5.331 5.331 5.331h2.866c2.944 0 5.331-2.387 5.331-5.331s-2.387-5.331-5.331-5.331zm41.696-11.259c-2.944 0-5.331 2.387-5.331 5.331v22.519c0 2.944 2.387 5.331 5.331 5.331s5.331-2.387 5.331-5.331v-22.519c0-2.944-2.387-5.331-5.331-5.331zm25.875 0c-2.944 0-5.331 2.387-5.331 5.331v22.519c0 2.944 2.387 5.331 5.331 5.331s5.331-2.387 5.331-5.331v-22.519c0-2.944-2.387-5.331-5.331-5.331zm25.872 0c-2.944 0-5.331 2.387-5.331 5.331v22.519c0 2.944 2.387 5.331 5.331 5.331s5.331-2.387 5.331-5.331v-22.519c0-2.944-2.387-5.331-5.331-5.331zm25.874 0c-2.944 0-5.331 2.387-5.331 5.331v22.519c0 2.944 2.387 5.331 5.331 5.331s5.331-2.387 5.331-5.331v-22.519c.001-2.944-2.386-5.331-5.331-5.331zm57.099 5.326v22.511c0 2.944-2.387 5.331-5.331 5.331h-25.914c-2.944 0-5.331-2.387-5.331-5.331v-22.511c0-2.944 2.387-5.331 5.331-5.331h25.914c2.944 0 5.331 2.387 5.331 5.331zm-10.662 5.331h-15.251v11.849h15.251zm-206.341 102.624h-2.866c-2.944 0-5.331 2.387-5.331 5.331s2.387 5.331 5.331 5.331h2.866c2.944 0 5.331-2.387 5.331-5.331s-2.387-5.331-5.331-5.331zm20.294 0h-2.866c-2.944 0-5.331 2.387-5.331 5.331s2.387 5.331 5.331 5.331h2.866c2.944 0 5.331-2.387 5.331-5.331s-2.387-5.331-5.331-5.331zm20.293 0h-2.866c-2.944 0-5.331 2.387-5.331 5.331s2.387 5.331 5.331 5.331h2.866c2.944 0 5.331-2.387 5.331-5.331s-2.387-5.331-5.331-5.331zm41.696-11.261c-2.944 0-5.331 2.387-5.331 5.331v22.519c0 2.944 2.387 5.331 5.331 5.331s5.331-2.387 5.331-5.331v-22.519c0-2.944-2.387-5.331-5.331-5.331zm25.875 0c-2.944 0-5.331 2.387-5.331 5.331v22.519c0 2.944 2.387 5.331 5.331 5.331s5.331-2.387 5.331-5.331v-22.519c0-2.944-2.387-5.331-5.331-5.331zm25.872 0c-2.944 0-5.331 2.387-5.331 5.331v22.519c0 2.944 2.387 5.331 5.331 5.331s5.331-2.387 5.331-5.331v-22.519c0-2.944-2.387-5.331-5.331-5.331zm25.874 0c-2.944 0-5.331 2.387-5.331 5.331v22.519c0 2.944 2.387 5.331 5.331 5.331s5.331-2.387 5.331-5.331v-22.519c.001-2.944-2.386-5.331-5.331-5.331zm51.768-.003c2.944 0 5.331 2.387 5.331 5.331v22.509c0 2.944-2.387 5.331-5.331 5.331h-25.914c-2.944 0-5.331-2.387-5.331-5.331v-22.509c0-2.944 2.387-5.331 5.331-5.331zm-5.331 10.663h-15.251v11.847h15.251zm-206.341 102.621h-2.866c-2.944 0-5.331 2.387-5.331 5.331s2.387 5.331 5.331 5.331h2.866c2.944 0 5.331-2.387 5.331-5.331s-2.387-5.331-5.331-5.331zm20.294 0h-2.866c-2.944 0-5.331 2.387-5.331 5.331s2.387 5.331 5.331 5.331h2.866c2.944 0 5.331-2.387 5.331-5.331s-2.387-5.331-5.331-5.331zm20.293 0h-2.866c-2.944 0-5.331 2.387-5.331 5.331s2.387 5.331 5.331 5.331h2.866c2.944 0 5.331-2.387 5.331-5.331s-2.387-5.331-5.331-5.331zm41.696-11.258c-2.944 0-5.331 2.387-5.331 5.331v22.519c0 2.944 2.387 5.331 5.331 5.331s5.331-2.387 5.331-5.331v-22.519c0-2.944-2.387-5.331-5.331-5.331zm25.875 0c-2.944 0-5.331 2.387-5.331 5.331v22.519c0 2.944 2.387 5.331 5.331 5.331s5.331-2.387 5.331-5.331v-22.519c0-2.944-2.387-5.331-5.331-5.331zm25.872 0c-2.944 0-5.331 2.387-5.331 5.331v22.519c0 2.944 2.387 5.331 5.331 5.331s5.331-2.387 5.331-5.331v-22.519c0-2.944-2.387-5.331-5.331-5.331zm25.874 0c-2.944 0-5.331 2.387-5.331 5.331v22.519c0 2.944 2.387 5.331 5.331 5.331s5.331-2.387 5.331-5.331v-22.519c.001-2.944-2.386-5.331-5.331-5.331zm51.768-.006c2.944 0 5.331 2.387 5.331 5.331v22.509c0 2.944-2.387 5.331-5.331 5.331h-25.914c-2.944 0-5.331-2.387-5.331-5.331v-22.509c0-2.944 2.387-5.331 5.331-5.331zm-5.331 10.663h-15.251v11.847h15.251zm-125.081-261.628c2.944 0 5.331-2.387 5.331-5.331v-45.372l7.322 7.948c1.996 2.164 5.366 2.304 7.533.307 2.166-1.994 2.304-5.368.307-7.533l-16.532-17.946c-1.952-2.112-5.549-2.447-7.831-.009-.001.001-.001.001-.002.001l-16.615 17.946c-1.999 2.161-1.869 5.532.292 7.533 2.153 1.997 5.526 1.869 7.533-.292l7.33-7.917v45.333c.001 2.945 2.388 5.332 5.332 5.332zm46.262-69.645c-2.944 0-5.331 2.387-5.331 5.331v45.37l-7.322-7.946c-1.997-2.163-5.365-2.309-7.533-.307-2.166 1.994-2.304 5.368-.307 7.533l16.535 17.946c1.995 2.165 5.584 2.405 7.826.013.002-.002.005-.003.007-.005l16.613-17.946c1.999-2.161 1.869-5.534-.292-7.533-2.163-2.002-5.534-1.872-7.533.292l-7.33 7.918v-45.335c-.002-2.944-2.389-5.331-5.333-5.331z" fill="url(#SVGID_1_)"/></g></svg>