<svg id="Capa_1" enable-background="new 0 0 512 512" height="512" viewBox="0 0 512 512" width="512" xmlns="http://www.w3.org/2000/svg" xmlns:xlink="http://www.w3.org/1999/xlink"><linearGradient id="SVGID_1_" gradientUnits="userSpaceOnUse" x1="0" x2="512" y1="256" y2="256"><stop offset="0" stop-color="#80d8ff"/><stop offset="1" stop-color="#ea80fc"/></linearGradient><path d="m194.997 216c0-11.046 8.954-20 20-20h162.004c11.046 0 20 8.954 20 20s-8.954 20-20 20h-162.004c-11.046 0-20-8.954-20-20zm277.003 0c0 11.028 8.972 20 20 20 11.046 0 20 8.954 20 20v87.958c0 11.046-8.954 20-20 20h-147.716l-74.142 74.143c-7.811 7.811-20.475 7.809-28.284 0l-74.142-74.143h-147.716c-11.046 0-20-8.954-20-20v-87.958c0-11.046 8.954-20 20-20 11.028 0 20-8.972 20-20s-8.972-20-20-20c-11.046 0-20-8.954-20-20v-87.958c0-11.046 8.954-20 20-20h472c11.046 0 20 8.954 20 20v87.958c0 11.046-8.954 20-20 20-11.028 0-20 8.972-20 20zm-352.002-107.958h-79.998v51.385c23.281 8.255 40 30.498 40 56.573s-16.719 48.318-40 56.573v51.385h79.998zm352.002 0h-312.002v215.916h16.002c5.304 0 10.392 2.107 14.142 5.857l65.858 65.859 65.858-65.858c3.75-3.75 8.838-5.857 14.142-5.857h136v-51.385c-23.281-8.255-40-30.498-40-56.573s16.719-48.318 40-56.573z" fill="url(#SVGID_1_)"/></svg>