<?xml version="1.0" encoding="UTF-8"?>
<svg version="1.1" viewBox="0 0 512 116" xmlns="http://www.w3.org/2000/svg">
<g fill="none" fill-rule="evenodd">
<path d="m489.72 8.6461 21.421 0.1177s-39.825 53.964-43.077 58.362c-1.0564 1.4242-2.661 2.9602-3.4741 4.864-2.0568 4.7865-4.1686 15.285-4.1686 15.285l-19.599 0.097104s3.0494-10.943 2.9239-16.772c-0.11083-5.0925-2.7101-10.178-4.1686-15.285-1.4732-5.169-3.4741-15.285-3.4741-15.285h20.149l2.7787 11.117 30.689-42.5" fill="#1A1918"/>
<path d="m449.16 20.027c3.9528 2.3834 6.3784 15.529 6.3784 15.529s-20.684 0.30504-31.94 0.30504h-9.727l-11.811 51.415h-18.064s11.241-55.875 13.896-66.005c0.86118-3.279 5.8919-2.7169 14.389-2.7169h13.569c8.7619 0 19.003-1.1182 23.311 1.4732" fill="#1A1918"/>
<path d="m365.06 45.067s0.563-3.3005-1.9107-7.1219c-2.1118-3.2584-4.0636-4.0156-9.6221-4.1892-15.695-0.49336-15.39 11.137-15.39 11.137l26.923 0.17361zm17.023-13.319c2.3001 8.296-2.0843 27.791-2.0843 27.791s-22.894-0.38253-35.434 0c-3.8988 0.11868-8.5667-0.42372-9.727 1.3899-1.6331 2.5423 0.59635 6.4549 2.4864 8.1076 2.1755 1.9038 6.4128 2.1196 7.935 2.3138 10.178 1.2928 31.481 0.33349 31.481 0.33349l-3.6899 16.341s-30.104 1.5085-45.161-2.0843c-2.9729-0.70817-5.7595-2.1392-7.6427-4.1686-0.51396-0.55516-0.95926-1.3124-1.4458-1.9656-0.38841-0.52181-1.5203-2.2373-2.0284-3.5928-3.4388-9.164 0.40313-26.721 4.1686-36.128 0.43746-1.0907 0.98673-2.4727 1.5644-3.6478 0.7219-1.4654 1.333-3.1191 1.9097-3.995 0.38841-0.6042 0.86903-0.99359 1.2722-1.5635 0.46492-0.67384 1.0063-1.3271 1.5076-1.9097 1.3889-1.6125 2.9661-2.7522 4.863-4.1686 6.2735-4.6973 17.627-8.345 31.265-6.9483 5.1347 0.52769 12.889 2.3619 16.675 7.6427 1.0142 1.4105 1.5144 4.2098 2.0843 6.2529z" fill="#1A1918"/>
<path d="m299.23 18.491 17.516-0.10397s-9.7613 46.308-14.736 68.889h-20.149c-14.083 0-26.624 1.7439-31.96-8.3381-5.1759-9.7888-0.23638-25.887 2.0843-36.824 1.64-7.7398 5.0935-23.56 5.0935-23.56l18.148-0.16674s-5.1278 24.63-7.2612 36.928c-0.76408 4.405-2.3403 8.553-0.69444 11.811 1.5635 3.0995 3.7517 3.3211 10.421 3.4741 2.1127 0.049042 9.0326 0 9.0326 0l12.506-52.109" fill="#1A1918"/>
<path d="m217.24 51.84c1.8342-6.5167 4.5089-13.583 4.1686-19.454-0.36782-6.2803-5.634-11.999-9.0316-13.2-10.234-3.6134-19.815 1.4379-23.623 5.5575-4.9268 5.3368-6.5942 11.569-8.3381 20.149-1.2986 6.3706-2.3619 13.096 0 18.064 4.1823 8.7825 17.224 6.8649 31.265 6.9483 2.0843-5.5859 3.8076-11.86 5.5584-18.065zm24.318-25.707c2.0009 14.549-5.6761 30.606-10.964 44.57 5.3917 0.4865 10.116-0.075525 10.457 0.32662 0.35408 0.52181-3.6134 16.668-4.9964 16.71-4.2794 0.11182-18.459 0.22952-24.373 0.22952-19.294 0-37.345 1.2574-46.55-8.3372-3.738-3.8979-6.3225-10.582-6.9483-15.285-1.0426-7.8516 0.26385-16.495 2.0843-23.623 1.6468-6.4343 3.7586-12.507 6.9483-18.065 8.1076-14.153 22.212-24.657 45.855-22.233 4.5854 0.47277 11.172 2.4806 15.285 4.863 0.28444 0.16772 1.279 0.95926 1.5076 1.0985 5.5584 3.5369 10.624 11.978 11.694 19.745z" fill="#1A1918"/>
<path d="m156.19 18.574c-1.1672 5.3152-2.3344 11.34-3.5644 16.592h-19.454c1.5076-5.8223 2.661-11.61 4.1686-16.675 6.2254 0 12.013 0.083372 18.85 0.083372" fill="#1A1918"/>
<path d="m132.48 40.029h18.759c-2.4521 13.577-7.3083 35.476-11.116 50.719-2.3834 9.5397-3.9744 16.502-10.422 21.538-0.57674 0.45217-0.90924 0.23736-1.3889 0.69542-1.1888 1.1329-6.6844 2.4462-9.727 2.7787-4.9474 0.53554-10.54 0.06964-16.619-0.054927 1.5909-5.8154 3.3908-12.798 4.8081-18.009 14.82 1.793 15.195-12.214 18.064-25.707 1.6606-7.7957 6.6913-28.834 7.6427-31.961" fill="#1A1918"/>
<g transform="translate(0 8.8276)" fill="#21609B">
<path d="m88.708 66.637-0.40215 1.0417c-6.8512 13.339-18.989 21.525-36.303 21.886-8.0939 0.16674-15.806-1.9097-20.844-4.1686-10.873-4.8846-20.017-13.944-25.011-23.623-7.1641-13.875-8.4558-33.176 6.4402-47.592 0.22952 0-1.8067 3.1259-1.5772 3.1259l-0.40999 1.3339c-10.734 33.607 22.337 62.406 54.485 59.112 7.7261-0.79154 17.579-5.0229 23.623-11.116"/>
<path d="m69.254 52.74c8.088 0.055908 16.536-3.7243 21.538-9.0316-4.3765 11.11-17.049 18.252-34.044 15.98-14.229-1.9038-27.784-16.223-29.181-30.571-1.0211-10.442 2.6189-16.674 8.6157-24.234-2.0843 3.9538-2.8631 7.0032-3.0573 8.9482-2.2785 22.588 18.044 38.79 36.128 38.908"/>
<path d="m89.981 24.685c-1.2574 2.8837-8.497 8.3303-11.694 9.011-12.659 2.6963-20.766-3.3064-25.012-10.137-0.63166-1.0211-1.7989-3.8067-2.0078-4.5158-1.6468-5.5996-0.88962-14.069 4.0234-18.454-1.4801 4.1686-1.6959 9.011-0.91709 12.159 0.47179 1.9038 1.9097 5.2259 3.3486 7.3161 2.6189 3.8076 4.2794 4.7326 7.6427 6.7541 1.5144 0.91022 3.1397 1.64 3.842 1.841 3.1887 0.93769 9.9212 3.4114 20.774-3.9744"/>
</g>
</g>
</svg>