<?xml version="1.0" encoding="UTF-8"?>
<svg preserveAspectRatio="xMidYMid" version="1.1" viewBox="0 0 512 258" xmlns="http://www.w3.org/2000/svg">
<path d="m116.45 54.116c22.287 0.1871 38.436 6.6128 48.449 19.266 10.013 12.654 13.316 29.937 9.9165 51.849-1.3204 10.013-4.2499 19.833-8.7832 29.466-4.3461 9.6332-10.387 18.32-18.133 26.066-9.446 9.8203-19.55 16.053-30.316 18.7-10.766 2.6462-21.912 3.9666-33.433 3.9666h-33.999l-10.766 53.832h-39.383l40.516-203.15h75.932zm335.89 0c22.287 0.1871 38.436 6.6128 48.449 19.266 10.013 12.654 13.316 29.937 9.9165 51.849-1.3204 10.013-4.2499 19.833-8.7832 29.466-4.3461 9.6332-10.387 18.32-18.133 26.066-9.446 9.8203-19.55 16.053-30.316 18.7-10.766 2.6462-21.912 3.9666-33.433 3.9666h-33.999l-10.766 53.832h-39.383l40.516-203.15h75.932zm-193.57-54.116-11.05 54.116h35.133c19.266 0.37955 33.62 4.3461 43.066 11.9 9.6332 7.5536 12.466 21.912 8.4998 43.066l-18.983 94.348h-39.666l18.133-90.098c1.8871-9.446 1.3204-16.15-1.7-20.116-3.0204-3.9666-9.5369-5.9499-19.55-5.9499l-31.449-0.28333-23.233 116.45h-39.099l40.799-203.43h39.099zm-172.93 86.415c-2.2666 0.1871-4.437 0.28333-6.5165 0.28333l-5.7239-3.801e-4 -16.942 84.715c1.1333 0.1871 2.2666 0.28333 3.3999 0.28333h3.9666c18.133 0.1871 33.246-1.6037 45.332-5.3832 12.087-3.9666 20.213-17.753 24.366-41.366 3.3999-19.833 0-31.262-10.2-34.283-10.013-3.0204-22.57-4.437-37.683-4.2499zm335.89 0c-2.2666 0.1871-4.437 0.28333-6.5165 0.28333l-5.7243-3.801e-4 -16.942 84.715c1.1333 0.1871 2.2666 0.28333 3.3999 0.28333h3.9666c18.133 0.1871 33.246-1.6037 45.332-5.3832 12.087-3.9666 20.213-17.753 24.366-41.366 3.3999-19.833 0-31.262-10.2-34.283-10.013-3.0204-22.57-4.437-37.683-4.2499z"/>
</svg>