<svg id="Layer_5" enable-background="new 0 0 62 62" height="512" viewBox="0 0 62 62" width="512" xmlns="http://www.w3.org/2000/svg" xmlns:xlink="http://www.w3.org/1999/xlink"><linearGradient id="SVGID_1_" gradientUnits="userSpaceOnUse" x1="31" x2="31" y1="62" y2="0"><stop offset="0" stop-color="#9f2fff"/><stop offset="1" stop-color="#0bb1d3"/></linearGradient><path d="m12 49c0-1.654-1.346-3-3-3s-3 1.346-3 3 1.346 3 3 3 3-1.346 3-3zm-4 0c0-.552.448-1 1-1s1 .448 1 1-.448 1-1 1-1-.448-1-1zm4 7h2v2h-2zm4 0h2v2h-2zm25-19c0 2.757 2.243 5 5 5s5-2.243 5-5v-1h-10zm7.829 1c-.413 1.164-1.525 2-2.829 2s-2.416-.836-2.829-2zm-7.829-8c-1.103 0-2 .897-2 2h-2c0-2.206 1.794-4 4-4s4 1.794 4 4h-2c0-1.103-.897-2-2-2zm14 2h-2c0-1.103-.897-2-2-2s-2 .897-2 2h-2c0-2.206 1.794-4 4-4s4 1.794 4 4zm1.409-23.323-4.127 2.063c-1.647.824-3.492 1.26-5.334 1.26h-2.948v-9c0-1.654-1.346-3-3-3h-38c-1.654 0-3 1.346-3 3v20c0 1.654 1.346 3 3 3h15.586l3.292 3.292c.449.45 1.071.708 1.708.708 1.331 0 2.414-1.083 2.414-2.414v-1.586h4.324c.189.762.473 1.496.826 2.201-.71.722-1.15 1.709-1.15 2.799 0 2.206 1.794 4 4 4-.001 2.938 1.144 5.7 3.222 7.778 1.521 1.521 3.411 2.535 5.466 2.973-1.977 1.453-3.344 3.687-3.629 6.249h-5.059c-1.804 0-3.315 1.207-3.812 2.851l-2.188-.364v-2.487h-2v2.153l-1.904-.317c-.033-.005-.063-.019-.096-.025v-3.811h-2v2.936c-1.219-.898-2-2.327-2-3.936v-1h-4v-10c0-3.309-2.691-6-6-6s-6 2.691-6 6h2c0-2.206 1.794-4 4-4s4 1.794 4 4v6.111c-1.272-1.301-3.042-2.111-5-2.111-3.859 0-7 3.141-7 7 0 3.519 2.614 6.432 6 6.92v3.08c0 1.654 1.346 3 3 3h25 1 9c3.859 0 7-3.141 7-7v-6c0-1.545-.719-2.911-1.824-3.829 3.999-1.648 6.823-5.583 6.824-10.17v-.001c2.206 0 4-1.794 4-4 0-.971-.362-1.851-.94-2.545.612-1.639.94-3.352.94-5.112v-.804c0-2.484-.638-4.945-1.845-7.118zm-32.409 15.323v3.586c0 .338-.469.531-.707.293l-3.879-3.879h-16.414c-.552 0-1-.449-1-1v-20c0-.551.448-1 1-1h38c.552 0 1 .449 1 1v9.035c-3.042.172-5.958 1.326-8.281 3.318-2.364 2.025-3.719 4.972-3.719 8.085 0 .188.027.375.037.563h-6.037zm8 7c0-1.103.897-2 2-2v4c-1.103 0-2-.897-2-2zm2-4c-.394 0-.767.075-1.127.182-.561-1.168-.873-2.446-.873-3.744 0-2.528 1.101-4.921 3.02-6.566 2.161-1.852 4.917-2.872 7.762-2.872h4.166c2.151 0 4.305-.508 6.229-1.47l2.414-1.207 2.816 5.069c1.042 1.877 1.593 4.002 1.593 6.147v.804c0 1.341-.215 2.652-.627 3.915-.43-.158-.889-.258-1.373-.258v-1-1c0-3.388-2.426-6.251-5.768-6.808l-1.068-.178-.328 1.973 1.068.178c2.036.339 3.593 1.884 3.994 3.835h-11.898c-1.103 0-2-.897-2-2s.897-2 2-2h2v-2h-2c-1.859 0-3.411 1.28-3.858 3h-.142c-3.309 0-6 2.691-6 6zm9.1 21.01c-.065.32-.1.651-.1.99v3h-1.92c.223-1.551.951-2.941 2.02-3.99zm-9.1 5.99h2v1.82l-3.821-.637c.313-.696 1.01-1.183 1.821-1.183zm-30-5c0-2.757 2.243-5 5-5s5 2.243 5 5-2.243 5-5 5-5-2.243-5-5zm7 11c-.552 0-1-.448-1-1v-3.08c3.059-.441 5.479-2.861 5.92-5.92h2.151c.424 2.938 2.688 5.307 5.696 5.809l12.233 2.038v2.153zm40-5c0 2.757-2.243 5-5 5h-8v-6h5.586l1.707 1.707 1.414-1.414-1.707-1.707v-3.586c0-1.654 1.346-3 3-3s3 1.346 3 3zm-4-11h-2c-2.404 0-4.665-.937-6.364-2.637-1.7-1.699-2.636-3.96-2.636-6.364v-8c0-2.206 1.794-4 4-4h.142c.447 1.72 1.999 3 3.858 3h12v9.001c-.001 4.963-4.038 9-9 9zm11-11v-4c1.103 0 2 .897 2 2s-.897 2-2 2zm-44-29h-10v10h10zm-2 8h-6v-6h6zm7-6h-2v-2h2zm21 0h-19v-2h19zm0 4h-23v-2h23zm-23 2h12v2h-12zm-13 4h25v2h-25zm0 4h25v2h-25z" fill="url(#SVGID_1_)"/></svg>