<svg id="Layer_5" enable-background="new 0 0 64 64" height="512" viewBox="0 0 64 64" width="512" xmlns="http://www.w3.org/2000/svg" xmlns:xlink="http://www.w3.org/1999/xlink"><linearGradient id="SVGID_1_" gradientUnits="userSpaceOnUse" x1="32" x2="32" y1="63" y2="1"><stop offset="0" stop-color="#9f2fff"/><stop offset="1" stop-color="#0bb1d3"/></linearGradient><path d="m58 1h-32c-2.757 0-5 2.243-5 5v11h-20v26h5.786c.136.46.214.937.214 1.417v4.479c0 1.583.545 3.136 1.534 4.373l2.231 2.789c-1.153 1.773-1.765 3.824-1.765 5.942v1h18v-1c0-1.024-.147-2.031-.424-3h31.424c2.757 0 5-2.243 5-5v-48c0-2.757-2.243-5-5-5zm-55 18h25c1.13 0 2.162-.391 3-1.026v20.026c0 1.302-.839 2.402-2 2.816v-2.254c0-1.379-.935-2.576-2.272-2.911l-3.728-.932-2-.5-2-.5-2-.5v-9.219c0-1.654-1.346-3-3-3s-3 1.346-3 3v13.23c-.927-.757-2.094-1.23-3.382-1.23-1.444 0-2.618 1.174-2.618 2.618 0 .404.096.809.276 1.171l.606 1.211h-2.882zm44-8h6v5.382l-3-1.5-3 1.5zm3 6.118 5 2.5v-8.618h2v34h-28v-2h12v-10h-8v-19c0-1.13-.391-2.162-1.026-3h13.026v8.618zm-17 20.882v-3h6v6h-7.026c.635-.838 1.026-1.87 1.026-3zm-2-24c0 1.654-1.346 3-3 3h-1v-6h1c1.654 0 3 1.346 3 3zm-22 34.896v-4.479c0-1.081-.255-2.164-.739-3.131l-1.196-2.391c-.043-.086-.065-.182-.065-.277 0-.341.277-.618.618-.618 1.865 0 3.382 1.517 3.382 3.382v1.618 3h2v-3-1.618-17.382c0-.551.449-1 1-1s1 .449 1 1v8.719 13.281h2v-10.719l2 .5v10.219h2v-9.719l2 .5v9.219h2v-8.719l1.242.311c.446.111.758.51.758.97v10.334c0 1.131-.389 2.24-1.096 3.124l-2.384 2.98h-11.04l-2.385-2.981c-.706-.884-1.095-1.993-1.095-3.123zm2.056 12.104c.158-1.406.648-2.752 1.44-3.941l.039-.059h10.93l.039.059c.792 1.189 1.283 2.535 1.44 3.941zm49.944-7c0 1.654-1.346 3-3 3h-32.221c-.166-.321-.346-.637-.545-.943l2.231-2.789c.99-1.236 1.535-2.789 1.535-4.372v-1.896h28c1.103 0 2-.897 2-2v-34c0-1.103-.897-2-2-2h-29-1c-1.103 0-2 .897-2 2v6h-2v-11c0-1.654 1.346-3 3-3h32c1.654 0 3 1.346 3 3zm-14-5h-10c-1.103 0-2 .897-2 2 0 2.206 1.794 4 4 4h6c2.206 0 4-1.794 4-4 0-1.103-.897-2-2-2zm-2 4h-6c-1.103 0-2-.897-2.001-2h.001 10c0 1.103-.897 2-2 2zm-7-48h8v2h-8zm5 38h12v-10h-12zm2-8h8v6h-8zm6-4h-16v-2h16zm2-2h2v2h-2zm-14-2h-4v-2h4zm2-2h14v2h-14zm-6-4h20v2h-20zm8-2h-8v-2h8zm0-4h-8v-2h8z" fill="url(#SVGID_1_)"/></svg>