<svg height="496pt" viewBox="0 0 496 496" width="496pt" xmlns="http://www.w3.org/2000/svg" xmlns:xlink="http://www.w3.org/1999/xlink"><linearGradient id="a" gradientUnits="userSpaceOnUse" x1="248" x2="248" y1="496" y2="0"><stop offset="0" stop-color="#9f2fff"/><stop offset="1" stop-color="#0bb1d3"/></linearGradient><path d="m456 128h-66.207031l4.566406-32h45.640625c13.230469 0 24-10.769531 24-24s-10.769531-24-24-24h-54.9375l-16 112h-33.566406c10.398437-16.183594 16.503906-35.375 16.503906-56 0-57.34375-46.65625-104-104-104s-104 46.65625-104 104c0 8.273438 1.070312 16.28125 2.902344 24h-106.902344c-22.054688 0-40 17.945312-40 40v240c0 22.054688 17.945312 40 40 40h104v32h-32v16h272v-16h-32v-32h104c22.054688 0 40-17.945312 40-40v-240c0-22.054688-17.945312-40-40-40zm-57.0625-64h41.0625c4.40625 0 8 3.59375 8 8s-3.59375 8-8 8h-43.34375zm-32.160156 112-13.714844 96h-173.308594c-11.867187 0-22.082031-8.855469-23.761718-20.609375l-10.769532-75.390625h27.90625c18.933594 19.679688 45.472656 32 74.871094 32s55.9375-12.320312 74.871094-32zm-164.960938 2.769531 8.734375-30.570312c2.050781-7.183594 8.695313-12.199219 16.167969-12.199219 5.640625 0 10.867188 2.800781 13.992188 7.488281l3.992187 5.992188c4.394531 6.582031 11.746094 10.519531 19.664063 10.519531 13.03125 0 23.632812-10.601562 23.632812-23.632812 0-4.613282 3.753906-8.367188 8.367188-8.367188h8.847656c6.511718 0 12.632812-2.535156 17.234375-7.136719l13.375-13.375c-1.855469 46.902344-40.480469 84.511719-87.824219 84.511719-16.953125 0-32.734375-4.894531-46.183594-13.230469zm132.414063-92.3125-23.09375 23.09375c-1.585938 1.578125-3.679688 2.449219-5.921875 2.449219h-8.847656c-13.4375 0-24.367188 10.929688-24.367188 24.367188 0 4.207031-3.425781 7.632812-7.632812 7.632812-2.558594 0-4.933594-1.273438-6.351563-3.398438l-3.992187-5.992187c-6.101563-9.144531-16.3125-14.609375-27.304688-14.609375-14.574219 0-27.550781 9.792969-31.550781 23.800781l-7.007813 24.535157c-15.441406-14.367188-25.734375-34.144532-27.753906-56.335938h14.625c13.082031 0 25.375-5.097656 34.625-14.34375 6.222656-6.222656 14.511719-9.65625 23.3125-9.65625h8.382812c3.542969 0 7.054688.566406 10.425782 1.6875l14.832031 4.945312c2.710937.902344 5.542969 1.359376 8.414063 1.359376h2.382812c14.65625.007812 26.59375-11.929688 26.59375-26.59375 0-11.460938-7.3125-21.605469-18.183594-25.230469l-4.921875-1.640625c-12.117187-4.039063-20.894531-14.03125-23.78125-26.054688 38.40625 3.96875 69.550781 32.742188 77.117188 69.984375zm-93.558594-70.089843c3.0625 19.03125 16.425781 35.089843 35.160156 41.335937l4.921875 1.640625c4.335938 1.457031 7.246094 5.488281 7.246094 10.054688 0 5.847656-4.753906 10.601562-10.601562 10.601562h-2.382813c-1.144531 0-2.273437-.183594-3.351563-.542969l-14.832031-4.945312c-5-1.671875-10.214843-2.511719-15.480469-2.511719h-8.382812c-13.082031 0-25.375 5.097656-34.625 14.34375-6.222656 6.222656-14.511719 9.65625-23.3125 9.65625h-14.625c3.839844-42.367188 37.808594-76.105469 80.265625-79.632812zm-200.671875 127.632812h112.023438c2.34375 5.617188 5.222656 10.9375 8.480468 16h-33.726562l13.375 93.664062c2.800781 19.574219 19.824218 34.335938 39.601562 34.335938h180.246094c4.40625 0 8 3.59375 8 8s-3.59375 8-8 8h-200c-17.648438 0-32 14.351562-32 32s14.351562 32 32 32 32-14.351562 32-32c0-5.855469-1.695312-11.273438-4.449219-16h112.90625c-2.761719 4.726562-4.457031 10.144531-4.457031 16 0 17.648438 14.351562 32 32 32s32-14.351562 32-32c0-5.855469-1.695312-11.273438-4.449219-16h4.449219c13.230469 0 24-10.769531 24-24 0-10.054688-6.230469-18.664062-15.03125-22.222656l18.542969-129.777344h68.488281c13.230469 0 24 10.769531 24 24v216h-464v-216c0-13.230469 10.769531-24 24-24zm304 192c0 8.824219-7.175781 16-16 16s-16-7.175781-16-16 7.175781-16 16-16 16 7.175781 16 16zm-168 0c0 8.824219-7.175781 16-16 16s-16-7.175781-16-16 7.175781-16 16-16 16 7.175781 16 16zm160 144h-176v-32h176zm120-48h-416c-13.230469 0-24-10.769531-24-24v-8h464v8c0 13.230469-10.769531 24-24 24zm0 0" fill="url(#a)"/></svg>