<svg id="Layer_35" enable-background="new 0 0 64 64" height="512" viewBox="0 0 64 64" width="512" xmlns="http://www.w3.org/2000/svg" xmlns:xlink="http://www.w3.org/1999/xlink"><linearGradient id="SVGID_1_" gradientUnits="userSpaceOnUse" x1="32" x2="32" y1="63" y2="1"><stop offset="0" stop-color="#9f2fff"/><stop offset="1" stop-color="#0bb1d3"/></linearGradient><path d="m42 7h14v2h-6v4h4v2h-4v4h6v2h-14v-2h6v-4h-4v-2h4v-4h-6zm9.293 9.707 2 2 1.414-1.414-2-2zm11.707-8.707v12c0 2.757-2.243 5-5 5h-.697l-7.303 4.869v-4.869h-5.097c-.062.69-.158 1.375-.285 2.054.183-.026.365-.054.553-.054 2.112 0 3.829 1.717 3.829 3.829 0 1.022-.398 1.984-1.122 2.707l-15.342 15.342c-.346.346-.536.805-.536 1.293v12.829h-23v-11c0-3.746 1.885-7.056 4.754-9.044-7.704-3.571-12.754-11.339-12.754-19.956 0-12.131 9.869-22 22-22 4.625 0 9.144 1.487 12.875 4.183.902-1.316 2.413-2.183 4.125-2.183h18c2.757 0 5 2.243 5 5zm-27.576 14c-.27-.614-.424-1.288-.424-2v-6h-2.43c.778 2.342 1.31 5.006 1.409 8zm-12.028 21h-.794l-.581 8.728.979 1.469.979-1.469zm5.604-8c0-3.309-2.691-6-6-6s-6 2.691-6 6 2.691 6 6 6 6-2.691 6-6zm2 0c0 1.801-.605 3.458-1.613 4.797 1.564-.652 3.004-1.602 4.206-2.804l2.993-2.993h-5.655c.041.328.069.661.069 1zm-.582-3c.925-2.538 1.437-5.221 1.537-8h-17.932c.1 2.779.619 5.462 1.543 8h.023c1.19-2.928 4.061-5 7.411-5s6.221 2.072 7.411 5zm-25.273 0h8.299c-.854-2.554-1.329-5.235-1.422-8h-8.983c.143 2.835.871 5.553 2.106 8zm6.877-10c.098-2.994.631-5.658 1.409-8h-8.267c-1.23 2.427-1.971 5.133-2.113 8zm19.934 0c-.111-3.015-.691-5.689-1.539-8h-14.834c-.848 2.311-1.428 4.985-1.539 8zm-15.537-10h13.162c-2.216-4.75-5.32-7.673-6.581-8.725-1.261 1.052-4.365 3.975-6.581 8.725zm18.673-4.91c-2.681-2.039-5.841-3.364-9.161-3.858 1.77 1.769 4.164 4.684 5.887 8.768h3.182v-4c0-.312.037-.614.092-.91zm-28.778 4.91h7.868c1.719-4.077 4.109-6.989 5.878-8.759-5.731.85-10.678 4.122-13.746 8.759zm9.732 29.747c.612-.237 1.247-.424 1.905-.549-1.799-1.468-2.951-3.7-2.951-6.198 0-.339.028-.672.069-1h-8.751c2.293 3.479 5.656 6.236 9.728 7.747zm29.125-12.747c-.488 0-.947.19-1.293.536l-8.872 8.872c-2.28 2.28-5.293 3.787-8.485 4.243l-1.135.158.633 9.465-3.019 4.529-3.021-4.53.619-9.273h-.598c-4.962 0-9 4.038-9 9v9h3v-12h2v12h14v-10.829c0-1.022.398-1.984 1.122-2.707l15.343-15.343c.345-.345.535-.804.535-1.292 0-1.009-.82-1.829-1.829-1.829zm-2.273-4h-2.898c-1.116 0-2.136-.38-2.969-1h-3.053c-.093 2.766-.567 5.447-1.42 8h6.029l3.698-3.698c.295-1.079.502-2.184.613-3.302zm18.102-17c0-1.654-1.346-3-3-3h-18c-1.654 0-3 1.346-3 3v12c0 1.654 1.346 3 3 3h12v3.131l4.697-3.131h1.303c1.654 0 3-1.346 3-3zm2 42v8c0 2.757-2.243 5-5 5h-16c-2.757 0-5-2.243-5-5v-8c0-2.757 2.243-5 5-5h8v-4.869l7.303 4.869h.697c2.757 0 5 2.243 5 5zm-2 0c0-1.654-1.346-3-3-3h-1.303l-4.697-3.131v3.131h-10c-1.654 0-3 1.346-3 3v8c0 1.654 1.346 3 3 3h16c1.654 0 3-1.346 3-3zm-43-30h2v-2h-2zm4 0h2v-2h-2zm4-2v2h2v-2zm25.485 35h3.515v-2h-3.965c-.014-.176-.035-.351-.035-.529v-1.471h-2v1.471c0 .178-.021.353-.035.529h-3.965v2h3.515c-.557 1.428-1.569 2.666-2.914 3.473l-1.116.669 1.029 1.715 1.116-.669c.922-.553 1.713-1.272 2.37-2.092v2.904h2v-2.904c.657.82 1.448 1.539 2.37 2.092l1.116.669 1.029-1.715-1.116-.669c-1.345-.807-2.357-2.045-2.914-3.473z" fill="url(#SVGID_1_)"/></svg>