<svg id="Layer_5" enable-background="new 0 0 64 64" height="512" viewBox="0 0 64 64" width="512" xmlns="http://www.w3.org/2000/svg" xmlns:xlink="http://www.w3.org/1999/xlink"><linearGradient id="SVGID_1_" gradientUnits="userSpaceOnUse" x1="32" x2="32" y1="63" y2="1"><stop offset="0" stop-color="#9f2fff"/><stop offset="1" stop-color="#0bb1d3"/></linearGradient><path d="m50 6c-4.411 0-8 3.589-8 8s3.589 8 8 8 8-3.589 8-8-3.589-8-8-8zm0 14c-3.309 0-6-2.691-6-6s2.691-6 6-6 6 2.691 6 6-2.691 6-6 6zm0-10c-2.206 0-4 1.794-4 4s1.794 4 4 4 4-1.794 4-4-1.794-4-4-4zm0 6c-1.103 0-2-.897-2-2s.897-2 2-2 2 .897 2 2-.897 2-2 2zm10.978-6.823.836-1.748-5.242-5.244-1.749.836c-.155-.069-.313-.134-.471-.196l-.644-1.825h-7.416l-.644 1.826c-.158.062-.315.127-.471.196l-1.749-.836-2.817 2.817c-6.33 0-15.316-.001-16.61-.003h-.178l-11.068 4.025c-2.09.129-3.755 1.853-3.755 3.975l.001 36.184c-1.162.414-2.001 1.514-2.001 2.816v1h-1c-2.757 0-5 2.243-5 5s2.243 5 5 5h46.236l4-2h4.764c1.103 0 2-.897 2-2v-2c0-1.103-.897-2-2-2h-4.764l-4-2h-1.236v-26h2.708l.644-1.826c.158-.062.315-.127.471-.196l1.749.836 5.242-5.244-.836-1.748c.069-.157.135-.314.196-.471l1.826-.643v-7.415l-1.826-.645c-.062-.157-.127-.314-.196-.471zm-45.266.901 5.651-2.055-4.363 6.233v-1.256c0-1.156-.501-2.191-1.288-2.922zm-6.712 41.922c0-.551.448-1 1-1h13.559c.431 0 .813.275.949.684l.438 1.316h-15.946zm42 9h-22v-6h22zm-24-6v6h-16v-6zm-24 3c0-1.654 1.346-3 3-3h3v6h-3c-1.654 0-3-1.346-3-3zm58.001 1h-4.001v-2h4zm-6.001.382-2 1v-4.764l2 1zm-6-6.382h-21.798l1.036-1.555c.186-.278.497-.445.832-.445h4.93v-2h-4.93c-1.005 0-1.938.5-2.496 1.336l-.289.434c-.481-1.068-1.537-1.77-2.726-1.77h-12.558l-.001-36c0-1.103.897-2 2-2s2 .897 2 2v4h2.521l7-10c2.078.001 8.607.002 14.092.003l-.426.427.836 1.748c-.069.157-.135.314-.196.471l-1.827.643v7.415l1.826.645c.062.157.127.314.196.471l-.836 1.748 5.242 5.244 1.749-.836c.155.069.313.134.471.196l.644 1.825h2.708zm12-36.708-1.393.491-.156.458c-.13.38-.29.765-.477 1.146l-.214.435.639 1.334-3.242 3.242-1.335-.638-.436.214c-.375.185-.761.345-1.146.477l-.458.157-.49 1.392h-4.584l-.491-1.392-.458-.157c-.385-.132-.771-.292-1.146-.477l-.436-.214-1.335.638-3.242-3.242.639-1.334-.214-.435c-.187-.381-.347-.766-.477-1.146l-.156-.458-1.392-.491v-4.585l1.393-.491.156-.458c.13-.38.29-.765.477-1.146l.214-.435-.639-1.334 3.242-3.242 1.335.638.436-.214c.375-.185.761-.345 1.146-.477l.458-.157.49-1.391h4.584l.491 1.392.458.157c.385.132.771.292 1.146.477l.436.214 1.335-.638 3.242 3.242-.639 1.334.214.435c.187.381.347.766.477 1.146l.156.458 1.392.491zm-34 4.708h-14v14h14zm-2 12h-10v-10h10zm10-10h-6v-2h6zm-6 2h6v2h-6zm0 4h18v2h-18zm0 4h18v2h-18zm-14 6h-2v-2h2zm2-2h30v2h-30zm-4 4h34v2h-34zm0 4h34v2h-34zm17-26c2.757 0 5-2.243 5-5s-2.243-5-5-5-5 2.243-5 5 2.243 5 5 5zm0-8c1.654 0 3 1.346 3 3s-1.346 3-3 3-3-1.346-3-3 1.346-3 3-3z" fill="url(#SVGID_1_)"/></svg>