<svg id="Layer_1" enable-background="new 0 0 450 450" height="512" viewBox="0 0 450 450" width="512" xmlns="http://www.w3.org/2000/svg" xmlns:xlink="http://www.w3.org/1999/xlink"><linearGradient id="SVGID_1_" gradientTransform="matrix(1 0 0 -1 0 452)" gradientUnits="userSpaceOnUse" x1="106.886" x2="388.091" y1="388.943" y2="107.738"><stop offset="0" stop-color="#00dbde"/><stop offset="1" stop-color="#fc00ff"/></linearGradient><path d="m119.63 218.94h-82.3c-3.31 0-6-2.69-6-6s2.69-6 6-6h82.3c3.31 0 6 2.69 6 6s-2.69 6-6 6zm-41.15 0c-3.31 0-6-2.69-6-6v-18.29c0-3.31 2.69-6 6-6s6 2.69 6 6v18.29c0 3.31-2.69 6-6 6zm35.35 68.34c-.42 0-.85-.04-1.28-.14-49.58-10.76-62.68-70.44-63.21-72.97-.68-3.24 1.39-6.42 4.64-7.11 3.24-.68 6.42 1.39 7.11 4.63.12.54 12.08 54.62 54.02 63.72 3.24.7 5.29 3.9 4.59 7.14-.63 2.81-3.11 4.73-5.87 4.73zm-70.7 0c-2.76 0-5.25-1.92-5.86-4.73-.7-3.24 1.35-6.43 4.59-7.14 41.93-9.1 53.9-63.18 54.02-63.72.69-3.24 3.87-5.31 7.11-4.63 3.24.69 5.31 3.86 4.63 7.1-.53 2.54-13.63 62.21-63.21 72.97-.43.11-.85.15-1.28.15zm83.93 25.16h-4.28c-3.31 0-6-2.69-6-6s2.69-6 6-6h4.28c7.66 0 13.9-6.23 13.9-13.9v-97.17c0-7.66-6.23-13.9-13.9-13.9h-97.16c-7.66 0-13.9 6.23-13.9 13.9v97.17c0 7.66 6.23 13.9 13.9 13.9h60.74c3.31 0 6 2.69 6 6s-2.69 6-6 6h-60.74c-14.28 0-25.9-11.62-25.9-25.9v-97.17c0-14.28 11.62-25.9 25.9-25.9h97.17c14.28 0 25.9 11.62 25.9 25.9v97.17c-.01 14.29-11.63 25.9-25.91 25.9zm-4.28 32.15c-3.31 0-6-2.69-6-6v-32.14c0-3.31 2.69-6 6-6s6 2.69 6 6v32.14c0 3.31-2.68 6-6 6zm0 0c-1.54 0-3.07-.59-4.24-1.76l-32.14-32.14c-2.34-2.34-2.34-6.14 0-8.48s6.14-2.34 8.49 0l32.14 32.14c2.34 2.34 2.34 6.14 0 8.48-1.18 1.17-2.71 1.76-4.25 1.76zm275.95-174.78c-3.31 0-6-2.69-6-6v-51.66c0-11.69-9.51-21.21-21.21-21.21-11.69 0-21.2 9.51-21.2 21.21v51.66c0 3.31-2.69 6-6 6s-6-2.69-6-6v-51.66c0-18.31 14.9-33.21 33.2-33.21s33.21 14.9 33.21 33.21v51.66c0 3.31-2.69 6-6 6zm0-39.43h-54.42c-3.31 0-6-2.69-6-6s2.69-6 6-6h54.42c3.31 0 6 2.69 6 6s-2.69 6-6 6zm-71.51 100.62c-.77 0-1.55-.15-2.3-.46-2.24-.93-3.7-3.12-3.7-5.54v-26.2c-13.48-.89-24.18-12.14-24.18-25.84v-97.17c0-14.28 11.62-25.89 25.9-25.89h97.16c14.28 0 25.9 11.61 25.9 25.89v97.17c0 14.28-11.62 25.9-25.9 25.9h-58.25l-30.38 30.38c-1.16 1.15-2.69 1.76-4.25 1.76zm-4.28-169.1c-7.67 0-13.9 6.23-13.9 13.89v97.17c0 7.66 6.23 13.9 13.9 13.9h4.28c3.31 0 6 2.69 6 6v17.65l21.9-21.9c1.13-1.13 2.65-1.76 4.24-1.76h60.74c7.67 0 13.9-6.24 13.9-13.9v-97.16c0-7.66-6.23-13.89-13.9-13.89zm-96.79 361.97c-26.82 0-52.86-5.26-77.37-15.63-37.17-15.71-68.36-42.02-90.19-76.09-.05-.08-.11-.17-.15-.26-4.65-7.28-8.89-14.99-12.6-22.92-1.4-3-.11-6.57 2.89-7.98 3-1.4 6.57-.11 7.98 2.89 3.53 7.54 7.56 14.87 11.99 21.77.05.08.1.17.15.25 20.51 31.9 49.77 56.55 84.61 71.27 23.03 9.74 47.49 14.68 72.7 14.68 18.78 0 37.32-2.78 55.11-8.26 19.15-5.91 37.15-14.83 53.5-26.52.09-.07.19-.15.28-.22 48.83-35.07 77.99-91.85 77.99-151.88 0-10.46-.87-20.94-2.59-31.15-.55-3.27 1.65-6.36 4.92-6.91s6.36 1.65 6.91 4.92c1.83 10.86 2.75 22.01 2.75 33.14 0 32.11-7.83 64.01-22.65 92.26-14.29 27.23-35.04 51.13-60.04 69.16-.1.08-.19.15-.29.23-17.48 12.55-36.74 22.11-57.24 28.44-18.95 5.85-38.68 8.81-58.66 8.81zm-184.75-248.38c-.57 0-1.15-.08-1.73-.25-3.17-.95-4.98-4.3-4.02-7.47 12.03-40.11 37.15-76.17 70.73-101.55 34.72-26.23 76.13-40.09 119.76-40.09 20.14 0 40 3 59.04 8.92 12.83 3.97 25.36 9.32 37.23 15.89 2.9 1.61 3.95 5.26 2.34 8.15-1.61 2.9-5.26 3.95-8.16 2.34-11.15-6.18-22.92-11.2-34.97-14.93-17.89-5.57-36.56-8.39-55.48-8.39-81.9 0-155.51 54.73-179 133.09-.78 2.61-3.16 4.29-5.74 4.29zm22.23 159.43c-3.31 0-6-2.68-6-5.99v-.01c0-3.31 2.69-6 6-6s6 2.69 6 6-2.68 6-6 6zm155.6 23.34c-7.64 0-15.68-3.33-21.75-8.32-3.6-2.95-6.73-6.3-9.76-9.52-4.22-4.51-8.21-8.77-13-11.49-4.65-2.66-10.17-3.95-16.01-5.31-6.33-1.48-12.88-3.01-18.98-6.43-3.66-2.06-7.03-4.71-10.03-7.89-2.27-2.41-2.16-6.21.25-8.48s6.21-2.16 8.48.25c2.2 2.33 4.54 4.18 7.18 5.66 4.61 2.59 10.06 3.86 15.83 5.21 6.42 1.5 13.06 3.05 19.22 6.57 6.37 3.62 11.17 8.75 15.82 13.71 2.89 3.08 5.62 5.99 8.61 8.45 6.42 5.27 16.35 7.73 20.92 2.98 4.5-4.65 2.75-14.17 1.34-21.81-4.88-26.54-4.18-54.46 2.04-80.74.98-4.17 2.34-8.92 5.99-12.58 3.01-3.02 6.64-4.39 9.84-5.6.8-.3 1.59-.6 2.36-.93 9.86-4.14 16.88-14.47 17.08-25.14.19-10.68-6.44-21.28-16.12-25.77-10.6-4.92-23.04-2.92-36.21-.81-13.23 2.13-26.9 4.32-40.09-.28-13.95-4.88-23.9-17.09-24.76-30.37-.51-7.57 2.44-15.57 7.91-21.4 5.02-5.35 11.5-8.25 18.2-8.24 9.83.04 17.62 5.81 24.49 10.9 5.72 4.24 11.13 8.25 16.88 8.63 1.38.1 2.07-.12 2.25-.25.79-.57.35-4.42.09-6.72-.21-1.8-.42-3.67-.43-5.56-.15-18.51 19.57-28.47 39.18-30.12l1.17-.1c7.43-.62 15.12-1.26 18.92-5.7 3.46-4.04 3.4-10.96 3.08-17.13-.38-7.25-.97-14.82-1.77-22.53-.34-3.3 2.05-6.25 5.35-6.59 3.3-.35 6.24 2.05 6.59 5.35.82 7.91 1.44 15.7 1.82 23.15.32 6.13.93 17.56-5.95 25.57-7 8.18-18.11 9.11-27.04 9.85l-1.15.1c-11.38.96-28.28 6.57-28.19 18.08.01 1.26.18 2.73.35 4.29.63 5.53 1.5 13.11-4.98 17.81-2.7 1.94-6.08 2.77-10.09 2.49-9.25-.61-16.67-6.11-23.21-10.96-5.91-4.38-11.49-8.52-17.39-8.54-3.32-.03-6.69 1.57-9.41 4.46-3.23 3.43-4.98 8.07-4.68 12.38.55 8.43 7.44 16.58 16.75 19.84 10.32 3.6 21.94 1.74 34.23-.24 14.38-2.31 29.24-4.7 43.17 1.77 13.85 6.42 23.34 21.59 23.07 36.87-.29 15.52-10.1 29.97-24.42 35.98-.9.38-1.84.74-2.79 1.1-2.26.85-4.4 1.66-5.57 2.84-1.44 1.45-2.18 4.19-2.82 6.88-5.84 24.67-6.5 50.89-1.91 75.8 1.81 9.8 4.29 23.23-4.51 32.32-4.27 4.4-9.74 6.26-15.44 6.26zm119.3 29.5c-3.31 0-6-2.68-6-5.99v-.01c0-.32.03-.65.08-.97.95-5.82.06-12.56-.8-19.09-1.61-12.19-3.43-26 7.35-35.43l.55-.48c.93-.8 2.48-2.15 2.63-2.73.31-1.21-4.15-4.79-5.61-5.96l-.25-.2c-9.43-7.62-14.54-17.93-13.68-27.61.74-8.19 7.8-21.83 15.81-27.14 4.6-3.05 7.73-7.27 8.81-11.89 2.38-10.1.18-14.61-3.45-22.08-2.29-4.71-4.89-10.05-6.7-17.65-.77-3.22 1.21-6.46 4.44-7.23s6.46 1.22 7.23 4.44c1.52 6.32 3.71 10.84 5.83 15.2 3.96 8.14 7.69 15.83 4.34 30.07-1.77 7.59-6.7 14.39-13.86 19.15-4.67 3.1-10.04 13.2-10.49 18.21-.51 5.68 2.95 12.11 9.25 17.2l.24.19c4.47 3.59 11.95 9.6 9.72 18.29-1.07 4.22-4.15 6.89-6.41 8.83l-.5.43c-5.66 4.95-4.96 12.66-3.35 24.83.97 7.35 1.98 14.96.77 22.49-.43 2.89-2.93 5.13-5.95 5.13zm-55.5 27.59c-2.07 0-4.09-1.08-5.2-3-6.45-11.16-13.63-18.13-21.95-21.29-9.12-3.48-19.38-2.34-30.25-1.14-8.91.99-18.12 2.01-27.36.53-2.27-.36-4.46-.87-6.58-1.35-3.88-.89-7.53-1.73-10.96-1.55-10.2.5-18.25 9.74-24.78 18.71-1.95 2.68-5.7 3.27-8.38 1.32s-3.27-5.7-1.32-8.38c8.2-11.27 18.65-22.9 33.89-23.64 5.08-.26 9.73.81 14.24 1.85 2.01.46 3.92.9 5.79 1.2 7.63 1.22 15.65.33 24.14-.61 11.8-1.31 24.01-2.66 35.84 1.85 11.01 4.19 20.19 12.86 28.07 26.51 1.66 2.87.67 6.54-2.19 8.2-.95.53-1.98.79-3 .79z" fill="url(#SVGID_1_)"/></svg>