<svg xmlns="http://www.w3.org/2000/svg" viewBox="0 0 229.7 32.3"><defs><style>.a{fill:#fff;}</style></defs><title>logo_text</title><path class="a" d="M19.3,37a.43.43,0,0,1-.4-.4V24.1H7.5V36.5a.43.43,0,0,1-.4.4H2.9a.43.43,0,0,1-.4-.4V7.1a.43.43,0,0,1,.4-.4H7.1a.43.43,0,0,1,.4.4V19.2H18.9V7.1a.43.43,0,0,1,.4-.4h4.2a.43.43,0,0,1,.4.4V36.6a.43.43,0,0,1-.4.4Z" transform="translate(-2 -5.9)"/><path class="a" d="M23.4,7.1V36.6H19.2V23.7H7V36.5H2.8V7.1H7V19.6H19.2V7.1h4.2m0-.8H19.2a.88.88,0,0,0-.9.8V18.7H7.8V7.1A.86.86,0,0,0,7,6.3H2.9a.88.88,0,0,0-.9.8V36.6a.88.88,0,0,0,.8.9H7a.88.88,0,0,0,.9-.8V24.6H18.5v12a.88.88,0,0,0,.8.9h4.2a.88.88,0,0,0,.9-.8V7.1C24.4,6.6,24,6.3,23.4,6.3Z" transform="translate(-2 -5.9)"/><path class="a" d="M45.5,37.1c-.2,0-.3-.1-.3-.2l-3.3-8.5H32l-.8,1.7c-1,2.3-1.9,4.8-2.7,6.7a.76.76,0,0,1-.4.2H23.6c-.1,0-.2-.1-.3-.2a.19.19,0,0,1,0-.3L34.9,6.6c.1-.1.2-.2.3-.2h3.1c.2,0,.3.1.3.2L50.2,36.5v.3c-.1.1-.2.2-.3.2l-4.4.1ZM39.9,23.5l-3-8.7-3,8.7Z" transform="translate(-2 -5.9)"/><path class="a" d="M38.3,6.8,49.9,36.7H45.5L42.1,28H31.7c-1.1,2.7-2.6,6.3-3.6,8.7H23.6L35.2,6.8h3.1m-5,17.1h7.2L36.9,13.5,33.3,23.9m5-18H35.2a1,1,0,0,0-.8.5l-11.6,30a.75.75,0,0,0,.1.8.86.86,0,0,0,.6.3H28a1,1,0,0,0,.8-.5c.8-1.9,1.7-4.4,2.7-6.7l.6-1.5h9.4L44.7,37a.79.79,0,0,0,.8.5h4.4a.6.6,0,0,0,.6-.3,1.06,1.06,0,0,0,.1-.8L38.9,6.5A.58.58,0,0,0,38.3,5.9ZM34.4,23.2l2.5-7.1,2.5,7.1Z" transform="translate(-2 -5.9)"/><path class="a" d="M67.6,37.1c-.1,0-.2-.1-.3-.1L56.7,24c-.1-.1-.1-.1-.1-.2V21.9c0-.1-.1-.1-.1-.2a.43.43,0,0,1,.4-.4h4.9a4.7,4.7,0,1,0,0-9.4h-6V36.8a.43.43,0,0,1-.4.4h-4a.43.43,0,0,1-.4-.4V7.1a.43.43,0,0,1,.4-.4H62c6.5,0,9.8,5,9.8,9.8a9.25,9.25,0,0,1-7.1,9.3l8.7,10.5a.3.3,0,0,1,0,.4c-.1.1-.2.2-.3.2H67.7l-.1.2Z" transform="translate(-2 -5.9)"/><path class="a" d="M61.9,7.1c6.3,0,9.4,4.7,9.4,9.4a8.86,8.86,0,0,1-7.4,9l9.2,11.1H67.7l-10.6-13V21.5h4.7A5,5,0,0,0,67,16.9v-.5a5,5,0,0,0-4.8-5.2H55.4V36.5H51.3V7.1H61.9m0-.8H51.4a.88.88,0,0,0-.9.8V36.6a.88.88,0,0,0,.8.9h4.1a.88.88,0,0,0,.9-.8v-13a.76.76,0,0,0,.2.5L67,37.3a.71.71,0,0,0,.6.3H73a1.23,1.23,0,0,0,.8-.4,1,1,0,0,0-.1-.9L65.4,26.2a9.49,9.49,0,0,0,6.8-9.5C72,11.4,68.6,6.3,61.9,6.3Zm-5.6,5.9h5.6a4.3,4.3,0,1,1,0,8.6H57a1.23,1.23,0,0,0-.8.4l.1-9Z" transform="translate(-2 -5.9)"/><path class="a" d="M74.5,37a.43.43,0,0,1-.4-.4V7.1a.43.43,0,0,1,.4-.4H84.8c10,0,14.5,7.9,14.5,15.2S94.8,37,84.8,37Zm10.3-5c6.7,0,9.7-5.3,9.7-10.1,0-5.1-3.3-10.1-9.7-10.1H79.1V32Z" transform="translate(-2 -5.9)"/><path class="a" d="M84.8,7.1C94.3,7.1,99,14.4,99,21.9S94.3,36.6,84.8,36.6H74.5V7.1H84.8M78.7,32.4h6.1c6.7,0,10.1-5.2,10.1-10.6,0-5.2-3.4-10.5-10.1-10.5H78.7V32.4M84.8,6.3H74.5a.88.88,0,0,0-.9.8V36.6a.88.88,0,0,0,.8.9H84.7c10.3,0,15-8.1,15-15.5.1-7.7-4.6-15.7-14.9-15.7Zm-5.4,5.9h5.4c6.1,0,9.3,4.8,9.3,9.7,0,4.6-2.9,9.7-9.3,9.7H79.4Z" transform="translate(-2 -5.9)"/><path class="a" d="M121.1,18c-1.2-5.1-5.9-6.8-9.7-6.8-5.9,0-10.6,4.7-10.6,11.3s4.6,11.3,10.6,11.3a9.83,9.83,0,0,0,9.5-6.4H109.7V23H126a17,17,0,0,1-.9,5.4v-.1c-2,6-8.3,9.7-13.8,9.7-8.5,0-14.9-6.6-14.9-15.7s6.5-15.7,14.8-15.7c5.8,0,12.8,3.1,14.4,11.3Z" transform="translate(-2 -5.9)"/><path class="a" d="M134.4,22.1h5.2a5.4,5.4,0,1,0,.4-10.8h-7.3V37.9h-4.3V6.8h11c6.6,0,9.9,5,9.9,9.9a9.48,9.48,0,0,1-7.9,9.5l9.5,11.7h-5.5l-11-13.6V22.1Z" transform="translate(-2 -5.9)"/><path class="a" d="M154.7,11.1a14.66,14.66,0,0,1,11-4.7,15.2,15.2,0,0,1,11,4.7,16.19,16.19,0,0,1,0,22.4,15.22,15.22,0,0,1-22,0,16.06,16.06,0,0,1-4.5-11.2A15.64,15.64,0,0,1,154.7,11.1Zm18.6,3.1a11,11,0,0,0-15.7,0,11.66,11.66,0,0,0,0,16.1,10.72,10.72,0,0,0,7.8,3.3,11.12,11.12,0,0,0,7.9-3.3A11.86,11.86,0,0,0,173.3,14.2Z" transform="translate(-2 -5.9)"/><path class="a" d="M184.3,28.6V6.8h4.4V28.4c0,3.5,3.6,5.2,6.8,5.2s6.8-1.7,6.8-5.2V6.8h4.4V28.4c0,6.4-6,9.6-11.2,9.6-5.4.1-11.2-3.1-11.2-9.4Z" transform="translate(-2 -5.9)"/><path class="a" d="M221.9,6.8c6.6,0,9.8,5.2,9.8,10.4s-3.2,10.3-9.8,10.3h-6.7V37.8h-4.4V6.8Zm0,16.3c3.7,0,5.5-2.9,5.5-5.9s-1.8-5.9-5.5-5.9h-6.7V23C215.3,23.1,221.9,23.1,221.9,23.1Z" transform="translate(-2 -5.9)"/></svg>