<?xml version="1.0" encoding="UTF-8"?><svg enable-background="new 0 0 369.3 94.2" version="1.1" viewBox="0 0 369.3 94.2" xml:space="preserve" xmlns="http://www.w3.org/2000/svg"><style type="text/css">.st0{fill:#FFFFFF;}.st1{fill:url(#a);}</style><title>logo</title><path class="st0" d="m156.9 63.8c-0.2 0-0.4-0.2-0.4-0.4v-12.5h-11.4v12.4c0 0.2-0.2 0.4-0.4 0.4h-4.2c-0.2 0-0.4-0.2-0.4-0.4v-29.4c0-0.2 0.2-0.4 0.4-0.4h4.2c0.2 0 0.4 0.2 0.4 0.4v12.1h11.4v-12.1c0-0.2 0.2-0.4 0.4-0.4h4.2c0.2 0 0.4 0.2 0.4 0.4v29.5c0 0.2-0.2 0.4-0.4 0.4h-4.2z"/><path class="st0" d="m161 33.9v29.5h-4.2v-12.9h-12.2v12.8h-4.2v-29.4h4.2v12.5h12.2v-12.5h4.2m0-0.8h-4.2c-0.5 0-0.9 0.4-0.9 0.8v11.6h-10.5v-11.6c0-0.4-0.4-0.8-0.8-0.8h-4.1c-0.5 0-0.9 0.4-0.9 0.8v29.5c0 0.5 0.4 0.9 0.8 0.9h4.2c0.5 0 0.9-0.4 0.9-0.8v-12.1h10.6v12c0 0.5 0.4 0.9 0.8 0.9h4.2c0.5 0 0.9-0.4 0.9-0.8v-29.6c0-0.5-0.4-0.8-1-0.8z"/><path class="st0" d="m183.1 63.9c-0.2 0-0.3-0.1-0.3-0.2l-3.3-8.5h-9.9l-0.8 1.7c-1 2.3-1.9 4.8-2.7 6.7-0.1 0.1-0.3 0.2-0.4 0.2h-4.5c-0.1 0-0.2-0.1-0.3-0.2s-0.1-0.2 0-0.3l11.6-29.9c0.1-0.1 0.2-0.2 0.3-0.2h3.1c0.2 0 0.3 0.1 0.3 0.2l11.6 29.9v0.3c-0.1 0.1-0.2 0.2-0.3 0.2h-4.4v0.1zm-5.6-13.6-3-8.7-3 8.7h6z"/><path class="st0" d="m175.9 33.6 11.6 29.9h-4.4l-3.4-8.7h-10.4c-1.1 2.7-2.6 6.3-3.6 8.7h-4.5l11.6-29.9h3.1m-5 17.1h7.2l-3.6-10.4-3.6 10.4m5-18h-3.1c-0.3 0-0.6 0.2-0.8 0.5l-11.6 30c-0.1 0.3-0.1 0.6 0.1 0.8s0.4 0.3 0.6 0.3h4.5c0.3 0 0.6-0.2 0.8-0.5 0.8-1.9 1.7-4.4 2.7-6.7l0.6-1.5h9.4l3.2 8.2c0.1 0.3 0.4 0.5 0.8 0.5h4.4c0.3 0 0.5-0.1 0.6-0.3s0.2-0.5 0.1-0.8l-11.7-29.9c0-0.4-0.3-0.6-0.6-0.6zm-3.9 17.3 2.5-7.1 2.5 7.1h-5z"/><path class="st0" d="m205.2 63.9c-0.1 0-0.2-0.1-0.3-0.1l-10.6-13c-0.1-0.1-0.1-0.1-0.1-0.2v-1.9c0-0.1-0.1-0.1-0.1-0.2 0-0.2 0.2-0.4 0.4-0.4h4.9c2.6 0 4.7-2.1 4.7-4.7s-2.1-4.7-4.7-4.7h-6v24.9c0 0.2-0.2 0.4-0.4 0.4h-4c-0.2 0-0.4-0.2-0.4-0.4v-29.7c0-0.2 0.2-0.4 0.4-0.4h10.6c6.5 0 9.8 5 9.8 9.8 0.1 4.4-2.8 8.3-7.1 9.3l8.7 10.5c0.1 0.1 0.1 0.3 0 0.4s-0.2 0.2-0.3 0.2h-5.4l-0.1 0.2z"/><path class="st0" d="m199.5 33.9c6.3 0 9.4 4.7 9.4 9.4 0.1 4.4-3 8.3-7.4 9l9.2 11.1h-5.4l-10.6-13v-2.1h4.7c2.7 0.1 5-1.9 5.2-4.6v-0.5c0.1-2.8-2.1-5.1-4.8-5.2h-0.3-6.5v25.3h-4.1v-29.4h10.6m-4.9 14.6m4.9-15.4h-10.5c-0.5 0-0.9 0.4-0.9 0.8v29.5c0 0.5 0.4 0.9 0.8 0.9h4.1c0.5 0 0.9-0.4 0.9-0.8v-14.7 1.7c0 0.2 0.1 0.4 0.2 0.5l10.5 13.1c0.1 0.2 0.4 0.3 0.6 0.3h5.4c0.3 0 0.6-0.2 0.8-0.4 0.1-0.3 0.1-0.6-0.1-0.9l-8.3-10.1c4.2-1.2 6.9-5.1 6.8-9.5-0.2-5.3-3.6-10.4-10.3-10.4zm-5.6 5.9h5.6c2.4 0 4.3 1.9 4.3 4.3s-1.9 4.3-4.3 4.3h-4.9c-0.3 0-0.6 0.2-0.8 0.4l0.1-9z"/><path class="st0" d="m212.1 63.8c-0.2 0-0.4-0.2-0.4-0.4v-29.5c0-0.2 0.2-0.4 0.4-0.4h10.3c10 0 14.5 7.9 14.5 15.2s-4.5 15.1-14.5 15.1h-10.3zm10.3-5c6.7 0 9.7-5.3 9.7-10.1 0-5.1-3.3-10.1-9.7-10.1h-5.7v20.2h5.7z"/><path class="st0" d="m222.4 33.9c9.5 0 14.2 7.3 14.2 14.8s-4.7 14.7-14.2 14.7h-10.3v-29.5h10.3m-6.1 25.3h6.1c6.7 0 10.1-5.2 10.1-10.6 0-5.2-3.4-10.5-10.1-10.5h-6.1v21.1m6.1-26.1h-10.3c-0.5 0-0.9 0.4-0.9 0.8v29.5c0 0.5 0.4 0.9 0.8 0.9h10.3c10.3 0 15-8.1 15-15.5 0.1-7.7-4.6-15.7-14.9-15.7zm-5.4 5.9h5.4c6.1 0 9.3 4.8 9.3 9.7 0 4.6-2.9 9.7-9.3 9.7h-5.4v-19.4z"/><path class="st0" d="m258.7 44.8c-1.2-5.1-5.9-6.8-9.7-6.8-5.9 0-10.6 4.7-10.6 11.3s4.6 11.3 10.6 11.3c4.2 0.1 8-2.4 9.5-6.4h-11.2v-4.4h16.3c0 1.8-0.3 3.6-0.9 5.4v-0.1c-2 6-8.3 9.7-13.8 9.7-8.5 0-14.9-6.6-14.9-15.7s6.5-15.7 14.8-15.7c5.8 0 12.8 3.1 14.4 11.3 0.1 0-4.5 0.1-4.5 0.1z"/><path class="st0" d="m272 48.9h5.2c3 0.1 5.5-2.2 5.6-5.2s-2.2-5.5-5.2-5.6h-0.5-6.8v26.6h-4.3v-31.1h11c6.6 0 9.9 5 9.9 9.9 0.1 4.7-3.3 8.7-7.9 9.5l9.5 11.7h-5.5l-11-13.6v-2.2z"/><path class="st0" d="m292.3 37.9c2.8-3 6.8-4.8 11-4.7 4.2 0 8.1 1.7 11 4.7s4.5 7 4.5 11.2-1.6 8.2-4.5 11.2-6.8 4.7-11 4.7-8.1-1.7-11-4.7-4.5-7-4.5-11.2c-0.1-4.2 1.6-8.2 4.5-11.2zm18.6 3.1c-2.1-2.1-4.9-3.3-7.9-3.3-2.9 0-5.7 1.2-7.8 3.3-4.3 4.5-4.3 11.6 0 16.1 2 2.1 4.8 3.3 7.8 3.3s5.8-1.2 7.9-3.3c4.2-4.5 4.2-11.5 0-16.1z"/><path class="st0" d="m321.9 55.4v-21.8h4.4v21.6c0 3.5 3.6 5.2 6.8 5.2s6.8-1.7 6.8-5.2v-21.6h4.4v21.6c0 6.4-6 9.6-11.2 9.6-5.4 0.1-11.2-3.1-11.2-9.4z"/><path class="st0" d="m359.5 33.6c6.6 0 9.8 5.2 9.8 10.4s-3.2 10.3-9.8 10.3h-6.7v10.3h-4.4v-31h11.1zm0 16.3c3.7 0 5.5-2.9 5.5-5.9s-1.8-5.9-5.5-5.9h-6.7v11.7c0.1 0.1 6.7 0.1 6.7 0.1z"/><linearGradient id="a" x1="3.4" x2="134.4" y1="515.86" y2="515.86" gradientTransform="translate(-3.4 -468.76)" gradientUnits="userSpaceOnUse"><stop stop-color="#1273EB" offset="0"/><stop stop-color="#0cf" offset="1"/></linearGradient><path class="st1" d="m123.8 94.2h-116.6c-4 0-7.2-3.2-7.2-7.2v-79.8c0-4 3.2-7.2 7.2-7.2h116.6c4 0 7.2 3.2 7.2 7.2v79.8c0 4-3.2 7.2-7.2 7.2z"/><path class="st0" d="m15.9 77.9c-2.9 0-5.2-2.3-5.2-5.2v-52.4c0-2.9 2.3-5.2 5.2-5.2s5.2 2.3 5.2 5.2v52.3c0 2.9-2.3 5.2-5.2 5.3z"/><path class="st0" d="m72.8 51.4h-41.4c-2.8 0-5-2.2-5-5s2.2-5 5-5h41.4c2.8 0 5 2.2 5 5s-2.2 5-5 5z"/><path class="st0" d="M58.9,39.6V20.2c0-2.8-2.2-5-5-5h-0.3c-2.8,0-5,2.2-5,5v19.5H59v-0.1H58.9z"/><path class="st0" d="m88 41.5"/><path class="st0" d="m88 51.5"/><path class="st0" d="m120.1 26.6c-9.5-10.7-24.6-14.3-37.9-9-9.6 3.8-16.7 12-19.1 22h10.6c1.7-4.6 4.8-8.6 9-11.2 8.6-5.3 19.6-4.3 27.1 2.4 1.2 1 2.4 2.1 3.5 3.3 2.4-2.5 4.6-4.9 6.9-7.2 0-0.1-0.1-0.2-0.1-0.3z"/><path class="st0" d="m87.9 41.5"/><path class="st0" d="m87.9 51.5"/><path class="st0" d="m88 41.5c-2.8 0-5 2.2-5 5 0 2.7 2.2 4.9 4.9 4.9h21.5v16.2c-0.7 0-1.3 0.1-1.9 0.1h-12.3c-1.9 0.1-3.8-0.1-5.6-0.6-7.4-1.5-13.4-6.8-16-13.9h-10.6c0 0.1 0 0.3 0.1 0.4 3.3 13.6 16.6 23.8 31.2 24 8 0 24.8-0.1 25.4-0.3 0-6.5 0.1-22.2 0.3-30.5v-5.4c-10.5 0.2-21.3 0.2-32 0.1z"/><path class="st0" d="m47.9 53.6v20.3c0 2.8 2.3 5.2 5.1 5.2h0.1 0.3c2.8 0 5.2-2.3 5.2-5.1v-0.1-20.3h-10.7z"/></svg>