<?xml version="1.0" encoding="utf-8"?>
<svg version="1.1" id="Livello_1" xmlns="http://www.w3.org/2000/svg" xmlns:xlink="http://www.w3.org/1999/xlink" x="0px" y="0px"
	 viewBox="0 0 373 100" style="enable-background:new 0 0 373 100;" xml:space="preserve">
<style type="text/css">
	.st0{fill:#333333;}
	.st1{fill:url(#SVGID_1_);}
	.st2{fill:#FFFFFF;}
</style>
<g>
	<g>
		<g>
			<path class="st0" d="M167.3,65.6c-0.2,0-0.4-0.2-0.4-0.4V53.7h-10.6v11.5c0,0.2-0.2,0.4-0.4,0.4H152c-0.2,0-0.4-0.2-0.4-0.4V37.9
				c0-0.2,0.2-0.4,0.4-0.4h3.9c0.2,0,0.4,0.2,0.4,0.4v11.2h10.6V37.9c0-0.2,0.2-0.4,0.4-0.4h3.9c0.2,0,0.4,0.2,0.4,0.4v27.4
				c0,0.2-0.2,0.4-0.4,0.4h-3.9V65.6z"/>
			<path class="st0" d="M171.1,37.9v27.4h-3.9v-12h-11.3v11.9H152V37.9h3.9v11.6h11.3V37.9H171.1 M171.1,37.1h-3.9
				c-0.4,0-0.8,0.3-0.8,0.8v10.8h-9.8V37.9c0-0.4-0.3-0.8-0.8-0.8H152c-0.4,0-0.8,0.3-0.8,0.8v27.4c0,0.4,0.3,0.8,0.8,0.8h3.9
				c0.4,0,0.8-0.3,0.8-0.8V54.1h9.8v11.1c0,0.4,0.3,0.8,0.8,0.8h3.9c0.4,0,0.8-0.3,0.8-0.8V37.9C171.9,37.5,171.6,37.1,171.1,37.1
				L171.1,37.1z"/>
		</g>
		<g>
			<path class="st0" d="M191.6,65.7c-0.2,0-0.3-0.1-0.3-0.2l-3.1-7.9H179l-0.7,1.6c-0.9,2.1-1.8,4.5-2.5,6.2
				c-0.1,0.1-0.2,0.2-0.4,0.2h-4.2c-0.1,0-0.2-0.1-0.3-0.2s-0.1-0.2,0-0.3l10.8-27.8c0.1-0.1,0.2-0.2,0.3-0.2h2.9
				c0.2,0,0.3,0.1,0.3,0.2L196,65.1c0,0.1,0,0.2,0,0.3c-0.1,0.1-0.2,0.2-0.3,0.2h-4.1V65.7z M186.4,53.1l-2.8-8.1l-2.8,8.1H186.4z"
				/>
			<path class="st0" d="M184.9,37.6l10.8,27.8h-4.1l-3.2-8.1h-9.7c-1,2.5-2.4,5.8-3.3,8.1h-4.2L182,37.6L184.9,37.6 M180.3,53.5h6.7
				l-3.3-9.7L180.3,53.5 M184.9,36.8H182c-0.3,0-0.6,0.2-0.7,0.5l-10.8,27.8c-0.1,0.2-0.1,0.5,0.1,0.7s0.4,0.3,0.6,0.3h4.2
				c0.3,0,0.6-0.2,0.7-0.5c0.7-1.8,1.6-4.1,2.5-6.2l0.6-1.4h8.7l3,7.6c0.1,0.3,0.4,0.5,0.7,0.5h4.1c0.2,0,0.5-0.1,0.6-0.3
				s0.2-0.5,0.1-0.7l-10.8-27.8C185.5,37,185.3,36.8,184.9,36.8L184.9,36.8z M181.3,52.8l2.3-6.6l2.3,6.6H181.3L181.3,52.8z"/>
		</g>
		<g>
			<path class="st0" d="M212.1,65.7c-0.1,0-0.2-0.1-0.3-0.1L202,53.5c-0.1-0.1-0.1-0.2-0.1-0.2v-1.7c0-0.1-0.1-0.1-0.1-0.2
				c0-0.2,0.2-0.4,0.4-0.4h4.5c3.1,0,4.5-2.3,4.5-4.4s-1.4-4.4-4.5-4.4h-5.6v23.1c0,0.2-0.2,0.4-0.4,0.4H197c-0.2,0-0.4-0.2-0.4-0.4
				V37.9c0-0.2,0.2-0.4,0.4-0.4h9.8c6,0,9.1,4.6,9.1,9.1c0,4.3-2.6,7.6-6.6,8.6l8.1,9.8c0.1,0.1,0.1,0.3,0,0.4s-0.2,0.2-0.3,0.2
				L212.1,65.7L212.1,65.7z"/>
			<path class="st0" d="M206.8,37.9c5.8,0,8.7,4.4,8.7,8.7c0,3.9-2.3,7.5-6.9,8.4l8.5,10.3h-5l-9.8-12.1v-1.9h4.4
				c3.3,0,4.8-2.4,4.8-4.8s-1.6-4.8-4.8-4.8h-5.9v23.5H197V37.9H206.8 M202.3,51.4L202.3,51.4 M202.3,51.4L202.3,51.4L202.3,51.4
				 M206.8,37.1H197c-0.4,0-0.8,0.3-0.8,0.8v27.4c0,0.4,0.3,0.8,0.8,0.8h3.8c0.4,0,0.8-0.3,0.8-0.8V51.7l0,0v1.6
				c0,0.2,0.1,0.3,0.2,0.5l9.8,12.1c0.1,0.2,0.4,0.3,0.6,0.3h5c0.3,0,0.6-0.2,0.7-0.4c0.1-0.3,0.1-0.6-0.1-0.8l-7.7-9.4
				c3.9-1.2,6.3-4.6,6.3-8.8C216.2,41.9,213,37.1,206.8,37.1L206.8,37.1z M201.6,42.6h5.2c2.8,0,4.1,2,4.1,4s-1.3,4-4.1,4h-4.4l0,0
				h-0.1c-0.3,0-0.6,0.2-0.7,0.4V42.6L201.6,42.6z"/>
		</g>
		<g>
			<path class="st0" d="M218.5,65.6c-0.2,0-0.4-0.2-0.4-0.4V37.9c0-0.2,0.2-0.4,0.4-0.4h9.6c9.3,0,13.5,7.3,13.5,14.1
				s-4.2,14-13.5,14H218.5z M228.1,61c6.2,0,9-4.9,9-9.4c0-4.7-3.1-9.4-9-9.4h-5.3V61H228.1z"/>
			<path class="st0" d="M228.1,37.9c8.8,0,13.2,6.8,13.2,13.7c0,6.8-4.4,13.6-13.2,13.6h-9.6V37.9H228.1 M222.4,61.4h5.7
				c6.2,0,9.4-4.8,9.4-9.8c0-4.8-3.2-9.8-9.4-9.8h-5.7V61.4 M228.1,37.1h-9.6c-0.4,0-0.8,0.3-0.8,0.8v27.4c0,0.4,0.3,0.8,0.8,0.8
				h9.6c9.6,0,13.9-7.5,13.9-14.4C242,44.6,237.6,37.1,228.1,37.1L228.1,37.1z M223.1,42.6h5c5.7,0,8.6,4.5,8.6,9c0,4.3-2.7,9-8.6,9
				h-5V42.6L223.1,42.6z"/>
		</g>
	</g>
	<g>
		<path class="st0" d="M261.8,48c-1.1-4.7-5.5-6.3-9-6.3c-5.5,0-9.8,4.4-9.8,10.5s4.3,10.5,9.8,10.5c3.5,0,7.1-1.7,8.8-5.9h-10.4
			v-4.1h15.1c-0.2,2.5-0.4,4-0.8,5v-0.1c-1.9,5.6-7.7,9-12.8,9c-7.9,0-13.8-6.1-13.8-14.6c0-8.6,6.1-14.6,13.8-14.6
			c5.4,0,11.9,2.9,13.4,10.5L261.8,48L261.8,48z"/>
		<path class="st0" d="M274.1,51.8h4.8c3.4,0,5.1-2.5,5.1-5s-1.7-5-5.1-5h-6.3v24.7h-4V37.6h10.2c6.1,0,9.2,4.6,9.2,9.2
			c0,4-2.5,7.9-7.3,8.8l8.9,10.9h-5.2l-10.2-12.6v-2.1H274.1z"/>
		<path class="st0" d="M293,41.6c2.5-2.7,6.2-4.4,10.2-4.4s7.5,1.7,10.2,4.4c2.5,2.7,4.2,6.3,4.2,10.4s-1.7,7.8-4.2,10.4
			c-2.6,2.7-6.2,4.4-10.2,4.4s-7.5-1.7-10.2-4.4c-2.5-2.7-4.2-6.3-4.2-10.4S290.4,44.2,293,41.6z M310.3,44.5
			c-1.9-1.9-4.5-3.1-7.3-3.1s-5.3,1.2-7.2,3.1c-1.8,1.9-3,4.5-3,7.5s1.2,5.6,3,7.5s4.4,3.1,7.2,3.1c2.8,0,5.4-1.2,7.3-3.1
			c1.8-1.9,2.9-4.5,2.9-7.5S312.1,46.4,310.3,44.5z"/>
		<path class="st0" d="M320.5,57.8V37.6h4.1v20.1c0,3.2,3.3,4.8,6.3,4.8c2.9,0,6.3-1.6,6.3-4.8V37.6h4.1v20.1
			c0,5.9-5.6,8.9-10.4,8.9C325.9,66.7,320.5,63.7,320.5,57.8z"/>
		<path class="st0" d="M355.4,37.6c6.1,0,9.1,4.8,9.1,9.7s-3,9.6-9.1,9.6h-6.2v9.6h-4.1V37.6H355.4z M355.4,52.7
			c3.4,0,5.1-2.7,5.1-5.5s-1.7-5.5-5.1-5.5h-6.2v10.9C349.3,52.7,355.4,52.7,355.4,52.7z"/>
	</g>
</g>
<linearGradient id="SVGID_1_" gradientUnits="userSpaceOnUse" x1="3.4" y1="52" x2="134.4" y2="52" gradientTransform="matrix(1 0 0 -1 0 102)">
	<stop  offset="0" style="stop-color:#1273EB"/>
	<stop  offset="1" style="stop-color:#00CCFF"/>
</linearGradient>
<path class="st1" d="M127.2,97.1H10.6c-3.9,0-7.2-3.2-7.2-7.2V10.1c0-3.9,3.2-7.2,7.2-7.2h116.6c3.9,0,7.2,3.2,7.2,7.2v79.8
	C134.4,93.8,131.2,97.1,127.2,97.1z"/>
<g id="LOGO_1_">
	<path id="H_1_" class="st2" d="M19.3,80.8L19.3,80.8c-2.8,0-5.2-2.4-5.2-5.2V23.2c0-2.8,2.4-5.2,5.2-5.2l0,0c2.8,0,5.2,2.4,5.2,5.2
		v52.3C24.4,78.4,22.1,80.8,19.3,80.8z"/>
	<path id="UNIONE_2_" class="st2" d="M72.7,54.3H31.3c-2.8,0-5-2.2-5-5s2.2-5,5-5h41.4c2.8,0,5,2.2,5,5S75.5,54.3,72.7,54.3z"/>
</g>
<g>
	<path class="st2" d="M62.3,23.1c0-2.8-2.2-5-5-5H57c-2.8,0-5,2.2-5,5v18.2h10.3C62.3,36.9,62.3,23.1,62.3,23.1z"/>
	<path class="st2" d="M86.1,31.3c8.4-5.3,19.4-4.3,27.1,2.4c1.2,1,2.4,2.1,3.5,3.3c2.4-2.5,4.6-4.9,6.9-7.2c0-0.1-0.1-0.2-0.1-0.3
		c-9.2-10.6-24.8-14.3-37.9-9c-9.5,3.9-16.3,11.7-18.8,20.8h10.8C79.3,37.4,82.1,33.8,86.1,31.3z"/>
	<path class="st2" d="M91.4,44.4c-2.8,0-5,2.2-5,5c0,2.7,2.2,4.9,4.9,4.9c0,0,0,0,0.1,0c7.2,0,14.2,0,21.4,0c0,5,0,9.8,0,14.6
		c0,0.4,0,1,0,1.6c-0.7,0-1.3,0.1-1.9,0.1c-4.1,0-8.1,0-12.3,0c-1.9,0-3.8-0.1-5.6-0.6c-6.9-1.4-12.7-6.2-15.4-12.5H66.8
		c3.7,13.1,16.7,22.8,30.9,23c8,0,24.8-0.1,25.4-0.3c0-6.5,0.1-22.2,0.3-30.5c0-0.9,0-1.8,0-2.7s0-1.8,0-2.7
		C112.9,44.5,102.1,44.5,91.4,44.4z"/>
	<path class="st2" d="M51.3,76.8c0,2.9,2.3,5.2,5.2,5.2h0.3c2.9,0,5.2-2.3,5.2-5.2V57.5H51.3V76.8z"/>
</g>
</svg>
