<?xml version="1.0" encoding="utf-8"?>
<!-- Generator: Adobe Illustrator 24.0.0, SVG Export Plug-In . SVG Version: 6.00 Build 0)  -->
<svg version="1.1" id="Livello_1" xmlns="http://www.w3.org/2000/svg" xmlns:xlink="http://www.w3.org/1999/xlink" x="0px" y="0px"
	 viewBox="0 0 232.7 42.5" style="enable-background:new 0 0 232.7 42.5;" xml:space="preserve">
<style type="text/css">
	.st0{fill:#FFFFFF;}
</style>
<title>logo</title>
<path class="st0" d="M19.3,37c-0.2,0-0.4-0.2-0.4-0.4V24.1H7.5v12.4c0,0.2-0.2,0.4-0.4,0.4H2.9c-0.2,0-0.4-0.2-0.4-0.4V7.1
	c0-0.2,0.2-0.4,0.4-0.4h4.2c0.2,0,0.4,0.2,0.4,0.4v12.1h11.4V7.1c0-0.2,0.2-0.4,0.4-0.4h4.2c0.2,0,0.4,0.2,0.4,0.4v29.5
	c0,0.2-0.2,0.4-0.4,0.4C23.5,37,19.3,37,19.3,37z"/>
<path class="st0" d="M23.4,7.1v29.5h-4.2V23.7H7v12.8H2.8V7.1H7v12.5h12.2V7.1H23.4 M23.4,6.3h-4.2c-0.5,0-0.9,0.4-0.9,0.8v11.6H7.8
	V7.1c0-0.4-0.4-0.8-0.8-0.8H2.9C2.4,6.3,2,6.7,2,7.1v29.5c0,0.5,0.4,0.9,0.8,0.9H7c0.5,0,0.9-0.4,0.9-0.8V24.6h10.6v12
	c0,0.5,0.4,0.9,0.8,0.9h4.2c0.5,0,0.9-0.4,0.9-0.8V7.1C24.4,6.6,24,6.3,23.4,6.3z"/>
<path class="st0" d="M45.5,37.1c-0.2,0-0.3-0.1-0.3-0.2l-3.3-8.5H32l-0.8,1.7c-1,2.3-1.9,4.8-2.7,6.7c-0.1,0.1-0.3,0.2-0.4,0.2h-4.5
	c-0.1,0-0.2-0.1-0.3-0.2s-0.1-0.2,0-0.3L34.9,6.6c0.1-0.1,0.2-0.2,0.3-0.2h3.1c0.2,0,0.3,0.1,0.3,0.2l11.6,29.9v0.3
	C50.1,36.9,50,37,49.9,37L45.5,37.1L45.5,37.1L45.5,37.1z M39.9,23.5l-3-8.7l-3,8.7H39.9z"/>
<path class="st0" d="M38.3,6.8l11.6,29.9h-4.4L42.1,28H31.7c-1.1,2.7-2.6,6.3-3.6,8.7h-4.5L35.2,6.8H38.3 M33.3,23.9h7.2l-3.6-10.4
	L33.3,23.9 M38.3,5.9h-3.1c-0.3,0-0.6,0.2-0.8,0.5l-11.6,30c-0.1,0.3-0.1,0.6,0.1,0.8s0.4,0.3,0.6,0.3H28c0.3,0,0.6-0.2,0.8-0.5
	c0.8-1.9,1.7-4.4,2.7-6.7l0.6-1.5h9.4l3.2,8.2c0.1,0.3,0.4,0.5,0.8,0.5h4.4c0.3,0,0.5-0.1,0.6-0.3s0.2-0.5,0.1-0.8L38.9,6.5
	C38.9,6.1,38.6,5.9,38.3,5.9z M34.4,23.2l2.5-7.1l2.5,7.1H34.4z"/>
<path class="st0" d="M67.6,37.1c-0.1,0-0.2-0.1-0.3-0.1L56.7,24c-0.1-0.1-0.1-0.1-0.1-0.2v-1.9c0-0.1-0.1-0.1-0.1-0.2
	c0-0.2,0.2-0.4,0.4-0.4h4.9c2.6,0,4.7-2.1,4.7-4.7s-2.1-4.7-4.7-4.7h-6v24.9c0,0.2-0.2,0.4-0.4,0.4h-4c-0.2,0-0.4-0.2-0.4-0.4V7.1
	c0-0.2,0.2-0.4,0.4-0.4H62c6.5,0,9.8,5,9.8,9.8c0.1,4.4-2.8,8.3-7.1,9.3l8.7,10.5c0.1,0.1,0.1,0.3,0,0.4s-0.2,0.2-0.3,0.2h-5.4
	L67.6,37.1L67.6,37.1z"/>
<path class="st0" d="M61.9,7.1c6.3,0,9.4,4.7,9.4,9.4c0.1,4.4-3,8.3-7.4,9l9.2,11.1h-5.4l-10.6-13v-2.1h4.7c2.7,0.1,5-1.9,5.2-4.6
	v-0.5c0.1-2.8-2.1-5.1-4.8-5.2h-0.3h-6.5v25.3h-4.1V7.1H61.9 M61.9,6.3H51.4c-0.5,0-0.9,0.4-0.9,0.8v29.5c0,0.5,0.4,0.9,0.8,0.9h4.1
	c0.5,0,0.9-0.4,0.9-0.8V22v1.7c0,0.2,0.1,0.4,0.2,0.5L67,37.3c0.1,0.2,0.4,0.3,0.6,0.3H73c0.3,0,0.6-0.2,0.8-0.4
	c0.1-0.3,0.1-0.6-0.1-0.9l-8.3-10.1c4.2-1.2,6.9-5.1,6.8-9.5C72,11.4,68.6,6.3,61.9,6.3z M56.3,12.2h5.6c2.4,0,4.3,1.9,4.3,4.3
	s-1.9,4.3-4.3,4.3H57c-0.3,0-0.6,0.2-0.8,0.4L56.3,12.2L56.3,12.2z"/>
<path class="st0" d="M74.5,37c-0.2,0-0.4-0.2-0.4-0.4V7.1c0-0.2,0.2-0.4,0.4-0.4h10.3c10,0,14.5,7.9,14.5,15.2S94.8,37,84.8,37
	C84.8,37,74.5,37,74.5,37z M84.8,32c6.7,0,9.7-5.3,9.7-10.1c0-5.1-3.3-10.1-9.7-10.1h-5.7V32H84.8z"/>
<path class="st0" d="M84.8,7.1c9.5,0,14.2,7.3,14.2,14.8s-4.7,14.7-14.2,14.7H74.5V7.1H84.8 M78.7,32.4h6.1
	c6.7,0,10.1-5.2,10.1-10.6c0-5.2-3.4-10.5-10.1-10.5h-6.1V32.4 M84.8,6.3H74.5c-0.5,0-0.9,0.4-0.9,0.8v29.5c0,0.5,0.4,0.9,0.8,0.9
	h10.3c10.3,0,15-8.1,15-15.5C99.8,14.3,95.1,6.3,84.8,6.3L84.8,6.3z M79.4,12.2h5.4c6.1,0,9.3,4.8,9.3,9.7c0,4.6-2.9,9.7-9.3,9.7
	h-5.4V12.2z"/>
<path class="st0" d="M121.1,18c-1.2-5.1-5.9-6.8-9.7-6.8c-5.9,0-10.6,4.7-10.6,11.3s4.6,11.3,10.6,11.3c4.2,0.1,8-2.4,9.5-6.4h-11.2
	V23H126c0,1.8-0.3,3.6-0.9,5.4v-0.1c-2,6-8.3,9.7-13.8,9.7c-8.5,0-14.9-6.6-14.9-15.7s6.5-15.7,14.8-15.7c5.8,0,12.8,3.1,14.4,11.3
	C125.7,17.9,121.1,18,121.1,18z"/>
<path class="st0" d="M134.4,22.1h5.2c3,0.1,5.5-2.2,5.6-5.2s-2.2-5.5-5.2-5.6h-0.5h-6.8v26.6h-4.3V6.8h11c6.6,0,9.9,5,9.9,9.9
	c0.1,4.7-3.3,8.7-7.9,9.5l9.5,11.7h-5.5l-11-13.6L134.4,22.1L134.4,22.1z"/>
<path class="st0" d="M154.7,11.1c2.8-3,6.8-4.8,11-4.7c4.2,0,8.1,1.7,11,4.7s4.5,7,4.5,11.2s-1.6,8.2-4.5,11.2s-6.8,4.7-11,4.7
	s-8.1-1.7-11-4.7s-4.5-7-4.5-11.2C150.1,18.1,151.8,14.1,154.7,11.1z M173.3,14.2c-2.1-2.1-4.9-3.3-7.9-3.3c-2.9,0-5.7,1.2-7.8,3.3
	c-4.3,4.5-4.3,11.6,0,16.1c2,2.1,4.8,3.3,7.8,3.3s5.8-1.2,7.9-3.3C177.5,25.8,177.5,18.8,173.3,14.2z"/>
<path class="st0" d="M184.3,28.6V6.8h4.4v21.6c0,3.5,3.6,5.2,6.8,5.2s6.8-1.7,6.8-5.2V6.8h4.4v21.6c0,6.4-6,9.6-11.2,9.6
	C190.1,38.1,184.3,34.9,184.3,28.6L184.3,28.6z"/>
<path class="st0" d="M221.9,6.8c6.6,0,9.8,5.2,9.8,10.4s-3.2,10.3-9.8,10.3h-6.7v10.3h-4.4v-31H221.9z M221.9,23.1
	c3.7,0,5.5-2.9,5.5-5.9s-1.8-5.9-5.5-5.9h-6.7V23C215.3,23.1,221.9,23.1,221.9,23.1z"/>
</svg>
